<?xml version="1.0" encoding="utf-8" ?>
<svg baseProfile="full" height="200mm" version="1.1" viewBox="0,0,200,200" width="200mm" xmlns="http://www.w3.org/2000/svg" xmlns:ev="http://www.w3.org/2001/xml-events" xmlns:xlink="http://www.w3.org/1999/xlink"><defs /><rect fill="#1a1a1a" height="200" width="200" x="0" y="0" /><text alignment-baseline="middle" fill="#e1ed5e" style="dominant-baseline: central; font-size:9.0px; font-family:Arial;" text-anchor="middle" x="100.0" y="100.0">2025</text><line stroke="#e1ed5e" stroke-width="0.3" x1="100.0" x2="100.0" y1="15.0" y2="10.0" /><path d="M 100.0 14.0 a86.0,86.0 0 0,1 42.46469731375804,11.215312516191453" fill="none" id="id37" stroke="none" /><text fill="#e1ed5e" style="font-size:6.75px; font-family:Arial;" text-anchor="middle"><textPath startOffset="22.20632615414155" xlink:href="#id37">January</textPath></text><path d="M 100.0 79.0 l 0.0 -10.530647799770978 a31.53064779977098,31.53064779977098 0 0,0 0.5427482704016431,0.0046716057150912186 l -0.18126779112911476 10.529087570664446" fill="#ff2e04" stroke="none" /><path d="M 101.44485096284872 79.0497635885617 l 3.4520103274347944 -50.0539047376181 a71.17279895305089,71.17279895305089 0 0,0 1.2214940472962492,0.09481144714403454 l -4.313094564093385 49.9870680282856" fill="#3bff9d" stroke="none" /><path d="M 102.16513564639614 79.11191278185805 l 1.5811308979630636 -15.253917303021947 a36.33564371012596,36.33564371012596 0 0,0 0.6215701461945078,0.06984064825672356 l -1.8434677476672967 15.224440701294622" fill="#ff790b" stroke="none" /><path d="M 103.2404852339499 79.25152402106235 l 2.524147995203275 -16.161846225085565 a37.357768689677734,37.357768689677734 0 0,0 0.6344964293060776,0.10469734741069599 l -2.8019736306482277 16.116002614735244" fill="#ff880c" stroke="none" /><path d="M 103.59715602781102 79.31037775812273 l 3.123911991781836 -17.96768294929017 a39.23722722067725,39.23722722067725 0 0,0 0.664426163526995,0.12141963447940049 l -3.4327332764117315 17.911247833460035" fill="#ffa40f" stroke="none" /><path d="M 103.95276090670814 79.375362276772 l 4.179629670216019 -21.80838907285459 a43.205295272370364,43.205295272370364 0 0,0 0.7292099015913934,0.1462726462086489 l -4.554405981274538 21.733212470568734" fill="#ffdd14" stroke="none" /><path d="M 104.66035177308747 79.52364482259891 l 3.9254318002483544 -17.247310864110936 a38.688378864714544,38.688378864714544 0 0,0 0.6480788225917291,0.1533793187204907 l -4.221734309802607 17.17718563324958" fill="#ff9c0e" stroke="none" /><path d="M 105.01212808612495 79.60689891045804 l 4.21927105693048 -17.167163270698737 a38.67805823654507,38.67805823654507 0 0,0 0.6451704763421282,0.16446831973950082 l -4.514150421957633 17.09199195479037" fill="#ff9c0e" stroke="none" /><path d="M 105.36241919743992 79.69619591428918 l 4.567963841876882 -17.295746472106757 a38.88879928022247,38.88879928022247 0 0,0 0.6457431616461433,0.1765059991671403 l -4.865004892746736 17.214553932113326" fill="#ff9f0e" stroke="none" /><path d="M 105.71112130821622 79.79150937346287 l 6.191490259924092 -21.9082499091674 a43.76633404220513,43.76633404220513 0 0,0 0.7232069546204458,0.21112394169417212 l -6.567687432267965 21.79842763855452" fill="#ffe515" stroke="none" /><path d="M 106.0581310904928 79.89281104454417 l 4.46119323777022 -14.806885829760231 a36.46434974644201,36.46434974644201 0 0,0 0.5994298527173331,0.18624577311428406 l -4.715408463198271 14.727899921763427" fill="#ff7b0b" stroke="none" /><path d="M 106.40334571778207 80.00007090966166 l 12.166753416008412 -38.00110384545719 a60.90130050711598,60.90130050711598 0 0,0 0.9956410767556898,0.32824720915093075 l -12.819077315006519 37.78604291204702" fill="#43ff2d" stroke="none" /><path d="M 107.08798089147638 80.2323363322302 l 6.658728289732636 -18.57052146469339 a40.72822672991984,40.72822672991984 0 0,0 0.6578921117490758,0.2423072169371087 l -6.9774027272542885 18.453150979949957" fill="#ffba11" stroke="none" /><path d="M 107.4271985657038 80.35727306442388 l 8.264820840066939 -21.857988243715408 a44.36833142483232,44.36833142483232 0 0,0 0.7120416490972763,0.27626109761900747 l -8.639845654163882 21.712484442205852" fill="#ffed16" stroke="none" /><path d="M 107.76421540070413 80.48803036053334 l 5.981203823396728 -15.031147564375262 a37.17745951251432,37.17745951251432 0 0,0 0.5925664469791994,0.24172273218021736 l -6.239054139964315 14.925963946011464" fill="#ff850c" stroke="none" /><path d="M 108.09893153111575 80.62456947434976 l 9.459062204903624 -22.629331027776388 a45.52672991984295,45.52672991984295 0 0,0 0.7204415146217824,0.30845545825265663 l -9.847187477315721 22.46315604156094" fill="#fffd17" stroke="none" /><path d="M 108.43124777332544 80.76684994638697 l 7.329203634761573 -16.719194723091004 a39.25510060526746,39.25510060526746 0 0,0 0.6165254343334632,0.2766169911003711 l -7.6159111875618155 16.5905574014741" fill="#ffa40f" stroke="none" /><path d="M 110.05341064243156 81.56283822128135 l 7.950887268023604 -14.581299825374515 a37.608158023883526,37.608158023883526 0 0,0 0.5656910082912886,0.31480643365344263 l -8.200702365386928 14.442277994160893" fill="#ff8c0c" stroke="none" /><line stroke="#e1ed5e" stroke-width="0.3" x1="143.23703022742887" x2="145.7803849466894" y1="26.81831364943548" y2="22.513508569990506" /><path d="M 143.74570117128098 25.957352633546492 a86.0,86.0 0 0,1 28.547481713284135,27.462654790039103" fill="none" id="id38" stroke="none" /><text fill="#e1ed5e" style="font-size:6.75px; font-family:Arial;" text-anchor="middle"><textPath startOffset="19.985693538727396" xlink:href="#id38">February</textPath></text><path d="M 110.68208982089419 81.91981866633111 l 11.489558553935312 -19.44687842753672 a43.58740880091608,43.58740880091608 0 0,0 0.642681676192515,0.38720851889163416 l -11.822602296345465 19.24622329918647" fill="#ffe215" stroke="none" /><path d="M 111.90073688211348 82.69761687909136 l 11.475009719929064 -16.683421913879275 a41.24876329134631,41.24876329134631 0 0,0 0.5815463972025063,0.407410415422276 l -11.760487256715221 16.483426655693062" fill="#ffc112" stroke="none" /><path d="M 112.48926042617603 83.11751280151076 l 9.062262936619488 -12.250007830420888 a36.23769344020939,36.23769344020939 0 0,0 0.4982749218945275,0.3752903408484915 l -9.271784012272398 12.092200900066548" fill="#ff770b" stroke="none" /><path d="M 113.06298171725822 83.55741782278167 l 17.126093797411194 -21.55688576572446 a48.53184361197448,48.53184361197448 0 0,0 0.6496255381297922,0.5252853400729809 l -17.494622734105477 21.25889432838735" fill="#d9ff1c" stroke="none" /><path d="M 113.34407831869373 83.78471172551755 l 11.357999475964426 -13.801870112391006 a38.87444462620644,38.87444462620644 0 0,0 0.5130361587168217,0.4296530287952654 l -11.593893171640365 13.60431592620192" fill="#ff9f0e" stroke="none" /><path d="M 113.6212207817346 84.01681056812373 l 9.715937108175769 -11.400715530314871 a35.979177163422214,35.979177163422214 0 0,0 0.4679112572817777,0.40576803144066254 l -9.91074216410431 11.231782505454536" fill="#ff730a" stroke="none" /><path d="M 114.16331599549186 84.49514656593476 l 12.408155087176223 -13.583445153313987 a39.39761655488304,39.39761655488304 0 0,0 0.4967703933812693,0.46169394065459696 l -12.640133364352337 13.367846626584749" fill="#ffa60f" stroke="none" /><path d="M 114.42810811169701 84.74124197986012 l 11.21529404630861 -11.860976966106914 a37.323773924423364,37.323773924423364 0 0,0 0.46302231042543707,0.44542709577717465 l -11.417799600346466 11.666166783567437" fill="#ff880c" stroke="none" /><path d="M 114.68862486808459 84.99185889309783 l 15.877524382395068 -16.222902313818746 a43.69974317029282,43.69974317029282 0 0,0 0.5330623686719796,0.5307732294542392 l -16.15442255123437 15.947193233714389" fill="#ffe415" stroke="none" /><path d="M 114.94478906791727 85.2469230424477 l 22.674700153752184 -22.38382855973948 a52.86185506298053,52.86185506298053 0 0,0 0.6336770479189969,0.6530598996656007 l -23.05664146537429 21.990204464523767" fill="#a2ff22" stroke="none" /><path d="M 115.68641384162765 86.03803664274999 l 12.177490159263145 -10.838785276448046 a37.302470145591364,37.302470145591364 0 0,0 0.42277578110929304,0.48330580199139866 l -12.362257803950287 10.6275639182537" fill="#ff870c" stroke="none" /><path d="M 115.9244219780498 86.31012108654704 l 13.673999083113417 -11.755239340462044 a39.03230165221659,39.03230165221659 0 0,0 0.4336105574586376,0.5132581322207928 l -13.874320254059173 11.518122258612145" fill="#ffa10e" stroke="none" /><path d="M 116.15771136456269 86.58626213691792 l 13.72897221742621 -11.39745786386474 a38.843394405365615,38.843394405365615 0 0,0 0.42265591402365843,0.5181261751951923 l -13.923126623526276 11.159447519061446" fill="#ff9e0e" stroke="none" /><path d="M 116.38621287248628 86.86637796730983 l 16.231575671154992 -13.009679632436825 a41.80182234582038,41.80182234582038 0 0,0 0.44518128530375134,0.5653350234684206 l -16.453111037052707 12.728352215015367" fill="#ffc912" stroke="none" /><path d="M 116.60985879189232 87.15038557335679 l 34.983236570400166 -27.063511313239374 a65.22963356780632,65.22963356780632 0 0,0 0.6793947748401924,0.8940038859293443 l -35.44390728546447 26.457322651428996" fill="#33ff51" stroke="none" /><path d="M 117.04232023915458 87.72973835380427 l 17.917376534017013 -12.900291450966341 a43.07826762637003,43.07826762637003 0 0,0 0.4280900387778269,0.6055030007104408 l -18.136779192598723 12.589961949924106" fill="#ffdb14" stroke="none" /><path d="M 117.2510076193507 88.02491185347247 l 13.418414336767123 -9.314626601240992 a37.33450678881073,37.33450678881073 0 0,0 0.3619234365964974,0.531077984198951 l -13.576762239032353 9.082270593771634" fill="#ff880c" stroke="none" /><path d="M 117.45458315368197 88.32363383020206 l 14.963518693409108 -10.009951077863745 a39.002944544413545,39.002944544413545 0 0,0 0.36849121088380543,0.5612373949048716 l -15.13360653965084 9.7508956189812" fill="#ffa10e" stroke="none" /><path d="M 117.65298651832404 88.62581576622439 l 13.115990353422477 -8.450903790890921 a36.60278750204482,36.60278750204482 0 0,0 0.3366975450413566,0.5325746581650881 l -13.25951549470979 8.223881485011626" fill="#ff7d0b" stroke="none" /><line stroke="#e1ed5e" stroke-width="0.3" x1="172.23445277983987" x2="176.4835382374775" y1="55.19839476539836" y2="52.563006222186495" /><path d="M 173.08426987136738 54.67131705675599 a86.0,86.0 0 0,1 12.851231095245387,41.99856678651699" fill="none" id="id39" stroke="none" /><text fill="#e1ed5e" style="font-size:6.75px; font-family:Arial;" text-anchor="middle"><textPath startOffset="22.20632615414155" xlink:href="#id39">March</textPath></text><path d="M 117.84615892207809 88.93136811851018 l 15.167400046042147 -9.407198963203186 a38.84784066743006,38.84784066743006 0 0,0 0.3475664539097173,0.5713078637818536 l -15.327082298238087 9.144723326214251" fill="#ff9e0e" stroke="none" /><path d="M 118.03404312379186 89.2402003453031 l 15.347261073792929 -9.156762755240608 a38.87133813185015,38.87133813185015 0 0,0 0.3378850817315193,0.5775551317376344 l -15.502605829994776 8.891228211149079" fill="#ff9f0e" stroke="none" /><path d="M 118.3937258080291 89.86733742301442 l 15.63091864187846 -8.610698344613363 a38.84572059545231,38.84572059545231 0 0,0 0.3175950288696017,0.5884553541698736 l -15.776821769966526 8.34036200711103" fill="#ff9e0e" stroke="none" /><path d="M 118.56541770881063 90.18545643968196 l 15.184547155616508 -8.02725809028129 a38.175777850482575,38.175777850482575 0 0,0 0.3021168647869131,0.5835936209016307 l -15.320473453563537 7.764691747119315" fill="#ff940d" stroke="none" /><path d="M 118.89224826269711 90.83032412892265 l 12.437837537616668 -6.036917214467165 a34.82548993947326,34.82548993947326 0 0,0 0.2571146124076992,0.5415489461318596 l -12.539910343866124 5.821925852694765" fill="#ff6209" stroke="none" /><path d="M 119.196687751892 91.48605970444005 l 28.82023930900412 -12.782090324745061 a52.52757565843285,52.52757565843285 0 0,0 0.359461933883727,0.829687703747339 l -29.035991952730527 12.28410347641112" fill="#a6ff21" stroke="none" /><path d="M 119.47837535516314 92.15188598940014 l 16.571071586709685 -6.676720040505669 a38.86558154752168,38.86558154752168 0 0,0 0.24468002705624423,0.6226839803317956 l -16.683545163647633 6.390487055278088" fill="#ff9f0e" stroke="none" /><path d="M 119.7369772167798 92.82701384747503 l 15.576331462694808 -5.660887615255504 a37.57310322264027,37.57310322264027 0 0,0 0.2156819922811572,0.6097620362282677 l -15.671466535785774 5.391927952600621" fill="#ff8b0c" stroke="none" /><path d="M 119.85752413597 93.16781622104841 l 16.931134572665616 -5.825329592679446 a38.905244560772125,38.905244560772125 0 0,0 0.21242764894329785,0.6351316320389537 l -17.028899515380683 5.533024857718178" fill="#ff9f0e" stroke="none" /><path d="M 119.97218684219823 93.5106431181261 l 18.275594120098003 -5.938100489978133 a40.216096842794045,40.216096842794045 0 0,0 0.2082514283762195,0.6602139377872503 l -18.37510103224243 5.622636385764463" fill="#ffb210" stroke="none" /><path d="M 120.08093135843002 93.85539295169968 l 29.76028660133104 -9.106413619267162 a52.12236217896287,52.12236217896287 0 0,0 0.255136736219306,0.8601942392658398 l -29.912629234662045 8.592789993254792" fill="#abff21" stroke="none" /><path d="M 120.28053869075195 94.5502522615342 l 16.484721010066004 -4.429742839366161 a38.06952396531981,38.06952396531981 0 0,0 0.16461202000011707,0.6343172625294812 l -16.558529361936426 4.145329151287829" fill="#ff930d" stroke="none" /><path d="M 120.37134235888165 94.90015583598534 l 18.103839761247723 -4.532188401045758 a39.662522493047604,39.662522493047604 0 0,0 0.1600990936346623,0.6637141025570437 l -18.179171655143207 4.2198890668293085" fill="#ffaa0f" stroke="none" /><path d="M 120.45610955862082 95.25157060432595 l 17.21112646208375 -3.9951789753091296 a38.6687387534762,38.6687387534762 0 0,0 0.14492603749763852,0.6496750089617009 l -17.277346886583427 3.6983257967974645" fill="#ff9c0e" stroke="none" /><path d="M 120.6074358757038 95.95851677861258 l 7.531483014188303 -1.4770572339809307 a28.674955013904793,28.674955013904793 0 0,0 0.09082351784129658,0.48518286401024646 l -7.555792255939458 1.3471962925081216" fill="#ff0000" stroke="none" /><path d="M 120.67395015179393 96.31383870115 l 62.02185045538181 -11.058483896549978 a84.0,84.0 0 0,0 0.2415525539191079,1.4256568467366484 l -62.20301487082114 9.98924126149749" fill="#4dd2ff" stroke="none" /><path d="M 120.78858239683441 97.02765380044208 l 16.132515146915942 -2.3066228938028925 a37.29658105676427,37.29658105676427 0 0,0 0.08539851612728294,0.6363181379208159 l -16.169829662101062 2.028586413817412" fill="#ff870c" stroke="none" /><path d="M 120.83666639777658 97.38593545837742 l 15.065448848608572 -1.890036289249162 a36.183543268444296,36.183543268444296 0 0,0 0.07221140597427939,0.618663227625169 l -15.09575060758644 1.6304293232991403" fill="#ff760a" stroke="none" /><path d="M 120.91429891909075 98.10471618934814 l 18.59662451385769 -1.6852528267975229 a39.672828398495014,39.672828398495014 0 0,0 0.05577908270505585,0.6806460922372456 l -18.622878080382243 1.3648928173525086" fill="#ffaa0f" stroke="none" /><path d="M 120.96714384426684 98.82574320788733 l 31.288284222749173 -1.7522882723085333 a52.33731392115165,52.33731392115165 0 0,0 0.04263345694960471,0.8999248936244437 l -31.313811287932275 1.21345227206109" fill="#a8ff21" stroke="none" /><line stroke="#e1ed5e" stroke-width="0.3" x1="184.98032266829074" x2="189.97916517819016" y1="98.17113171792111" y2="98.06355123074" /><path d="M 185.9800911702706 98.14961562048488 a86.0,86.0 0 0,1 -9.607161424134198,41.387399972396054" fill="none" id="id40" stroke="none" /><text fill="#e1ed5e" style="font-size:6.75px; font-family:Arial;" text-anchor="middle"><textPath startOffset="21.466115282336823" xlink:href="#id40">April</textPath></text><path d="M 120.99513854157772 99.54816195383933 l 21.313963784635888 -0.4586995095706288 a42.318899067560935,42.318899067560935 0 0,0 0.009404857177829566,0.728416552939151 l -21.318701648931434 0.09174669857101514" fill="#ffd013" stroke="none" /><path d="M 120.99980553446 99.90962569577887 l 19.473564146967988 -0.08380600513656289 a40.47374447897923,40.47374447897923 0 0,0 -0.0029983387614243065,0.6967083338455684 l -19.47212151091706 -0.2514118069126902" fill="#ffb610" stroke="none" /><path d="M 120.99824983174949 100.27111621757518 l 15.45849726326309 0.1995904106767673 a36.45978570260101,36.45978570260101 0 0,0 -0.013503901319661527,0.6274732317633318 l -15.452771299258423 -0.465653458230214" fill="#ff7b0b" stroke="none" /><path d="M 120.9904718944345 100.63252640178507 l 7.667057925966004 0.23103894884206141 a28.670538197284476,28.670538197284476 0 0,0 -0.019110780227147253,0.49316432081967576 l -7.661945012887654 -0.3629805166757433" fill="#ff0000" stroke="none" /><path d="M 120.9764740272857 100.99374915477107 l 16.17986605163927 0.7665124363708947 a37.198012432520855,37.198012432520855 0 0,0 -0.03580512242820472,0.6393245134763493 l -16.164274578323536 -1.0449086661826674" fill="#ff860c" stroke="none" /><path d="M 120.95626037817324 101.35467743843564 l 44.411340914580386 2.8708863347736355 a65.50403566170456,65.50403566170456 0 0,0 -0.08242104969315159,1.1245697392341931 l -44.35534330622289 -3.634929210504599" fill="#33ff55" stroke="none" /><path d="M 120.89721153311464 102.0752229133903 l 16.49869304005637 1.6384227045537751 a37.5798462293473,37.5798462293473 0 0,0 -0.0694649114556017,0.6431588075157796 l -16.468045827099715 -1.922177833954346" fill="#ff8b0c" stroke="none" /><path d="M 120.8583938346157 102.4346265915055 l 24.858027776600707 2.901470550280732 a46.02678717487322,46.02678717487322 0 0,0 -0.09862552176599153,0.7861424469914122 l -24.80440074558787 -3.3289307515595388" fill="#faff18" stroke="none" /><path d="M 120.81339534386255 102.79330883721812 l 16.071675758275568 2.1569356264466175 a37.215768035334534,37.215768035334534 0 0,0 -0.09067524231780597,0.6341824335795814 l -16.032166464941163 -2.433263532006608" fill="#ff860c" stroke="none" /><path d="M 120.76222939487914 103.15116336523771 l 21.597677323318926 3.2779625087975224 a42.84501554065107,42.84501554065107 0 0,0 -0.11694291072159299,0.728203616694085 l -21.538052658236047 -3.6492453551848123" fill="#ffd814" stroke="none" /><path d="M 120.64145759157962 103.86396538481128 l 32.24543374214029 6.036164803045816 a53.80553737935547,53.80553737935547 0 0,0 -0.1782502305601033,0.9088940853837587 l -32.13675357860453 -6.590322615497519" fill="#96ff23" stroke="none" /><path d="M 120.5718875245553 104.21870165774334 l 17.82286202652331 3.654955700456565 a39.19376574513332,39.19376574513332 0 0,0 -0.14122066481497653,0.6597359312354555 l -17.75730732298389 -3.961205451108189" fill="#ffa30f" stroke="none" /><path d="M 120.41448212921028 104.9243191809786 l 19.789958605084063 4.773673519268344 a41.3575642074268,41.3575642074268 0 0,0 -0.17289172408226816,0.6906164951371085 l -19.704855566706733 -5.113617853802849" fill="#ffc312" stroke="none" /><path d="M 120.32669344350535 105.2749913415812 l 17.236438461621553 4.473037579744767 a38.80738262718796,38.80738262718796 0 0,0 -0.17336167697129515,0.6451432921370015 l -17.15688870830848 -4.769071805057316" fill="#ff9e0e" stroke="none" /><path d="M 120.23288151984713 105.62410040840565 l 14.714133880819167 4.0900633104224235 a36.272012105349255,36.272012105349255 0 0,0 -0.17239113728906624,0.6001161644957574 l -14.641550106644003 -4.342736950422763" fill="#ff780b" stroke="none" /><line stroke="#e1ed5e" stroke-width="0.3" x1="174.80103733775053" x2="179.2010983576182" y1="140.37084112569926" y2="142.7455964860345" /><path d="M 175.68104954172406 140.8457921977663 a86.0,86.0 0 0,1 -30.038265399797805,32.042727171017184" fill="none" id="id41" stroke="none" /><text fill="#e1ed5e" style="font-size:6.75px; font-family:Arial;" text-anchor="middle"><textPath startOffset="22.206326154141568" xlink:href="#id41">May</textPath></text><line stroke="#e1ed5e" stroke-width="0.3" x1="143.8653032363475" x2="146.44561519142675" y1="172.8068346515853" y2="177.08958963109032" /><path d="M 144.38136562736335 173.6633856474863 a86.0,86.0 0 0,1 -40.68145358897372,12.25698825130547" fill="none" id="id42" stroke="none" /><text fill="#e1ed5e" style="font-size:6.75px; font-family:Arial;" text-anchor="middle"><textPath startOffset="21.466115282336833" xlink:href="#id42">June</textPath></text><line stroke="#e1ed5e" stroke-width="0.3" x1="102.19456741930631" x2="102.32365962044197" y1="184.97166512339345" y2="189.96999836594603" /><path d="M 102.22038585953345 185.97133177190398 a86.0,86.0 0 0,1 -42.740103519485714,-10.115201625700543" fill="none" id="id43" stroke="none" /><text fill="#e1ed5e" style="font-size:6.75px; font-family:Arial;" text-anchor="middle"><textPath startOffset="22.20632615414155" xlink:href="#id43">July</textPath></text><line stroke="#e1ed5e" stroke-width="0.3" x1="58.666819895761336" x2="56.23545636021788" y1="174.27360380694188" y2="178.64263932499728" /><path d="M 58.180547188652646 175.14741091055294 a86.0,86.0 0 0,1 -31.652253787137756,-30.449443065178592" fill="none" id="id44" stroke="none" /><text fill="#e1ed5e" style="font-size:6.75px; font-family:Arial;" text-anchor="middle"><textPath startOffset="22.20632615414155" xlink:href="#id44">August</textPath></text><line stroke="#e1ed5e" stroke-width="0.3" x1="26.63291911575756" x2="22.317208475507996" y1="142.92168965132927" y2="145.44649492493687" /><path d="M 25.769776987707644 143.4266507060508 a86.0,86.0 0 0,1 -11.730757126820373,-40.83630448921669" fill="none" id="id45" stroke="none" /><text fill="#e1ed5e" style="font-size:6.75px; font-family:Arial;" text-anchor="middle"><textPath startOffset="21.46611528233685" xlink:href="#id45">September</textPath></text><line stroke="#e1ed5e" stroke-width="0.3" x1="15.007084014347285" x2="10.007500721073583" y1="101.09737516637583" y2="101.16192664675087" /><path d="M 14.007167355692545 101.11028546245083 a86.0,86.0 0 0,1 10.666146001902534,-42.60595125391555" fill="none" id="id46" stroke="none" /><text fill="#e1ed5e" style="font-size:6.75px; font-family:Arial;" text-anchor="middle"><textPath startOffset="22.20632615414155" xlink:href="#id46">October</textPath></text><line stroke="#e1ed5e" stroke-width="0.3" x1="26.266209847984243" x2="21.928928074336255" y1="57.711370442889674" y2="55.22380399835377" /><path d="M 25.398753493254645 57.213857153982495 a86.0,86.0 0 0,1 29.58750427330803,-30.492523968695096" fill="none" id="id47" stroke="none" /><text fill="#e1ed5e" style="font-size:6.75px; font-family:Arial;" text-anchor="middle"><textPath startOffset="21.46611528233685" xlink:href="#id47">November</textPath></text><line stroke="#e1ed5e" stroke-width="0.3" x1="56.762969772571076" x2="54.21961505331055" y1="26.818313649435495" y2="22.513508569990535" /><path d="M 56.25429882871897 25.957352633546506 a86.0,86.0 0 0,1 42.265352541879196,-11.944610805530505" fill="none" id="id48" stroke="none" /><text fill="#e1ed5e" style="font-size:6.75px; font-family:Arial;" text-anchor="middle"><textPath startOffset="22.20632615414155" xlink:href="#id48">December</textPath></text></svg>