<?xml version="1.0" encoding="utf-8" ?>
<svg baseProfile="full" height="200mm" version="1.1" viewBox="0,0,200,200" width="200mm" xmlns="http://www.w3.org/2000/svg" xmlns:ev="http://www.w3.org/2001/xml-events" xmlns:xlink="http://www.w3.org/1999/xlink"><defs /><rect fill="#1a1a1a" height="200" width="200" x="0" y="0" /><text alignment-baseline="middle" fill="#e1ed5e" style="dominant-baseline: central; font-size:9.0px; font-family:Arial;" text-anchor="middle" x="100.0" y="100.0">2026</text><line stroke="#e1ed5e" stroke-width="0.3" x1="100.0" x2="100.0" y1="15.0" y2="10.0" /><path d="M 100.0 14.0 a86.0,86.0 0 0,1 42.46469731375804,11.215312516191453" fill="none" id="id49" stroke="none" /><text fill="#e1ed5e" style="font-size:6.75px; font-family:Arial;" text-anchor="middle"><textPath startOffset="22.20632615414155" xlink:href="#id49">January</textPath></text><path d="M 100.0 79.0 l 0.0 -26.151844541481843 a47.15184454148184,47.15184454148184 0 0,0 0.8116414934970766,0.006986054578893847 l -0.4501610142245482 26.14796986351151" fill="#eeff19" stroke="none" /><path d="M 100.72285384407766 79.0124445844662 l 1.336515152291839 -38.804781979428704 a59.82779129983188,59.82779129983188 0 0,0 1.0289216812300988,0.0443075319880184 l -2.0042776659112693 38.77602672091649" fill="#50ff2b" stroke="none" /><path d="M 101.80526077348638 79.07773832637324 l 1.670516926550931 -19.36063353330548 a40.432569506188464,40.432569506188464 0 0,0 0.6928888482121163,0.06579814508220003 l -2.0035309018532916 19.329009843708103" fill="#ffb210" stroke="none" /><path d="M 102.16513564639614 79.11191278185805 l 1.689026592975643 -16.29483808396061 a37.38214146606823,37.38214146606823 0 0,0 0.6394719004153085,0.07185211892880763 l -1.969265196900677 16.2633500115612" fill="#ff850c" stroke="none" /><path d="M 102.52436894288641 79.15227682838746 l 2.290117439128842 -18.913136503275684 a40.051282641243375,40.051282641243375 0 0,0 0.6837045205359582,0.08876446921669384 l -2.6153366881726465 18.87091371089485" fill="#ffad10" stroke="none" /><path d="M 103.2404852339499 79.25152402106235 l 2.2092938317982194 -14.145869118374485 a35.31735284015179,35.31735284015179 0 0,0 0.5998413464081138,0.0989789617963235 l -2.4524643843452085 14.105743893638536" fill="#ff6609" stroke="none" /><path d="M 103.59715602781102 79.31037775812273 l 6.810765752426415 -39.17321614802641 a60.76087767535347,60.76087767535347 0 0,0 1.028898311782168,0.1880245899256906 l -7.484059185311485 39.050176076749985" fill="#46ff2d" stroke="none" /><path d="M 104.307194497241 79.44645832069477 l 3.3871239940158797 -16.163048645370893 a37.51413789646507,37.51413789646507 0 0,0 0.6308757497735479,0.13788500362748934 l -3.6648424679429557 16.10235014364753" fill="#ff870c" stroke="none" /><path d="M 105.01212808612495 79.60689891045804 l 4.417313869612285 -17.97295015995594 a39.507825352399706,39.507825352399706 0 0,0 0.6590114308728588,0.1679966872310922 l -4.72603418917017 17.894250476555982" fill="#ffa50f" stroke="none" /><path d="M 105.36241919743992 79.69619591428918 l 4.448177258311253 -16.842196826832048 a38.419697898502974,38.419697898502974 0 0,0 0.6379537977426356,0.1743768717673855 l -4.737428945277599 16.763133414238368" fill="#ff950d" stroke="none" /><path d="M 105.71112130821622 79.79150937346287 l 3.571238686941817 -12.636632919417266 a34.13157406022637,34.13157406022637 0 0,0 0.5639995277807559,0.1646469280445697 l -3.788228432446 12.573287662453994" fill="#ff5307" stroke="none" /><path d="M 106.0581310904928 79.89281104454417 l 10.189154147495042 -33.8182262284595 a56.31984268765479,56.31984268765479 0 0,0 0.9258301667814157,0.2876599395293101 l -10.769769686987175 33.63782615404767" fill="#79ff26" stroke="none" /><path d="M 106.74666289553966 80.11325718540242 l 6.5006652607971125 -19.16163000388364 a41.23429547176447,41.23429547176447 0 0,0 0.6701908140135943,0.23381641546775342 l -6.829538078873981 19.046892735243677" fill="#ffbe11" stroke="none" /><path d="M 107.4271985657038 80.35727306442388 l 7.908342498574576 -20.915209259359816 a43.360408302121215,43.360408302121215 0 0,0 0.6958660747763359,0.26998522608510744 l -8.26719173835058 20.775981329384162" fill="#ffdc14" stroke="none" /><path d="M 107.76421540070413 80.48803036053334 l 7.9559429668765 -19.9937932696901 a42.51856867459583,42.51856867459583 0 0,0 0.67769765606672,0.2764498898843781 l -8.298924492531608 19.85388249362214" fill="#ffd013" stroke="none" /><path d="M 108.09893153111575 80.62456947434976 l 5.461172342546745 -13.065003069243106 a35.160462865116,35.160462865116 0 0,0 0.5563996616042151,0.23822129778549853 l -5.685255761941275 12.969062243494818" fill="#ff6309" stroke="none" /><path d="M 108.43124777332544 80.76684994638697 l 16.85292667842302 -38.44447184604607 a62.9761664894465,62.9761664894465 0 0,0 0.98907932469679,0.4437710620211521 l -17.512188121586593 38.14868045350838" fill="#30ff32" stroke="none" /><path d="M 109.08828744355905 81.06846463323043 l 9.28106348556218 -19.333101281108515 a42.445441113873954,42.445441113873954 0 0,0 0.6559412012318495,0.32186749872310844 l -9.612475953804461 19.170478622250577" fill="#ffcf13" stroke="none" /><path d="M 109.41281617654863 81.2277094730956 l 8.337922773413009 -16.62859507268026 a39.60191200566666,39.60191200566666 0 0,0 0.6067380885360095,0.31079481478335663 l -8.622921349537775 16.482607732584402" fill="#ffa60f" stroke="none" /><path d="M 109.73455568895987 81.39251694778311 l 9.941266300896057 -19.00260783563955 a42.44592922259237,42.44592922259237 0 0,0 0.6444807041586804,0.3442592723813496 l -10.26689205158305 18.82866983675645" fill="#ffcf13" stroke="none" /><path d="M 110.36928655335952 81.73862282372117 l 6.306545462624438 -11.10647340872476 a33.77208938470363,33.77208938470363 0 0,0 0.5030485671908712,0.2913981996552351 l -6.496790762280638 10.996271051679475" fill="#ff4e07" stroke="none" /><line stroke="#e1ed5e" stroke-width="0.3" x1="143.23703022742887" x2="145.7803849466894" y1="26.81831364943548" y2="22.513508569990506" /><path d="M 143.74570117128098 25.957352633546492 a86.0,86.0 0 0,1 28.547481713284135,27.462654790039103" fill="none" id="id50" stroke="none" /><text fill="#e1ed5e" style="font-size:6.75px; font-family:Arial;" text-anchor="middle"><textPath startOffset="19.985693538727396" xlink:href="#id50">February</textPath></text><path d="M 110.68208982089419 81.91981866633111 l 18.932238782350275 -32.04413330879087 a58.21902933747048,58.21902933747048 0 0,0 0.8584199976604335,0.5171884436635003 l -19.481020846228347 31.713498255668753" fill="#63ff29" stroke="none" /><path d="M 111.2981086023043 82.29822771554956 l 11.537567239718966 -18.076953867516018 a42.44508612571511,42.44508612571511 0 0,0 0.612488604262754,0.39837962569142565 l -11.847022869766 17.875675317665063" fill="#ffcf13" stroke="none" /><path d="M 111.60114157652 82.49532879139004 l 10.361251503739958 -15.633832212664808 a39.755592296099564,39.755592296099564 0 0,0 0.56717089633328,0.3829563210005573 l -10.628827094479778 15.45316397936558" fill="#ffa80f" stroke="none" /><path d="M 111.90073688211348 82.69761687909136 l 12.62646915635897 -18.357519284037892 a43.28062471342102,43.28062471342102 0 0,0 0.6101926303338208,0.4274789323909198 l -12.940592926276443 18.137455508883036" fill="#ffdb14" stroke="none" /><path d="M 112.48926042617603 83.11751280151076 l 8.71423637023713 -11.779559312959448 a35.65250603562043,35.65250603562043 0 0,0 0.4902284879018032,0.36922993358524253 l -8.915711011897315 11.627812789868358" fill="#ff6b09" stroke="none" /><path d="M 112.77801427241765 83.33499621200491 l 25.363810690465822 -33.079318290245524 a62.684099981757555,62.684099981757555 0 0,0 0.8506156097110595,0.6639189756207136 l -25.92945885533631 32.637820925401584" fill="#31ff2f" stroke="none" /><path d="M 113.34407831869373 83.78471172551755 l 13.641026799929188 -16.57613037319505 a42.467317259162726,42.467317259162726 0 0,0 0.5604522335210925,0.46936262783053084 l -13.924336570409398 16.3388665879707" fill="#ffd013" stroke="none" /><path d="M 113.6212207817346 84.01681056812373 l 12.971010343979103 -15.220230166788575 a40.997562743335344,40.997562743335344 0 0,0 0.533175648836822,0.4623646686712032 l -13.231079791462689 14.9947005046977" fill="#ffbb11" stroke="none" /><path d="M 114.16331599549186 84.49514656593476 l 17.138784944791723 -18.762156312232396 a46.41173860381185,46.41173860381185 0 0,0 0.5852124991268448,0.5438912391762221 l -17.459205327713416 18.464360486981533" fill="#f8ff18" stroke="none" /><path d="M 114.42810811169701 84.74124197986012 l 13.35304003278606 -14.121796504168165 a40.43524670855308,40.43524670855308 0 0,0 0.50162187220209,0.4825598436239221 l -13.59414514860057 13.889853573781942" fill="#ffb210" stroke="none" /><path d="M 114.94478906791727 85.2469230424477 l 11.631143877975168 -11.481939287085886 a37.34375837139321,37.34375837139321 0 0,0 0.4476551671293264,0.4613479997268833 l -11.827063308807602 11.280027091808888" fill="#ff850c" stroke="none" /><path d="M 115.4437574822437 85.77008943001954 l 15.3725775661369 -14.164325245829724 a41.90321149241295,41.90321149241295 0 0,0 0.48419432129739154,0.5346594630403166 l -15.614115528050327 13.897612995519859" fill="#ffc812" stroke="none" /><path d="M 116.15771136456269 86.58626213691792 l 20.424817501264936 -16.956185296399113 a47.54591098014532,47.54591098014532 0 0,0 0.5173482073601922,0.6342077302829867 l -20.713664200701537 16.602093396508028" fill="#e8ff1a" stroke="none" /><path d="M 117.04232023915458 87.72973835380427 l 12.93959671734748 -9.31635100679139 a36.94451502207993,36.94451502207993 0 0,0 0.3671359072654264,0.519287704410094 l -13.09804524441679 9.092236802049502" fill="#ff7f0b" stroke="none" /><path d="M 117.45458315368197 88.32363383020206 l 22.34918070434817 -14.950641628121842 a47.88879995924211,47.88879995924211 0 0,0 0.4524428114564239,0.6891014421652223 l -22.60322015116252 14.563722121978946" fill="#e4ff1b" stroke="none" /><path d="M 117.65298651832404 88.62581576622439 l 6.67259984970629 -4.2992940559968345 a28.93772751700574,28.93772751700574 0 0,0 0.26618906588759766,0.4210471767917356 l -6.7456165118398435 4.183799231490893" fill="#ff0000" stroke="none" /><line stroke="#e1ed5e" stroke-width="0.3" x1="172.23445277983987" x2="176.4835382374775" y1="55.19839476539836" y2="52.563006222186495" /><path d="M 173.08426987136738 54.67131705675599 a86.0,86.0 0 0,1 12.851231095245387,41.99856678651699" fill="none" id="id51" stroke="none" /><text fill="#e1ed5e" style="font-size:6.75px; font-family:Arial;" text-anchor="middle"><textPath startOffset="22.20632615414155" xlink:href="#id51">March</textPath></text><path d="M 117.84615892207809 88.93136811851018 l 15.434899939220632 -9.57310905393243 a39.162614159097146,39.162614159097146 0 0,0 0.3503826903955519,0.5759370160850407 l -15.597398427902407 9.306004264640308" fill="#ffa00e" stroke="none" /><path d="M 118.21658344932153 89.55222093294921 l 18.806029958350823 -10.785845033993224 a42.67951143111175,42.67951143111175 0 0,0 0.36001663444731924,0.6404294209461797 l -18.988904234090576 10.460532103112252" fill="#ffd313" stroke="none" /><path d="M 118.3937258080291 89.86733742301442 l 15.551521131270768 -8.566960159493238 a38.75507296157089,38.75507296157089 0 0,0 0.31685391150948505,0.5870821762577976 l -15.696683141998717 8.297996999902983" fill="#ff9a0e" stroke="none" /><path d="M 118.56541770881063 90.18545643968196 l 19.848713392285976 -10.49295336416855 a43.451581094251,43.451581094251 0 0,0 0.3438687091496545,0.6642448948652984 l -20.02639153459575 10.149735747042905" fill="#ffde14" stroke="none" /><path d="M 118.89224826269711 90.83032412892265 l 11.418775992437258 -5.542298261125061 a33.6927347400287,33.6927347400287 0 0,0 0.2487515451668884,0.523934193674658 l -11.512485731445903 5.344921651809862" fill="#ff4c07" stroke="none" /><path d="M 119.04729006885535 91.15688171328212 l 32.53492120304066 -15.105044109029214 a56.87037015732878,56.87037015732878 0 0,0 0.4045857873781779,0.8914511526094185 l -32.79010930738219 14.542770947577733" fill="#73ff27" stroke="none" /><path d="M 119.34039704204932 91.81776055985345 l 20.707543804298673 -8.760630986825982 a43.484461872463925,43.484461872463925 0 0,0 0.28571012837257326,0.6918697381782843 l -20.855275619557446 8.402886678194394" fill="#ffde14" stroke="none" /><path d="M 119.47837535516314 92.15188598940014 l 13.72745563745325 -5.530986797090731 a35.79982612154072,35.79982612154072 0 0,0 0.2253794250657748,0.573566053483346 l -13.820628612400725 5.2938717387116005" fill="#ff6d0a" stroke="none" /><path d="M 119.85752413597 93.16781622104841 l 10.66315250569906 -3.6687664123221957 a32.27664260087991,32.27664260087991 0 0,0 0.17623462802753642,0.5269191062354815 l -10.724724427498368 3.4846742031644" fill="#ff3605" stroke="none" /><path d="M 119.97218684219823 93.5106431181261 l 43.13107753485458 -14.014136610822883 a66.35069871859136,66.35069871859136 0 0,0 0.3435845063711771,1.0892567781297702 l -43.36591752499397 13.269629666266693" fill="#34ff5f" stroke="none" /><path d="M 120.18372546131832 94.20196356495316 l 14.003050489998975 -4.022557535199036 a35.5693648505845,35.5693648505845 0 0,0 0.16398024190897034,0.5899241772393249 l -14.070217502474309 3.78092205454076" fill="#ff6a09" stroke="none" /><path d="M 120.37134235888165 94.90015583598534 l 15.854748614451282 -3.969141835077754 a37.34402461251234,37.34402461251234 0 0,0 0.1507403996854147,0.6249162741957839 l -15.920721814397517 3.695640329222564" fill="#ff850c" stroke="none" /><path d="M 120.53481517161879 95.60439243477599 l 17.96233756687388 -3.844952400992769 a39.369246849890956,39.369246849890956 0 0,0 0.13614392502549388,0.6638861289551572 l -18.025860787814374 3.5351906158741997" fill="#ffa30f" stroke="none" /><path d="M 120.6074358757038 95.95851677861258 l 26.395399225211605 -5.1766053639059155 a47.89822193662475,47.89822193662475 0 0,0 0.15171026467235682,0.8104423002212551 l -26.480595213793823 4.721484986222098" fill="#e4ff1b" stroke="none" /><path d="M 120.73433829027371 96.67025291283417 l 17.84323647051832 -2.8654622988952485 a39.07185551981935,39.07185551981935 0 0,0 0.10092466163530285,0.6649674211081791 l -17.889917025592926 2.557895765394987" fill="#ff9e0e" stroke="none" /><path d="M 120.83666639777658 97.38593545837742 l 9.77613752050086 -1.2264655947601248 a30.852770304583125,30.852770304583125 0 0,0 0.061572795825068256,0.5275181127564577 l -9.795800669329518 1.0580037436788143" fill="#ff1f03" stroke="none" /><path d="M 120.94382443527127 98.46500227214037 l 62.831473305813795 -4.6049931835789 a84.0,84.0 0 0,0 0.09327763598233796,1.442963742987859 l -62.90143153280055 3.5227703763380056" fill="#4dd2ff" stroke="none" /><line stroke="#e1ed5e" stroke-width="0.3" x1="184.98032266829074" x2="189.97916517819016" y1="98.17113171792111" y2="98.06355123074" /><path d="M 185.9800911702706 98.14961562048488 a86.0,86.0 0 0,1 -9.607161424134198,41.387399972396054" fill="none" id="id52" stroke="none" /><text fill="#e1ed5e" style="font-size:6.75px; font-family:Arial;" text-anchor="middle"><textPath startOffset="21.466115282336823" xlink:href="#id52">April</textPath></text><path d="M 120.99980553446 99.90962569577887 l 11.789299032126719 -0.05073616970094919 a32.78940820515686,32.78940820515686 0 0,0 -0.002429074820016889,0.5644314419749779 l -11.788425660017198 -0.1522047504777134" fill="#ff3e05" stroke="none" /><path d="M 120.9904718944345 100.63252640178507 l 19.882248317226136 0.5991312177610824 a40.89127337210812,40.89127337210812 0 0,0 -0.027256695819423894,0.7033742066940837 l -19.86898948855551 -0.9412826714691722" fill="#ffb911" stroke="none" /><path d="M 120.9764740272857 100.99374915477107 l 22.159968973399362 1.0498165901678058 a43.184822284052984,43.184822284052984 0 0,0 -0.041567754506392975,0.742220180349667 l -22.13861486800544 -1.4311084868528963" fill="#ffda14" stroke="none" /><path d="M 120.89721153311464 102.0752229133903 l 17.962807842860915 1.7838183991802656 a39.0511626683934,39.0511626683934 0 0,0 -0.07218458373786063,0.6683395951283768 l -17.929440957622003 -2.092754316193434" fill="#ff9e0e" stroke="none" /><path d="M 120.81339534386255 102.79330883721812 l 15.11776877826519 2.0289143808437102 a36.25330870329071,36.25330870329071 0 0,0 -0.08833023540914167,0.6177814607221246 l -15.080604491839448 -2.288841313546244" fill="#ff740a" stroke="none" /><path d="M 120.70491114924044 103.5080841355445 l 31.2537823031078 5.295405379091235 a52.699214917391295,52.699214917391295 0 0,0 -0.15923584154477025,0.8930791638180872 l -31.15800001922384 -5.832603293642541" fill="#a5ff21" stroke="none" /><path d="M 120.5718875245553 104.21870165774334 l 16.89311870450341 3.4642921218617784 a38.244673945019564,38.244673945019564 0 0,0 -0.1378009532247691,0.6437601771666153 l -16.8309837125542 -3.7545661184445627" fill="#ff920d" stroke="none" /><path d="M 120.49622156327973 104.57218783832717 l 17.439923019975613 3.89040505280989 a38.86858042536127,38.86858042536127 0 0,0 -0.15129027462151537,0.6517545434351311 l -17.370372179423544 -4.190028253593586" fill="#ff9b0e" stroke="none" /><path d="M 120.32669344350535 105.2749913415812 l 27.10530902270121 7.034113580894091 a49.003152163373436,49.003152163373436 0 0,0 -0.21890856998869823,0.8146402249148531 l -26.980212376370734 -7.499644738984491" fill="#d5ff1c" stroke="none" /><line stroke="#e1ed5e" stroke-width="0.3" x1="174.80103733775053" x2="179.2010983576182" y1="140.37084112569926" y2="142.7455964860345" /><path d="M 175.68104954172406 140.8457921977663 a86.0,86.0 0 0,1 -30.038265399797805,32.042727171017184" fill="none" id="id53" stroke="none" /><text fill="#e1ed5e" style="font-size:6.75px; font-family:Arial;" text-anchor="middle"><textPath startOffset="22.206326154141568" xlink:href="#id53">May</textPath></text><line stroke="#e1ed5e" stroke-width="0.3" x1="143.8653032363475" x2="146.44561519142675" y1="172.8068346515853" y2="177.08958963109032" /><path d="M 144.38136562736335 173.6633856474863 a86.0,86.0 0 0,1 -40.68145358897372,12.25698825130547" fill="none" id="id54" stroke="none" /><text fill="#e1ed5e" style="font-size:6.75px; font-family:Arial;" text-anchor="middle"><textPath startOffset="21.466115282336833" xlink:href="#id54">June</textPath></text><line stroke="#e1ed5e" stroke-width="0.3" x1="102.19456741930631" x2="102.32365962044197" y1="184.97166512339345" y2="189.96999836594603" /><path d="M 102.22038585953345 185.97133177190398 a86.0,86.0 0 0,1 -42.740103519485714,-10.115201625700543" fill="none" id="id55" stroke="none" /><text fill="#e1ed5e" style="font-size:6.75px; font-family:Arial;" text-anchor="middle"><textPath startOffset="22.20632615414155" xlink:href="#id55">July</textPath></text><line stroke="#e1ed5e" stroke-width="0.3" x1="58.666819895761336" x2="56.23545636021788" y1="174.27360380694188" y2="178.64263932499728" /><path d="M 58.180547188652646 175.14741091055294 a86.0,86.0 0 0,1 -31.652253787137756,-30.449443065178592" fill="none" id="id56" stroke="none" /><text fill="#e1ed5e" style="font-size:6.75px; font-family:Arial;" text-anchor="middle"><textPath startOffset="22.20632615414155" xlink:href="#id56">August</textPath></text><line stroke="#e1ed5e" stroke-width="0.3" x1="26.63291911575756" x2="22.317208475507996" y1="142.92168965132927" y2="145.44649492493687" /><path d="M 25.769776987707644 143.4266507060508 a86.0,86.0 0 0,1 -11.730757126820373,-40.83630448921669" fill="none" id="id57" stroke="none" /><text fill="#e1ed5e" style="font-size:6.75px; font-family:Arial;" text-anchor="middle"><textPath startOffset="21.46611528233685" xlink:href="#id57">September</textPath></text><line stroke="#e1ed5e" stroke-width="0.3" x1="15.007084014347285" x2="10.007500721073583" y1="101.09737516637583" y2="101.16192664675087" /><path d="M 14.007167355692545 101.11028546245083 a86.0,86.0 0 0,1 10.666146001902534,-42.60595125391555" fill="none" id="id58" stroke="none" /><text fill="#e1ed5e" style="font-size:6.75px; font-family:Arial;" text-anchor="middle"><textPath startOffset="22.20632615414155" xlink:href="#id58">October</textPath></text><line stroke="#e1ed5e" stroke-width="0.3" x1="26.266209847984243" x2="21.928928074336255" y1="57.711370442889674" y2="55.22380399835377" /><path d="M 25.398753493254645 57.213857153982495 a86.0,86.0 0 0,1 29.58750427330803,-30.492523968695096" fill="none" id="id59" stroke="none" /><text fill="#e1ed5e" style="font-size:6.75px; font-family:Arial;" text-anchor="middle"><textPath startOffset="21.46611528233685" xlink:href="#id59">November</textPath></text><line stroke="#e1ed5e" stroke-width="0.3" x1="56.762969772571076" x2="54.21961505331055" y1="26.818313649435495" y2="22.513508569990535" /><path d="M 56.25429882871897 25.957352633546506 a86.0,86.0 0 0,1 42.265352541879196,-11.944610805530505" fill="none" id="id60" stroke="none" /><text fill="#e1ed5e" style="font-size:6.75px; font-family:Arial;" text-anchor="middle"><textPath startOffset="22.20632615414155" xlink:href="#id60">December</textPath></text></svg>