<?xml version="1.0" encoding="utf-8" ?>
<svg baseProfile="full" height="200mm" version="1.1" viewBox="0,0,200,200" width="200mm" xmlns="http://www.w3.org/2000/svg" xmlns:ev="http://www.w3.org/2001/xml-events" xmlns:xlink="http://www.w3.org/1999/xlink"><defs /><rect fill="#1a1a1a" height="200" width="200" x="0" y="0" /><text alignment-baseline="middle" fill="#e1ed5e" style="dominant-baseline: central; font-size:9.0px; font-family:Arial;" text-anchor="middle" x="100.0" y="100.0">2025</text><line stroke="#e1ed5e" stroke-width="0.3" x1="100.0" x2="100.0" y1="15.0" y2="10.0" /><path d="M 100.0 14.0 a86.0,86.0 0 0,1 42.46469731375804,11.215312516191453" fill="none" id="id37" stroke="none" /><text fill="#e1ed5e" style="font-size:6.75px; font-family:Arial;" text-anchor="middle"><textPath startOffset="22.20632615414155" xlink:href="#id37">January</textPath></text><path d="M 100.0 79.0 l 0.0 -13.222918099633546 a34.222918099633546,34.222918099633546 0 0,0 0.5890912779409533,0.005070494611991703 l -0.22761079866842496 13.220958981630114" fill="#ff0000" stroke="none" /><path d="M 101.44485096284872 79.0497635885617 l 4.334552888546152 -62.8507092343149 a84.0,84.0 0 0,0 1.4416392425506352,0.11189895124614191 l -5.415782320459128 62.76678502088029" fill="#4dd2ff" stroke="none" /><path d="M 102.16513564639614 79.11191278185805 l 1.9853635565535042 -19.153740874405553 a40.25636149264873,40.25636149264873 0 0,0 0.6886393068432553,0.07737664992350413 l -2.3147695669064845 19.116728271011446" fill="#ff6a09" stroke="none" /><path d="M 103.2404852339499 79.25152402106235 l 3.1694728421790916 -20.293791325717468 a41.53980341846232,41.53980341846232 0 0,0 0.7055254600999058,0.11641774609189819 l -3.5183275084178725 20.236227316685945" fill="#ff800b" stroke="none" /><path d="M 103.59715602781102 79.31037775812273 l 3.9225727802512473 -22.561309104252178 a43.89976518905773,43.89976518905773 0 0,0 0.7433795563650458,0.1358478623631677 l -4.310347457719194 22.49044576053827" fill="#ffa70f" stroke="none" /><path d="M 103.95276090670814 79.375362276772 l 5.248195729921452 -27.383931936416197 a48.882311358957324,48.882311358957324 0 0,0 0.8250253870714842,0.16549233121066706 l -5.718787526460062 27.28953564912832" fill="#fff517" stroke="none" /><path d="M 104.66035177308747 79.52364482259891 l 4.929009514638779 -21.65676635771816 a43.21059800789237,43.21059800789237 0 0,0 0.7238316595886145,0.17130756776165132 l -5.301064861189917 21.56871287781564" fill="#ff9c0e" stroke="none" /><path d="M 105.01212808612495 79.60689891045804 l 5.297971851946218 -21.556128193407382 a43.19763880313911,43.19763880313911 0 0,0 0.720559471549261,0.18368665322379885 l -5.668240212180504 21.461738544014715" fill="#ff9b0e" stroke="none" /><path d="M 105.36241919743992 79.69619591428918 l 5.735811595991185 -21.71758503571522 a43.46225799976994,43.46225799976994 0 0,0 0.7216848144582589,0.19726372159324596 l -6.108794299673155 21.615634773295678" fill="#ffa00e" stroke="none" /><path d="M 105.71112130821622 79.79150937346287 l 7.774409530953607 -27.50932324044917 a49.586785560858345,49.586785560858345 0 0,0 0.8193856981556458,0.23920115432689787 l -8.24678544683268 27.37142375720357" fill="#feff18" stroke="none" /><path d="M 106.0581310904928 79.89281104454417 l 5.601743969725923 -18.592421127388018 a40.41797257389414,40.41797257389414 0 0,0 0.6644226351373942,0.20643934698085087 l -5.920951977574035 18.493241645524645" fill="#ff6d0a" stroke="none" /><path d="M 106.40334571778207 80.00007090966166 l 15.277311236428849 -47.71648367682356 a71.10248549817948,71.10248549817948 0 0,0 1.1624145072754484,0.38322978711669525 l -16.096408565946714 47.446440165447626" fill="#39ff8a" stroke="none" /><path d="M 107.08798089147638 80.2323363322302 l 8.361101852135109 -23.31826959405745 a45.7719543242539,45.7719543242539 0 0,0 0.7393645662246319,0.2723142094947832 l -8.761248744132317 23.17089211675634" fill="#ffc512" stroke="none" /><path d="M 107.4271985657038 80.35727306442388 l 10.37780876868054 -27.446211654299898 a50.342689873492006,50.342689873492006 0 0,0 0.807920666979409,0.31346066698736025 l -10.848712600659615 27.26350828342199" fill="#f3ff19" stroke="none" /><path d="M 107.76421540070413 80.48803036053334 l 7.510361166547606 -18.874017721071525 a41.313396313450596,41.313396313450596 0 0,0 0.6584885784856934,0.2686140248278632 l -7.834133614621687 18.74194281006008" fill="#ff7c0b" stroke="none" /><path d="M 108.09893153111575 80.62456947434976 l 11.877370434656447 -28.414756292228397 a51.79724506492073,51.79724506492073 0 0,0 0.8196698017518379,0.3509398322887583 l -12.3647239941986 28.206096931976848" fill="#ddff1b" stroke="none" /><path d="M 108.43124777332544 80.76684994638697 l 9.202991234793409 -20.993631799181983 a43.922208091440694,43.922208091440694 0 0,0 0.6898252202371531,0.3095044683978824 l -9.562998573497342 20.83210700026757" fill="#ffa70f" stroke="none" /><path d="M 110.05341064243156 81.56283822128135 l 9.983614794028313 -18.30916170051014 a41.85420740596411,41.85420740596411 0 0,0 0.6295588519298518,0.3503488194900559 l -10.2972977350302 18.134597483459903" fill="#ff850c" stroke="none" /><line stroke="#e1ed5e" stroke-width="0.3" x1="143.23703022742887" x2="145.7803849466894" y1="26.81831364943548" y2="22.513508569990506" /><path d="M 143.74570117128098 25.957352633546492 a86.0,86.0 0 0,1 28.547481713284135,27.462654790039103" fill="none" id="id38" stroke="none" /><text fill="#e1ed5e" style="font-size:6.75px; font-family:Arial;" text-anchor="middle"><textPath startOffset="19.985693538727396" xlink:href="#id38">February</textPath></text><line stroke="#e1ed5e" stroke-width="0.3" x1="172.23445277983987" x2="176.4835382374775" y1="55.19839476539836" y2="52.563006222186495" /><path d="M 173.08426987136738 54.67131705675599 a86.0,86.0 0 0,1 12.851231095245387,41.99856678651699" fill="none" id="id39" stroke="none" /><text fill="#e1ed5e" style="font-size:6.75px; font-family:Arial;" text-anchor="middle"><textPath startOffset="22.20632615414155" xlink:href="#id39">March</textPath></text><line stroke="#e1ed5e" stroke-width="0.3" x1="184.98032266829074" x2="189.97916517819016" y1="98.17113171792111" y2="98.06355123074" /><path d="M 185.9800911702706 98.14961562048488 a86.0,86.0 0 0,1 -9.607161424134198,41.387399972396054" fill="none" id="id40" stroke="none" /><text fill="#e1ed5e" style="font-size:6.75px; font-family:Arial;" text-anchor="middle"><textPath startOffset="21.466115282336823" xlink:href="#id40">April</textPath></text><line stroke="#e1ed5e" stroke-width="0.3" x1="174.80103733775053" x2="179.2010983576182" y1="140.37084112569926" y2="142.7455964860345" /><path d="M 175.68104954172406 140.8457921977663 a86.0,86.0 0 0,1 -30.038265399797805,32.042727171017184" fill="none" id="id41" stroke="none" /><text fill="#e1ed5e" style="font-size:6.75px; font-family:Arial;" text-anchor="middle"><textPath startOffset="22.206326154141568" xlink:href="#id41">May</textPath></text><line stroke="#e1ed5e" stroke-width="0.3" x1="143.8653032363475" x2="146.44561519142675" y1="172.8068346515853" y2="177.08958963109032" /><path d="M 144.38136562736335 173.6633856474863 a86.0,86.0 0 0,1 -40.68145358897372,12.25698825130547" fill="none" id="id42" stroke="none" /><text fill="#e1ed5e" style="font-size:6.75px; font-family:Arial;" text-anchor="middle"><textPath startOffset="21.466115282336833" xlink:href="#id42">June</textPath></text><line stroke="#e1ed5e" stroke-width="0.3" x1="102.19456741930631" x2="102.32365962044197" y1="184.97166512339345" y2="189.96999836594603" /><path d="M 102.22038585953345 185.97133177190398 a86.0,86.0 0 0,1 -42.740103519485714,-10.115201625700543" fill="none" id="id43" stroke="none" /><text fill="#e1ed5e" style="font-size:6.75px; font-family:Arial;" text-anchor="middle"><textPath startOffset="22.20632615414155" xlink:href="#id43">July</textPath></text><line stroke="#e1ed5e" stroke-width="0.3" x1="58.666819895761336" x2="56.23545636021788" y1="174.27360380694188" y2="178.64263932499728" /><path d="M 58.180547188652646 175.14741091055294 a86.0,86.0 0 0,1 -31.652253787137756,-30.449443065178592" fill="none" id="id44" stroke="none" /><text fill="#e1ed5e" style="font-size:6.75px; font-family:Arial;" text-anchor="middle"><textPath startOffset="22.20632615414155" xlink:href="#id44">August</textPath></text><line stroke="#e1ed5e" stroke-width="0.3" x1="26.63291911575756" x2="22.317208475507996" y1="142.92168965132927" y2="145.44649492493687" /><path d="M 25.769776987707644 143.4266507060508 a86.0,86.0 0 0,1 -11.730757126820373,-40.83630448921669" fill="none" id="id45" stroke="none" /><text fill="#e1ed5e" style="font-size:6.75px; font-family:Arial;" text-anchor="middle"><textPath startOffset="21.46611528233685" xlink:href="#id45">September</textPath></text><line stroke="#e1ed5e" stroke-width="0.3" x1="15.007084014347285" x2="10.007500721073583" y1="101.09737516637583" y2="101.16192664675087" /><path d="M 14.007167355692545 101.11028546245083 a86.0,86.0 0 0,1 10.666146001902534,-42.60595125391555" fill="none" id="id46" stroke="none" /><text fill="#e1ed5e" style="font-size:6.75px; font-family:Arial;" text-anchor="middle"><textPath startOffset="22.20632615414155" xlink:href="#id46">October</textPath></text><line stroke="#e1ed5e" stroke-width="0.3" x1="26.266209847984243" x2="21.928928074336255" y1="57.711370442889674" y2="55.22380399835377" /><path d="M 25.398753493254645 57.213857153982495 a86.0,86.0 0 0,1 29.58750427330803,-30.492523968695096" fill="none" id="id47" stroke="none" /><text fill="#e1ed5e" style="font-size:6.75px; font-family:Arial;" text-anchor="middle"><textPath startOffset="21.46611528233685" xlink:href="#id47">November</textPath></text><line stroke="#e1ed5e" stroke-width="0.3" x1="56.762969772571076" x2="54.21961505331055" y1="26.818313649435495" y2="22.513508569990535" /><path d="M 56.25429882871897 25.957352633546506 a86.0,86.0 0 0,1 42.265352541879196,-11.944610805530505" fill="none" id="id48" stroke="none" /><text fill="#e1ed5e" style="font-size:6.75px; font-family:Arial;" text-anchor="middle"><textPath startOffset="22.20632615414155" xlink:href="#id48">December</textPath></text></svg>