<?xml version="1.0" encoding="utf-8" ?>
<svg baseProfile="full" height="200mm" version="1.1" viewBox="0,0,200,200" width="200mm" xmlns="http://www.w3.org/2000/svg" xmlns:ev="http://www.w3.org/2001/xml-events" xmlns:xlink="http://www.w3.org/1999/xlink"><defs /><rect fill="#1a1a1a" height="200" width="200" x="0" y="0" /><text alignment-baseline="middle" fill="#e1ed5e" style="dominant-baseline: central; font-size:9.0px; font-family:Arial;" text-anchor="middle" x="100.0" y="100.0">2025</text><line stroke="#e1ed5e" stroke-width="0.3" x1="100.0" x2="100.0" y1="15.0" y2="10.0" /><path d="M 100.0 14.0 a86.0,86.0 0 0,1 42.46469731375804,11.215312516191453" fill="none" id="id37" stroke="none" /><text fill="#e1ed5e" style="font-size:6.75px; font-family:Arial;" text-anchor="middle"><textPath startOffset="22.20632615414155" xlink:href="#id37">January</textPath></text><path d="M 100.0 79.0 l 0.0 -5.290306571725047 a26.290306571725047,26.290306571725047 0 0,0 0.4525444104651844,0.003895192614243182 l -0.09106393119265603 5.2895227557193625" fill="#ff4106" stroke="none" /><path d="M 101.44485096284872 79.0497635885617 l 3.881356080913931 -56.27938768978389 a77.41306944107762,77.41306944107762 0 0,0 1.328591890387558,0.10312430099049218 l -4.84953816066383 56.204238126604935" fill="#45ffee" stroke="none" /><path d="M 102.16513564639614 79.11191278185805 l 1.5774178162582004 -15.218095448336598 a36.2996299315288,36.2996299315288 0 0,0 0.6209540819847684,0.06977142626458092 l -1.839138601752694 15.188688068601417" fill="#ffc612" stroke="none" /><path d="M 103.2404852339499 79.25152402106235 l 2.525241619110475 -16.168848580513945 a37.36485593136938,37.36485593136938 0 0,0 0.6346168013118131,0.10471720982302947 l -2.8031876265611633 16.12298510775129" fill="#ffd413" stroke="none" /><path d="M 103.59715602781102 79.31037775812273 l 3.106994761759478 -17.870380776174677 a39.13846535777143,39.13846535777143 0 0,0 0.6627537730366009,0.12111401580693197 l -3.4141436558989797 17.814251279017007" fill="#ffea16" stroke="none" /><path d="M 103.95276090670814 79.375362276772 l 4.17068885263724 -21.761737851628727 a43.15779501278327,43.15779501278327 0 0,0 0.7284082021839317,0.14611183284950852 l -4.544663464288297 21.68672206270201" fill="#e4ff1a" stroke="none" /><path d="M 104.66035177308747 79.52364482259891 l 3.932507517876946 -17.278399699107194 a38.72026273903032,38.72026273903032 0 0,0 0.6486129174370697,0.1535057217144705 l -4.229344122276539 17.208148065251855" fill="#ffe515" stroke="none" /><path d="M 105.01212808612495 79.60689891045804 l 4.226096323424276 -17.194933580471215 a38.70665499103873,38.70665499103873 0 0,0 0.645647485337918,0.164589919953576 l -4.521452697447218 17.119640664348772" fill="#ffe415" stroke="none" /><path d="M 105.36241919743992 79.69619591428918 l 4.564842361501018 -17.28392756655771 a38.87657511693355,38.87657511693355 0 0,0 0.6455401810965566,0.17645051691530358 l -4.861680431821285 17.202790508816115" fill="#ffe615" stroke="none" /><path d="M 105.71112130821622 79.79150937346287 l 6.181696454407263 -21.873595063594387 a43.730321864428845,43.730321864428845 0 0,0 0.7226118794790433,0.2109502229423619 l -6.557298551609733 21.76394651173332" fill="#ddff1b" stroke="none" /><path d="M 106.0581310904928 79.89281104454417 l 2.2003774173744812 -7.303144128706478 a28.627422562278262,28.627422562278262 0 0,0 0.4706002385756984,0.14621778489005016 l -2.325763028660898 7.264186208933907" fill="#ff6109" stroke="none" /><path d="M 106.40334571778207 80.00007090966166 l 12.150898359158209 -37.95158285647689 a60.849303284331384,60.849303284331384 0 0,0 0.9947910034329451,0.32796695334160453 l -12.80237218483357 37.73680217887605" fill="#30ff39" stroke="none" /><path d="M 107.08798089147638 80.2323363322302 l 6.5732881300763015 -18.33223747865189 a40.475087876943995,40.475087876943995 0 0,0 0.6538031035127394,0.24080120069510597 l -6.887873559361617 18.21637301015046" fill="#fffa17" stroke="none" /><path d="M 107.4271985657038 80.35727306442388 l 8.268248408276099 -21.867053140229217 a44.37802268752789,44.37802268752789 0 0,0 0.7121971785582676,0.27632144063357694 l -8.643428751834035 21.72148899570509" fill="#d6ff1c" stroke="none" /><path d="M 107.76421540070413 80.48803036053334 l 2.9616408117733237 -7.4427926867002885 a29.010398197041184,29.010398197041184 0 0,0 0.46239277267684026,0.18862162196597582 l -3.0893174540385515 7.390710178550733" fill="#ff6609" stroke="none" /><path d="M 108.09893153111575 80.62456947434976 l 4.73082298846828 -11.317756149691567 a33.26671473590632,33.26671473590632 0 0,0 0.5264318872237111,0.22539066075009206 l -4.924938633482307 11.234645960978684" fill="#ff9f0e" stroke="none" /><path d="M 108.43124777332544 80.76684994638697 l 3.6738646036712477 -8.380727396319552 a30.15062144433533,30.15062144433533 0 0,0 0.47353400436574977,0.21246090457399652 l -3.8175807265037776 8.316246161229023" fill="#ff760a" stroke="none" /><path d="M 110.05341064243156 81.56283822128135 l 7.875203435482794 -14.442501648893098 a37.45006635331663,37.45006635331663 0 0,0 0.56331303922222,0.3134830964410784 l -8.122640563777049 14.30480315489184" fill="#ffd513" stroke="none" /><line stroke="#e1ed5e" stroke-width="0.3" x1="143.23703022742887" x2="145.7803849466894" y1="26.81831364943548" y2="22.513508569990506" /><path d="M 143.74570117128098 25.957352633546492 a86.0,86.0 0 0,1 28.547481713284135,27.462654790039103" fill="none" id="id38" stroke="none" /><text fill="#e1ed5e" style="font-size:6.75px; font-family:Arial;" text-anchor="middle"><textPath startOffset="19.985693538727396" xlink:href="#id38">February</textPath></text><path d="M 110.68208982089419 81.91981866633111 l 5.746448514775576 -9.726264515068221 a32.29698596750663,32.29698596750663 0 0,0 0.47620819058936703,0.28691010650028137 l -5.913018771582581 9.625907799109324" fill="#ff920d" stroke="none" /><path d="M 111.90073688211348 82.69761687909136 l 5.549333863148593 -8.068130697884751 a30.79233574193808,30.79233574193808 0 0,0 0.4341262739368201,0.30413319807522726 l -5.687391276669064 7.9714126570455885" fill="#ff7e0b" stroke="none" /><path d="M 112.48926042617603 83.11751280151076 l 4.478583040803206 -6.053971033806151 a28.53048944833827,28.53048944833827 0 0,0 0.3922994553982641,0.29547181658533533 l -4.582128649959852 5.975982627714969" fill="#ff6008" stroke="none" /><path d="M 113.06298171725822 83.55741782278167 l 17.043844716464253 -21.453357543627657 a48.39962030053833,48.39962030053833 0 0,0 0.6478556560595422,0.5238542185258864 l -17.410603771088287 21.156797227837643" fill="#a8ff21" stroke="none" /><path d="M 113.34407831869373 83.78471172551755 l 5.675760301486267 -6.896998598736688 a29.93212430897059,29.93212430897059 0 0,0 0.3950220311920946,0.33081959089792373 l -5.79363986963748 6.798277850444945" fill="#ff730a" stroke="none" /><path d="M 113.6212207817346 84.01681056812373 l 9.726172866829073 -11.412726206314932 a35.99495775571741,35.99495775571741 0 0,0 0.4681164847873417,0.4059460027111423 l -9.921183150263177 11.243615210184117" fill="#ffc212" stroke="none" /><path d="M 114.16331599549186 84.49514656593476 l 6.207504206723991 -6.795473810457513 a30.203889003302354,30.203889003302354 0 0,0 0.3808453184195231,0.3539542174487289 l -6.3235574089383615 6.687615006934144" fill="#ff770a" stroke="none" /><path d="M 114.42810811169701 84.74124197986012 l 11.174568901128422 -11.817907207353459 a37.2644987899315,37.2644987899315 0 0,0 0.4622869691981867,0.4447196980991699 l -11.376339113939027 11.623804422491986" fill="#ffd213" stroke="none" /><path d="M 114.68862486808459 84.99185889309783 l 10.656067690664887 -10.88786520062137 a36.23474276956897,36.23474276956897 0 0,0 0.44200208989093,0.4401039924491367 l -10.84190558072314 10.702825357522116" fill="#ffc512" stroke="none" /><path d="M 114.94478906791727 85.2469230424477 l 22.45048560374037 -22.16249023931926 a52.54679504247103,52.54679504247103 0 0,0 0.6299002923837269,0.6491676211003208 l -22.828650159827202 21.772758422668826" fill="#7bff26" stroke="none" /><path d="M 115.68641384162765 86.03803664274999 l 12.168520776381524 -10.83080192241986 a37.29046249091543,37.29046249091543 0 0,0 0.4226396897039493,0.4831502259893125 l -12.353152329663322 10.6197361402276" fill="#ffd313" stroke="none" /><path d="M 115.9244219780498 86.31012108654704 l 13.676325066458585 -11.75723893770921 a39.03536899433524,39.03536899433524 0 0,0 0.4336446326186893,0.5132984664624353 l -13.87668031256439 11.52008152161767" fill="#ffe815" stroke="none" /><path d="M 116.15771136456269 86.58626213691792 l 6.881964742050348 -5.7132392669978245 a29.944413990462984,29.944413990462984 0 0,0 0.32582589289090813,0.3994240185970162 l -6.9792891270176645 5.593931078792708" fill="#ff730a" stroke="none" /><path d="M 116.38621287248628 86.86637796730983 l 16.243514371520696 -13.019248553540493 a41.817122568613215,41.817122568613215 0 0,0 0.44534422970344756,0.5655419463087719 l -16.46521268181811 12.737714213278682" fill="#f4ff19" stroke="none" /><path d="M 116.60985879189232 87.15038557335679 l 34.97220750814808 -27.054979079509852 a65.21568942112839,65.21568942112839 0 0,0 0.6792495405367873,0.8938127746102369 l -35.43273298890898 26.44898152901858" fill="#36ff6c" stroke="none" /><path d="M 117.04232023915458 87.72973835380427 l 17.87457937209928 -12.869478019046507 a43.025531825865144,43.025531825865144 0 0,0 0.42756597706116456,0.6047617525774489 l -18.09345796896433 12.559889766137266" fill="#e5ff1a" stroke="none" /><path d="M 117.2510076193507 88.02491185347247 l 13.401716622842791 -9.30303559157353 a37.31418032440075,37.31418032440075 0 0,0 0.3617263903653866,0.5307888431690237 l -13.559867478876912 9.0709687251341" fill="#ffd313" stroke="none" /><path d="M 117.45458315368197 88.32363383020206 l 14.84019048608064 -9.927449806125944 a38.85456561544717,38.85456561544717 0 0,0 0.3670893595148094,0.5591022790943965 l -15.008876480953376 9.670529463053875" fill="#ffe615" stroke="none" /><path d="M 117.65298651832404 88.62581576622439 l 12.996665860994558 -8.37402055308478 a36.460839036929,36.460839036929 0 0,0 0.3353918056977557,0.530509292097493 l -13.138885262938269 8.14906361327308" fill="#ffc812" stroke="none" /><line stroke="#e1ed5e" stroke-width="0.3" x1="172.23445277983987" x2="176.4835382374775" y1="55.19839476539836" y2="52.563006222186495" /><path d="M 173.08426987136738 54.67131705675599 a86.0,86.0 0 0,1 12.851231095245387,41.99856678651699" fill="none" id="id39" stroke="none" /><text fill="#e1ed5e" style="font-size:6.75px; font-family:Arial;" text-anchor="middle"><textPath startOffset="22.20632615414155" xlink:href="#id39">March</textPath></text><path d="M 117.84615892207809 88.93136811851018 l 15.107516305914578 -9.370057577314322 a38.77737404499496,38.77737404499496 0 0,0 0.3469359984285894,0.5702715607379865 l -15.26656810262939 9.108618243369255" fill="#ffe515" stroke="none" /><path d="M 118.03404312379186 89.2402003453031 l 15.26807942113767 -9.109519953776172 a38.779133921493866,38.779133921493866 0 0,0 0.3370836061803935,0.5761851502186432 l -15.422622701788391 8.845355391203634" fill="#ffe515" stroke="none" /><path d="M 118.3937258080291 89.86733742301442 l 15.635299215411905 -8.613111497553193 a38.850721868449554,38.850721868449554 0 0,0 0.3176359183013743,0.5885311160769198 l -15.781243232931743 8.342699398143814" fill="#ffe615" stroke="none" /><path d="M 118.56541770881063 90.18545643968196 l 7.589232710861856 -4.01202150139589 a29.58444929318582,29.58444929318582 0 0,0 0.23412649512763556,0.4522578676199195 l -7.657168639149607 3.880790911515626" fill="#ff6e0a" stroke="none" /><path d="M 118.89224826269711 90.83032412892265 l 12.147624873780861 -5.89605753360479 a34.50289911514106,34.50289911514106 0 0,0 0.2547329426908163,0.5365325423066001 l -12.247316010313433 5.686082575657649" fill="#ffaf10" stroke="none" /><path d="M 119.196687751892 91.48605970444005 l 28.81729837603106 -12.780785988910178 a52.52435845798492,52.52435845798492 0 0,0 0.35943991761740957,0.8296368871692144 l -29.03302900349115 12.28284995715436" fill="#7bff26" stroke="none" /><path d="M 119.47837535516314 92.15188598940014 l 16.593446387115463 -6.685735165296474 a38.88970423742542,38.88970423742542 0 0,0 0.24483189254193366,0.623070461428115 l -16.706071829539095 6.399115698972574" fill="#ffe715" stroke="none" /><path d="M 119.7369772167798 92.82701384747503 l 15.576739640864904 -5.661035958962329 a37.5735375212402,37.5735375212402 0 0,0 0.21568448529821577,0.6097690843232055 l -15.67187720697293 5.392069248212509" fill="#ffd614" stroke="none" /><path d="M 119.85752413597 93.16781622104841 l 8.373373443827168 -2.880944564201353 a29.855124189518257,29.855124189518257 0 0,0 0.16301282544524062,0.4873875994172147 l -8.421723563044178 2.736383861861824" fill="#ff720a" stroke="none" /><path d="M 119.97218684219823 93.5106431181261 l 18.268298798869957 -5.935730096420794 a40.20842608810907,40.20842608810907 0 0,0 0.20821170682825044,0.6600880096252966 l -18.367765989466413 5.620391920369079" fill="#fff717" stroke="none" /><path d="M 120.08093135843002 93.85539295169968 l 29.75002821382519 -9.103274633378135 a52.11163428324042,52.11163428324042 0 0,0 0.2550842236280361,0.8600171929134852 l -29.902318334564928 8.589828053718119" fill="#7fff26" stroke="none" /><path d="M 120.28053869075195 94.5502522615342 l 16.49608879436757 -4.432797568716967 a38.081295026925865,38.081295026925865 0 0,0 0.16466291788447948,0.6345133928404831 l -16.56994804412235 4.148187750327633" fill="#ffdd14" stroke="none" /><path d="M 120.37134235888165 94.90015583598534 l 18.090692442142615 -4.528897048054412 a39.6489694489554,39.6489694489554 0 0,0 0.1600443863205843,0.6634873054213307 l -18.165969628724017 4.216824510973675" fill="#fff016" stroke="none" /><path d="M 120.45610955862082 95.25157060432595 l 8.607583138693196 -1.998058364145502 a29.836442990029823,29.836442990029823 0 0,0 0.11182359691471695,0.5012832585647844 l -8.64070112260995 1.8495969360307538" fill="#ff720a" stroke="none" /><path d="M 120.6074358757038 95.95851677861258 l 3.7580057147881343 -0.7370114910851622 a24.8295943506293,24.8295943506293 0 0,0 0.07864392827828359,0.4201190095471568 l -3.770135366976277 0.6722144040754425" fill="#ff2c04" stroke="none" /><path d="M 120.67395015179393 96.31383870115 l 62.02185045538181 -11.058483896549978 a84.0,84.0 0 0,0 0.2415525539191079,1.4256568467366484 l -62.20301487082114 9.98924126149749" fill="#4dd2ff" stroke="none" /><path d="M 120.78858239683441 97.02765380044208 l 8.057988034342742 -1.1521290703116411 a29.139936888960992,29.139936888960992 0 0,0 0.0667221310868283,0.49715737622419004 l -8.076626164487406 1.0132533520227867" fill="#ff6809" stroke="none" /><path d="M 120.83666639777658 97.38593545837742 l 7.529572325427269 -0.9446226979754482 a28.5885948268023,28.5885948268023 0 0,0 0.05705418653879565,0.48880542785986136 l -7.544716864969653 0.8148735317907341" fill="#ff6108" stroke="none" /><path d="M 120.91429891909075 98.10471618934814 l 18.585197794881754 -1.6842173211098714 a39.661354855947735,39.661354855947735 0 0,0 0.05576295116857359,0.6804492466324785 l -18.611435229869823 1.364054157269624" fill="#fff016" stroke="none" /><path d="M 120.96714384426684 98.82574320788733 l 31.27955433819976 -1.7517993584963973 a52.32857035660612,52.32857035660612 0 0,0 0.04262633452862607,0.8997745505746382 l -31.305074280961882 1.2131137012987594" fill="#7dff26" stroke="none" /><line stroke="#e1ed5e" stroke-width="0.3" x1="184.98032266829074" x2="189.97916517819016" y1="98.17113171792111" y2="98.06355123074" /><path d="M 185.9800911702706 98.14961562048488 a86.0,86.0 0 0,1 -9.607161424134198,41.387399972396054" fill="none" id="id40" stroke="none" /><text fill="#e1ed5e" style="font-size:6.75px; font-family:Arial;" text-anchor="middle"><textPath startOffset="21.466115282336823" xlink:href="#id40">April</textPath></text><path d="M 120.99513854157772 99.54816195383933 l 10.490293363041614 -0.2257624376910995 a31.492722407504505,31.492722407504505 0 0,0 0.006998871967599214,0.5420703469180805 l -10.492625242126929 0.04515583271255621" fill="#ff880c" stroke="none" /><path d="M 120.99980553446 99.90962569577887 l 9.753321961791405 -0.04197418327018007 a30.753412280962173,30.753412280962173 0 0,0 -0.0022782460401201987,0.5293841453553442 l -9.752599418461783 -0.12591944028884877" fill="#ff7e0b" stroke="none" /><path d="M 120.99824983174949 100.27111621757518 l 15.359245909583949 0.19830893951539366 a36.3605260764911,36.3605260764911 0 0,0 -0.013467137741099979,0.6257649727272848 l -15.353556709157843 -0.46266372803279326" fill="#ffc712" stroke="none" /><path d="M 120.9904718944345 100.63252640178507 l 7.661115936156093 0.23085989305652171 a28.66459351025525,28.66459351025525 0 0,0 -0.019106817706229337,0.4930620657618502 l -7.65600698559866 -0.3626992058323781" fill="#ff6209" stroke="none" /><path d="M 120.9764740272857 100.99374915477107 l 8.098366478079013 0.38365574844223205 a29.107449126981102,29.107449126981102 0 0,0 -0.02801751253389941,0.5002715073931081 l -8.090562614657584 -0.5229989721707634" fill="#ff6809" stroke="none" /><path d="M 120.95626037817324 101.35467743843564 l 44.22753501860754 2.8590045535859385 a65.31984612856391,65.31984612856391 0 0,0 -0.08218929153488563,1.121407583297368 l -44.17176916840832 -3.6198852733800773" fill="#36ff6e" stroke="none" /><path d="M 120.89721153311464 102.0752229133903 l 8.282753302100748 0.8225288532511089 a29.323494216847358,29.323494216847358 0 0,0 -0.05420335987834426,0.5018557941297613 l -8.267367640721352 -0.9649809692656617" fill="#ff6b09" stroke="none" /><path d="M 120.8583938346157 102.4346265915055 l 12.466495762293642 1.4551102221208028 a33.55112992323025,33.55112992323025 0 0,0 -0.07189286712420351,0.5730568870028385 l -12.43960138592259 -1.6694848634110362" fill="#ffa30f" stroke="none" /><path d="M 120.81339534386255 102.79330883721812 l 16.10937669918056 2.1619953665640517 a37.25380698793812,37.25380698793812 0 0,0 -0.09076792322772487,0.6348306436476916 l -16.069774724936238 -2.4389714821921524" fill="#ffd213" stroke="none" /><path d="M 120.76222939487914 103.15116336523771 l 11.19777512557669 1.699529375038614 a32.32601288448866,32.32601288448866 0 0,0 -0.08823192128729887,0.549420258079956 l -11.166861449928103 -1.8920288628117747" fill="#ff930d" stroke="none" /><path d="M 120.64145759157962 103.86396538481128 l 32.3021961515911 6.0467904085440365 a53.86328575265606,53.86328575265606 0 0,0 -0.1784415428553923,0.9098695826557844 l -32.19332467576004 -6.601923718267766" fill="#6dff28" stroke="none" /><path d="M 120.5718875245553 104.21870165774334 l 17.86039999206347 3.662653656089637 a39.232084896713474,39.232084896713474 0 0,0 -0.141358734121623,0.6603809450704688 l -17.794707219217404 -3.9695484205762748" fill="#ffeb16" stroke="none" /><path d="M 120.41448212921028 104.9243191809786 l 10.149472066385904 2.4482247287477006 a31.440574100536786,31.440574100536786 0 0,0 -0.1314346037188035,0.525015907162929 l -10.10582614837204 -2.6225684753080256" fill="#ff870c" stroke="none" /><path d="M 120.32669344350535 105.2749913415812 l 8.637002396830898 2.241393219567454 a29.923096657976178,29.923096657976178 0 0,0 -0.13367348853788963,0.4974487786078064 l -8.597140831951231 -2.389732931350809" fill="#ff730a" stroke="none" /><path d="M 120.23288151984713 105.62410040840565 l 14.713641794207076 4.089926525925696 a36.271501361546214,36.271501361546214 0 0,0 -0.17238870986086585,0.6001077142997433 l -14.641060447460111 -4.342591715730022" fill="#ffc612" stroke="none" /><path d="M 120.02730092923936 106.31721596034902 l 29.841409045001534 9.412882253302573 a52.290766147629526,52.290766147629526 0 0,0 -0.2781563704279776,0.8560772820266142 l -29.67496042355731 -9.925158435306983" fill="#7eff26" stroke="none" /><path d="M 119.79798401119884 107.00284435728193 l 8.478915853698993 2.9991199108130195 a29.993705259432467,29.993705259432467 0 0,0 -0.1763569010523734,0.48525844942099866 l -8.426034691641393 -3.144626157240149" fill="#ff740a" stroke="none" /><path d="M 119.67450827220406 107.3425965602758 l 17.024951451559538 6.353772518101125 a39.17193982875071,39.17193982875071 0 0,0 -0.2411978999655436,0.6296916060769702 l -16.91305927200049 -6.645887691011239" fill="#ffea16" stroke="none" /><path d="M 119.54520255179757 107.68017299344265 l 16.757926034156455 6.584928992808059 a39.005259642853886,39.005259642853886 0 0,0 -0.25092898133148545,0.6227851531287667 l -16.64209443856758 -6.872413513779639" fill="#ffe815" stroke="none" /><path d="M 119.26925614724726 108.34839909993367 l 15.941187164871053 6.906514271340748 a38.37300744274528,38.37300744274528 0 0,0 -0.2678050641146448,0.6038297211063646 l -15.819941016025137 -7.1798923289398" fill="#ffe015" stroke="none" /><path d="M 118.97047184881838 109.00673069616215 l 9.05167874695343 4.297522669530336 a31.020059342797104,31.020059342797104 0 0,0 -0.23316263556565853,0.4803840897566742 l -8.976362854773056 -4.452695715252285" fill="#ff810b" stroke="none" /><path d="M 118.81262510543309 109.33194174019688 l 8.564991135186002 4.248636106386623 a30.560856756081375,30.560856756081375 0 0,0 -0.237823612550005,0.46924854989312853 l -8.490588852849728 -4.395438867982446" fill="#ff7b0b" stroke="none" /><line stroke="#e1ed5e" stroke-width="0.3" x1="174.80103733775053" x2="179.2010983576182" y1="140.37084112569926" y2="142.7455964860345" /><path d="M 175.68104954172406 140.8457921977663 a86.0,86.0 0 0,1 -30.038265399797805,32.042727171017184" fill="none" id="id41" stroke="none" /><text fill="#e1ed5e" style="font-size:6.75px; font-family:Arial;" text-anchor="middle"><textPath startOffset="22.206326154141568" xlink:href="#id41">May</textPath></text><path d="M 118.48025628344425 109.97397251340804 l 8.232134270168004 4.442962244571071 a30.354568303709076,30.354568303709076 0 0,0 -0.25212156157534943,0.45767386791722964 l -8.154436299141144 -4.584006630886106" fill="#ff790b" stroke="none" /><path d="M 118.30583269289576 110.29060199501025 l 9.347879125803216 5.254899091175308 a31.723656494361546,31.723656494361546 0 0,0 -0.2716874426313583,0.4737099568304646 l -9.256039687019477 -5.415028893864088" fill="#ff8b0c" stroke="none" /><path d="M 118.12598468904814 110.60418214915192 l 0.6429219491927913 0.37612640493111776 a21.744862205538894,21.744862205538894 0 0,0 -0.19178877789393473,0.3214490234201279 l -0.6363522956006293 -0.38713752223734976" fill="#ff0000" stroke="none" /><path d="M 117.55443506779139 111.5257021239791 l 13.79779170005836 9.059205636037147 a37.506006862782,37.506006862782 0 0,0 -0.35898051942206505,0.5366271694195078 l -13.639808075225574 -9.295369719662462" fill="#ffd513" stroke="none" /><path d="M 117.35343817320211 111.8261652097733 l 13.437565612038025 9.15754384572234 a37.2612662134335,37.2612662134335 0 0,0 -0.365762076915587,0.5269075516216507 l -13.2779426279603 -9.38749265953101" fill="#ffd213" stroke="none" /><path d="M 116.93607887273984 112.41649034213515 l 7.206233649471838 5.283166852503051 a29.93541579346855,29.93541579346855 0 0,0 -0.3082474472445417,0.41294782866196567 l -7.114224935532205 -5.406427560674331" fill="#ff730a" stroke="none" /><path d="M 116.71984013943494 112.70617746262583 l 15.724702803675072 11.949926716063558 a40.75011460177374,40.75011460177374 0 0,0 -0.4292213117854665,0.5548264050978086 l -15.516674674671536 -12.218831115274618" fill="#fffd18" stroke="none" /><path d="M 116.498646956653 112.99209946851258 l 13.386496250828381 10.541391138471576 a38.0387560874522,38.0387560874522 0 0,0 -0.40951816186130136,0.5109368732179125 l -13.203060176912226 -10.770255845267739" fill="#ffdc14" stroke="none" /><path d="M 116.0416608686014 113.55231037782055 l 13.628543930481756 11.51366176211617 a38.84100941195557,38.84100941195557 0 0,0 -0.43586546684567673,0.5070100081666502 l -13.4283359540653 -11.74654886944435" fill="#ffe615" stroke="none" /><path d="M 115.80600337817218 113.82643327865902 l 14.566522626887107 12.742187154082592 a40.353214588519435,40.353214588519435 0 0,0 -0.4618351435520104,0.5188766796614257 l -14.34502863368676 -12.991038003484885" fill="#fff917" stroke="none" /><path d="M 115.32070863581623 114.36230785411682 l 12.682022310979335 11.888686938230471 a38.383169072738994,38.383169072738994 0 0,0 -0.4560166295696155,0.4781316129732824 l -12.475499130030755 -12.10522566778626" fill="#ffe015" stroke="none" /><path d="M 115.07121518719521 114.62390073753431 l 11.652911976325084 11.307052943533538 a37.23698875394853,37.23698875394853 0 0,0 -0.4503182089888962,0.4561699682137307 l -11.456553142280653 -11.505963405727934" fill="#ffd213" stroke="none" /><path d="M 114.81725581225074 114.88116024355365 l 22.23890380404009 22.33481660452116 a52.51845293098858,52.51845293098858 0 0,0 -0.6461021340890718,0.6323469246793433 l -21.85115171757522 -22.714313632123073" fill="#7bff26" stroke="none" /><path d="M 114.29624159901734 115.38237550388516 l 11.056763034539033 11.896782778660278 a37.24147312544575,37.24147312544575 0 0,0 -0.47332218836662615,0.4323685967121452 l -10.850341296705544 -12.085344141959006" fill="#ffd213" stroke="none" /><path d="M 113.75828350139079 115.86535959552629 l 14.621134888768664 16.86035635779426 a43.31701597318471,43.31701597318471 0 0,0 -0.5675241212326956,0.4836563682873732 l -14.32874529095892 -17.10953711630458" fill="#e2ff1b" stroke="none" /><path d="M 113.20401910651253 116.32954008644616 l 4.336859669183592 5.363436938855652 a27.897449353730153,27.897449353730153 0 0,0 -0.37600781008907125,0.2987233450196918 l -4.2438943663771695 -5.43729419788047" fill="#ff5708" stroke="none" /><path d="M 112.92097659922987 116.55440617244103 l 11.139382276508423 14.271820500503214 a39.10443862429249,39.10443862429249 0 0,0 -0.5341876204618534,0.409592288441454 l -10.892065927553077 -14.46145213077204" fill="#ffe915" stroke="none" /><path d="M 112.34349029814194 116.9893568818739 l 7.217114738411915 9.9335062439162 a33.27848897239903,33.27848897239903 0 0,0 -0.4663309464313948,0.33271474842424037 l -7.045056464131636 -10.05626525418466" fill="#ff9f0e" stroke="none" /><path d="M 111.1453310114006 117.79835938074945 l 5.639225782028789 9.005472066739738 a31.625412677422364,31.625412677422364 0 0,0 -0.46387071025574017,0.28494727713715867 l -5.48337587184074 -9.101207810705276" fill="#ff8a0c" stroke="none" /><line stroke="#e1ed5e" stroke-width="0.3" x1="143.8653032363475" x2="146.44561519142675" y1="172.8068346515853" y2="177.08958963109032" /><path d="M 144.38136562736335 173.6633856474863 a86.0,86.0 0 0,1 -40.68145358897372,12.25698825130547" fill="none" id="id42" stroke="none" /><text fill="#e1ed5e" style="font-size:6.75px; font-family:Arial;" text-anchor="middle"><textPath startOffset="21.466115282336833" xlink:href="#id42">June</textPath></text><path d="M 110.8373102113329 117.98757091392108 l 4.224613653463322 7.0119371129678525 a29.186245940432322,29.186245940432322 0 0,0 -0.4325570219395234,0.2555623129958311 l -4.103288760495417 -7.083617998257433" fill="#ff6909" stroke="none" /><path d="M 109.89434966115114 118.52300852407294 l 8.408337738319092 15.741076163064207 a38.846053409452445,38.846053409452445 0 0,0 -0.5925116337137744,0.3099740829298339 l -8.136135202078822 -15.883479664938758" fill="#ffe615" stroke="none" /><path d="M 109.57404056367764 118.69057910512821 l 6.764668472760922 13.206082674203515 a35.837835392814675,35.837835392814675 0 0,0 -0.5514693554426916,0.27651818313499005 l -6.536345209635471 -13.320568698247806" fill="#ffc011" stroke="none" /><path d="M 108.92500713936063 119.00905698771935 l 12.42228210790035 26.457779228568832 a50.228875696405936,50.228875696405936 0 0,0 -0.7857996763280666,0.36072209036193287 l -11.965014435804862 -26.66768838926484" fill="#94ff23" stroke="none" /><path d="M 108.59647513512805 119.15986991738527 l 7.178402185811623 15.999261317327843 a38.53584388164448,38.53584388164448 0 0,0 -0.6075438663728087,0.26632937694941106 l -6.901937644781061 -16.12045524757171" fill="#ffe215" stroke="none" /><path d="M 108.2653958097858 119.30500536409082 l 1.9304981488476394 4.508952502280334 a25.90484207396367,25.90484207396367 0 0,0 -0.411428769946565,0.17197725920552542 l -1.8525979194036133 -4.541514804505832" fill="#ff3b05" stroke="none" /><path d="M 107.59598834532513 119.57807347666477 l 6.393423113050579 16.478554440087603 a38.675367479558105,38.675367479558105 0 0,0 -0.6227282603751538,0.2354625433347907 l -6.108824631915151 -16.586165233529027" fill="#ffe415" stroke="none" /><path d="M 106.91757812671514 119.82793768551818 l 5.917523725004098 16.96146968240643 a38.964090314379376,38.964090314379376 0 0,0 -0.6351708306275953,0.21548443177827595 l -5.624683161439275 -17.06081710108283" fill="#ffe815" stroke="none" /><path d="M 106.57524785965236 119.94407469862006 l 4.455107588236656 13.51325462199057 a35.228704582691755,35.228704582691755 0 0,0 -0.5775471918056068,0.18491237247696485 l -4.221839051340108 -13.587939841127241" fill="#ffb911" stroke="none" /><path d="M 103.7750983002368 120.6578951692458 l 4.33403581812524 23.716483776057267 a45.109240327575236,45.109240327575236 0 0,0 -0.7650334447038287,0.13301087061528627 l -3.925153401949361 -23.787573225193558" fill="#cdff1d" stroke="none" /><path d="M 103.06178313531738 120.77559828337769 l 2.391835004598405 16.229693946141083 a37.40499436984453,37.40499436984453 0 0,0 -0.6377932871742336,0.08839233801668044 l -2.112113126237341 -16.268460849650367" fill="#ffd413" stroke="none" /><path d="M 102.34483914955558 120.86867818915974 l 0.6585715690283471 5.8611773610089 a26.89806040734882,26.89806040734882 0 0,0 -0.4605555112864791,0.047738461842716705 l -0.5575834611362654 -5.871645191307375" fill="#ff4906" stroke="none" /><path d="M 101.62511606390274 120.93702456842531 l 1.1295202020634973 14.552063539599358 a35.59583396546448,35.59583396546448 0 0,0 -0.6112944423369853,0.042158443764026075 l -0.8788629989475818 -14.569350327879668" fill="#ffbd11" stroke="none" /><path d="M 101.26447882468166 120.96189622390904 l 1.1526943323621528 19.108788934402753 a40.14352419914925,40.14352419914925 0 0,0 -0.6901091053250045,0.035670758038207115 l -0.8235971586236688 -19.12579949920316" fill="#fff617" stroke="none" /><line stroke="#e1ed5e" stroke-width="0.3" x1="102.19456741930631" x2="102.32365962044197" y1="184.97166512339345" y2="189.96999836594603" /><path d="M 102.22038585953345 185.97133177190398 a86.0,86.0 0 0,1 -42.740103519485714,-10.115201625700543" fill="none" id="id43" stroke="none" /><text fill="#e1ed5e" style="font-size:6.75px; font-family:Arial;" text-anchor="middle"><textPath startOffset="22.20632615414155" xlink:href="#id43">July</textPath></text><path d="M 100.54218724476979 120.99299961872073 l 0.42113862871796204 16.306106713850312 a37.311544191402376,37.311544191402376 0 0,0 -0.6421855287201856,0.011055806260982843 l -0.14039341010510845 -16.310939997390452" fill="#ffd313" stroke="none" /><path d="M 100.18074693466247 120.99922214144158 l 0.1378818183406787 16.01914266490253 a37.01973605008302,37.01973605008302 0 0,0 -0.6372575060062573,0.0 l 0.13788181834066768 -16.01914266490253" fill="#ffcf13" stroke="none" /><path d="M 99.45781275523022 120.99299961872073 l -0.34839451611136774 13.489520482902348 a34.494018734146564,34.494018734146564 0 0,0 -0.5934279503619403,-0.020438858485861095 l 0.5805428181479511 -13.481524825990393" fill="#ffaf10" stroke="none" /><path d="M 99.09653310690486 120.98055641714683 l -0.7019754253133665 16.30146619294754 a37.31657346189927,37.31657346189927 0 0,0 -0.6415108697938188,-0.03315878437007281 l 0.9824743635206742 -16.286967601815267" fill="#ffd313" stroke="none" /><path d="M 98.01472825383883 120.90594882070398 l -1.546904868396444 16.289716544713453 a37.36300032937052,37.36300032937052 0 0,0 -0.6397389053074343,-0.066311553269679 l 1.8270763703094715 -16.260675622988014" fill="#ffd413" stroke="none" /><path d="M 97.65516085044442 120.86867818915974 l -1.643812678675655 14.629659267265543 a35.72172036138655,35.72172036138655 0 0,0 -0.6104545637680213,-0.07391754625357154 l 1.8953946654950657 -14.599196192286623" fill="#ffbf11" stroke="none" /><path d="M 96.58105272829116 120.7198165907248 l -1.320397937124974 8.001996202277393 a29.1102030759794,29.1102030759794 0 0,0 -0.4936966079127409,-0.08583548352413442 l 1.4579435165097647 -7.978082140232253" fill="#ff6809" stroke="none" /><path d="M 95.16358092515715 120.4354850818985 l -2.917818266449813 12.328756200198296 a33.66932882515708,33.66932882515708 0 0,0 -0.5628336804272444,-0.13833082497360538 l 3.129605231620268 -12.27670411691066" fill="#ffa40f" stroke="none" /><path d="M 94.81253420990036 120.34920634021253 l -2.057444625743424 8.070870617155453 a29.32898738784396,29.32898738784396 0 0,0 -0.4881314949863218,-0.12891996438400702 l 2.196066563541235 -8.034259303467865" fill="#ff6b09" stroke="none" /><path d="M 93.76903079525671 120.05430185196036 l -4.958020336468043 15.957330737567748 a37.70982854265582,37.70982854265582 0 0,0 -0.618223287976991,-0.19793557396226175 l 5.231964969535974 -15.86962231694578" fill="#ffd814" stroke="none" /><path d="M 93.08242187328487 119.8279376855182 l -5.818767872768579 16.67840459107863 a38.66429277556496,38.66429277556496 0 0,0 -0.6265096444576252,-0.22464406835703218 l 6.1049970778559315 -16.575772981681638" fill="#ffe415" stroke="none" /><line stroke="#e1ed5e" stroke-width="0.3" x1="58.666819895761336" x2="56.23545636021788" y1="174.27360380694188" y2="178.64263932499728" /><path d="M 58.180547188652646 175.14741091055294 a86.0,86.0 0 0,1 -31.652253787137756,-30.449443065178592" fill="none" id="id44" stroke="none" /><text fill="#e1ed5e" style="font-size:6.75px; font-family:Arial;" text-anchor="middle"><textPath startOffset="22.20632615414155" xlink:href="#id44">August</textPath></text><path d="M 89.1626897886671 117.98757091392108 l -9.55694991517806 15.862452118449994 a39.51898158353587,39.51898158353587 0 0,0 -0.579650872629575,-0.3560689092762815 l 9.828579987739944 -15.695594742345335" fill="#ffee16" stroke="none" /><path d="M 87.65650970185807 116.9893568818739 l -4.369075096042446 6.013515971373681 a28.433114524398547,28.433114524398547 0 0,0 -0.3934804961238301,-0.29108746424231086 l 4.47194056258484 -5.937418558391603" fill="#ff5e08" stroke="none" /><path d="M 87.07902340077011 116.55440617244103 l -2.769607866739897 3.5484325207378595 a25.501344364713454,25.501344364713454 0 0,0 -0.3437125927650746,-0.2730660711857349 l 2.8302779522223296 -3.5002325355469943" fill="#ff3605" stroke="none" /><path d="M 86.51685102203217 116.09983520530335 l -11.469801384729509 13.695755526654219 a38.8642118004412,38.8642118004412 0 0,0 -0.5091850662820344,-0.4339385600196578 l 11.7038519275886 -13.49629257641161" fill="#ffe615" stroke="none" /><path d="M 86.24171649860922 115.8653595955263 l -8.674718873132976 10.003248900812444 a34.24068488030339,34.24068488030339 0 0,0 -0.4419618799296197,-0.3899799730112408 l 8.845623105969183 -9.852445786028914" fill="#ffac0f" stroke="none" /><path d="M 85.70375840098266 115.38237550388516 l -3.9990110035700877 4.302829416740687 a26.87421739436358,26.87421739436358 0 0,0 -0.3361378042043001,-0.3178392745390446 l 4.072484642165205 -4.233355505455712" fill="#ff4906" stroke="none" /><path d="M 85.44109423537348 115.13401014063109 l -13.510289177261946 14.043971210276318 a40.48745855693634,40.48745855693634 0 0,0 -0.4980922307794077,-0.4874880823356228 l 13.750031360417148 -13.809333025018125" fill="#fffa17" stroke="none" /><path d="M 84.67929136418377 114.36230785411682 l -10.908714564420109 10.22631006118226 a35.952507178243685,35.952507178243685 0 0,0 -0.41936646547000617,-0.4551394723848453 l 11.083127437885842 -10.037019333996072" fill="#ffc212" stroke="none" /><path d="M 84.43433777217949 114.09645910891817 l -10.98443609392433 9.94764321403433 a35.81936037132611,35.81936037132611 0 0,0 -0.4099460131669163,-0.460578691600882 l 11.154040956739586 -9.757090352692584" fill="#ffc011" stroke="none" /><path d="M 83.72743513129214 113.27417163493432 l -12.143368111206279 9.905823318874265 a36.671206868298775,36.671206868298775 0 0,0 -0.39479538172633866,-0.4925679412686115 l 12.312081404987477 -9.695327544027394" fill="#ffcb12" stroke="none" /><path d="M 83.06392112726016 112.41649034213515 l -13.242912384819778 9.70888804683843 a37.42063444383484,37.42063444383484 0 0,0 -0.3763806750792043,-0.5227598385008944 l 13.408072852274591 -9.479494602886398" fill="#ffd413" stroke="none" /><path d="M 82.85270091963577 112.12312394758628 l -11.255822478708218 7.957855660059386 a34.784810712466545,34.784810712466545 0 0,0 -0.34145282499070195,-0.49188826115417855 l 11.391136210861054 -7.762926136718195" fill="#ffb310" stroke="none" /><path d="M 82.24976979558568 111.22182372390057 l -7.139173353820011 4.5134369519902 a29.446236398271378,29.446236398271378 0 0,0 -0.2671690125031995,-0.43076151662069795 l 7.2158070059911665 -4.389879104004238" fill="#ff6c0a" stroke="none" /><path d="M 82.05923443525364 110.91462005526583 l -9.636847046829919 5.8627667625033215 a32.280108825517075,32.280108825517075 0 0,0 -0.28470921376324043,-0.47718901871057073 l 9.736337136291391 -5.69601564990664" fill="#ff920d" stroke="none" /><line stroke="#e1ed5e" stroke-width="0.3" x1="26.63291911575756" x2="22.317208475507996" y1="142.92168965132927" y2="145.44649492493687" /><path d="M 25.769776987707644 143.4266507060508 a86.0,86.0 0 0,1 -11.730757126820373,-40.83630448921669" fill="none" id="id45" stroke="none" /><text fill="#e1ed5e" style="font-size:6.75px; font-family:Arial;" text-anchor="middle"><textPath startOffset="21.46611528233685" xlink:href="#id45">September</textPath></text><path d="M 81.69416730710424 110.29060199501025 l -12.992556170764692 7.303749941025162 a35.904740153773254,35.904740153773254 0 0,0 -0.2982206521586399,-0.54135710771191 l 13.116353232374848 -7.079022314915429" fill="#ffc112" stroke="none" /><path d="M 81.35079622478065 109.6543875284942 l -14.895856303687212 7.711340980447192 a37.773530181116385,37.773530181116385 0 0,0 -0.2939524070984115,-0.5799959864772616 l 15.02638738057189 -7.453790782267245" fill="#ffd914" stroke="none" /><path d="M 81.02952815118164 109.00673069616217 l -11.811143186356967 5.607651024239236 a34.07474104440612,34.07474104440612 0 0,0 -0.247001929122305,-0.5320201810062508 l 11.905919732319099 -5.403510775954158" fill="#ffaa0f" stroke="none" /><path d="M 80.87730276802145 108.67885076344099 l -17.883162614960593 8.116287029532797 a40.638778481842664,40.638778481842664 0 0,0 -0.28361787105450786,-0.6394834262966546 l 18.02022157074638 -7.807255266743447" fill="#fffc17" stroke="none" /><path d="M 80.73074385275274 108.34839909993369 l -11.05292967038752 4.788678265874603 a33.04569192004314,33.04569192004314 0 0,0 -0.2216406325123523,-0.5238929836747783 l 11.13372128409218 -4.597710756533665" fill="#ff9c0e" stroke="none" /><path d="M 80.58989483394504 108.01547362559985 l -21.347507587385635 8.81553101207436 a44.09609636320242,44.09609636320242 0 0,0 -0.2836793971487122,-0.704068999345064 l 21.496089598791734 -8.44676264488649" fill="#d9ff1c" stroke="none" /><path d="M 80.32549172779594 107.34259656027581 l -16.744718311277417 6.249188512064367 a38.872827095435866,38.872827095435866 0 0,0 -0.2285643358297657,-0.6289108877273637 l 16.849806908112406 -5.960029827330886" fill="#ffe615" stroke="none" /><path d="M 80.0844068197444 106.66101706037122 l -25.391777601956523 8.49259483606371 a47.77436342542539,47.77436342542539 0 0,0 -0.25413174273266187,-0.7821370808819736 l 25.534201595705436 -8.054258855203932" fill="#afff20" stroke="none" /><path d="M 79.97269907076064 106.31721596034903 l -26.040125543658625 8.213842557971715 a48.30485941909699,48.30485941909699 0 0,0 -0.24330289925693036,-0.7951279521831899 l 26.177655215421687 -7.764387633236478" fill="#a9ff21" stroke="none" /><path d="M 79.76711848015287 105.62410040840567 l -15.15593516653994 4.212870078653593 a36.73056404176204,36.73056404176204 0 0,0 -0.16408404141949182,-0.6106177588836024 l 15.226207284301207 -3.9513613865944515" fill="#ffcc13" stroke="none" /><path d="M 79.58551787078972 104.9243191809786 l -9.219136124802583 2.223811927438508 a30.48355473312923,30.48355473312923 0 0,0 -0.11865278630052047,-0.5111530979507153 l 9.25604947703366 -2.064790172139219" fill="#ff7a0b" stroke="none" /><path d="M 79.50377843672027 104.57218783832718 l -16.291152746604528 3.63414350446925 a37.69157442616712,37.69157442616712 0 0,0 -0.13580805766405812,-0.6344500325760578 l 16.351294842993028 -3.3531796524770283" fill="#ffd814" stroke="none" /><path d="M 79.4281124754447 104.21870165774334 l -17.36867072177881 3.5618141446333067 a38.73012246552421,38.73012246552421 0 0,0 -0.12830748646605553,-0.6542371092200824 l 17.427408141220532 -3.2623133083452696" fill="#ffe515" stroke="none" /><path d="M 79.35854240842038 103.8639653848113 l -30.614099850131804 5.7307882247773705 a52.14586719471922,52.14586719471922 0 0,0 -0.15756384718157734,-0.8837017314931718 l 30.70821013965257 -5.202967742550984" fill="#7fff26" stroke="none" /><path d="M 79.23777060512086 103.15116336523772 l -16.453670404636643 2.497236805194683 a37.64209906969775,37.64209906969775 0 0,0 -0.0917139866965848,-0.6414474093454138 l 16.494218442349826 -2.2136439238688683" fill="#ffd714" stroke="none" /><path d="M 79.18660465613746 102.79330883721812 l -7.328632716181015 0.9835557434347595 a28.394338333422553,28.394338333422553 0 0,0 -0.060842970044684794,-0.4849783351883391 l 7.344477195472548 -0.8572596539590118" fill="#ff5e08" stroke="none" /><path d="M 79.1416061653843 102.43462659150553 l -16.938101246588182 1.9770434881769205 a38.05309282194332,38.05309282194332 0 0,0 -0.0703396897197468,-0.6512581678031537 l 16.96962323780898 -1.6851889984889847" fill="#ffdc14" stroke="none" /><path d="M 79.10278846688536 102.07522291339032 l -7.616702029020423 0.7563858244934847 a28.654166794261705,28.654166794261705 0 0,0 -0.04451684571461,-0.4912396829318039 l 7.628593471012108 -0.6251647530131146" fill="#ff6209" stroke="none" /><path d="M 79.07016306316243 101.71520430193888 l -18.5884594398085 1.5233279501313377 a39.650773506454286,39.650773506454286 0 0,0 -0.04989094703150101,-0.680722333702824 l 18.611926945504337 -1.203132479931753" fill="#fff016" stroke="none" /><path d="M 79.0235259727143 100.99374915477108 l -17.910609361678574 0.8485054681473628 a38.930696841900044,38.930696841900044 0 0,0 -0.02594984392395671,-0.6696501661378398 l 17.922561338453733 -0.5400780549955263" fill="#ffe715" stroke="none" /><path d="M 79.0095281055655 100.63252640178507 l -11.601987967825016 0.34961404106345384 a32.607254403314556,32.607254403314556 0 0,0 -0.012077008607761678,-0.5611711343085737 l 11.606287039117785 -0.14985309096475133" fill="#ff970d" stroke="none" /><line stroke="#e1ed5e" stroke-width="0.3" x1="15.007084014347285" x2="10.007500721073583" y1="101.09737516637583" y2="101.16192664675087" /><path d="M 14.007167355692545 101.11028546245083 a86.0,86.0 0 0,1 10.666146001902534,-42.60595125391555" fill="none" id="id46" stroke="none" /><text fill="#e1ed5e" style="font-size:6.75px; font-family:Arial;" text-anchor="middle"><textPath startOffset="22.20632615414155" xlink:href="#id46">October</textPath></text><path d="M 79.08570108090925 98.10471618934814 l -17.862794349211946 -1.618752083157883 a38.93599119839676,38.93599119839676 0 0,0 0.06623359619134181,-0.6669632747781071 l 17.832283627338374 1.9259908886404202" fill="#ffe715" stroke="none" /><path d="M 79.32604984820605 96.31383870115002 l -17.413629786923366 -3.1048468106850047 a38.68826096805012,38.68826096805012 0 0,0 0.12253912721315287,-0.654608917466537 l 17.35760493580035 3.4041338056141144" fill="#ffe415" stroke="none" /><path d="M 79.3925641242962 95.95851677861259 l -7.501053919684269 -1.4710895495187795 a28.643946256268034,28.643946256268034 0 0,0 0.0990544545192019,-0.4830246987091277 l 7.474620169250072 1.5999899043913097" fill="#ff6109" stroke="none" /><path d="M 79.54389044137918 95.25157060432595 l -14.28994524530799 -3.317091936320656 a35.66988868491864,35.66988868491864 0 0,0 0.14398269422995244,-0.5969012223307517 l 14.230729750817222 3.562578390310805" fill="#ffbe11" stroke="none" /><path d="M 79.81627453868168 94.20196356495316 l -17.492344715369253 -5.024902473454752 a39.19977385873347,39.19977385873347 0 0,0 0.19188121843964137,-0.6469280793151543 l 17.403257599817902 5.325259939516446" fill="#ffea16" stroke="none" /><path d="M 79.91906864156998 93.8553929516997 l -30.378704893411758 -9.29564475244971 a52.769084380333425,52.769084380333425 0 0,0 0.2732546929968661,-0.8662920503785924 l 30.214194716646688 9.817186969254717" fill="#78ff26" stroke="none" /><path d="M 80.14247586403 93.16781622104843 l -17.02095281295711 -5.856232474638516 a39.000230372356995,39.000230372356995 0 0,0 0.22387417233787285,-0.6329224324194399 l 16.917625559809427 6.148352533484567" fill="#ffe815" stroke="none" /><path d="M 80.38941819471856 92.48833698450439 l -16.03598225442841 -6.142443707880864 a38.17213852636963,38.17213852636963 0 0,0 0.24031442514265064,-0.6115739996406585 l 15.927874279404069 6.417566712417286" fill="#ffde14" stroke="none" /><path d="M 80.52162464483688 92.15188598940014 l -15.16597251200236 -6.110585671831622 a37.35071801137813,37.35071801137813 0 0,0 0.24540900308567573,-0.5942773666394743 l 15.058541822030485 6.370737608924408" fill="#ffd313" stroke="none" /><path d="M 80.803312248108 91.48605970444005 l -28.60892119229094 -12.688368436244328 a52.296406588626034,52.296406588626034 0 0,0 0.3720458083563448,-0.8197536221724859 l 28.386273066971242 13.178944067258884" fill="#7dff26" stroke="none" /><path d="M 81.10775173730289 90.83032412892265 l -14.71754673343639 -7.143413070085192 a37.35953948437266,37.35953948437266 0 0,0 0.28578266375409944,-0.5761204114337399 l 14.592404056728878 7.3956930700178924" fill="#ffd413" stroke="none" /><path d="M 81.43458229118936 90.18545643968196 l -16.066614699100835 -8.493560032120238 a39.17351561774973,39.17351561774973 0 0,0 0.3202750169860158,-0.5934209651299317 l 15.918031582896345 8.768861980582642" fill="#ffea16" stroke="none" /><line stroke="#e1ed5e" stroke-width="0.3" x1="26.266209847984243" x2="21.928928074336255" y1="57.711370442889674" y2="55.22380399835377" /><path d="M 25.398753493254645 57.213857153982495 a86.0,86.0 0 0,1 29.58750427330803,-30.492523968695096" fill="none" id="id47" stroke="none" /><text fill="#e1ed5e" style="font-size:6.75px; font-family:Arial;" text-anchor="middle"><textPath startOffset="21.46611528233685" xlink:href="#id47">November</textPath></text><path d="M 81.78341655067845 89.55222093294921 l -22.922714904914066 -13.146892314346346 a47.42520834614154,47.42520834614154 0 0,0 0.41223871284844466,-0.7046495894001046 l 22.693016517595296 13.539521316100343" fill="#b3ff20" stroke="none" /><path d="M 81.96595687620814 89.24020034530311 l -33.72215105140813 -20.119924675121087 a60.268242136191084,60.268242136191084 0 0,0 0.5392119315452975,-0.8863226392292912 l 33.370823321576616 20.697415087557452" fill="#30ff32" stroke="none" /><path d="M 82.34701348167596 88.62581576622439 l -4.123589525700707 -2.6569139970226447 a25.90542379046331,25.90542379046331 0 0,0 0.2447487258336619,-0.3727691006895813 l 4.077244164509125 2.727501161689893" fill="#ff3b05" stroke="none" /><path d="M 82.95767976084542 87.72973835380427 l -7.425196326857735 -5.346050328029486 a30.14952428283601,30.14952428283601 0 0,0 0.3068609787700066,-0.4185580301849886 l 7.332072735574095 5.473070801885975" fill="#ff760a" stroke="none" /><path d="M 83.17141714833178 87.43820079747576 l -2.2716690915524897 -1.695701369163965 a23.834763410745147,23.834763410745147 0 0,0 0.24824934366647833,-0.3266670368041106 l 2.2421438076619027 1.7345531818491022" fill="#ff1e03" stroke="none" /><path d="M 83.39014120810768 87.1503855733568 l -7.062751538102905 -5.4638413964182915 a29.92950290297221,29.92950290297221 0 0,0 0.3187433901952682,-0.40477173664992605 l 6.967654067313666 5.584605527021265" fill="#ff730a" stroke="none" /><path d="M 83.84228863543731 86.58626213691792 l -12.581663310056024 -10.444989993619481 a37.352249619377176,37.352249619377176 0 0,0 0.4149468285038238,-0.49116616398144136 l 12.400005868065076 10.66001510723004" fill="#ffd413" stroke="none" /><path d="M 84.07557802195018 86.31012108654704 l -13.597906392484777 -11.689824110801535 a38.93195600039927,38.93195600039927 0 0,0 0.44124391880592484,-0.5044180759190536 l 13.39467061010101 11.922157742923533" fill="#ffe715" stroke="none" /><path d="M 84.5562425177563 85.77008943001954 l -12.966166367274711 -11.947052914677212 a38.63103920958555,38.63103920958555 0 0,0 0.454802632326198,-0.4851517379690908 l 12.758596412978058 12.168474069524352" fill="#ffe315" stroke="none" /><path d="M 84.80347519578584 85.50635884689758 l -5.266970787143604 -5.0233580069282375 a28.278400025994323,28.278400025994323 0 0,0 0.3389849453257827,-0.34935378377615434 l 5.1797215781147035 5.113275986254515" fill="#ff5c08" stroke="none" /><path d="M 85.05521093208273 85.24692304244772 l -26.553653813006573 -26.21302290899996 a58.31245235640181,58.31245235640181 0 0,0 0.7113125094361591,-0.7082579074662693 l 26.0985055034031 26.66621666711634" fill="#40ff2d" stroke="none" /><path d="M 85.83668400450813 84.49514656593479 l -5.517074100145894 -6.039646741968253 a29.180185779936075,29.180185779936075 0 0,0 0.373769016891004,-0.3355735138167218 l 5.412294095658918 6.133719264554253" fill="#ff6909" stroke="none" /><path d="M 86.37877921826538 84.01681056812374 l -5.789112047423785 -6.792964887582431 a29.92514371097491,29.92514371097491 0 0,0 0.3949299064243893,-0.33074243905433864 l 5.671324604040286 6.8916084840305825" fill="#ff730a" stroke="none" /><path d="M 86.93701828274178 83.55741782278169 l -19.298470722325717 -24.291291040180944 a52.024148539794574,52.024148539794574 0 0,0 0.7059613656853218,-0.5510140436910231 l 18.87747680148097 24.619883473095186" fill="#80ff25" stroke="none" /><path d="M 88.39885842347998 82.49532879139004 l -4.517546860862666 -6.816413018261772 a29.17751282943773,29.17751282943773 0 0,0 0.42103564252007786,-0.2738532937633879 l 4.3995441925583005 6.893165236184696" fill="#ff6909" stroke="none" /><path d="M 88.70189139769569 82.29822771554957 l -3.7850879805309208 -5.930440914181255 a28.035411889644745,28.035411889644745 0 0,0 0.4090244408734607,-0.2561310673509879 l 3.682444387285218 5.994716322855173" fill="#ff5908" stroke="none" /><path d="M 89.00827224532344 82.1063720568725 l -6.621130160108088 -10.77865484774105 a33.64985236766914,33.64985236766914 0 0,0 0.4961557504383914,-0.29892828811455174 l 6.434612343452047 10.89102974531422" fill="#ffa40f" stroke="none" /><line stroke="#e1ed5e" stroke-width="0.3" x1="56.762969772571076" x2="54.21961505331055" y1="26.818313649435495" y2="22.513508569990535" /><path d="M 56.25429882871897 25.957352633546506 a86.0,86.0 0 0,1 42.265352541879196,-11.944610805530505" fill="none" id="id48" stroke="none" /><text fill="#e1ed5e" style="font-size:6.75px; font-family:Arial;" text-anchor="middle"><textPath startOffset="22.20632615414155" xlink:href="#id48">December</textPath></text><path d="M 89.63071344664047 81.73862282372117 l -4.410442779261691 -7.767242104076965 a29.932080127970615,29.932080127970615 0 0,0 0.4502296703043448,-0.25055232407104827 l 4.276089019885301 7.842009825708198" fill="#ff730a" stroke="none" /><path d="M 89.94658935756843 81.56283822128135 l -3.5599816518533065 -6.5287254225412195 a28.436244011896612,28.436244011896612 0 0,0 0.43176367911062147,-0.23063320445777297 l 3.4470729262143798 6.589037353500742" fill="#ff5f08" stroke="none" /><path d="M 90.58718382345135 81.22770947309562 l -4.161036196166978 -8.298492066808079 a30.283274896753213,30.283274896753213 0 0,0 0.467990134905633,-0.22964072673935232 l 4.017574794250919 8.368887953682261" fill="#ff780b" stroke="none" /><path d="M 90.91171255644093 81.06846463323043 l -3.0450094888232586 -6.342966723687977 a28.03600096964438,28.03600096964438 0 0,0 0.4368566850139498,-0.2051100712226704 l 2.9353745925097003 6.394441777550655" fill="#ff5908" stroke="none" /><path d="M 91.23893434514133 80.91482961587045 l -7.136175666087153 -15.545497984348744 a38.10518958441108,38.10518958441108 0 0,0 0.5984653763882093,-0.2685139695383884 l 6.86752817123217 15.666032284403661" fill="#ffdd14" stroke="none" /><path d="M 91.90106846888425 80.62456947434976 l -3.4863629539792558 -8.340579611335441 a30.039911221903864,30.039911221903864 0 0,0 0.4788020401002022,-0.19531537416013214 l 3.342277044290673 8.39935587167915" fill="#ff740a" stroke="none" /><path d="M 92.23578459929587 80.48803036053334 l -3.2688058362703476 -8.21471802918221 a29.84119244752688,29.84119244752688 0 0,0 0.47890401101433666,-0.18580731605334816 l 3.1269186602563344 8.269768049126109" fill="#ff720a" stroke="none" /><path d="M 92.91201910852362 80.23233633223022 l -3.0011593815642 -8.369930756934625 a29.8917207844956,29.8917207844956 0 0,0 0.4858372492030419,-0.16949907658248856 l 2.8566401282978733 8.420350686689325" fill="#ff720a" stroke="none" /><path d="M 93.59665428221793 80.00007090966166 l -6.077532806320059 -18.982299336589225 a40.93148497016146,40.93148497016146 0 0,0 0.6728641584938427,-0.20906216937892685 l 5.749883275115487 19.084101640850676" fill="#feff18" stroke="none" /><path d="M 94.28887869178378 79.79150937346287 l -2.1590041829872106 -7.639518308214441 a28.938736615085546,28.938736615085546 0 0,0 0.4805237400418608,-0.1313452900428824 l 2.0271825537216275 7.67555013908362" fill="#ff6509" stroke="none" /><path d="M 94.63758080256005 79.69619591428918 l -2.107719305790975 -7.980487589049514 a29.254130046890303,29.254130046890303 0 0,0 0.48797436784184545,-0.12439553156541609 l 1.9700360492641302 8.015586116783794" fill="#ff6a09" stroke="none" /><path d="M 95.692805502759 79.44645832069477 l -1.3925646443176665 -6.645192242060131 a27.789537261296953,27.789537261296953 0 0,0 0.4690259747984895,-0.0940821981772933 l 1.2779722600520405 6.668178396314635" fill="#ff5607" stroke="none" /><path d="M 96.04723909329186 79.375362276772 l -2.8099899702698736 -14.661910120687095 a35.928752527258396,35.928752527258396 0 0,0 0.6084018900657066,-0.11118155660249558 l 2.5571929591012736 14.708107158640328" fill="#ffc212" stroke="none" /><path d="M 96.75951476605007 79.25152402106235 l -1.3883091395582872 -8.889193054076385 a29.996952562930456,29.996952562930456 0 0,0 0.5108495585292512,-0.07528594563943782 l 1.235090600600387 8.911773483876791" fill="#ff740a" stroke="none" /><path d="M 97.11714578562143 79.19881850522333 l -1.239168378527795 -8.941196615417866 a30.02665692191207,30.02665692191207 0 0,0 0.5125768694596695,-0.06654718871052236 l 1.0850767805602675 8.961202127292525" fill="#ff740a" stroke="none" /><path d="M 97.83486435360386 79.11191278185805 l -0.9975246976740475 -9.62359237027399 a30.67515300301062,30.67515300301062 0 0,0 0.5256769899260001,-0.049919364323400585 l 0.831722580657811 9.63933727911257" fill="#ff7d0b" stroke="none" /><path d="M 98.19473922651362 79.07773832637324 l -0.6045711524857001 -7.00674165107114 a28.032775756646377,28.032775756646377 0 0,0 0.48110892390957477,-0.03734331199627694 l 0.48387203921379124 7.016110225255879" fill="#ff5908" stroke="none" /><path d="M 98.55514903715128 79.0497635885617 l -1.221165324630802 -17.70681053360995 a38.748869936512605,38.748869936512605 0 0,0 0.6658125160795779,-0.0401636292250292 l 0.9161907597116012 17.725207432215285" fill="#ffe515" stroke="none" /><path d="M 99.27714615592234 79.0124445844662 l -0.32642631118643867 -9.477559469653476 a30.48317919462946,30.48317919462946 0 0,0 0.5245623350247955,-0.01354789750405594 l 0.1632373409667641 9.481774159299892" fill="#ff7a0b" stroke="none" /><path d="M 99.63851952072746 79.00311137660856 l -0.12523448467069914 -7.274347239248667 a28.275425171996165,28.275425171996165 0 0,0 0.4867149639432331,-0.004189309356057405 l 1.781965229864237e-15 7.275425171996165" fill="#ff5c08" stroke="none" /></svg>