<?xml version="1.0" encoding="utf-8" ?>
<svg baseProfile="full" height="200mm" version="1.1" viewBox="0,0,200,200" width="200mm" xmlns="http://www.w3.org/2000/svg" xmlns:ev="http://www.w3.org/2001/xml-events" xmlns:xlink="http://www.w3.org/1999/xlink"><defs /><rect fill="#1a1a1a" height="200" width="200" x="0" y="0" /><text alignment-baseline="middle" fill="#e1ed5e" style="dominant-baseline: central; font-size:9.0px; font-family:Arial;" text-anchor="middle" x="100.0" y="100.0">2024</text><line stroke="#e1ed5e" stroke-width="0.3" x1="100.0" x2="100.0" y1="15.0" y2="10.0" /><path d="M 100.0 14.0 a86.0,86.0 0 0,1 42.35913384403234,11.155469271406648" fill="none" id="id25" stroke="none" /><text fill="#e1ed5e" style="font-size:6.75px; font-family:Arial;" text-anchor="middle"><textPath startOffset="22.145653131862478" xlink:href="#id25">January</textPath></text><path d="M 100.0 79.0 l 0.0 -31.554865846702768 a52.55486584670277,52.55486584670277 0 0,0 0.9021741573389079,0.007744080094514572 l -0.5416812324900531 31.550216164802688" fill="#7fff26" stroke="none" /><path d="M 100.36049292484886 79.00309439819443 l 0.2551165058885243 -14.859257484317409 a35.86144735269145,35.86144735269145 0 0,0 0.6154280078125265,0.015851242407817087 l -0.5101578277717922 14.852688524559547" fill="#ffb911" stroke="none" /><path d="M 101.08105385017728 79.02784411241856 l 0.7765101518209964 -15.064089498972645 a36.084089646012416,36.084089646012416 0 0,0 0.6183363551083859,0.03719757965869942 l -1.0349908590618446 15.048539941489253" fill="#ffbc11" stroke="none" /><path d="M 101.80034050326958 79.07731436759882 l 1.8120762408217268 -21.059072691972407 a42.13689104263748,42.13689104263748 0 0,0 0.7201404091809871,0.06819804547659988 l -2.173316213387727 21.024862890990622" fill="#f6ff19" stroke="none" /><path d="M 102.15924093988457 79.11130261209362 l 3.091517795350317 -29.907630271150985 a51.066989053026816,51.066989053026816 0 0,0 0.8712127995735542,0.09762121136821933 l -3.6044664965246676 29.850153299275796" fill="#8fff24" stroke="none" /><path d="M 102.87502721639298 79.19773525538626 l 2.3663082897545484 -17.12142800950789 a38.28417519024042,38.28417519024042 0 0,0 0.6502382925179049,0.09556263681475985 l -2.6598716878801354 17.078284299394248" fill="#ffd814" stroke="none" /><path d="M 103.58742460773223 79.30868818359171 l 2.5762909478599285 -14.859361564578636 a36.08104443183236,36.08104443183236 0 0,0 0.6093663446272426,0.11104684705204029 l -2.8309920260382246 14.81294654359523" fill="#ffbc11" stroke="none" /><path d="M 103.94208987418118 79.37332000966035 l 3.301540853972831 -17.275056846357558 a38.587716197827866,38.587716197827866 0 0,0 0.649566347203151,0.12993146160717958 l -3.5976036867069388 17.215835988087516" fill="#ffdc14" stroke="none" /><path d="M 104.29559338865022 79.4440306129975 l 3.331091566717829 -15.940479015466156 a37.284810169859995,37.284810169859995 0 0,0 0.6253862586212293,0.13630002430958313 l -3.6042402419581925 15.880947533022853" fill="#ffcb13" stroke="none" /><path d="M 104.64783097203109 79.52079915486377 l 7.045018261833092 -31.041650354742632 a52.83105934548291,52.83105934548291 0 0,0 0.8827009527709482,0.20831502138385707 l -7.576851368343925 30.916139189712545" fill="#7cff26" stroke="none" /><path d="M 104.9986988182912 79.60360301121754 l 3.2617424972216167 -13.309022461020616 a34.702884476858614,34.702884476858614 0 0,0 0.5773811498107155,0.14676803045046125 l -3.4897289402577267 13.251069198734887" fill="#ffaa0f" stroke="none" /><path d="M 105.69591212413111 79.78721728523813 l 4.875576767952751 -17.30170193501768 a38.97554279203816,38.97554279203816 0 0,0 0.6424282809264922,0.18700150972761756 l -5.171865061260847 17.215456730987547" fill="#ffe115" stroke="none" /><path d="M 106.04205211174951 79.88797359093562 l 6.940232091857706 -23.10177544563773 a45.121750563122944,45.121750563122944 0 0,0 0.7399094032210087,0.2292258244862532 l -7.335782127950345 22.979233033344833" fill="#d2ff1c" stroke="none" /><path d="M 106.72888874123014 80.10723608172694 l 7.218682512355688 -21.340752171956098 a43.528583632333365,43.528583632333365 0 0,0 0.7057729275173905,0.2455044606420363 l -7.583961211918097 21.213689278745473" fill="#e5ff1a" stroke="none" /><path d="M 107.06938296918511 80.22567764915836 l 12.014409422733063 -33.60644144130987 a56.689479403953854,56.689479403953854 0 0,0 0.9135397532084786,0.33546445122223295 l -12.589538327595665 33.395246141078914" fill="#53ff2b" stroke="none" /><path d="M 107.74402155503746 80.48000691201159 l 7.835021656718712 -19.74937278989131 a42.24677128307618,42.24677128307618 0 0,0 0.6718152761471968,0.27322142422008056 l -8.172891394056348 19.611964109091936" fill="#f5ff19" stroke="none" /><path d="M 108.4095320186766 80.7573450057729 l 7.609426232960134 -17.411856376749483 a40.00200279126949,40.00200279126949 0 0,0 0.6268629989304001,0.2803878460461179 l -7.907202634746166 17.278664779793512" fill="#ffee16" stroke="none" /><path d="M 108.73861861582097 80.90454125486305 l 11.416691357442389 -24.947531000758946 a48.435745745011715,48.435745745011715 0 0,0 0.7530865541807882,0.3524825329259135 l -11.843266625494682 24.7478722362625" fill="#acff20" stroke="none" /><path d="M 109.06512990194946 81.05736502329252 l 9.714961833459512 -20.30053378322724 a43.50538058575161,43.50538058575161 0 0,0 0.6708938859356527,0.32816781853247967 l -10.062015968657231 20.13077221459754" fill="#e6ff1a" stroke="none" /><path d="M 109.3889696526874 81.21577127319529 l 15.768571880150454 -31.54770670784158 a56.26904673596189,56.26904673596189 0 0,0 0.8603075793830364,0.4392791799671729 l -16.30780668124707 31.272369576201573" fill="#58ff2a" stroke="none" /><path d="M 110.02825361518725 81.54914285379988 l 8.513959490889663 -15.664726515994337 a38.828941724998884,38.828941724998884 0 0,0 0.582907121264476,0.323328754107944 l -8.781610800310238 15.516264846453247" fill="#ffdf14" stroke="none" /><path d="M 110.34350942703115 81.72400993836675 l 7.559231812767744 -13.356438301558013 a36.34719615116995,36.34719615116995 0 0,0 0.5403746862167064,0.311985470550475 l -7.787398966844848 13.224705933731368" fill="#ffbf11" stroke="none" /><line stroke="#e1ed5e" stroke-width="0.3" x1="143.13028292997686" x2="145.6673583964461" y1="26.7553504044142" y2="22.446841604673864" /><path d="M 143.63769802327073 25.89364864446614 a86.0,86.0 0 0,1 29.32050498858742,28.57503671076993" fill="none" id="id26" stroke="none" /><text fill="#e1ed5e" style="font-size:6.75px; font-family:Arial;" text-anchor="middle"><textPath startOffset="20.669276256404974" xlink:href="#id26">February</textPath></text><path d="M 110.96478420261332 82.08984904055464 l 8.968081099520578 -14.648686498607104 a38.17586954835336,38.17586954835336 0 0,0 0.5559785867871873,0.3469717581536942 l -9.218223815097478 14.492578943611864" fill="#ffd714" stroke="none" /><path d="M 111.27062007382361 82.28071324371311 l 12.883499777037235 -20.255001541936807 a45.005200560894735,45.005200560894735 0 0,0 0.6483199901345548,0.420233184825313 l -13.229305399428798 20.030854515407597" fill="#d4ff1c" stroke="none" /><path d="M 111.8722381534696 82.67804972795209 l 10.091447639830017 -14.723723693078496 a38.850079967819525,38.850079967819525 0 0,0 0.546870206989495,0.3817578765592836 l -10.342712937993273 14.548321000714084" fill="#ffdf14" stroke="none" /><path d="M 112.16784306229584 82.88440491214696 l 10.417698241569454 -14.653797220860822 a38.97949414312059,38.97949414312059 0 0,0 0.5420358331337101,0.39239214257730687 l -10.667715085077132 14.47280430691044" fill="#ffe115" stroke="none" /><path d="M 112.7482090630111 83.31218511350987 l 33.379329000364166 -43.69461315233245 a75.98544191917108,75.98544191917108 0 0,0 1.0297476725092245,0.8007380185162875 l -34.124486617508616 43.115174082195374" fill="#43ffdf" stroke="none" /><path d="M 113.03279911837588 83.53348406188908 l 7.157488250602968 -9.043252587943114 a32.532998544474864,32.532998544474864 0 0,0 0.43493401330451337,0.35035205375474077 l -7.31167303426274 8.919052240394965" fill="#ff8d0d" stroke="none" /><path d="M 113.59037401385872 83.9905735841838 l 16.60421021149238 -19.559717878445312 a46.657013860381355,46.657013860381355 0 0,0 0.6061424187666992,0.5235713846606549 l -16.937532110021937 19.27180236131994" fill="#c1ff1e" stroke="none" /><path d="M 114.13192950727249 84.46653392183569 l 10.564476843805668 -11.61221067529087 a36.69877726928583,36.69877726928583 0 0,0 0.4623525664110865,0.42794663294708 l -10.76225918153072 11.429146296211414" fill="#ffc412" stroke="none" /><path d="M 114.39649973595853 84.71141617570332 l 14.89397229845013 -15.816882446283502 a42.725657208622046,42.725657208622046 0 0,0 0.5296506728995898,0.5073933634548707 l -15.163295457215032 15.558876952523052" fill="#efff19" stroke="none" /><path d="M 114.65682725009322 84.96080404539774 l 16.06852473781128 -16.487721940761826 a44.022651064669596,44.022651064669596 0 0,0 0.5366740176121297,0.53208708775913 l -16.349190675553373 16.20945484277404" fill="#dfff1b" stroke="none" /><path d="M 115.41159269507618 85.73525988315684 l 19.394034260043977 -17.950828574976978 a47.42651720162855,47.42651720162855 0 0,0 0.5478943863893967,0.6022319076115263 l -19.699326347275253 17.61525909180778" fill="#b8ff1f" stroke="none" /><path d="M 115.6541949942343 86.00192230759917 l 8.859149153912998 -7.921905801653583 a32.88449053437084,32.88449053437084 0 0,0 0.37267356735898705,0.4240341089113437 l -8.993833785230576 7.768659414930942" fill="#ff920d" stroke="none" /><path d="M 115.8921839302757 86.27271002978787 l 13.567558935012087 -11.71933426557203 a38.928230561972285,38.928230561972285 0 0,0 0.4324841820550819,0.5094652789948823 l -13.766737680574282 11.484702204127597" fill="#ffe015" stroke="none" /><path d="M 116.35404254752997 86.82634096563983 l 13.992607865749708 -11.271454411908305 a38.9677143633899,38.9677143633899 0 0,0 0.41516122972673336,0.5245426515123741 l -14.184035526118 11.029591816481254" fill="#ffe115" stroke="none" /><path d="M 116.7966241395341 87.39550010848427 l 20.041241423708996 -15.039321190525095 a46.05658675229263,46.05658675229263 0 0,0 0.46911480434179614,0.6364443281964779 l -20.296458247634618 14.693070553059743" fill="#c7ff1d" stroke="none" /><path d="M 117.01052211995028 87.68569379921539 l 28.287324285061842 -20.47784132614033 a55.9215506612583,55.9215506612583 0 0,0 0.5562460761870835,0.7824297667617088 l -28.634685459778886 19.989234332669117" fill="#5bff2a" stroke="none" /><path d="M 117.42321728460499 88.27688183743584 l 14.941169013510315 -10.053085315476777 a39.00841625047954,39.00841625047954 0 0,0 0.36904852311323605,0.5587865010604712 l -15.111541975544275 9.795118936077246" fill="#ffe115" stroke="none" /><line stroke="#e1ed5e" stroke-width="0.3" x1="172.87174338648825" x2="177.1583165268699" y1="56.24261187166439" y2="53.66864786411523" /><path d="M 173.72905801456457 55.72781907015455 a86.0,86.0 0 0,1 12.242430191666344,42.057860355516425" fill="none" id="id27" stroke="none" /><text fill="#e1ed5e" style="font-size:6.75px; font-family:Arial;" text-anchor="middle"><textPath startOffset="22.145653131862474" xlink:href="#id27">March</textPath></text><path d="M 118.00360718960297 89.18935116829356 l 19.758885037306086 -11.864642746023252 a44.04741385509968,44.04741385509968 0 0,0 0.38368714261390713,0.6515846501798538 l -19.959645890049764 11.52370692754984" fill="#dfff1b" stroke="none" /><path d="M 118.18653347947321 89.5 l 18.756861882248337 -10.82927925686871 a42.65855851373742,42.65855851373742 0 0,0 0.3607017470630041,0.637325425286464 l -18.939996994332716 10.50569706148313" fill="#f0ff19" stroke="none" /><path d="M 118.36410011445183 89.81374322990088 l 27.71727598101108 -15.374305756920423 a52.69568843415158,52.69568843415158 0 0,0 0.4319908485314414,0.7948145051545601 l -27.977112179157864 14.89623641829126" fill="#7dff26" stroke="none" /><path d="M 118.8641267826498 90.77261029715802 l 13.181315934058096 -6.447642147512616 a35.67375817627628,35.67375817627628 0 0,0 0.2643607961309891,0.5524123887275162 l -13.290055988148998 6.220417256719997" fill="#ffb710" stroke="none" /><path d="M 119.0197475246899 91.09779779509293 l 14.162005736627151 -6.628533766331601 a36.63649149827603,36.63649149827603 0 0,0 0.26171632752129703,0.5718974079110921 l -14.2737065290035 6.3844473762058245" fill="#ffc312" stroke="none" /><path d="M 119.16976305983485 91.42560881287824 l 15.998775972748867 -7.156048996395633 a38.526262290203846,38.526262290203846 0 0,0 0.26485175843965314,0.606032654486604 l -16.119261613205488 6.88035427213318" fill="#ffdb14" stroke="none" /><path d="M 119.31412917781788 91.75594674310238 l 14.359628221445531 -6.1292714114601194 a36.613035921737875,36.613035921737875 0 0,0 0.24177532549535255,0.5801727659720507 l -14.462729391477366 5.88186613604679" fill="#ffc312" stroke="none" /><path d="M 119.4528033332814 92.08871423366111 l 29.1221067690007 -11.843707296069843 a52.438360408584515,52.438360408584515 0 0,0 0.3319631007295784,0.8367638681859582 l -29.321128544696403 11.342042410670318" fill="#80ff25" stroke="none" /><path d="M 119.71291397450082 92.76114493625339 l 14.718739582827055 -5.404925050600657 a36.67974839433626,36.67974839433626 0 0,0 0.2119737156175045,0.5929282089819217 l -14.809353468488503 5.1514618852378184" fill="#ffc412" stroke="none" /><path d="M 119.83427380445688 93.10060997987247 l 18.06593778968942 -6.284270960423047 a40.12773300014784,40.12773300014784 0 0,0 0.22073038860803693,0.6525501726999244 l -18.171153599869825 5.973219113248961" fill="#ffef16" stroke="none" /><path d="M 119.94978838288452 93.4421083053983 l 16.763386813878384 -5.510458208892213 a38.64585750661212,38.64585750661212 0 0,0 0.20175950341757326,0.6320087708247982 l -16.855511033073213 5.221880404376027" fill="#ffdd14" stroke="none" /><path d="M 120.16314734710363 94.1308016681162 l 25.474425888123495 -7.415234107771825 a47.53171821052227,47.53171821052227 0 0,0 0.22132014671004363,0.7853871229679086 l -25.59796452690812 6.976839060900904" fill="#b7ff1f" stroke="none" /><path d="M 120.26092885502905 94.47779374421319 l 26.053174617656282 -7.100908595363675 a48.00353329728907,48.00353329728907 0 0,0 0.20986806263007274,0.796903217448785 l -26.171232161091087 6.652624873542091" fill="#b1ff20" stroke="none" /><path d="M 120.43855184770803 95.1765574152323 l 12.944411511670063 -3.0548458709489394 a34.299995213484486,34.299995213484486 0 0,0 0.13032224126952827,0.574223841100804 l -12.994944614497259 2.8321876959091092" fill="#ffa50f" stroke="none" /><path d="M 120.51834098615036 95.52812308129327 l 17.59358740962463 -3.834440489484766 a39.0065891219715,39.0065891219715 0 0,0 0.13697310356131098,0.6554658853625449 l -17.656818224010305 3.5318581528368163" fill="#ffe115" stroke="none" /><path d="M 120.592083275326 95.88100663000786 l 19.13940533706887 -3.8284170977222662 a40.518545389724935,40.518545389724935 0 0,0 0.13057334275506685,0.683214904337277 l -19.20230497210609 3.4992996283516744" fill="#fff417" stroke="none" /><path d="M 120.7213421655516 96.59031103205396 l 8.503337007606637 -1.3992208687024426 a29.617688744921402,29.617688744921402 0 0,0 0.07824500847054935,0.502389083562721 l -8.526103508215451 1.2530436032082801" fill="#ff6609" stroke="none" /><path d="M 120.77682067341334 96.94652285012252 l 61.51975528156646 -9.041285477267245 a83.1805848556064,83.1805848556064 0 0,0 0.19549609422707714,1.4145123515567588 l -61.66589589234875 7.9838848175104" fill="#4cd9ff" stroke="none" /><path d="M 120.86939407059847 97.66154086499901 l 11.114371333411036 -1.2453884902688397 a32.18392787121962,32.18392787121962 0 0,0 0.05680862889184465,0.5495719518948419 l -11.134112354784547 1.0544120160910664" fill="#ff890c" stroke="none" /><path d="M 120.9064616781168 98.02013634271609 l 15.573439034776406 -1.4748208682368427 a36.643116695955584,36.643116695955584 0 0,0 0.053928856673138896,0.6267350607497485 l -15.596461514147286 1.2072647601114321" fill="#ffc312" stroke="none" /><path d="M 120.96210409425399 98.7389718711861 l 15.587500518943951 -0.9377053240412931 a36.615680058928376,36.615680058928376 0 0,0 0.032358515374303724,0.6277465536146376 l -15.601300623774828 0.6699869770499249" fill="#ffc312" stroke="none" /><path d="M 120.98066250479742 99.09900007780936 l 28.275550485845017 -1.2142738000679694 a49.301611546678785,49.301611546678785 0 0,0 0.029053470211902674,0.8458600851029341 l -28.292228643053768 0.7287074504009153" fill="#a2ff22" stroke="none" /><path d="M 120.99303781780057 99.45929381324524 l 6.659798962423658 -0.17153279733874596 a27.662007634374348,27.662007634374348 0 0,0 0.008151820303026103,0.47480266487130784 l -6.66176221432535 0.05718321649837174" fill="#ff4a06" stroke="none" /><line stroke="#e1ed5e" stroke-width="0.3" x1="184.99686870605535" x2="189.99668451229388" y1="99.2704041080226" y2="99.22748670261217" /><path d="M 185.99683186730306 99.26182062694052 a86.0,86.0 0 0,1 -10.086455211305974,41.156179273409016" fill="none" id="id28" stroke="none" /><text fill="#e1ed5e" style="font-size:6.75px; font-family:Arial;" text-anchor="middle"><textPath startOffset="21.40746469413373" xlink:href="#id28">April</textPath></text><path d="M 120.99922638620191 100.18025310272382 l 15.752386907330141 0.13521529617958394 a36.75296722698765,36.75296722698765 0 0,0 -0.010830869125529196,0.6308438278216837 l -15.747744606605943 -0.4056060399703387" fill="#ffc512" stroke="none" /><path d="M 120.99303781780057 100.54070618675476 l 14.92295820912171 0.38436246808991537 a35.92790729533343,35.92790729533343 0 0,0 -0.02117233801562183,0.6164095202776201 l -14.914161184109242 -0.6404782529316462" fill="#ffba11" stroke="none" /><path d="M 120.98066250479742 100.90099992219065 l 19.503154405253856 0.8375493670701657 a40.521130108102156,40.521130108102156 0 0,0 -0.03580989372522827,0.6947023715794374 l -19.485902922072054 -1.1722235320263337" fill="#fff417" stroke="none" /><path d="M 120.93736805541906 101.62068470465957 l 44.49073647910048 3.443864382565276 a65.62382585949196,65.62382585949196 0 0,0 -0.09658070104910536,1.1224141447340275 l -44.42506215535363 -4.20709957467496" fill="#36ff6e" stroke="none" /><path d="M 120.86939407059847 102.33845913500097 l 15.67521870008444 1.7564409507218381 a36.77331817053246,36.77331817053246 0 0,0 -0.07567933774476263,0.6267334806543277 l -15.642757276080014 -2.0252681082995743" fill="#ffc512" stroke="none" /><path d="M 120.82617615685814 102.69636545807757 l 17.68076176294262 2.289128591395212 a38.82833268216287,38.82833268216287 0 0,0 -0.09125672051825144,0.6602881701855768 l -17.63886052586916 -2.592305069780874" fill="#ffdf14" stroke="none" /><path d="M 120.7213421655516 103.40968896794604 l 13.683798359975452 2.2516638128379816 a34.86781624779154,34.86781624779154 0 0,0 -0.1022543251079752,0.5897757741933465 l -13.643129217375243 -2.486232619951916" fill="#ffac0f" stroke="none" /><path d="M 120.65975698304385 103.76489593502545 l 16.125730844247393 2.9386453361793965 a37.39130353794233,37.39130353794233 0 0,0 -0.12049562603884639,0.6304840320402919 l -16.072908925926388 -3.215031933253003" fill="#ffcd13" stroke="none" /><path d="M 120.51834098615036 104.47187691870673 l 61.549855976690274 13.414504636494264 a83.99471172561901,83.99471172561901 0 0,0 -0.31913646106188154,1.4061741320675005 l -61.31050865407072 -14.469113102500783" fill="#4dd2ff" stroke="none" /><path d="M 120.35273937422433 105.17358676015961 l 13.149134994321825 3.342458696264195 a34.567305599680836,34.567305599680836 0 0,0 -0.15112582258515486,0.5738493639691384 l -13.089819690931941 -3.5676885646061365" fill="#ffa80f" stroke="none" /><path d="M 120.26092885502905 105.52220625578681 l 15.926663408348986 4.340882934671824 a37.50763071962078,37.50763071962078 0 0,0 -0.17464536621306365,0.61975479299431 l -15.849799550061343 -4.613645651569143" fill="#ffce13" stroke="none" /><path d="M 120.16314734710363 105.8691983318838 l 14.281810799020382 4.15722697825403 a35.874564055720704,35.874564055720704 0 0,0 -0.17719246676785066,0.5898160931436297 l -14.208342012248902 -4.401780674988384" fill="#ffb911" stroke="none" /><path d="M 120.05942366710727 106.21446072829308 l 20.064281161719165 6.215965592540646 a42.00508526010232,42.00508526010232 0 0,0 -0.21929711720437908,0.686945096226322 l -19.954619328737532 -6.559479722458351" fill="#f8ff18" stroke="none" /><path d="M 119.83427380445688 106.89939002012753 l 29.851227904929228 10.383806633220003 a52.60568378675154,52.60568378675154 0 0,0 -0.3040103256705838,0.8503709876800507 l -29.668577409214702 -10.894712577280975" fill="#7eff26" stroke="none" /><path d="M 119.58574465831526 107.57618678355244 l 14.556372964021717 5.630717768990243 a36.60746540799386,36.60746540799386 0 0,0 -0.23174499797478418,0.5841487819337323 l -14.457569291080807 -5.879767568137539" fill="#ffc312" stroke="none" /><path d="M 119.4528033332814 107.91128576633889 l 15.403298731494539 6.264387498363847 a37.62841431229444,37.62841431229444 0 0,0 -0.2484804083899358,0.5962625240193393 l -15.293492478568117 -6.527882531824464" fill="#ffd013" stroke="none" /><path d="M 119.31412917781788 108.2440532568976 l 12.582356962758334 5.370659994208217 a34.68063213128917,34.68063213128917 0 0,0 -0.2384146776186621,0.5455394398626382 l -12.488308403122707 -5.5858615038467" fill="#ffaa0f" stroke="none" /><path d="M 119.16976305983485 108.57439118712176 l 18.32138277477247 8.19492147657494 a41.07062043851556,41.07062043851556 0 0,0 -0.29339195732470397,0.6411143755725709 l -18.17800635259271 -8.508224834362201" fill="#fffb17" stroke="none" /><path d="M 118.8641267826498 109.22738970284198 l 26.029449091152514 12.732307902810424 a49.97660926542078,49.97660926542078 0 0,0 -0.3835825818468506,0.7674221154785705 l -25.807046596093933 -13.17726187445274" fill="#9bff22" stroke="none" /><path d="M 118.70294669586154 109.54985784667822 l 13.129111983279213 6.703818127288976 a35.74159960632679,35.74159960632679 0 0,0 -0.2837064883953717,0.5440445996008085 l -13.012097425908891 -6.928208969994287" fill="#ffb811" stroke="none" /><path d="M 118.5362547648365 109.86951160357373 l 15.901495137246 8.466650505307987 a39.015041448159096,39.015041448159096 0 0,0 -0.31983908667861377,0.5884678952615432 l -15.753810700952048 -8.738373234044134" fill="#ffe115" stroke="none" /><line stroke="#e1ed5e" stroke-width="0.3" x1="174.33088141563837" x2="178.70328620479359" y1="141.23008692659167" y2="143.65538615756765" /><path d="M 175.20536237346943 141.71514677278685 a86.0,86.0 0 0,1 -30.301960400862466,31.631185727798858" fill="none" id="id29" stroke="none" /><text fill="#e1ed5e" style="font-size:6.75px; font-family:Arial;" text-anchor="middle"><textPath startOffset="22.145653131862474" xlink:href="#id29">May</textPath></text><path d="M 118.18653347947321 110.5 l 19.409712087903195 11.206202498844037 a43.412404997688085,43.412404997688085 0 0,0 -0.37815572288433874,0.6421910901951942 l -19.214482654889093 -11.537744757332781" fill="#e7ff1a" stroke="none" /><path d="M 118.00360718960297 110.81064883170644 l 15.926023808034657 9.563119704893744 a39.57663836177616,39.57663836177616 0 0,0 -0.3547424380404498,0.579445112609866 l -15.759513405538803 -9.835101933628167" fill="#ffe815" stroke="none" /><path d="M 117.62189284568427 111.42229804090321 l 26.653353869912177 17.276381961791248 a52.76278712903621,52.76278712903621 0 0,0 -0.49917506366512043,0.7558146687298523 l -26.35285436732633 -17.731376508860162" fill="#7dff26" stroke="none" /><path d="M 117.21940702142032 112.02048342749411 l 14.62198155615277 10.207278726509907 a38.83229888794862,38.83229888794862 0 0,0 -0.3862609965268698,0.5433244644048812 l -14.444605461095941 -10.456780417624291" fill="#ffdf14" stroke="none" /><path d="M 117.01052211995028 112.31430620078461 l 14.440815167205455 10.45403653714671 a38.82761965640364,38.82761965640364 0 0,0 -0.3954833061367618,0.5365490595426694 l -14.259229841484865 -10.700391905958258" fill="#ffdf14" stroke="none" /><path d="M 116.79662413953412 112.60449989151573 l 12.486029721162462 9.369749478136487 a36.61067402391041,36.61067402391041 0 0,0 -0.3815320770409012,0.49943773619075194 l -12.323345666767256 -9.582708127568116" fill="#ffc312" stroke="none" /><path d="M 116.57777611688842 112.89097897827486 l 17.596889218340387 13.683447490014395 a43.290967798068465,43.290967798068465 0 0,0 -0.4612210831639558,0.5827377716736024 l -17.359401704534868 -13.983505205602679" fill="#e8ff1a" stroke="none" /><path d="M 116.35404254752997 113.17365903436017 l 10.524660749272657 8.477921697970164 a34.51457140290412,34.51457140290412 0 0,0 -0.37563881317853526,0.45821827406114835 l -10.377575116855494 -8.657342253729805" fill="#ffa80f" stroke="none" /><path d="M 116.1254893667686 113.45245675266167 l 28.28152256374104 23.59345198987853 a57.83063256749871,57.83063256749871 0 0,0 -0.6424857606580936,0.7568466105477679 l -27.872342239575833 -24.075465382875855" fill="#48ff2c" stroke="none" /><path d="M 115.6541949942343 113.99807769240083 l 18.504112076366965 16.54649112070466 a45.82314508965993,45.82314508965993 0 0,0 -0.529371445400363,0.5818719507229184 l -18.217342930124722 -16.86170064698525" fill="#caff1d" stroke="none" /><path d="M 115.41159269507618 114.26474011684316 l 5.461039539136397 5.054656668838246 a28.441270515701067,28.441270515701067 0 0,0 -0.3347187661468777,0.3554597303273581 l -5.373464939253259 -5.147657859110101" fill="#ff5507" stroke="none" /><path d="M 115.16444852881244 114.52719865689866 l 11.27826184008259 10.804319718194854 a36.618339050822186,36.618339050822186 0 0,0 -0.4387455916724613,0.45019162843295807 l -11.091129447259323 -10.996334038695549" fill="#ffc312" stroke="none" /><path d="M 114.91283532996324 114.78537596483092 l 13.870264850959565 13.751716291077834 a40.53187005860063,40.53187005860063 0 0,0 -0.4941183917735294,0.4898951830327249 l -13.63215453905607 -13.987791484339219" fill="#fff417" stroke="none" /><path d="M 114.65682725009322 115.03919595460226 l 11.444838511302356 11.743412547839089 a37.39792873562189,37.39792873562189 0 0,0 -0.46360522959669803,0.44412332277907 l -11.241560795840346 -11.93814800092374" fill="#ffcd13" stroke="none" /><path d="M 114.39649973595853 115.28858382429668 l 21.670164300422936 23.01296353069665 a52.6100065054169,52.6100065054169 0 0,0 -0.6628114977291343,0.6134884270969839 l -21.271923031379835 -23.38156970392601" fill="#7eff26" stroke="none" /><path d="M 114.13192950727249 115.5334660781643 l 13.704954124533307 15.064145337456017 a41.36551600877229,41.36551600877229 0 0,0 -0.5293505159549787,0.4733484955042047 l -13.44433858175495 -15.297189362843609" fill="#ffff18" stroke="none" /><path d="M 113.86319453409587 115.77377054828091 l 9.959853104628426 11.332484528050237 a36.087209133709074,36.087209133709074 0 0,0 -0.46882529379834,0.40496012263482745 l -9.76384833106723 -11.501788783149783" fill="#ffbc11" stroke="none" /><path d="M 113.31354834802062 116.24036423190432 l 8.712865058862306 10.628278679770126 a34.743155577552045,34.743155577552045 0 0,0 -0.4644816268488261,0.3741535196602201 l -8.529132661658227 -10.77628049322375" fill="#ffab0f" stroke="none" /><path d="M 113.03279911837588 116.46651593811092 l 9.5650129762317 12.08508143114729 a36.41228946110674,36.41228946110674 0 0,0 -0.49345597493782734,0.38371435075343796 l -9.35614705665864 -12.24749683352152" fill="#ffc011" stroke="none" /><path d="M 112.7482090630111 116.68781488649013 l 4.074251003699944 5.333325349057468 a27.71147379642124,27.71147379642124 0 0,0 -0.38050098295598495,0.2855350312389234 l -3.9820970318331925 -5.4024794075604055" fill="#ff4b07" stroke="none" /><path d="M 112.45986205192187 116.90419585922612 l 26.46627751370846 35.90658844311618 a65.60657954894047,65.60657954894047 0 0,0 -0.9123031939381666,0.6604371575950893 l -25.845993309396324 -36.355626372084345" fill="#36ff6e" stroke="none" /><path d="M 111.8722381534696 117.32195027204791 l 14.799306220242656 21.59263005795878 a47.1774929552159,47.1774929552159 0 0,0 -0.6719506314848833,0.45211837306690805 l -14.426459300660769 -21.84349810508281" fill="#bbff1f" stroke="none" /><path d="M 111.5731344415666 117.5232005979908 l 2.093226494307888 3.1694117044942014 a24.79825851003553,24.79825851003553 0 0,0 -0.35722997591860134,0.23155215446031277 l -2.038510886132277 -3.204877700658409" fill="#ff2203" stroke="none" /><path d="M 111.27062007382361 117.71928675628689 l 9.669393453638516 15.20189255268349 a39.016512063787516,39.016512063787516 0 0,0 -0.5682213789816692,0.35461216595604506 l -9.407007945867132 -15.365640515481083" fill="#ffe115" stroke="none" /><path d="M 110.96478420261333 117.91015095944535 l 14.105404510761977 23.04011820602699 a48.014986273546775,48.014986273546775 0 0,0 -0.7066599738808391,0.42432901032524273 l -13.7078117803237 -23.278861216888153" fill="#b1ff20" stroke="none" /><line stroke="#e1ed5e" stroke-width="0.3" x1="143.1302829299769" x2="145.66735839644613" y1="173.24464959558577" y2="177.55315839532614" /><path d="M 143.63769802327073 174.10635135553383 a86.0,86.0 0 0,1 -40.68552437913181,11.842963189579606" fill="none" id="id30" stroke="none" /><text fill="#e1ed5e" style="font-size:6.75px; font-family:Arial;" text-anchor="middle"><textPath startOffset="21.407464694133747" xlink:href="#id30">June</textPath></text><path d="M 110.65571695917076 118.09573695890943 l 4.528568089825158 7.690498656072058 a29.92478002660171,29.92478002660171 0 0,0 -0.44489246294884555,0.25685878324395256 l -4.395883159015914 -7.767104336592182" fill="#ff6a09" stroke="none" /><path d="M 110.34350942703117 118.27599006163325 l 11.420545493560242 20.179009591587494 a44.186661843996845,44.186661843996845 0 0,0 -0.6633381882048262,0.3679425111143466 l -11.072463117199321 -20.37208501813498" fill="#ddff1b" stroke="none" /><path d="M 109.71004243097381 118.62028667847754 l 7.219462970894023 13.844272168563347 a36.61360040046394,36.61360040046394 0 0,0 -0.5597919239831263,0.2858337450611581 l -6.980743825197314 -13.966163865297341" fill="#ffc312" stroke="none" /><path d="M 109.3889696526874 118.78422872680471 l 7.972258529152985 15.949857462577464 a38.83128876812303,38.83128876812303 0 0,0 -0.5988149940715032,0.2929104206023893 l -7.697283285819412 -16.084361633277076" fill="#ffdf14" stroke="none" /><path d="M 109.06512990194946 118.94263497670748 l 6.686116320907581 13.971411579167992 a36.48885060200453,36.48885060200453 0 0,0 -0.5673343590195697,0.26554112641229227 l -6.445293248016505 -14.084128937150817" fill="#ffc112" stroke="none" /><path d="M 108.73861861582097 119.09545874513695 l 6.199644058251402 13.547341124893702 a35.89852469217164,35.89852469217164 0 0,0 -0.5625582539738103,0.2516251515503708 l -5.966172401421964 -13.651770027353923" fill="#ffba11" stroke="none" /><path d="M 108.4095320186766 119.2426549942271 l 10.974134506624328 25.11096737633286 a48.404238919275535,48.404238919275535 0 0,0 -0.7642451351762897,0.3262108033819232 l -10.541454296277607 -25.295652829374188" fill="#adff20" stroke="none" /><path d="M 107.407793817531 119.65005319985036 l 7.194065318854702 19.083112964638325 a41.394111312658254,41.394111312658254 0 0,0 -0.6670579202781037,0.2449529080410715 l -6.865418246922471 -19.203796721688118" fill="#ffff18" stroke="none" /><path d="M 107.06938296918513 119.77432235084164 l 5.629478341177746 15.74665283671308 a37.722682259546566,37.722682259546566 0 0,0 -0.6116359796359647,0.2127587435494153 l -5.358336589496759 -15.840970012831086" fill="#ffd113" stroke="none" /><path d="M 106.72888874123015 119.89276391827305 l 5.067827404150684 14.982131226454774 a36.81604029727327,36.81604029727327 0 0,0 -0.6004122234124213,0.1973674235377693 l -4.809892443090528 -15.066919571394562" fill="#ffc512" stroke="none" /><path d="M 106.38641147887787 120.00534299687104 l 7.771828217503269 24.34514119832941 a46.555571091426934,46.555571091426934 0 0,0 -0.7634212855878039,0.2365098657449415 l -7.35276629904384 -24.474967651880995" fill="#c2ff1e" stroke="none" /><path d="M 106.0420521117495 120.11202640906438 l 11.392360167898932 37.92146183459726 a60.595746461810094,60.595746461810094 0 0,0 -0.9987909966675352,0.2907335025939636 l -10.73970915884979 -38.11143903149374" fill="#30ff33" stroke="none" /><path d="M 105.69591212413111 120.21278271476187 l 4.039466145088834 14.334640299032456 a35.89292446902099,35.89292446902099 0 0,0 -0.5944869859605563,0.16203007158975344 l -3.792797758193583 -14.401870864766352" fill="#ffba11" stroke="none" /><path d="M 105.3480935250658 120.30758222061773 l 2.292502696846501 8.705006146395947 a30.00181651800567,30.00181651800567 0 0,0 -0.499165518334001,0.12688592278892574 l -2.1427318852871027 -8.743077301020143" fill="#ff6b09" stroke="none" /><path d="M 104.9986988182912 120.39639698878246 l 4.649348186426555 18.970927194579257 a40.53234540910678,40.53234540910678 0 0,0 -0.6772141303602187,0.15982069080653635 l -4.323001902326457 -19.04794402903202" fill="#fff417" stroke="none" /><path d="M 104.29559338865022 120.5559693870025 l 3.0411065687568133 14.552795824471746 a35.86715155876532,35.86715155876532 0 0,0 -0.603769720477014,0.12077085365261354 l -2.790840362748841 -14.602856074787221" fill="#ffb911" stroke="none" /><path d="M 103.94208987418118 120.62667999033965 l 1.6857285023268813 8.820443845236662 a29.980084087052333,29.980084087052333 0 0,0 -0.5063283100426728,0.09226988477321237 l -1.5340654587331515 -8.848081903941237" fill="#ff6b09" stroke="none" /><path d="M 103.58742460773223 120.69131181640829 l 3.0474924120937206 17.577126393362793 a38.83935487202437,38.83935487202437 0 0,0 -0.6579062997563968,0.10825823126220259 l -2.7453086092842516 -17.626850623120667" fill="#ffdf14" stroke="none" /><path d="M 103.2317021107853 120.74984581791261 l 4.866294927833965 31.245104281133152 a52.621786285147586,52.621786285147586 0 0,0 -0.8937557174280932,0.13135131229347743 l -4.3292141047981865 -31.32403666672551" fill="#7eff26" stroke="none" /><path d="M 102.51750503828377 120.84855314841334 l 2.140984060898889 17.730419325788468 a38.85921561035972,38.85921561035972 0 0,0 -0.6629458021497938,0.07428445990350177 l -1.8363023571482961 -17.76455954619894" fill="#ffdf14" stroke="none" /><path d="M 102.15924093988457 120.88869738790638 l 1.9342346135118402 18.711965289534977 a39.811669477663834,39.811669477663834 0 0,0 -0.6804012170430958,0.0644347026644597 l -1.612733833083729 -18.742411747704622" fill="#ffeb16" stroke="none" /><path d="M 101.80034050326958 120.92268563240118 l 1.673865708550231 19.452856805282263 a40.52473980100828,40.52473980100828 0 0,0 -0.6936118077689722,0.05368994062897503 l -1.3396849060060232 -19.478724512906293" fill="#fff417" stroke="none" /><path d="M 101.44090949804482 120.95050786540614 l 1.3398296397298468 19.480828909486004 a40.52684916887935,40.52684916887935 0 0,0 -0.6944674077950926,0.04177743473825111 l -1.005217879802289 -19.500958322048945" fill="#fff417" stroke="none" /><path d="M 101.08105385017728 120.97215588758144 l 0.699073406035419 13.56183731812533 a34.57984296928071,34.57984296928071 0 0,0 -0.5930842209525444,0.025469588332041004 l -0.46616342448204506 -13.571839474883202" fill="#ffa80f" stroke="none" /><path d="M 100.72087961077811 120.9876233191556 l 1.1018788805493538 32.08000135187746 a53.098919355702,53.098919355702 0 0,0 -0.9112449320488704,0.023470437041275573 l -0.5510206344297396 -32.09418950626878" fill="#79ff26" stroke="none" /><line stroke="#e1ed5e" stroke-width="0.3" x1="101.45913802915013" x2="101.54496967792366" y1="184.9874750549273" y2="189.98673829345242" /><path d="M 101.47630435890484 185.9873277026323 a86.0,86.0 0 0,1 -42.54439059252881,-10.42667462771756" fill="none" id="id31" stroke="none" /><text fill="#e1ed5e" style="font-size:6.75px; font-family:Arial;" text-anchor="middle"><textPath startOffset="22.145653131862474" xlink:href="#id31">July</textPath></text><path d="M 100.0 121.0 l 3.030611589092072e-15 24.746821624015197 a45.7468216240152,45.7468216240152 0 0,0 -0.7853050252276169,-0.0067408991540232645 l 0.42481210037876177 -24.743175123055607" fill="#cbff1d" stroke="none" /><path d="M 99.63950707515114 120.99690560180557 l -0.26924609664559984 15.682235309590762 a36.68454646350777,36.68454646350777 0 0,0 -0.6295534345143513,-0.016215063293314142 l 0.5384128452306951 -15.6753025289474" fill="#ffc412" stroke="none" /><path d="M 99.27912038922189 120.98762331915562 l -0.6702527658036671 19.51367796645807 a40.525185442107805,40.525185442107805 0 0,0 -0.6950537068152924,-0.02984859680268618 l 1.0051322332197983 -19.499296801229555" fill="#fff417" stroke="none" /><path d="M 98.91894614982273 120.97215588758144 l -0.6962386570957356 13.50684394600492 a34.52477658408316,34.52477658408316 0 0,0 -0.5916159926260853,-0.03559014900427598 l 0.9279990018542673 -13.492901819175952" fill="#ffa80f" stroke="none" /><path d="M 97.84075906011543 120.88869738790638 l -1.530298803802739 14.804252751626404 a35.88313521953483,35.88313521953483 0 0,0 -0.6121732898649167,-0.068595294000655 l 1.7842079952684549 -14.775801697118778" fill="#ffb911" stroke="none" /><path d="M 97.48249496171623 120.84855314841334 l -1.8313119240316487 15.165889799181922 a36.27605697698299,36.27605697698299 0 0,0 -0.6175949954106961,-0.07996003683847588 l 2.0913847413331386 -15.13221816614305" fill="#ffbf11" stroke="none" /><path d="M 96.76829788921471 120.74984581791261 l -2.4024042082444943 15.42515838542571 a36.61111966500994,36.61111966500994 0 0,0 -0.6201618525362106,-0.10204739683556939 l 2.6668435638337686 -15.381644990094472" fill="#ffc312" stroke="none" /><path d="M 96.41257539226777 120.69131181640829 l -5.4894871615855365 31.66190317358011 a53.134258694894065,53.134258694894065 0 0,0 -0.8973750484567458,-0.1635316269644857 l 6.032196943593339 -31.56300337268426" fill="#79ff26" stroke="none" /><path d="M 96.05791012581884 120.62667999033965 l -1.710189255877437 8.948432843943781 a30.11038954455244,30.11038954455244 0 0,0 -0.5068632631443419,-0.10138684816245574 l 1.8635490045527372 -8.917756599118464" fill="#ff6c0a" stroke="none" /><path d="M 95.70440661134978 120.55596938700252 l -3.701087933320423 17.711045569852033 a39.09362282870806,39.09362282870806 0 0,0 -0.6557258681327184,-0.1429124009919182 l 4.004576218072278 -17.644901710726394" fill="#ffe215" stroke="none" /><path d="M 95.35216902796893 120.47920084513623 l -3.9847118051551376 17.557375442183318 a39.00387071126441,39.00387071126441 0 0,0 -0.6516763862985339,-0.15379385274365018 l 4.285520345193559 -17.486385445793438" fill="#ffe115" stroke="none" /><path d="M 95.00130118170881 120.39639698878247 l -4.247488057324355 17.331200732737027 a38.84409352238262,38.84409352238262 0 0,0 -0.6462819364847068,-0.16428234098856068 l 4.54437528703444 -17.255733159913202" fill="#ffdf14" stroke="none" /><path d="M 94.6519064749342 120.30758222061772 l -7.19239898327127 27.310710448817616 a49.24191049404621,49.24191049404621 0 0,0 -0.8155834439684899,-0.22229089439208818 l 7.660163828174454 -27.183219060281385" fill="#a3ff21" stroke="none" /><path d="M 93.95794788825049 120.11202640906438 l -5.133694438669557 17.088399142703324 a38.8428754367106,38.8428754367106 0 0,0 -0.6369480001348394,-0.19732811861855165 l 5.42628307167603 -16.997754436278125" fill="#ffdf14" stroke="none" /><path d="M 93.61358852112213 120.00534299687104 l -5.545767370988991 17.372037302078777 a39.23576748475212,39.23576748475212 0 0,0 -0.6398742016413135,-0.2103393595960912 l 5.8431643102780475 -17.274277021080664" fill="#ffe415" stroke="none" /><path d="M 93.27111125876986 119.89276391827306 l -5.121160880930873 15.139802173817666 a36.98248724794457,36.98248724794457 0 0,0 -0.5996344496830339,-0.20858398843612716 l 5.380301102658929 -15.049659752812946" fill="#ffc812" stroke="none" /><path d="M 92.59220618246901 119.65005319985036 l -3.295228030337844 8.740983847112304 a30.341484164061,30.341484164061 0 0,0 -0.48579278919384156,-0.18791508687788783 l 3.444793082025214 -8.683128872096376" fill="#ff700a" stroke="none" /><path d="M 92.25597844496254 119.51999308798841 l -10.316828170020505 26.00514643941873 a48.976858022754115,48.976858022754115 0 0,0 -0.7788382496003763,-0.31674673581889445 l 10.761720880811321 -25.824212447020546" fill="#a6ff21" stroke="none" /><path d="M 91.92203290615298 119.3841803445677 l -6.4824704962419855 15.555569330457784 a37.8522449818808,37.8522449818808 0 0,0 -0.5976417505737015,-0.25509772534470243 l 6.748547321986118 -15.441996955453677" fill="#ffd313" stroke="none" /><path d="M 91.59046798132341 119.24265499422711 l -4.319855028544016 9.884673695841526 a31.787396420865342,31.787396420865342 0 0,0 -0.49813362477245426,-0.22280883435680382 l 4.488902056172106 -9.809061110574866" fill="#ff830c" stroke="none" /><path d="M 91.26138138417905 119.09545874513695 l -16.29799543212174 35.6140613390614 a60.166133587168,60.166133587168 0 0,0 -0.9354724599488559,-0.437848346029625 l 16.90695660594209 -35.32903676146125" fill="#31ff2f" stroke="none" /><path d="M 90.6110303473126 118.78422872680471 l -5.433247140111077 10.870133868191987 a33.152365399293245,33.152365399293245 0 0,0 -0.5068724793103612,-0.2588126995452726 l 5.61904684113502 -10.775263216973878" fill="#ff960d" stroke="none" /><path d="M 89.97174638481275 118.45085714620012 l -4.7533723655551 8.745669769134057 a30.95395843654012,30.95395843654012 0 0,0 -0.4646864426997006,-0.2577537365524415 l 4.902802996410903 -8.662783117148466" fill="#ff780b" stroke="none" /><line stroke="#e1ed5e" stroke-width="0.3" x1="58.13341422392154" x2="55.67067388415222" y1="173.97424548756322" y2="178.32567169271397" /><path d="M 57.64086615596768 174.84453072859336 a86.0,86.0 0 0,1 -31.369924170532247,-30.572349798747897" fill="none" id="id32" stroke="none" /><text fill="#e1ed5e" style="font-size:6.75px; font-family:Arial;" text-anchor="middle"><textPath startOffset="22.145653131862474" xlink:href="#id32">August</textPath></text><path d="M 89.34428304082925 118.09573695890944 l -9.051060954110572 15.37068025100649 a38.837587162329605,38.837587162329605 0 0,0 -0.5715917145819934,-0.34322440144258626 l 9.313585425249991 -15.213041849027984" fill="#ffdf14" stroke="none" /><path d="M 89.03521579738668 117.91015095944536 l -4.779300700433018 7.806628515765686 a30.153423620062906,30.153423620062906 0 0,0 -0.43914278965784753,-0.2740575796067886 l 4.912607618880578 -7.72343513931735" fill="#ff6d0a" stroke="none" /><path d="M 88.72937992617639 117.7192867562869 l -8.273152137764832 13.00676929461169 a36.41496330770386,36.41496330770386 0 0,0 -0.5245737905435345,-0.340022393309585 l 8.495211560565375 -12.86283305959821" fill="#ffc011" stroke="none" /><path d="M 88.1277618465304 117.32195027204791 l -8.056597201823404 11.754816091784763 a35.25077049931374,35.25077049931374 0 0,0 -0.49620479997638844,-0.34638948759033383 l 8.257197092973557 -11.614781788389301" fill="#ffb110" stroke="none" /><path d="M 87.83215693770417 117.11559508785305 l -10.351036031262106 14.560028473726243 a38.864444465927434,38.864444465927434 0 0,0 -0.5404359907294147,-0.3912339800529237 l 10.599453032365474 -14.380193722300255" fill="#ffe014" stroke="none" /><path d="M 87.54013794807813 116.9041958592261 l -7.472760166300795 10.13823435073162 a33.59467904527172,33.59467904527172 0 0,0 -0.4612821567241052,-0.34615473002710045 l 7.6456953119356665 -10.008460593440505" fill="#ff9b0e" stroke="none" /><path d="M 87.2517909369889 116.68781488649013 l -10.851410376871 14.204844518276905 a38.875422091678985,38.875422091678985 0 0,0 -0.5268361202571329,-0.4096709536517307 l 11.093656441763361 -14.016472513004382" fill="#ffe015" stroke="none" /><path d="M 86.96720088162412 116.46651593811092 l -7.888847557104537 9.967301180084279 a33.71145186804968,33.71145186804968 0 0,0 -0.45068876867431507,-0.3630429694600358 l 8.058787096134115 -9.830409916830833" fill="#ff9d0e" stroke="none" /><path d="M 86.68645165197938 116.24036423190432 l -11.392152149674892 13.896573284574341 a38.96930381664486,38.96930381664486 0 0,0 -0.513700165537629,-0.4285469484709898 l 11.629026649374415 -13.698964152191481" fill="#ffe115" stroke="none" /><path d="M 86.13680546590413 115.77377054828092 l -10.456055117812262 11.89707133250624 a36.83885712156877,36.83885712156877 0 0,0 -0.47142329906773595,-0.4215496209666844 l 10.65874344370337 -11.715826181656173" fill="#ffc612" stroke="none" /><path d="M 85.86807049272751 115.53346607816431 l -12.10086247880856 13.300967623308114 a38.981841186244736,38.981841186244736 0 0,0 -0.4911159351070181,-0.45456957759987315 l 12.327408185229546 -13.091280299575864" fill="#ffe115" stroke="none" /><path d="M 85.60350026404147 115.28858382429668 l -11.575684918678457 12.292976240663918 a37.8853115514653,37.8853115514653 0 0,0 -0.46964709421004996,-0.44991129240615424 l 11.785004498753821 -12.092452817952182" fill="#ffd313" stroke="none" /><path d="M 85.34317274990678 115.03919595460226 l -12.51526757379594 12.841767065610998 a38.93161743432866,38.93161743432866 0 0,0 -0.474609934552255,-0.47055346376014495 l 12.733869428478158 -12.625033591622195" fill="#ffe015" stroke="none" /><path d="M 85.08716467003676 114.78537596483092 l -16.89759347920093 16.753170471136485 a44.79490252603051,44.79490252603051 0 0,0 -0.5367137484148677,-0.5507155877742225 l 17.18269402876661 -16.460632191294525" fill="#d6ff1c" stroke="none" /><path d="M 84.3458050057657 113.99807769240083 l -13.429337500189826 12.008596402074138 a39.01536825163207,39.01536825163207 0 0,0 -0.4421536180699821,-0.5030896523434649 l 13.6335021822184 -11.776294471919373" fill="#ffe115" stroke="none" /><path d="M 84.1078160697243 113.72728997021213 l -17.998909174144462 15.547029059378987 a44.783835772059064,44.783835772059064 0 0,0 -0.49753868345838304,-0.5860993180707494 l 18.263142421109958 -15.235762958858684" fill="#d6ff1c" stroke="none" /><path d="M 83.8745106332314 113.45245675266167 l -12.16824590214031 10.151183510227806 a36.84653700318386,36.84653700318386 0 0,0 -0.40101872533900923,-0.4891776401809346 l 12.340711446717949 -9.940803588348375" fill="#ffc612" stroke="none" /><path d="M 83.64595745247003 113.17365903436017 l -15.830152477873808 12.751650278477376 a41.32728000243334,41.32728000243334 0 0,0 -0.4402999936580963,-0.5563046585210265 l 16.046718902173467 -12.47802567604167" fill="#fffe18" stroke="none" /><path d="M 83.4222238831116 112.89097897827486 l -15.11351855298279 11.752363440099149 a40.14514271243581,40.14514271243581 0 0,0 -0.4183659572117242,-0.5476544677177877 l 15.313036487548809 -11.491188059140491" fill="#fff016" stroke="none" /><path d="M 83.20337586046588 112.60449989151573 l -18.278603845479086 13.716605091205576 a43.85284695104856,43.85284695104856 0 0,0 -0.44666835230136515,-0.6059914050377019 l 18.511374217364285 -13.400807376898994" fill="#e1ff1b" stroke="none" /><path d="M 82.98947788004972 112.3143062007846 l -11.888347032599576 8.606246448421661 a35.67652115109332,35.67652115109332 0 0,0 -0.3548707907352335,-0.4991702088557751 l 12.034332921864769 -8.400899012856382" fill="#ffb711" stroke="none" /><path d="M 82.576782715395 111.72311816256416 l -17.08828790326048 11.497762727372198 a41.59631353421451,41.59631353421451 0 0,0 -0.39353194905902084,-0.5958575284766177 l 17.283144291240227 -11.20272532055652" fill="#fdff18" stroke="none" /><path d="M 82.37810715431573 111.42229804090323 l -20.143121630080092 13.056528078326592 a45.00454695394877,45.00454695394877 0 0,0 -0.41464683961814436,-0.651893702889183 l 20.364286161324127 -12.708820700758736" fill="#d4ff1c" stroke="none" /><path d="M 82.18462484594161 111.11811171558189 l -11.787184890371543 7.356075148017076 a34.89422791028986,34.89422791028986 0 0,0 -0.3127719784909948,-0.5108895211383186 l 11.911724833317942 -7.1526485107542" fill="#ffad10" stroke="none" /><path d="M 81.99639281039703 110.81064883170644 l -8.489648745976949 5.097790144538128 a30.902605727171917,30.902605727171917 0 0,0 -0.2691856672854323,-0.45713611265860643 l 8.575908123392152 -4.951302863585963" fill="#ff770b" stroke="none" /><line stroke="#e1ed5e" stroke-width="0.3" x1="26.387840678322732" x2="22.057713659400548" y1="142.50000000000003" y2="145.00000000000006" /><path d="M 25.521815274538298 143.00000000000003 a86.0,86.0 0 0,1 -11.493303480769221,-40.785679425670985" fill="none" id="id33" stroke="none" /><text fill="#e1ed5e" style="font-size:6.75px; font-family:Arial;" text-anchor="middle"><textPath startOffset="21.40746469413373" xlink:href="#id33">September</textPath></text><path d="M 81.81346652052679 110.50000000000001 l -28.311054743739007 16.345395077339965 a53.6907901546799,53.6907901546799 0 0,0 -0.4539853779576105,-0.8021486628123599 l 28.587473486717993 -15.856989644428484" fill="#73ff27" stroke="none" /><path d="M 81.63589988554817 110.18625677009913 l -1.3067706411739215 0.724843646444147 a22.494338589619016,22.494338589619016 0 0,0 -0.18440499978715527,-0.33928442964037614 l 1.3190209905764063 -0.7023043833291839" fill="#ff0000" stroke="none" /><path d="M 81.4637452351635 109.86951160357371 l -17.23107123281971 9.174574887529577 a40.5213380739486,40.5213380739486 0 0,0 -0.3216466710126382,-0.6167999023700104 l 17.386025972807296 -8.877428742055063" fill="#fff417" stroke="none" /><path d="M 81.29705330413844 109.54985784667822 l -15.879768542097585 8.108322965425575 a38.830085537154325,38.830085537154325 0 0,0 -0.29803031223210524,-0.5962602670556602 l 16.016618767541427 -7.834530842206163" fill="#ffdf14" stroke="none" /><path d="M 81.1358732173502 109.22738970284198 l -11.940056969103978 5.840480187473614 a34.291958818989784,34.291958818989784 0 0,0 -0.25412095606758717,-0.5310150613158932 l 12.038557183131477 -5.634652624092616" fill="#ffa50f" stroke="none" /><path d="M 80.9802524753101 108.90220220490708 l -14.33350308956421 6.70880318691514 a36.82584440146274,36.82584440146274 0 0,0 -0.2630689883357081,-0.5748532159070001 l 14.446556542754974 -6.461760988793451" fill="#ffc612" stroke="none" /><path d="M 80.83023694016515 108.57439118712176 l -16.956034454805188 7.584218539583098 a39.57491521619134,39.57491521619134 0 0,0 -0.2720608037747223,-0.6225283610148997 l 17.08372914059688 -7.2920281087923495" fill="#ffe815" stroke="none" /><path d="M 80.68587082218212 108.24405325689762 l -22.107214968700177 9.436255493877749 a45.03688564307072,45.03688564307072 0 0,0 -0.29740248005998626,-0.7136576865726013 l 22.26594329329665 -9.055365297863865" fill="#d3ff1c" stroke="none" /><path d="M 80.5471966667186 107.91128576633889 l -9.16425574268358 3.727023029742022 a30.893143281158743,30.893143281158743 0 0,0 -0.19557025725041016,-0.4929648042186607 l 9.226884674900115 -3.569157208309796" fill="#ff770b" stroke="none" /><path d="M 80.41425534168474 107.57618678355246 l -16.156919374105264 6.249843504063549 a38.32358471814143,38.32358471814143 0 0,0 -0.2320754315421704,-0.6156076543855254 l 16.26182548946187 -5.971567569483879" fill="#ffd914" stroke="none" /><path d="M 80.16572619554312 106.89939002012753 l -16.362654705677112 5.69178068691246 a38.32434230801063,38.32434230801063 0 0,0 -0.2108104878679112,-0.6232237488126035 l 16.45795061511739 -5.410055263625694" fill="#ffd914" stroke="none" /><path d="M 80.05021161711548 106.5578916946017 l -15.810994297791682 5.197387871935452 a37.643328434425094,37.643328434425094 0 0,0 -0.19652557199992093,-0.6156135552050915 l 15.897884585568859 -4.925205283038968" fill="#ffd013" stroke="none" /><path d="M 79.94057633289273 106.21446072829308 l -21.284240697007608 6.593912175053314 a43.28224808722116,43.28224808722116 0 0,0 -0.2137806690534495,-0.7116063188845144 l 21.394297686064686 -6.227568252578076" fill="#e8ff1a" stroke="none" /><path d="M 79.83685265289637 105.86919833188381 l -30.516861260106015 8.883013555315422 a52.78343516664737,52.78343516664737 0 0,0 -0.24577351828946115,-0.8721635120003143 l 30.66485327047005 -8.357842119412112" fill="#7cff26" stroke="none" /><path d="M 79.73907114497094 105.5222062557868 l -17.20244694364679 4.688603410374623 a38.829951844824464,38.829951844824464 0 0,0 -0.1697618113905031,-0.6446132489224317 l 17.280398235842025 -4.392609657079388" fill="#ffdf14" stroke="none" /><path d="M 79.64726062577567 105.17358676015961 l -8.801631026391883 2.237340188398422 a30.081541710710077,30.081541710710077 0 0,0 -0.12292245239996755,-0.5015655531816018 l 8.838741005308144 -2.0859188106087205" fill="#ff6c09" stroke="none" /><path d="M 79.56144815229197 104.8234425847677 l -19.896600815615578 4.695543616850038 a41.443161543012266,41.443161543012266 0 0,0 -0.1574625787544477,-0.6938091757876971 l 19.974274255927693 -4.3533001071233155" fill="#ffff18" stroke="none" /><path d="M 79.48165901384964 104.47187691870673 l -16.852270666882422 3.6728739557402785 a38.247870295332724,38.247870295332724 0 0,0 -0.13430883388907316,-0.6427163905044 l 16.912837211595864 -3.3830411139504695" fill="#ffd814" stroke="none" /><path d="M 79.407916724674 104.11899336999214 l -10.493910736055069 2.0990760463217804 a31.70178876564725,31.70178876564725 0 0,0 -0.10216083747901018,-0.534548670751018 l 10.528397865816235 -1.918624810537448" fill="#ff820c" stroke="none" /><path d="M 79.34024301695615 103.76489593502545 l -16.052938377280224 2.9253801238533264 a37.31731226071844,37.31731226071844 0 0,0 -0.10943778506074414,-0.6312080622707132 l 16.1007909798332 -2.6493790286620205" fill="#ffcc13" stroke="none" /><path d="M 79.2786578344484 103.40968896794605 l -44.94229632081673 7.395237757040905 a66.54667430308453,66.54667430308453 0 0,0 -0.175805247309325,-1.1287958019008284 l 45.06262306026433 -6.6226537732086275" fill="#37ff79" stroke="none" /><path d="M 79.22317932658666 103.0534771498775 l -15.101584464969529 2.219412864728443 a36.26380184674615,36.26380184674615 0 0,0 -0.08522940341391107,-0.616677506123256 l 15.137458384938652 -1.959847050405101" fill="#ffbe11" stroke="none" /><path d="M 79.13060592940153 102.33845913500099 l -23.019058070581323 2.5793334699690837 a44.16311713923879,44.16311713923879 0 0,0 -0.07795338537635763,-0.7541282899057236 l 23.059943848439346 -2.183800657780429" fill="#deff1b" stroke="none" /><path d="M 79.0935383218832 101.97986365728391 l -17.75671517847096 1.6815793889883635 a38.83616111081113,38.83616111081113 0 0,0 -0.057156430869621654,-0.6642443653205329 l 17.782965232038322 -1.3765139762921685" fill="#ffdf14" stroke="none" /><path d="M 79.06263194458094 101.62068470465958 l -14.83599192806185 1.148399604602619 a35.8803722447178,35.8803722447178 0 0,0 -0.042263727678915446,-0.6145053248382257 l 14.853519616905832 -0.89355085561005" fill="#ffb911" stroke="none" /><path d="M 79.03789590574601 101.26102812881392 l -41.54417907338404 2.4991946497575217 a62.619283857110965,62.619283857110965 0 0,0 -0.055338779893127465,-1.073557546052814 l 41.58095944273374 -1.7856653103279772" fill="#32ff4b" stroke="none" /><path d="M 79.01933749520258 100.90099992219065 l -14.175389819808741 0.6087522318110477 a35.18845501889731,35.18845501889731 0 0,0 -0.020736578331246876,-0.6037228525226646 l 14.183751085136835 -0.3653231147242632" fill="#ffb010" stroke="none" /><path d="M 79.00696218219943 100.54070618675478 l -7.411049256772577 0.1908823400529222 a28.413507075200876,28.413507075200876 0 0,0 -0.008373282478888923,-0.48770172635196696 l 7.413233970850132 -0.06363369773190287" fill="#ff5507" stroke="none" /><line stroke="#e1ed5e" stroke-width="0.3" x1="15.003131293944662" x2="10.003315487706104" y1="100.72959589197737" y2="100.7725132973878" /><path d="M 14.003168132696942 100.73817937305945 a86.0,86.0 0 0,1 10.791469493833604,-42.45332614584628" fill="none" id="id34" stroke="none" /><text fill="#e1ed5e" style="font-size:6.75px; font-family:Arial;" text-anchor="middle"><textPath startOffset="22.145653131862435" xlink:href="#id34">October</textPath></text><path d="M 79.00077361379809 100.18025310272382 l -29.743041194234273 0.2553082366513239 a50.74413693112676,50.74413693112676 0 0,0 0.0,-0.8711226787502719 l 29.743041194234273 0.25530823665131297" fill="#92ff23" stroke="none" /><path d="M 79.00696218219943 99.45929381324524 l -18.152027694313983 -0.4675318437304486 a39.15804767699556,39.15804767699556 0 0,0 0.023075861742622505,-0.6718285366628708 l 18.141327145574508 0.7790666449574579" fill="#ffe315" stroke="none" /><path d="M 79.03789590574601 98.7389718711861 l -23.036235270766976 -1.3858027098708627 a44.07788085160364,44.07788085160364 0 0,0 0.05191962726223621,-0.7548999856010196 l 23.009051682339674 1.7810461196262073" fill="#dfff1b" stroke="none" /><path d="M 79.06263194458094 98.37931529534042 l -33.46566770280967 -2.590454331872248 a54.56577674418386,54.56577674418386 0 0,0 0.08030621351649808,-0.9332799304813524 l 33.416267866595426 3.164555309729281" fill="#69ff28" stroke="none" /><path d="M 79.0935383218832 98.0201363427161 l -18.649232988339037 -1.7661017535301315 a39.732672165421974,39.732672165421974 0 0,0 0.07013309988012312,-0.6784741217207575 l 18.61616749597725 2.0859803975338016" fill="#ffea16" stroke="none" /><path d="M 79.17382384314186 97.30363454192245 l -19.474454972525677 -2.5213580883648254 a40.63699679397776,40.63699679397776 0 0,0 0.09550755345291619,-0.6910450797507548 l 19.42830290251755 2.8552914763156476" fill="#fff617" stroke="none" /><path d="M 79.22317932658666 96.9465228501225 l -19.12650342319008 -2.8109373458903613 a40.33195546135525,40.33195546135525 0 0,0 0.10655031943532577,-0.6841294848166256 l 19.075431611616487 3.138855012638437" fill="#fff216" stroke="none" /><path d="M 79.2786578344484 96.59031103205396 l -17.415694064438732 -2.8657458308545474 a38.64989798591444,38.64989798591444 0 0,0 0.11334576292233647,-0.6537482400716744 l 17.363933484024162 3.164287103846814" fill="#ffdd14" stroke="none" /><path d="M 79.34024301695615 96.23510406497455 l -8.272664389355338 -1.5075550286906092 a29.408905889795548,29.408905889795548 0 0,0 0.09477189054702426,-0.49588657813110726 l 8.245566206526153 1.649344171855031" fill="#ff6309" stroke="none" /><path d="M 79.407916724674 95.88100663000787 l -21.89741968460196 -4.380097209925582 a43.33119433465195,43.33119433465195 0 0,0 0.15215911728340298,-0.7281364584215979 l 21.81900285649419 4.755350119632589" fill="#e8ff1a" stroke="none" /><path d="M 79.64726062577567 94.8264132398404 l -16.051814023483306 -4.080308354638986 a37.56229602782875,37.56229602782875 0 0,0 0.1642197095467405,-0.6235689855153246 l 15.97940483313184 4.355257844527095" fill="#ffcf13" stroke="none" /><path d="M 79.73907114497095 94.47779374421319 l -13.621347196617256 -3.7125587498785033 a35.118221981612706,35.118221981612706 0 0,0 0.16351965242960237,-0.5802735597254587 l 13.55560905211307 3.945840233506975" fill="#ffaf10" stroke="none" /><path d="M 79.83685265289637 94.1308016681162 l -13.586601989422165 -3.9548618258617445 a35.15050125192139,35.15050125192139 0 0,0 0.17361615921744328,-0.5779117284393168 l 13.516709510201093 4.187511157891785" fill="#ffb010" stroke="none" /><path d="M 80.05021161711548 93.44210830539832 l -59.55461159646726 -19.57678373665195 a83.68972981180978,83.68972981180978 0 0,0 0.460351612282566,-1.360947742592518 l 59.209774562612324 20.596233153718632" fill="#4dd5ff" stroke="none" /><path d="M 80.41425534168474 92.42381321644754 l -16.695269996929607 -6.458089090060571 a38.9008087796484,38.9008087796484 0 0,0 0.2462630982883622,-0.620743878649005 l 16.581948223675113 6.743733985923159" fill="#ffe015" stroke="none" /><path d="M 80.5471966667186 92.08871423366112 l -16.783357262353626 -6.825645288557016 a39.11823707210497,39.11823707210497 0 0,0 0.25831849948552255,-0.619870361217433 l 16.663712918331626 7.1127481592157125" fill="#ffe315" stroke="none" /><path d="M 80.68587082218212 91.75594674310238 l -16.470270193449412 -7.030178962778944 a38.907909327834105,38.907909327834105 0 0,0 0.26747542040451655,-0.6120361065097601 l 16.34716089102792 7.311877139064571" fill="#ffe015" stroke="none" /><path d="M 80.83023694016515 91.42560881287825 l -20.951029889134258 -9.371129183067984 a43.951333634042825,43.951333634042825 0 0,0 0.3139706112116818,-0.6860824481713392 l 20.78707481306753 9.729400613453993" fill="#e0ff1b" stroke="none" /><path d="M 81.1358732173502 90.77261029715801 l -13.825610747743664 -6.762799026911079 a36.39100267125292,36.39100267125292 0 0,0 0.27930976042210487,-0.5588066230351527 l 13.707481074109815 6.999137506110002" fill="#ffc011" stroke="none" /><path d="M 81.29705330413844 90.45014215332179 l -17.924586462994924 -9.15242156574028 a41.12604333659273,41.12604333659273 0 0,0 0.32644664662842604,-0.6260044885137888 l 17.764831747391558 9.458772297358554" fill="#fffc17" stroke="none" /><path d="M 81.46374523516351 90.13048839642627 l -13.899486737719675 -7.400693796131774 a36.74693621744079,36.74693621744079 0 0,0 0.30124552177240616,-0.5542578300709912 l 13.770395866331917 7.638206459677385" fill="#ffc512" stroke="none" /><line stroke="#e1ed5e" stroke-width="0.3" x1="26.387840678322718" x2="22.05771365940052" y1="57.49999999999999" y2="54.99999999999999" /><path d="M 25.521815274538284 56.99999999999999 a86.0,86.0 0 0,1 29.574782752854787,-30.34633250058573" fill="none" id="id35" stroke="none" /><text fill="#e1ed5e" style="font-size:6.75px; font-family:Arial;" text-anchor="middle"><textPath startOffset="21.40746469413373" xlink:href="#id35">November</textPath></text><path d="M 81.99639281039701 89.18935116829357 l -26.935997825076246 -16.17429275987935 a52.4190344395686,52.4190344395686 0 0,0 0.4698543597068026,-0.767471785655079 l 26.65437550091405 16.63430166165897" fill="#80ff25" stroke="none" /><path d="M 82.37810715431573 88.57770195909679 l -13.335782721469315 -8.644093241700505 a36.89224492529145,36.89224492529145 0 0,0 0.3490279742860079,-0.5284728384176824 l 13.185430308262577 8.871745958457248" fill="#ffc612" stroke="none" /><path d="M 82.576782715395 88.27688183743585 l -14.939357296445138 -10.05186631138095 a39.00623260909188,39.00623260909188 0 0,0 0.3785652635191487,-0.5523380330344028 l 14.764602296110676 10.306839079485387" fill="#ffe115" stroke="none" /><path d="M 82.78059297857968 87.97951657250589 l -14.74374938750978 -10.292282129763468 a38.980801357012524,38.980801357012524 0 0,0 0.3877381357467754,-0.5454022457048912 l 14.564896153233033 10.543861602177879" fill="#ffe115" stroke="none" /><path d="M 82.98947788004972 87.6856937992154 l -14.584389093241237 -10.557972987491151 a39.00486597638668,39.00486597638668 0 0,0 0.39728866946442537,-0.5389983816267139 l 14.400998404192993 10.806777678386728" fill="#ffe115" stroke="none" /><path d="M 83.2033758604659 87.39550010848427 l -14.21364100682922 -10.66618119452614 a38.77062215977483,38.77062215977483 0 0,0 0.40404161887666756,-0.5289034490197633 l 14.028447410598247 10.908605556786789" fill="#ffde14" stroke="none" /><path d="M 83.64595745247003 86.82634096563983 l -24.436487126216043 -19.684304260717646 a52.37855537302872,52.37855537302872 0 0,0 0.5700612111519651,-0.6953819869490263 l 24.09497909582545 20.100888529365164" fill="#81ff25" stroke="none" /><path d="M 83.8745106332314 86.54754324733833 l -13.869078020642293 -11.57007815567265 a39.06150696013587,39.06150696013587 0 0,0 0.43396485387639927,-0.5112095066772943 l 13.668418603258779 11.8064544447995" fill="#ffe215" stroke="none" /><path d="M 84.10781606972428 86.27271002978789 l -13.663674646504424 -11.802356727943284 a39.05523827533594,39.05523827533594 0 0,0 0.4426054573328978,-0.5036037624816736 l 13.459058125212932 12.035172768236258" fill="#ffe215" stroke="none" /><path d="M 84.58840730492382 85.73525988315684 l -13.691948351304525 -12.673062985047492 a39.65679434087677,39.65679434087677 0 0,0 0.46671168447943484,-0.4956316355232043 l 13.472380833088819 12.906236080515207" fill="#ffe915" stroke="none" /><path d="M 84.83555147118756 85.47280134310135 l -9.947588124267417 -9.52956439950114 a34.77559824959721,34.77559824959721 0 0,0 0.41666664368931944,-0.4275366827531027 l 9.782534679427295 9.698923774321974" fill="#ffab0f" stroke="none" /><path d="M 85.08716467003674 85.21462403516908 l -6.381819134496967 -6.327273999566254 a29.98676870354516,29.98676870354516 0 0,0 0.36556452749052903,-0.3624400631242366 l 6.272262686876461 6.435894072919163" fill="#ff6b09" stroke="none" /><path d="M 85.34317274990677 84.96080404539775 l -43.97048175027968 -45.11758786380673 a84.0,84.0 0 0,0 1.0413100565387983,-0.997551478777726 l 43.189499207875585 45.86575147289003" fill="#4dd2ff" stroke="none" /><path d="M 86.13680546590413 84.22622945171909 l -9.952243366244419 -11.32382604266964 a36.07568188393478,36.07568188393478 0 0,0 0.4686755380707174,-0.40483076720408434 l 9.756388348410853 11.493000942338435" fill="#ffbc11" stroke="none" /><path d="M 86.40962598614128 83.9905735841838 l -10.829924074209265 -12.757623327961781 a37.73452145809052,37.73452145809052 0 0,0 0.49742304893893524,-0.41496799888865027 l 10.609326691108421 12.941653510762313" fill="#ffd113" stroke="none" /><path d="M 86.68645165197937 83.75963576809568 l -11.394337024156249 -13.89923847618595 a38.97275010781449,38.97275010781449 0 0,0 0.5210271223764972,-0.41970256821170204 l 11.154059131424507 14.09278933819105" fill="#ffe115" stroke="none" /><path d="M 86.96720088162412 83.53348406188908 l -12.319318467167783 -15.565056442883472 a40.85035489772537,40.85035489772537 0 0,0 0.5536002267625508,-0.43048288475159663 l 12.050308295769987 15.774240379255874" fill="#fff817" stroke="none" /><path d="M 87.25179093698888 83.31218511350988 l -19.25899877846336 -25.210647623174726 a52.72516016553327,52.72516016553327 0 0,0 0.7239591591873038,-0.5432724497275924 l 18.823386630365306 25.53753910016632" fill="#7dff26" stroke="none" /><path d="M 88.12776184653039 82.6780497279521 l -16.25234971773042 -23.712663945524422 a49.747683432596546,49.747683432596546 0 0,0 0.708557941584073,-0.47674940503398994 l 15.842895488049358 23.98816302461552" fill="#9eff22" stroke="none" /><path d="M 88.4268655584334 82.4767994020092 l -13.719943988849566 -20.773743874115482 a45.8954874948156,45.8954874948156 0 0,0 0.66114497055951,-0.4285461821897523 l 13.36131338603303 21.00620389800914" fill="#c9ff1d" stroke="none" /><path d="M 89.03521579738668 82.08984904055464 l -13.97060306548793 -22.819930175893756 a47.75681152989061,47.75681152989061 0 0,0 0.7028602902452111,-0.4220474094758232 l 13.576810018685286 23.056391585905505" fill="#b4ff20" stroke="none" /><line stroke="#e1ed5e" stroke-width="0.3" x1="56.869717070023135" x2="54.33264160355391" y1="26.7553504044142" y2="22.446841604673864" /><path d="M 56.362301976729285 25.89364864446614 a86.0,86.0 0 0,1 42.16139366436587,-11.88097634709845" fill="none" id="id36" stroke="none" /><text fill="#e1ed5e" style="font-size:6.75px; font-family:Arial;" text-anchor="middle"><textPath startOffset="22.145653131862474" xlink:href="#id36">December</textPath></text><path d="M 89.34428304082924 81.90426304109057 l -20.9530081739984 -35.582788644571984 a62.293624196283915,62.293624196283915 0 0,0 0.9261208894454044,-0.534696144823437 l 20.339094816692594 35.937231686671595" fill="#32ff47" stroke="none" /><path d="M 89.97174638481275 81.54914285379989 l -8.651626032445892 -15.918017446752062 a39.11722695227938,39.11722695227938 0 0,0 0.5927399576966972,-0.31560064126259807 l 8.377097258962632 16.064188555737235" fill="#ffe315" stroke="none" /><path d="M 90.28995756902619 81.37971332152246 l -11.100530124907522 -21.286730174270176 a45.0072208005459,45.0072208005459 0 0,0 0.6881234964467391,-0.35136076035973957 l 10.7334794067472 21.47414888630275" fill="#d4ff1c" stroke="none" /><path d="M 90.61103034731259 81.2157712731953 l -6.0452297909610895 -12.094509120817541 a34.52116689117704,34.52116689117704 0 0,0 0.5323488610105637,-0.26039850426188416 l 5.836720680688472 12.19650137517664" fill="#ffa80f" stroke="none" /><path d="M 90.93487009805054 81.0573650232925 l -7.792327465881068 -16.282967414886603 a39.05146518069332,39.05146518069332 0 0,0 0.6071782914928396,-0.28419009864787065 l 7.5116604605167066 16.414333745105015" fill="#ffe215" stroke="none" /><path d="M 91.26138138417902 80.90454125486306 l -7.751455856051628 -16.938329960527525 a39.62772368648466,39.62772368648466 0 0,0 0.6209977495506205,-0.2777643946015051 l 7.459544703645388 17.068898106038876" fill="#ffe915" stroke="none" /><path d="M 91.5904679813234 80.7573450057729 l -17.937540177448344 -41.04460228145302 a65.79302093027698,65.79302093027698 0 0,0 1.0387932399551207,-0.44339906367255344 l 17.23031186232279 41.346475994784974" fill="#36ff70" stroke="none" /><path d="M 92.25597844496254 80.48000691201159 l -6.711588453271472 -16.917587236319108 a39.20027959852689,39.20027959852689 0 0,0 0.6276295866206549,-0.2427806071240235 l 6.420186604157288 17.03030773158117" fill="#ffe415" stroke="none" /><path d="M 92.592206182469 80.34994680014964 l -8.728481638004705 -23.153334550808967 a45.743954666274945,45.743954666274945 0 0,0 0.7371547859671076,-0.2706934480648334 l 8.32973770038347 23.299758847882522" fill="#cbff1d" stroke="none" /><path d="M 93.27111125876988 80.10723608172694 l -5.950792741956219 -17.592461355018163 a39.57166203616484,39.57166203616484 0 0,0 0.6453521181368457,-0.21214005955341733 l 5.647917886171612 17.692022335973608" fill="#ffe815" stroke="none" /><path d="M 93.61358852112211 79.99465700312896 l -5.345102956788753 -16.743458882630048 a38.575936418097186,38.575936418097186 0 0,0 0.6325707167295581,-0.19597202503031577 l 5.056891607187579 16.832747495467004" fill="#ffdc14" stroke="none" /><path d="M 93.95794788825049 79.88797359093562 l -12.986337330217603 -43.22729339498012 a66.1358377734356,66.1358377734356 0 0,0 1.0901075270489478,-0.3173144137266277 l 12.242369790787032 43.44385150300927" fill="#37ff74" stroke="none" /><path d="M 94.6519064749342 79.69241777938228 l -4.63912968940661 -17.61553105946745 a39.21615927637317,39.21615927637317 0 0,0 0.6524723081521558,-0.16585590925916585 l 4.336052088029076 17.692572200561877" fill="#ffe415" stroke="none" /><path d="M 95.00130118170881 79.60360301121753 l -5.892971469343441 -24.04533457636612 a45.75692282227102,45.75692282227102 0 0,0 0.7645063315304561,-0.18042141259837008 l 5.4793329840730784 24.14295213261072" fill="#cbff1d" stroke="none" /><path d="M 95.35216902796891 79.52079915486377 l -3.1488152054601968 -13.874260790654004 a35.227092102225825,35.227092102225825 0 0,0 0.5908717043630365,-0.1287777378512968 l 2.910181084478042 13.926269986639015" fill="#ffb110" stroke="none" /><path d="M 96.05791012581881 79.37332000966035 l -3.893021505890645 -20.369933553124703 a41.73860673729175,41.73860673729175 0 0,0 0.7049159085566665,-0.1284591605234263 l 3.54277086378294 20.43376088757949" fill="#fbff18" stroke="none" /><path d="M 96.41257539226777 79.30868818359171 l -4.725342249643524 -27.254518385106767 a48.66112130374307,48.66112130374307 0 0,0 0.8242788368764189,-0.13563476893313148 l 4.256785909714032 27.331619152535566" fill="#aaff21" stroke="none" /><path d="M 97.12497278360702 79.19773525538626 l -2.5374074433214653 -18.359416251770064 a39.53393108973868,39.53393108973868 0 0,0 0.6730598644010775,-0.08714107457464734 l 2.2218697570295936 18.400268922545106" fill="#ffe815" stroke="none" /><path d="M 97.48249496171623 79.15144685158666 l -2.427589501260543 -20.103923515507034 a41.24996127166635,41.24996127166635 0 0,0 0.703732389714071,-0.07885468211275957 l 2.0821212099456727 20.142633958126765" fill="#fffd17" stroke="none" /><path d="M 98.5590905019552 79.04949213459386 l -3.0591827001237575 -44.479845061486316 a65.58492139150371,65.58492139150371 0 0,0 1.1238621132228424,-0.06760875393566516 l 2.295176234768431 44.525805793246676" fill="#36ff6e" stroke="none" /><path d="M 99.27912038922189 79.0123766808444 l -0.6207593170658713 -18.072730208546414 a39.083387938122385,39.083387938122385 0 0,0 0.6707206025670185,-0.017275383512356666 l 0.31042540042810884 18.080723309408814" fill="#ffe215" stroke="none" /><path d="M 99.63950707515114 79.00309439819443 l -0.39946094725287634 -23.266597547214143 a44.27002643901402,44.27002643901402 0 0,0 0.7599538721017228,-0.0065232899943081304 l 5.69951267892256e-15 23.270026439014018" fill="#dcff1b" stroke="none" /></svg>