<?xml version="1.0" encoding="utf-8" ?>
<svg baseProfile="full" height="200mm" version="1.1" viewBox="0,0,200,200" width="200mm" xmlns="http://www.w3.org/2000/svg" xmlns:ev="http://www.w3.org/2001/xml-events" xmlns:xlink="http://www.w3.org/1999/xlink"><defs /><rect fill="#1a1a1a" height="200" width="200" x="0" y="0" /><text alignment-baseline="middle" fill="#e1ed5e" style="dominant-baseline: central; font-size:9.0px; font-family:Arial;" text-anchor="middle" x="100.0" y="100.0">2022</text><line stroke="#e1ed5e" stroke-width="0.3" x1="100.0" x2="100.0" y1="15.0" y2="10.0" /><path d="M 100.0 14.0 a86.0,86.0 0 0,1 42.46469731375804,11.215312516191453" fill="none" id="id1" stroke="none" /><text fill="#e1ed5e" style="font-size:6.75px; font-family:Arial;" text-anchor="middle"><textPath startOffset="22.20632615414155" xlink:href="#id1">January</textPath></text><line stroke="#e1ed5e" stroke-width="0.3" x1="143.23703022742887" x2="145.7803849466894" y1="26.81831364943548" y2="22.513508569990506" /><path d="M 143.74570117128098 25.957352633546492 a86.0,86.0 0 0,1 28.547481713284135,27.462654790039103" fill="none" id="id2" stroke="none" /><text fill="#e1ed5e" style="font-size:6.75px; font-family:Arial;" text-anchor="middle"><textPath startOffset="19.985693538727396" xlink:href="#id2">February</textPath></text><line stroke="#e1ed5e" stroke-width="0.3" x1="172.23445277983987" x2="176.4835382374775" y1="55.19839476539836" y2="52.563006222186495" /><path d="M 173.08426987136738 54.67131705675599 a86.0,86.0 0 0,1 12.851231095245387,41.99856678651699" fill="none" id="id3" stroke="none" /><text fill="#e1ed5e" style="font-size:6.75px; font-family:Arial;" text-anchor="middle"><textPath startOffset="22.20632615414155" xlink:href="#id3">March</textPath></text><line stroke="#e1ed5e" stroke-width="0.3" x1="184.98032266829074" x2="189.97916517819016" y1="98.17113171792111" y2="98.06355123074" /><path d="M 185.9800911702706 98.14961562048488 a86.0,86.0 0 0,1 -9.607161424134198,41.387399972396054" fill="none" id="id4" stroke="none" /><text fill="#e1ed5e" style="font-size:6.75px; font-family:Arial;" text-anchor="middle"><textPath startOffset="21.466115282336823" xlink:href="#id4">April</textPath></text><line stroke="#e1ed5e" stroke-width="0.3" x1="174.80103733775053" x2="179.2010983576182" y1="140.37084112569926" y2="142.7455964860345" /><path d="M 175.68104954172406 140.8457921977663 a86.0,86.0 0 0,1 -30.038265399797805,32.042727171017184" fill="none" id="id5" stroke="none" /><text fill="#e1ed5e" style="font-size:6.75px; font-family:Arial;" text-anchor="middle"><textPath startOffset="22.206326154141568" xlink:href="#id5">May</textPath></text><line stroke="#e1ed5e" stroke-width="0.3" x1="143.8653032363475" x2="146.44561519142675" y1="172.8068346515853" y2="177.08958963109032" /><path d="M 144.38136562736335 173.6633856474863 a86.0,86.0 0 0,1 -40.68145358897372,12.25698825130547" fill="none" id="id6" stroke="none" /><text fill="#e1ed5e" style="font-size:6.75px; font-family:Arial;" text-anchor="middle"><textPath startOffset="21.466115282336833" xlink:href="#id6">June</textPath></text><line stroke="#e1ed5e" stroke-width="0.3" x1="102.19456741930631" x2="102.32365962044197" y1="184.97166512339345" y2="189.96999836594603" /><path d="M 102.22038585953345 185.97133177190398 a86.0,86.0 0 0,1 -42.740103519485714,-10.115201625700543" fill="none" id="id7" stroke="none" /><text fill="#e1ed5e" style="font-size:6.75px; font-family:Arial;" text-anchor="middle"><textPath startOffset="22.20632615414155" xlink:href="#id7">July</textPath></text><line stroke="#e1ed5e" stroke-width="0.3" x1="58.666819895761336" x2="56.23545636021788" y1="174.27360380694188" y2="178.64263932499728" /><path d="M 58.180547188652646 175.14741091055294 a86.0,86.0 0 0,1 -31.652253787137756,-30.449443065178592" fill="none" id="id8" stroke="none" /><text fill="#e1ed5e" style="font-size:6.75px; font-family:Arial;" text-anchor="middle"><textPath startOffset="22.20632615414155" xlink:href="#id8">August</textPath></text><line stroke="#e1ed5e" stroke-width="0.3" x1="26.63291911575756" x2="22.317208475507996" y1="142.92168965132927" y2="145.44649492493687" /><path d="M 25.769776987707644 143.4266507060508 a86.0,86.0 0 0,1 -11.730757126820373,-40.83630448921669" fill="none" id="id9" stroke="none" /><text fill="#e1ed5e" style="font-size:6.75px; font-family:Arial;" text-anchor="middle"><textPath startOffset="21.46611528233685" xlink:href="#id9">September</textPath></text><line stroke="#e1ed5e" stroke-width="0.3" x1="15.007084014347285" x2="10.007500721073583" y1="101.09737516637583" y2="101.16192664675087" /><path d="M 14.007167355692545 101.11028546245083 a86.0,86.0 0 0,1 10.666146001902534,-42.60595125391555" fill="none" id="id10" stroke="none" /><text fill="#e1ed5e" style="font-size:6.75px; font-family:Arial;" text-anchor="middle"><textPath startOffset="22.20632615414155" xlink:href="#id10">October</textPath></text><line stroke="#e1ed5e" stroke-width="0.3" x1="26.266209847984243" x2="21.928928074336255" y1="57.711370442889674" y2="55.22380399835377" /><path d="M 25.398753493254645 57.213857153982495 a86.0,86.0 0 0,1 29.58750427330803,-30.492523968695096" fill="none" id="id11" stroke="none" /><text fill="#e1ed5e" style="font-size:6.75px; font-family:Arial;" text-anchor="middle"><textPath startOffset="21.46611528233685" xlink:href="#id11">November</textPath></text><path d="M 82.54541684631803 88.32363383020206 l -34.437504599211735 -23.03721092243183 a62.43253323302042,62.43253323302042 0 0,0 0.6052255386936313,-0.8880937971239676 l 34.03585459484936 23.626582742826212" fill="red" stroke="none" /><path d="M 82.95767976084542 87.72973835380427 l -18.119156152743546 -13.045570302783462 a43.32690583606179,43.32690583606179 0 0,0 0.44097998386988846,-0.6014962024152595 l 17.891913556360024 13.355528948870223" fill="red" stroke="none" /><path d="M 83.17141714833178 87.43820079747576 l -24.475740977113876 -18.27006743214984 a51.54271206612264,51.54271206612264 0 0,0 0.5368395826172454,-0.7064179630957526 l 24.157625454272523 18.68867017112662" fill="red" stroke="none" /><path d="M 83.39014120810768 87.1503855733568 l -21.454555148562623 -16.597537932637334 a48.12519496792696,48.12519496792696 0 0,0 0.5125239750093534,-0.6508534006373224 l 21.165677092959296 16.964383727227702" fill="red" stroke="none" /><path d="M 83.6137871275137 86.86637796730984 l -22.64521200008693 -18.150237493781223 a50.021315401089986,50.021315401089986 0 0,0 0.5442831427367348,-0.6672267762320165 l 22.329430365273804 18.537348439621322" fill="red" stroke="none" /><path d="M 84.07557802195018 86.31012108654704 l -32.832794509190194 -28.225638697634054 a64.29756430992495,64.29756430992495 0 0,0 0.7287306408518569,-0.8330650963224489 l 32.342072004760496 28.786619350159445" fill="red" stroke="none" /><path d="M 84.31358615837235 86.03803664274999 l -19.652448153381535 -17.49200064259543 a47.309481273904055,47.309481273904055 0 0,0 0.5466641185842358,-0.6036401734793203 l 19.348440394181253 17.827693603344304" fill="red" stroke="none" /><path d="M 84.5562425177563 85.77008943001954 l -19.612541266157557 -18.071036701291646 a47.66859843291662,47.66859843291662 0 0,0 0.5612016784992812,-0.5986508219675792 l 19.29857226568782 18.405956940137276" fill="red" stroke="none" /><path d="M 84.80347519578584 85.50635884689758 l -21.52153503436597 -20.52610118897195 a50.740499327606415,50.740499327606415 0 0,0 0.608247474205068,-0.6268524886307609 l 21.165023296457782 20.893517873152835" fill="red" stroke="none" /><path d="M 85.57189188830299 84.74124197986013 l -20.66762860780994 -21.857497970993474 a51.08157392528436,51.08157392528436 0 0,0 0.6440951456555021,-0.5986162418619689 l 20.288325578359583 22.210018798930093" fill="red" stroke="none" /><path d="M 85.83668400450813 84.49514656593479 l -27.906371279001586 -30.549639413202982 a62.376877917965366,62.376877917965366 0 0,0 0.7989854660952459,-0.7173370403364915 l 27.37637482531037 31.02547546230875" fill="red" stroke="none" /><path d="M 86.10567301691215 84.25364557470407 l -19.41460782048335 -22.00245439318954 a50.34339782894202,50.34339782894202 0 0,0 0.6547187687750773,-0.5677656645758629 l 19.0329952530615 22.333385051185086" fill="red" stroke="none" /><path d="M 86.37877921826538 84.01681056812374 l -17.628883638070803 -20.685795434548975 a48.17866205471947,48.17866205471947 0 0,0 0.635826336564743,-0.5324862714864304 l 17.270199764546952 20.986182863429217" fill="red" stroke="none" /><path d="M 86.93701828274178 83.55741782278169 l -18.42398595213407 -23.190563196582612 a50.61833013083495,50.61833013083495 0 0,0 0.6868845809276519,-0.5361243105967161 l 18.022068816046993 23.50426589640255" fill="red" stroke="none" /><path d="M 87.80319425747018 82.90503203632743 l -36.59041722758948 -51.284903891017706 a84.0,84.0 0 0,0 1.184275441665359,-0.8296606289442297 l 35.70221064634046 51.907149362725875" fill="red" stroke="none" /><path d="M 89.00827224532344 82.1063720568725 l -15.867934143206462 -25.831690533254214 a51.31612722263437,51.31612722263437 0 0,0 0.756639028710893,-0.4558665487064424 l 15.42093304827792 26.101003691419276" fill="red" stroke="none" /><line stroke="#e1ed5e" stroke-width="0.3" x1="56.762969772571076" x2="54.21961505331055" y1="26.818313649435495" y2="22.513508569990535" /><path d="M 56.25429882871897 25.957352633546506 a86.0,86.0 0 0,1 42.265352541879196,-11.944610805530505" fill="none" id="id12" stroke="none" /><text fill="#e1ed5e" style="font-size:6.75px; font-family:Arial;" text-anchor="middle"><textPath startOffset="22.20632615414155" xlink:href="#id12">December</textPath></text><path d="M 89.94658935756843 81.56283822128135 l -29.693822120579448 -54.45612655619165 a83.02574297525645,83.02574297525645 0 0,0 1.260627114920394,-0.6733833465087671 l 28.752049959130748 54.95918862920217" fill="red" stroke="none" /><path d="M 90.91171255644093 81.06846463323043 l -13.029506286235723 -27.141368558301227 a51.106841768617954,51.106841768617954 0 0,0 0.7963462942073832,-0.37389526296838116 l 12.560381780728731 27.361628803909618" fill="red" stroke="none" /><path d="M 91.56875222667455 80.76684994638697 l -10.38084936003024 -23.680532086493997 a46.855940000996135,46.855940000996135 0 0,0 0.7414757098254198,-0.31746120290900476 l 9.971689892414513 23.855712817365788" fill="red" stroke="none" /><path d="M 92.57280143429618 80.3572730644239 l -22.1904624853601 -58.68716061892028 a83.74232580025323,83.74232580025323 0 0,0 1.3527084282075073,-0.49821393008485415 l 21.176971731380025 59.06043781681146" fill="red" stroke="none" /><path d="M 93.25333710446033 80.11325718540243 l -9.294513106148313 -27.39689155820683 a49.93056585918269,49.93056585918269 0 0,0 0.8162867121244816,-0.26911689501094926 l 8.821543571781422 27.55282217747701" fill="red" stroke="none" /><path d="M 93.94186890950719 79.89281104454417 l -8.559601678590598 -28.409673835707224 a50.67113662041612,50.67113662041612 0 0,0 0.8373038136360653,-0.24443194358271755 l 8.069307647231112 28.55280410820864" fill="red" stroke="none" /><path d="M 94.63758080256005 79.69619591428918 l -6.16964692209724 -23.36022190209868 a45.1612191426392,45.1612191426392 0 0,0 0.7533130305626363,-0.1920362647047172 l 5.766625002849604 23.46296116297226" fill="red" stroke="none" /><path d="M 98.91598698831166 79.02799685794201 l -1.323848329486703 -25.612009289779312 a46.64620038639694,46.64620038639694 0 0,0 0.8022239477977099,-0.03454545071507456 l 0.8827835492996688 25.63100246701858" fill="red" stroke="none" /><path d="M 99.63851952072746 79.00311137660856 l -0.5206625440348623 -30.24310875506271 a51.24759026195825,51.24759026195825 0 0,0 0.8821430233073907,-0.00759288350409839 l 7.408522919245564e-15 30.24759026195825" fill="red" stroke="none" /></svg>