<?xml version="1.0" encoding="utf-8" ?>
<svg baseProfile="full" height="200mm" version="1.1" viewBox="0,0,200,200" width="200mm" xmlns="http://www.w3.org/2000/svg" xmlns:ev="http://www.w3.org/2001/xml-events" xmlns:xlink="http://www.w3.org/1999/xlink"><defs /><rect fill="#1a1a1a" height="200" width="200" x="0" y="0" /><text alignment-baseline="middle" fill="#e1ed5e" style="dominant-baseline: central; font-size:9.0px; font-family:Arial;" text-anchor="middle" x="100.0" y="100.0">2023</text><line stroke="#e1ed5e" stroke-width="0.3" x1="100.0" x2="100.0" y1="15.0" y2="10.0" /><path d="M 100.0 14.0 a86.0,86.0 0 0,1 42.46469731375804,11.215312516191453" fill="none" id="id13" stroke="none" /><text fill="#e1ed5e" style="font-size:6.75px; font-family:Arial;" text-anchor="middle"><textPath startOffset="22.20632615414155" xlink:href="#id13">January</textPath></text><path d="M 100.72285384407766 79.0124445844662 l 0.3647791774329954 -10.59110809679158 a31.597388101141377,31.597388101141377 0 0,0 0.54341363739426,0.023400534327147855 l -0.547033647216587 10.583259835940236" fill="#ff5d08" stroke="none" /><path d="M 101.44485096284872 79.0497635885617 l 0.7496744927194735 -10.87022693547011 a31.896047240795816,31.896047240795816 0 0,0 0.5474118260069067,0.04248969327550536 l -0.9366765080887214 10.855711980006141" fill="#ff6109" stroke="none" /><path d="M 101.80526077348638 79.07773832637324 l 0.9062375194127043 -10.502936084405041 a31.541960578312214,31.541960578312214 0 0,0 0.5405313835449826,0.051329967985120684 l -1.086894030047931 10.485780571904742" fill="#ff5c08" stroke="none" /><path d="M 102.16513564639614 79.11191278185805 l 2.3061842954045044 -22.24885022040094 a43.36805360629765,43.36805360629765 0 0,0 0.7418689933027263,0.08335762541209886 l -2.688819992216956 22.20585664151824" fill="#fffe18" stroke="none" /><path d="M 102.52436894288641 79.15227682838746 l 0.8185562351310157 -6.760118737198672 a27.809496284681888,27.809496284681888 0 0,0 0.47472832503210627,0.06163336138332407 l -0.9347992886709681 6.745027052651212" fill="#ff2403" stroke="none" /><path d="M 103.2404852339499 79.25152402106235 l 2.076297754444422 -13.294309639763737 a34.45547030627417,34.45547030627417 0 0,0 0.5852028546189154,0.0965634852236681 l -2.304829815202212 13.256599891600445" fill="#ff860c" stroke="none" /><path d="M 105.36241919743992 79.69619591428918 l 2.764912472364811 -10.468827423979542 a31.82779241641179,31.82779241641179 0 0,0 0.5284961141405885,0.14445795205099363 l -2.9447064757291104 10.419682931102255" fill="#ff6008" stroke="none" /><path d="M 105.71112130821622 79.79150937346287 l 3.274065629206821 -11.58510229563986 a33.03885795849396,33.03885795849396 0 0,0 0.5459431860401718,0.15937578675300146 l -3.4729990329704203 11.527028179968156" fill="#ff720a" stroke="none" /><path d="M 106.0581310904928 79.89281104454417 l 2.985242097180044 -9.908142631640832 a31.348089716837325,31.348089716837325 0 0,0 0.5153247194204268,0.16011389879612453 l -3.1553521893111887 9.855288597962186" fill="#ff5908" stroke="none" /><path d="M 106.74666289553966 80.11325718540242 l 6.231674147925619 -18.368740665270867 a40.397020294723106,40.397020294723106 0 0,0 0.656582381371912,0.22906870052764985 l -6.546938533360805 18.25875111157101" fill="#ffd714" stroke="none" /><path d="M 107.76421540070413 80.48803036053334 l 5.379955180997072 -13.520171290428932 a35.551252505268266,35.551252505268266 0 0,0 0.566646555707121,0.2311493577206255 l -5.611885606292581 13.425561046524727" fill="#ff950d" stroke="none" /><path d="M 108.76106565485865 80.91482961587045 l 4.222037407942346 -9.197317595041858 a31.120091443170416,31.120091443170416 0 0,0 0.4849129517406809,0.22767313281505636 l -4.379728570982625 9.123279479586799" fill="#ff5607" stroke="none" /><path d="M 110.36928655335952 81.73862282372117 l 5.214859451836061 -9.183902371798903 a31.561194150148808,31.561194150148808 0 0,0 0.4701164122601292,0.27232176989583107 l -5.3721725965615175 9.09277644451302" fill="#ff5c08" stroke="none" /><line stroke="#e1ed5e" stroke-width="0.3" x1="143.23703022742887" x2="145.7803849466894" y1="26.81831364943548" y2="22.513508569990506" /><path d="M 143.74570117128098 25.957352633546492 a86.0,86.0 0 0,1 28.547481713284135,27.462654790039103" fill="none" id="id14" stroke="none" /><text fill="#e1ed5e" style="font-size:6.75px; font-family:Arial;" text-anchor="middle"><textPath startOffset="19.985693538727396" xlink:href="#id14">February</textPath></text><path d="M 111.2981086023043 82.29822771554956 l 5.959603609791996 -9.33745193284923 a32.07722364963873,32.07722364963873 0 0,0 0.4628788803396596,0.30106929958662976 l -6.119449515915935 9.233483709103073" fill="#ff6409" stroke="none" /><path d="M 112.48926042617603 83.11751280151076 l 7.952709750488569 -10.750157813550546 a34.372041182697494,34.372041182697494 0 0,0 0.4726218616513886,0.35596898771707236 l -8.13657776589834 10.611672236327626" fill="#ff850c" stroke="none" /><path d="M 113.06298171725822 83.55741782278167 l 8.435628953973364 -10.618059895849083 a34.561085199973945,34.561085199973945 0 0,0 0.46261921864932093,0.3740725684709051 l -8.617151571187176 10.471281230114048" fill="#ff870c" stroke="none" /><path d="M 114.42810811169701 84.74124197986012 l 9.194234738728461 -9.723561950917528 a34.38213770083735,34.38213770083735 0 0,0 0.42652966626158734,0.4103212010046353 l -9.360247648602467 9.563857663150591" fill="#ff850c" stroke="none" /><path d="M 114.94478906791727 85.2469230424477 l 10.38225082472275 -10.249067063687344 a35.58884875044693,35.58884875044693 0 0,0 0.4266183354358307,0.43966769547702417 l -10.55713342386169 10.068835172660204" fill="#ff960d" stroke="none" /><path d="M 115.68641384162765 86.03803664274999 l 16.600609257408454 -14.77565876433058 a43.22386824198466,43.22386824198466 0 0,0 0.4898872537729238,0.5600258166370221 l -16.852488374759226 14.48771739149061" fill="#fffc17" stroke="none" /><path d="M 116.15771136456269 86.58626213691792 l 10.232575634848653 -8.494834703574078 a34.299166167995075,34.299166167995075 0 0,0 0.3732100566623188,0.45751140061417495 l -10.377284183587381 8.317439133351803" fill="#ff840c" stroke="none" /><path d="M 116.60985879189232 87.15038557335679 l 11.476582921920874 -8.87844185370589 a35.50995125124004,35.50995125124004 0 0,0 0.3698514619102401,0.4866811703728202 l -11.627710324055228 8.679575907452037" fill="#ff950d" stroke="none" /><path d="M 117.04232023915458 87.72973835380427 l 15.066260395126282 -10.847522783499024 a39.56504653461125,39.56504653461125 0 0,0 0.3931774242212135,0.5561215833407934 l -15.250750439151377 10.586574699826437" fill="#ffcc13" stroke="none" /><path d="M 117.45458315368197 88.32363383020206 l 12.433293519286162 -8.317339150957421 a35.958773956737645,35.958773956737645 0 0,0 0.33973055911526534,0.5174329491064846 l -12.574620713759352 8.102088137873263" fill="#ff9b0e" stroke="none" /><path d="M 117.65298651832404 88.62581576622439 l 9.91364767938129 -6.387568189494667 a32.793279344030914,32.793279344030914 0 0,0 0.30165507608877623,0.47714588774922756 l -10.022130351716022 6.215974654031233" fill="#ff6e0a" stroke="none" /><line stroke="#e1ed5e" stroke-width="0.3" x1="172.23445277983987" x2="176.4835382374775" y1="55.19839476539836" y2="52.563006222186495" /><path d="M 173.08426987136738 54.67131705675599 a86.0,86.0 0 0,1 12.851231095245387,41.99856678651699" fill="none" id="id15" stroke="none" /><text fill="#e1ed5e" style="font-size:6.75px; font-family:Arial;" text-anchor="middle"><textPath startOffset="22.20632615414155" xlink:href="#id15">March</textPath></text><path d="M 118.21658344932153 89.55222093294921 l 9.328473910534017 -5.350170888034259 a31.753825088343362,31.753825088343362 0 0,0 0.2678546416255553,0.47648351942777345 l -9.419186193452006 5.188803858671691" fill="#ff5f08" stroke="none" /><path d="M 118.3937258080291 89.86733742301442 l 27.323759391822847 -15.05200398992725 a52.195362658815384,52.195362658815384 0 0,0 0.4267390965177894,0.7906827354108596 l -27.578806587559104 14.579440271183932" fill="#94ff23" stroke="none" /><path d="M 118.73160827565052 90.50648371742162 l 11.80900720570532 -5.98501743890198 a34.239074171873234,34.239074171873234 0 0,0 0.26191259197414357,0.5279998032968765 l -11.910279810632872 5.780858047106154" fill="#ff830c" stroke="none" /><path d="M 118.89224826269711 90.83032412892265 l 13.41040543176169 -6.508969678944621 a35.90656433004077,35.90656433004077 0 0,0 0.26509612317460446,0.5583600433459835 l -13.520459748778052 6.2771672199580975" fill="#ff9a0e" stroke="none" /><path d="M 119.196687751892 91.48605970444005 l 14.490289929024378 -6.426601553119908 a36.851489196594386,36.851489196594386 0 0,0 0.25218577874679515,0.5820795471318059 l -14.598766417613854 6.1762228614015" fill="#ffa70f" stroke="none" /><path d="M 119.34039704204932 91.81776055985345 l 13.106381369271041 -5.544847415701669 a35.23104231812233,35.23104231812233 0 0,0 0.23148189468073868,0.5605517689485942 l -13.199884950837976 5.318421076299772" fill="#ff910d" stroke="none" /><path d="M 119.47837535516314 92.15188598940014 l 28.9108475093553 -11.648590976369285 a52.169324269928396,52.169324269928396 0 0,0 0.3284343412760802,0.8358295745015197 l -29.10707540051308 11.149212396971981" fill="#94ff23" stroke="none" /><path d="M 119.85752413597 93.16781622104841 l 14.923690054047082 -5.1346478247340155 a36.7823044297501,36.7823044297501 0 0,0 0.20083612224884553,0.6004744426199071 l -15.009863470067698 4.877000279191795" fill="#ffa60f" stroke="none" /><path d="M 119.97218684219823 93.5106431181261 l 12.644777088165723 -4.108537130419621 a34.29550544211981,34.29550544211981 0 0,0 0.17759276896324624,0.5630176092139353 l -12.713625340897176 3.8902693547792664" fill="#ff830c" stroke="none" /><path d="M 120.08093135843002 93.85539295169968 l 9.411935293290071 -2.879978169788345 a30.842702892170255,30.842702892170255 0 0,0 0.15097371306909269,0.5090083074159057 l -9.460114903470867 2.7175404756259094" fill="#ff5207" stroke="none" /><path d="M 120.28053869075195 94.5502522615342 l 20.761815915000025 -5.579075637710262 a42.49835075208423,42.49835075208423 0 0,0 0.1837621970357966,0.7081107064968082 l -20.854774443906123 5.220868505664603" fill="#fff316" stroke="none" /><path d="M 120.37134235888165 94.90015583598534 l 12.041021510493003 -3.014397981107502 a33.412606261565706,33.412606261565706 0 0,0 0.13487109851336834,0.5591277756696947 l -12.09112540926719 2.806684973778401" fill="#ff770a" stroke="none" /><path d="M 120.53481517161879 95.60439243477599 l 14.435743072600687 -3.090062458767756 a35.762762751505036,35.762762751505036 0 0,0 0.12367223862091516,0.603069756817157 l -14.486794607136599 2.841117045787187" fill="#ff980e" stroke="none" /><path d="M 120.67395015179393 96.31383870115 l 14.407824175340073 -2.568912253624904 a35.635050653630756,35.635050653630756 0 0,0 0.1024730654097772,0.6048018327161425 l -14.449909102270073 2.320524632592923" fill="#ff960d" stroke="none" /><path d="M 120.83666639777658 97.38593545837742 l 31.206432852071472 -3.91500387018869 a52.45105255240972,52.45105255240972 0 0,0 0.1046764331934142,0.8968037547807107 l -31.269199638268475 3.3772563770831265" fill="#91ff24" stroke="none" /><path d="M 120.94382443527127 98.46500227214037 l 14.729719983504813 -1.0795586439605138 a35.769228065752486,35.769228065752486 0 0,0 0.03971986946293437,0.614448800161245 l -14.746120443972163 0.8258507795462336" fill="#ff980e" stroke="none" /><path d="M 120.98425023603335 99.18683210126433 l 15.972704043656984 -0.6189637484404338 a36.98469238328156,36.98469238328156 0 0,0 0.01917622053014983,0.6363654022087089 l -15.980991958642779 0.3439281988067258" fill="#ffa90f" stroke="none" /><line stroke="#e1ed5e" stroke-width="0.3" x1="184.98032266829074" x2="189.97916517819016" y1="98.17113171792111" y2="98.06355123074" /><path d="M 185.9800911702706 98.14961562048488 a86.0,86.0 0 0,1 -9.607161424134198,41.387399972396054" fill="none" id="id16" stroke="none" /><text fill="#e1ed5e" style="font-size:6.75px; font-family:Arial;" text-anchor="middle"><textPath startOffset="21.466115282336823" xlink:href="#id16">April</textPath></text><path d="M 120.99513854157772 99.54816195383933 l 17.576241466911224 -0.3782596903340313 a38.580311274164096,38.580311274164096 0 0,0 0.008574001814897253,0.6640658894453082 l -17.58014847584384 0.07565754282826041" fill="#ffbf11" stroke="none" /><path d="M 120.99980553446 99.90962569577887 l 17.510447719752783 -0.07535758017741209 a38.510609872619675,38.510609872619675 0 0,0 -0.0028529076267488785,0.6629152598832199 l -17.50915051483653 -0.2260671579094925" fill="#ffbe11" stroke="none" /><path d="M 120.9764740272857 100.99374915477107 l 19.377295361059794 0.9179889271073135 a40.399027789557934,40.399027789557934 0 0,0 -0.038886274867765566,0.694340560085842 l -19.358622735304497 -1.2514012035285789" fill="#ffd714" stroke="none" /><path d="M 120.95626037817324 101.35467743843564 l 12.068712043804299 0.7801588461721214 a33.09390169554588,33.09390169554588 0 0,0 -0.041640703334306306,0.5681543133037796 l -12.053494781805654 -0.9877862959726713" fill="#ff720a" stroke="none" /><path d="M 120.92983693683757 101.71520430193887 l 19.996297886481276 1.6387005909911356 a41.06333144798765,41.06333144798765 0 0,0 -0.06379560793804122,0.7039792175940157 l -19.96512768226616 -1.9826611971337218" fill="#ffe015" stroke="none" /><path d="M 120.89721153311464 102.0752229133903 l 16.98147717240471 1.6863661678279493 a38.06500506325436,38.06500506325436 0 0,0 -0.07036170904315911,0.6514620393908407 l -16.9499331618605 -1.9784245291035816" fill="#ffb811" stroke="none" /><path d="M 120.8583938346157 102.4346265915055 l 14.597033405369904 1.7037901368431296 a35.69613163617858,35.69613163617858 0 0,0 -0.07648914520732733,0.609693745643681 l -14.565542750915728 -1.9548016367742056" fill="#ff970d" stroke="none" /><path d="M 120.76222939487914 103.15116336523771 l 14.611914045557073 2.2177063628686353 a35.77925077893518,35.77925077893518 0 0,0 -0.09765732785314614,0.60811227376274 l -14.57157496334264 -2.46889786632458" fill="#ff980e" stroke="none" /><path d="M 120.70491114924044 103.5080841355445 l 14.401603793682623 2.440099232054367 a35.60685715999462,35.60685715999462 0 0,0 -0.10758960780580903,0.6034196575506063 l -14.357467743537626 -2.6876376403381914" fill="#ff960d" stroke="none" /><path d="M 120.64145759157962 103.86396538481128 l 15.694222714560398 2.937870692587053 a36.966831583648194,36.966831583648194 0 0,0 -0.12246595004532101,0.6244512408614448 l -15.641326831539413 -3.2075856605164423" fill="#ffa90f" stroke="none" /><path d="M 120.41448212921028 104.9243191809786 l 18.04763479898646 4.353395479221195 a39.56526794948273,39.56526794948273 0 0,0 -0.16539918442137339,0.6606875236507653 l -17.97002430027003 -4.663410842269356" fill="#ffcc13" stroke="none" /><path d="M 120.23288151984713 105.62410040840565 l 17.345623046062666 4.8215339748674975 a39.003272722671895,39.003272722671895 0 0,0 -0.18537208586962894,0.6453045494451619 l -17.26005832330694 -5.119395999817241" fill="#ffc512" stroke="none" /><path d="M 120.13307415673323 105.97154293290107 l 13.810076001739784 4.096118710387597 a35.404734904308945,35.404734904308945 0 0,0 -0.1783272894949302,0.5827839000173489 l -13.737521939738722 -4.333229582957003" fill="#ff930d" stroke="none" /><path d="M 120.02730092923936 106.31721596034902 l 15.236428165064517 4.8060299050348645 a36.976440989070774,36.976440989070774 0 0,0 -0.19669309468188925,0.6053590993785083 l -15.151442819366382 -5.067587904391168" fill="#ffa90f" stroke="none" /><path d="M 119.9155931802556 106.66101706037122 l 15.028071772537308 5.026324928177181 a36.84635237157586,36.84635237157586 0 0,0 -0.20635566119971213,0.5997661443902345 l -14.939325280394364 -5.284263775656717" fill="#ffa70f" stroke="none" /><path d="M 119.79798401119884 107.00284435728193 l 32.87207091966048 11.627345300496398 a55.86786780524677,55.86786780524677 0 0,0 -0.32849172682453076,0.9038681506382301 l -32.66705493183073 -12.19146124814076" fill="#6bff28" stroke="none" /><path d="M 119.41010516605496 108.01547362559984 l 11.021108617897935 4.551206945860492 a32.9238550742431,32.9238550742431 0 0,0 -0.22082346107494102,0.5219614317852798 l -10.941134175630687 -4.740242903311935" fill="#ff700a" stroke="none" /><path d="M 119.26925614724726 108.34839909993367 l 10.252236662720943 4.441778274850196 a32.1730815280016,32.1730815280016 0 0,0 -0.22453580617124935,0.5062689671945005 l -10.174259771818422 -4.617595578537384" fill="#ff6509" stroke="none" /><path d="M 119.12269723197855 108.67885076344098 l 15.91079204801283 7.22112513928871 a38.47277745157809,38.47277745157809 0 0,0 -0.2788825375620177,0.6006881753533307 l -15.78413489361098 -7.493933381920871" fill="#ffbd11" stroke="none" /><path d="M 118.97047184881838 109.00673069616215 l 14.346296936738685 6.811281976859726 a36.88111450639948,36.88111450639948 0 0,0 -0.27721732463118937,0.5711497977995428 l -14.226926355492783 -7.057220730624543" fill="#ffa80f" stroke="none" /><path d="M 118.81262510543309 109.33194174019688 l 14.87477089636178 7.378581916435241 a37.60428499866214,37.60428499866214 0 0,0 -0.2926353464865531,0.5773973009404838 l -14.745556880088957 -7.633533429078419" fill="#ffb210" stroke="none" /><path d="M 118.64920377521936 109.65438752849418 l 15.795726675101537 8.17718914188922 a38.78683230529667,38.78683230529667 0 0,0 -0.3120446681848362,0.5902709151021368 l -15.652629498691809 -8.44787507207749" fill="#ffc212" stroke="none" /><line stroke="#e1ed5e" stroke-width="0.3" x1="174.80103733775053" x2="179.2010983576182" y1="140.37084112569926" y2="142.7455964860345" /><path d="M 175.68104954172406 140.8457921977663 a86.0,86.0 0 0,1 -30.038265399797805,32.042727171017184" fill="none" id="id17" stroke="none" /><text fill="#e1ed5e" style="font-size:6.75px; font-family:Arial;" text-anchor="middle"><textPath startOffset="22.206326154141568" xlink:href="#id17">May</textPath></text><path d="M 118.30583269289576 110.29060199501025 l 10.585796094675002 5.950792637414963 a33.14376432460498,33.14376432460498 0 0,0 -0.28384951684648485,0.4949155583688241 l -10.481794581676137 -6.132128041642103" fill="#ff730a" stroke="none" /><path d="M 118.12598468904814 110.60418214915192 l 19.119557359284034 11.185448532984122 a43.15111131521371,43.15111131521371 0 0,0 -0.38059100240248583,0.6378924115801231 l -18.924185481183322 -11.512903038450348" fill="#fffb17" stroke="none" /><path d="M 117.94076556474637 110.91462005526583 l 6.340088654773578 3.857118501092978 a28.421191769646057,28.421191769646057 0 0,0 -0.2578686673759733,0.4157663989812554 l -6.272755347729642 -3.9656812314395067" fill="#ff2e04" stroke="none" /><path d="M 117.55443506779139 111.5257021239791 l 18.978221963883374 12.460516806935782 a43.70324619974761,43.70324619974761 0 0,0 -0.4182960366485703,0.6252958196380719 l -18.76092282182408 -12.785349540779661" fill="#fcff18" stroke="none" /><path d="M 117.35343817320211 111.8261652097733 l 18.000389539936137 12.267055001716669 a42.78289838392917,42.78289838392917 0 0,0 -0.41996323151607945,0.6049883573367908 l -17.78656540125792 -12.575084621240478" fill="#fff717" stroke="none" /><path d="M 116.93607887273984 112.41649034213515 l 11.545262706513206 8.464275820276896 a35.31562279903074,35.31562279903074 0 0,0 -0.3636478828541112,0.487165765570781 l -11.397853556964002 -8.661754465356992" fill="#ff920d" stroke="none" /><path d="M 116.71984013943494 112.70617746262583 l 13.127202838692456 9.975966723683577 a37.48767316634513,37.48767316634513 0 0,0 -0.3948579877501281,0.5104071765594378 l -12.95353803372426 -10.200451894356267" fill="#ffb010" stroke="none" /><path d="M 116.27256486870786 113.27417163493432 l 10.18934117022887 8.31184663461481 a34.149504475860624,34.149504475860624 0 0,0 -0.375488437387122,0.4523000116715973 l -10.044756732948205 -8.486007903400179" fill="#ff810b" stroke="none" /><path d="M 116.0416608686014 113.55231037782055 l 14.153269124245 11.956959918534652 a39.527922641158426,39.527922641158426 0 0,0 -0.4435738595950376,0.515976610405384 l -13.945352755079183 -12.198813628101565" fill="#ffcc13" stroke="none" /><path d="M 115.80600337817218 113.82643327865902 l 11.122551914375755 9.729545050263141 a35.777523742937575,35.777523742937575 0 0,0 -0.40946720062435743,0.46004074063345624 l -10.95342586410306 -9.919559960637462" fill="#ff980e" stroke="none" /><path d="M 115.32070863581623 114.36230785411682 l 10.238232226003008 9.597770351695022 a35.033481208789304,35.033481208789304 0 0,0 -0.41622019257052795,0.4364052078837975 l -10.071505482053515 -9.772582676161328" fill="#ff8e0d" stroke="none" /><path d="M 115.07121518719521 114.62390073753431 l 11.506348125068405 11.164839114995715 a37.03276893237732,37.03276893237732 0 0,0 -0.44784851669187264,0.4536681829557895 l -11.312458983320997 -11.361247791932168" fill="#ffaa0f" stroke="none" /><path d="M 114.81725581225074 114.88116024355365 l 9.824660002171475 9.867032174059347 a34.92416130623997,34.92416130623997 0 0,0 -0.4296504160334543,0.42050336151420326 l -9.653359633762225 -10.034685638496121" fill="#ff8c0c" stroke="none" /><path d="M 114.55890576462653 115.13401014063108 l 12.28679181921445 12.772143387287352 a38.722666275539446,38.722666275539446 0 0,0 -0.4843360394013229,0.45796995598527673 l -12.06511994542232 -12.98174798001855" fill="#ffc111" stroke="none" /><path d="M 114.29624159901734 115.38237550388516 l 17.860506005383588 19.217429151665318 a47.23561049351852,47.23561049351852 0 0,0 -0.6003431296156105,0.5483992149056439 l -17.52706332630111 -19.522021133157544" fill="#cfff1d" stroke="none" /><path d="M 113.48314897796784 116.09983520530334 l 11.377329216156417 13.58533720541957 a38.72018642897878,38.72018642897878 0 0,0 -0.5146647933641163,0.42353408673792686 l -11.14179429424761 -13.779166411014677" fill="#ffc111" stroke="none" /><path d="M 113.20401910651253 116.32954008644616 l 11.277150768429735 13.946563091774312 a38.93546072803085,38.93546072803085 0 0,0 -0.5247804965079506,0.41691736477711544 l -11.035412779204433 -14.138614370556553" fill="#ffc412" stroke="none" /><path d="M 112.92097659922987 116.55440617244103 l 10.904065847936248 13.970332164252829 a38.72198726993355,38.72198726993355 0 0,0 -0.5289631296849803,0.40558637169746325 l -10.661973989757774 -14.155957877777663" fill="#ffc111" stroke="none" /><path d="M 111.45004920935366 117.60387380957326 l 9.660836666272656 14.85304966454046 a38.71848891496404,38.71848891496404 0 0,0 -0.5618203890301782,0.3585803538907527 l -9.403734475195549 -15.01714444725502" fill="#ffc111" stroke="none" /><path d="M 111.1453310114006 117.79835938074945 l 4.6428176960799545 7.414273995954633 a29.7479834845593,29.7479834845593 0 0,0 -0.436333222538782,0.26803150304178813 l -4.514505273608863 -7.493093965824799" fill="#ff4106" stroke="none" /><line stroke="#e1ed5e" stroke-width="0.3" x1="143.8653032363475" x2="146.44561519142675" y1="172.8068346515853" y2="177.08958963109032" /><path d="M 144.38136562736335 173.6633856474863 a86.0,86.0 0 0,1 -40.68145358897372,12.25698825130547" fill="none" id="id18" stroke="none" /><text fill="#e1ed5e" style="font-size:6.75px; font-family:Arial;" text-anchor="middle"><textPath startOffset="21.466115282336833" xlink:href="#id18">June</textPath></text><path d="M 110.8373102113329 117.98757091392108 l 7.6206090990804105 12.648548754619595 a35.76683678514041,35.76683678514041 0 0,0 -0.5300851790104585,0.313183667266098 l -7.401756049041571 -12.777850994179442" fill="#ff980e" stroke="none" /><path d="M 110.5260780823613 118.17145234162733 l 10.415209139319865 17.980056296597045 a41.77881146371397,41.77881146371397 0 0,0 -0.6253914714373919,0.35511359919695373 l -10.104168900961275 -18.156673061588627" fill="#ffea15" stroke="none" /><path d="M 110.21172684928248 118.3499491758327 l 14.350688486325888 25.787450863982937 a50.51160588808919,50.51160588808919 0 0,0 -0.763391973560036,0.4162621711219074 l -13.904673700897204 -26.030653686864614" fill="#a8ff21" stroke="none" /><path d="M 109.57404056367764 118.69057910512821 l 8.078031532265909 15.770048848585569 a38.718607002895496,38.718607002895496 0 0,0 -0.5957984072834563,0.29874568998397016 l -7.805379217299691 -15.90676237947884" fill="#ffc111" stroke="none" /><path d="M 109.2508944713604 118.85261126421891 l 7.937717975221632 16.176458587344566 a39.019022700530414,39.019022700530414 0 0,0 -0.6055145335768671,0.2906837731745034 l -7.658090773644532 -16.31069663701863" fill="#ffc512" stroke="none" /><path d="M 108.92500713936063 119.00905698771935 l 7.540533036763787 16.06031457179224 a38.74241648207617,38.74241648207617 0 0,0 -0.6061011302699928,0.2782313015237787 l -7.262963910726374 -16.18773294365009" fill="#ffc112" stroke="none" /><path d="M 108.59647513512805 119.15986991738527 l 6.257564453848607 13.9468932383072 a36.28636463959985,36.28636463959985 0 0,0 -0.5720792916191171,0.25078274958517305 l -6.016564487571737 -14.052540541186827" fill="#ff9f0e" stroke="none" /><path d="M 108.2653958097858 119.30500536409082 l 6.9751263453004055 16.291397848341532 a38.72179537704493,38.72179537704493 0 0,0 -0.6149916141782739,0.25706654460381523 l -6.693663271624671 -16.409049435965322" fill="#ffc111" stroke="none" /><path d="M 107.93186726928326 119.44442032107085 l 11.990044971039813 29.392760389257845 a52.744220603251264,52.744220603251264 0 0,0 -0.8436034314871649,0.3356872153793794 l -11.482320463510783 -29.59479444904329" fill="#8eff24" stroke="none" /><path d="M 107.2578585660854 119.70592522655815 l 5.775305295287618 15.680621670045358 a37.710357483096324,37.710357483096324 0 0,0 -0.6110522387217993,0.21910159260832013 l -5.504533495936084 -15.777710803693639" fill="#ffb310" stroke="none" /><path d="M 106.91757812671514 119.82793768551818 l 5.167073503740466 14.810445154640897 a36.68591515569566,36.68591515569566 0 0,0 -0.5980332920329299,0.20288536233768445 l -4.911370478770309 -14.897193503876705" fill="#ffa50f" stroke="none" /><path d="M 106.57524785965236 119.94407469862006 l 5.807610319482957 17.61567267189965 a39.54832233131819,39.54832233131819 0 0,0 -0.6483639626731501,0.20758566618883623 l -5.5035250117188665 -17.71303118474819" fill="#ffcc13" stroke="none" /><path d="M 106.2309692047433 120.05430185196036 l 4.227499352694998 13.606157455147486 a35.24778128240682,35.24778128240682 0 0,0 -0.5809590093951279,0.17503818385132905 l -3.992665368859625 -13.67691100810454" fill="#ff910d" stroke="none" /><path d="M 105.88484417918355 120.15858648285463 l 4.964370631909528 17.005496096274893 a38.71530054081461,38.71530054081461 0 0,0 -0.6413260178863002,0.1812451386871129 l -4.670913445918622 -17.088430028300525" fill="#ffc111" stroke="none" /><path d="M 105.53697534728816 120.25689768951611 l 7.006123029158903 25.631740887440262 a47.57201348826595,47.57201348826595 0 0,0 -0.7917558747071097,0.20910992266731113 l -6.5638767116402965 -25.74854215941116" fill="#cbff1d" stroke="none" /><path d="M 104.83641907484287 120.43548508189849 l 2.280948576186457 9.637769159354825 a30.904005289589563,30.904005289589563 0 0,0 -0.5187161508398442,0.11805810713635208 l -2.114712275953751 -9.675604000068862" fill="#ff5307" stroke="none" /><path d="M 104.48393922423573 120.51570834832081 l 3.843867255150594 17.58713836041598 a39.002298497237355,39.002298497237355 0 0,0 -0.6571117253429863,0.13770415102325526 l -3.5405640683782296 -17.65069849216578" fill="#ffc512" stroke="none" /><path d="M 104.13013068566511 120.58985236759428 l 3.439652769776223 17.147627548757377 a38.489206435042504,38.489206435042504 0 0,0 -0.6507102273273927,0.12471016377068862 l -3.143974927877126 -17.204294910876534" fill="#ffbe11" stroke="none" /><path d="M 103.7750983002368 120.6578951692458 l 2.6565156028784465 14.536845526985692 a35.777582786903295,35.777582786903295 0 0,0 -0.6067725194190233,0.10549518015463968 l -2.405894111987373 -14.580419285661337" fill="#ff980e" stroke="none" /><path d="M 103.41894727170886 120.7198165907248 l 6.008119289851025 36.410953386446266 a57.90331995784448,57.90331995784448 0 0,0 -0.9848090127115827,0.15380691416527034 l -5.380474413530925 -36.508978607958646" fill="#54ff2b" stroke="none" /><path d="M 102.34483914955558 120.86867818915974 l 1.6012751086621408 14.251081973497142 a35.340760767440344,35.340760767440344 0 0,0 -0.6051135991967197,0.06272249871697419 l -1.3557289128598184 -14.276533840669874" fill="#ff920d" stroke="none" /><path d="M 101.98527174616119 120.90594882070398 l 1.8351001972885645 19.32456394423676 a40.41150082731843,40.41150082731843 0 0,0 -0.6930681738833867,0.059800838321444394 l -1.5021877056636361 -19.35328903483687" fill="#ffd714" stroke="none" /><path d="M 101.62511606390274 120.93702456842531 l 1.508268174722129 19.43162616588429 a40.4900735847138,40.4900735847138 0 0,0 -0.6953442073071021,0.04795500765282211 l -1.1735612066360965 -19.454709518053395" fill="#ffd914" stroke="none" /><path d="M 101.26447882468166 120.96189622390904 l 1.5123160296374378 25.070417196582913 a46.11598929336088,46.11598929336088 0 0,0 -0.7927820177056908,0.04097777483649251 l -1.0805459435182676 -25.092734778181608" fill="#ddff1b" stroke="none" /><line stroke="#e1ed5e" stroke-width="0.3" x1="102.19456741930631" x2="102.32365962044197" y1="184.97166512339345" y2="189.96999836594603" /><path d="M 102.22038585953345 185.97133177190398 a86.0,86.0 0 0,1 -42.740103519485714,-10.115201625700543" fill="none" id="id19" stroke="none" /><text fill="#e1ed5e" style="font-size:6.75px; font-family:Arial;" text-anchor="middle"><textPath startOffset="22.20632615414155" xlink:href="#id19">July</textPath></text><path d="M 100.54218724476979 120.99299961872073 l 0.4219949946989701 16.339264429909125 a37.34471296432105,37.34471296432105 0 0,0 -0.6427564111758811,0.0110656345201785 l -0.14067889363042108 -16.344107541708464" fill="#ffae10" stroke="none" /><path d="M 100.18074693466247 120.99922214144158 l 0.14361827170089528 16.685605189648317 a37.686223262104136,37.686223262104136 0 0,0 -0.64873041272669,0.0 l 0.1436182717008838 -16.685605189648317" fill="#ffb310" stroke="none" /><path d="M 99.81925306533755 120.99922214144158 l -0.03812018639926626 4.428812382164631 a25.428976435365836,25.428976435365836 0 0,0 -0.43766938707193653,-0.00753487541127512 l 0.11434926336387073 -4.427500029474197" fill="#ff0000" stroke="none" /><path d="M 99.45781275523022 120.99299961872073 l -0.42690173155200734 16.529248841897548 a37.534760729014906,37.534760729014906 0 0,0 -0.6457402455311869,-0.022240599703784357 l 0.7113623287578372 -16.51945144376767" fill="#ffb110" stroke="none" /><path d="M 99.09653310690486 120.98055641714683 l -1.0482828220253637 24.34351170664652 a45.36607188462247,45.36607188462247 0 0,0 -0.7798901542647653,-0.04031141275270929 l 1.4671610447036179 -24.32186048713161" fill="#e6ff1a" stroke="none" /><path d="M 98.73552117531835 120.96189622390904 l -0.8896182639174535 14.74764572022526 a35.774453456719606,35.774453456719606 0 0,0 -0.6143619109178106,-0.042369994356843875 l 1.143342935614194 -14.730147381352129" fill="#ff980e" stroke="none" /><path d="M 98.37488393609728 120.93702456842531 l -1.7671855818619244 22.767363369454053 a43.83584418578606,43.83584418578606 0 0,0 -0.7517965890527263,-0.06486817309853841 l 2.1588264886561923 -22.733570944076853" fill="#faff18" stroke="none" /><path d="M 98.01472825383883 120.90594882070398 l -1.0692529280700127 11.25979203292643 a32.31044731427276,32.31044731427276 0 0,0 -0.5532277925383255,-0.05734432270856262 l 1.2629133172139315 -11.239718341762108" fill="#ff6709" stroke="none" /><path d="M 97.65516085044442 120.86867818915974 l -0.7866583659838954 7.001128536957248 a28.045185034885144,28.045185034885144 0 0,0 -0.47926894402237347,-0.05803279464241429 l 0.9070547330576582 -6.986550213589485" fill="#ff2803" stroke="none" /><path d="M 97.2962882734958 120.8252237178851 l -1.9034724610152858 14.6614150661432 a35.78446140891086,35.78446140891086 0 0,0 -0.6101615481099613,-0.08456283076334824 l 2.155562600312078 -14.626477669887247" fill="#ff980e" stroke="none" /><path d="M 96.93821686468263 120.77559828337769 l -0.7599058149861647 5.156308349617607 a26.21200274788742,26.21200274788742 0 0,0 -0.4458089202162089,-0.06962618481426072 l 0.8485505988108908 -5.1424638574562405" fill="#ff0c01" stroke="none" /><path d="M 96.58105272829116 120.7198165907248 l -1.6838980557020409 10.204912828089846 a31.342908608844507,31.342908608844507 0 0,0 -0.5315623399094053,-0.09241892639742118 l 1.8593093670834961 -10.174415323171418" fill="#ff5908" stroke="none" /><path d="M 96.22490169976321 120.6578951692458 l -3.178107323264523 17.391072416973294 a38.679077067839174,38.679077067839174 0 0,0 -0.6539202379790566,-0.12532536995196647 l 3.4769951758152744 -17.33378984867286" fill="#ffc011" stroke="none" /><path d="M 95.86986931433489 120.58985236759428 l -3.2577569606505747 16.24082625329716 a37.5643417558457,37.5643417558457 0 0,0 -0.6328849932858491,-0.13262720376858178 l 3.5368334153658108 -16.182343068802037" fill="#ffb110" stroke="none" /><path d="M 95.51606077576429 120.51570834832081 l -5.674484349096037 25.962900055365594 a47.57577754108125,47.57577754108125 0 0,0 -0.7985477600094628,-0.18174687032985087 l 6.120552258498362 -25.861376451458057" fill="#cbff1d" stroke="none" /><path d="M 95.16358092515715 120.4354850818985 l -1.7018233347441154 7.190771690999534 a28.389411355091816,28.389411355091816 0 0,0 -0.47457188591803723,-0.1166382232820339 l 1.825348505405363 -7.16041220940347" fill="#ff2d04" stroke="none" /><path d="M 94.46302465271185 120.25689768951611 l -8.29141303060627 30.33394496595926 a52.44671282092856,52.44671282092856 0 0,0 -0.8687893678937708,-0.24552855346921565 l 8.812333566604655 -30.186727619151526" fill="#91ff24" stroke="none" /><path d="M 94.11515582081647 120.15858648285463 l -2.1182844643176684 7.256202419136871 a28.559074190617352,28.559074190617352 0 0,0 -0.47071477543763557,-0.1418225005071776 l 2.2428742141955498 -7.218664549523968" fill="#ff3004" stroke="none" /><path d="M 93.76903079525671 120.05430185196036 l -4.384636933894112 14.11190293102871 a35.777376133023246,35.777376133023246 0 0,0 -0.5865422348215589,-0.18779230119657656 l 4.6269005138066115 -14.034337783172427" fill="#ff980e" stroke="none" /><path d="M 93.08242187328487 119.8279376855182 l -10.281385150829596 29.469658362682694 a52.211658793356904,52.211658793356904 0 0,0 -0.8460288664025849,-0.3033558512266755 l 10.787133577861908 -29.28831497041606" fill="#94ff23" stroke="none" /><path d="M 92.7421414339146 119.70592522655815 l -5.1029833209168896 13.855189769645671 a35.765050705177075,35.765050705177075 0 0,0 -0.5758680333066101,-0.2177440151277086 l 5.340721574983783 -13.765297504411329" fill="#ff980e" stroke="none" /><path d="M 92.06813273071674 119.44442032107085 l -8.186037911752722 20.067501953386092 a42.6729289977568,42.6729289977568 0 0,0 -0.6777447489328688,-0.2832973600206668 l 8.530254120183052 -19.923619550345453" fill="#fff517" stroke="none" /><path d="M 91.40352486487194 119.15986991738527 l -9.86719672993162 21.992061027688074 a45.104197135617895,45.104197135617895 0 0,0 -0.7056272516317127,-0.3239188623929517 l 10.244291977330754 -21.818955094961048" fill="#eaff1a" stroke="none" /><path d="M 91.07499286063937 119.00905698771935 l -5.965890469255359 12.706539069580058 a35.03737811052749,35.03737811052749 0 0,0 -0.5437256034622154,-0.26102133181237475 l 6.183728740717816 -12.601963461268122" fill="#ff8e0d" stroke="none" /><path d="M 90.7491055286396 118.85261126421891 l -7.60752783231095 15.50355647751686 a38.26947431657781,38.26947431657781 0 0,0 -0.5888871943065277,-0.29528026432291016 l 7.873268934300238 -15.370308372284647" fill="#ffbb11" stroke="none" /><path d="M 90.10565033884886 118.52300852407294 l -12.144244644814181 22.734990654064784 a46.77522993172924,46.77522993172924 0 0,0 -0.7069233785680965,-0.385470990751055 l 12.533790835250919 -22.52257901155396" fill="#d5ff1c" stroke="none" /><line stroke="#e1ed5e" stroke-width="0.3" x1="58.666819895761336" x2="56.23545636021788" y1="174.27360380694188" y2="178.64263932499728" /><path d="M 58.180547188652646 175.14741091055294 a86.0,86.0 0 0,1 -31.652253787137756,-30.449443065178592" fill="none" id="id20" stroke="none" /><text fill="#e1ed5e" style="font-size:6.75px; font-family:Arial;" text-anchor="middle"><textPath startOffset="22.20632615414155" xlink:href="#id20">August</textPath></text><path d="M 89.7882731507175 118.34994917583269 l -6.734404268232137 12.101378922043267 a34.84902785984837,34.84902785984837 0 0,0 -0.5216588037781208,-0.2962114832436936 l 6.941711838931465 -11.98366427300494" fill="#ff8b0c" stroke="none" /><path d="M 89.4739219176387 118.17145234162733 l -10.48631925710056 18.102815609814073 a41.92067935237205,41.92067935237205 0 0,0 -0.621288680132157,-0.36706830332048135 l 10.796375808261098 -17.919628734199843" fill="#ffeb16" stroke="none" /><path d="M 89.1626897886671 117.98757091392108 l -2.767181898518333 4.592918322045093 a26.36210726976485,26.36210726976485 0 0,0 -0.3866703510811081,-0.2375245111498555 l 2.84583144953175 -4.544605344066859" fill="#ff0e01" stroke="none" /><path d="M 88.54995079064634 117.60387380957326 l -8.532402100193044 13.118138369364688 a36.64887982819143,36.64887982819143 0 0,0 -0.5258683216701295,-0.34851684887982337 l 8.756945120603136 -12.969323499393546" fill="#ffa40f" stroke="none" /><path d="M 88.24862548938628 117.40417183066458 l -16.553249765857924 24.51590688567493 a50.58107111377069,50.58107111377069 0 0,0 -0.7173916095065046,-0.4934284905445118 l 16.972798259987318 -24.227337605765317" fill="#a7ff21" stroke="none" /><path d="M 87.65650970185807 116.9893568818739 l -10.390555058672936 14.301372126417728 a38.677468119773025,38.677468119773025 0 0,0 -0.5352501686553749,-0.39596527874695436 l 10.635190197746875 -14.120396898931007" fill="#ffc011" stroke="none" /><path d="M 87.36589467227662 116.77436683061367 l -12.468192642640863 16.55408370258567 a41.72422531739646,41.72422531739646 0 0,0 -0.5699753128297987,-0.4370327648837034 l 12.75129668396415 -16.337011595874603" fill="#ffe915" stroke="none" /><path d="M 86.79598089348748 116.32954008644616 l -16.86518094156424 20.857334878787565 a47.82280273270469,47.82280273270469 0 0,0 -0.6356558466386936,-0.523101486553925 l 17.22170691674762 -20.56393827337646" fill="#c8ff1d" stroke="none" /><path d="M 86.51685102203217 116.09983520530335 l -6.934710533290565 8.280535723880044 a31.800809324073114,31.800809324073114 0 0,0 -0.4166428818020358,-0.3550721027459854 l 7.076218891669658 -8.159939230911109" fill="#ff6008" stroke="none" /><path d="M 85.97065885151581 115.62618273729859 l -9.969936613906956 11.104730418864085 a35.92362803613678,35.92362803613678 0 0,0 -0.4565729765538114,-0.4170685888411154 l 10.159609139927623 -10.931469063436394" fill="#ff9a0e" stroke="none" /><path d="M 85.70375840098266 115.38237550388516 l -10.954807989077581 11.787081863007629 a37.09170957116743,37.09170957116743 0 0,0 -0.4639363307394686,-0.43868075815987784 l 11.156080154207867 -11.596766468101821" fill="#ffab0f" stroke="none" /><path d="M 85.18274418774928 114.88116024355367 l -10.629206699377194 10.67504875123429 a36.064418372420285,36.064418372420285 0 0,0 -0.4361379594093142,-0.441805450255404 l 10.811385283842041 -10.49050280699822" fill="#ff9c0e" stroke="none" /><path d="M 84.9287848128048 114.62390073753433 l -11.714692904166574 11.367000210227369 a37.32307335088095,37.32307335088095 0 0,0 -0.443422013497496,-0.46492620837427595 l 11.908621469043027 -11.163666885270594" fill="#ffae10" stroke="none" /><path d="M 84.67929136418377 114.36230785411682 l -22.751844941861194 21.328582709303124 a52.18581229735854,52.18581229735854 0 0,0 -0.6087191511380301,-0.6606444150678739 l 23.115610500994954 -20.933787039433906" fill="#94ff23" stroke="none" /><path d="M 84.43433777217949 114.09645910891817 l -11.41079966684108 10.333763417799972 a36.39457746779175,36.39457746779175 0 0,0 -0.41652926738913026,-0.46797504750813834 l 11.586987783878548 -10.13581420055097" fill="#ffa10e" stroke="none" /><path d="M 83.95833913139862 113.55231037782056 l -12.45544512730034 10.52260483760021 a37.30531587818761,37.30531587818761 0 0,0 -0.41018793626231864,-0.4940977933968166 l 12.634729063456195 -10.306645787089632" fill="#ffae10" stroke="none" /><path d="M 83.72743513129214 113.27417163493432 l -14.599444062098147 11.909341140657085 a39.84081137655383,39.84081137655383 0 0,0 -0.4289187534018924,-0.5351420941421171 l 14.802280727554901 -11.656271212936709" fill="#ffd013" stroke="none" /><path d="M 83.28015986056508 112.70617746262583 l -14.28049410812578 10.852405936816648 a38.93619877760247,38.93619877760247 0 0,0 -0.40092925254176837,-0.5371102527017553 l 14.465184627362634 -10.604982804605584" fill="#ffc412" stroke="none" /><path d="M 83.06392112726016 112.41649034213515 l -16.01450034128497 11.740845700815798 a40.85728276858093,40.85728276858093 0 0,0 -0.41094684520705616,-0.570769225565806 l 16.214226978867632 -11.463442869798854" fill="#ffdd14" stroke="none" /><path d="M 82.85270091963577 112.12312394758628 l -13.261613273767935 9.375947821832076 a37.24126793636185,37.24126793636185 0 0,0 -0.36556577088254966,-0.5266247581398712 l 13.421039951812618 -9.146281801505193" fill="#ffad10" stroke="none" /><path d="M 82.44556493220864 111.52570212397912 l -11.246869713090149 7.384348720974754 a34.4543927538996,34.4543927538996 0 0,0 -0.321238216024319,-0.4985688450349074 l 11.372312792491515 -7.189658276018398" fill="#ff860c" stroke="none" /><path d="M 82.24976979558568 111.22182372390057 l -15.232021727595763 9.62979413884976 a39.02074973652802,39.02074973652802 0 0,0 -0.35403964816551814,-0.5708246415209194 l 15.395526015429237 -9.366173165963577" fill="#ffc512" stroke="none" /><path d="M 82.05923443525364 110.91462005526583 l -18.125414791800548 11.026955069595159 a42.21613535688563,42.21613535688563 0 0,0 -0.3723445534384413,-0.6240708887815279 l 18.312540220937223 -10.713322086927521" fill="#ffef16" stroke="none" /><line stroke="#e1ed5e" stroke-width="0.3" x1="26.63291911575756" x2="22.317208475507996" y1="142.92168965132927" y2="145.44649492493687" /><path d="M 25.769776987707644 143.4266507060508 a86.0,86.0 0 0,1 -11.730757126820373,-40.83630448921669" fill="none" id="id21" stroke="none" /><text fill="#e1ed5e" style="font-size:6.75px; font-family:Arial;" text-anchor="middle"><textPath startOffset="21.46611528233685" xlink:href="#id21">September</textPath></text><path d="M 81.87401531095188 110.60418214915194 l -20.266499936937016 11.856440383451643 a44.47991052496178,44.47991052496178 0 0,0 -0.3809344342492973,-0.6641912951726776 l 20.46758636733869 -11.505829242420658" fill="#f2ff19" stroke="none" /><path d="M 81.69416730710424 110.29060199501025 l -27.646713820071092 15.54156716961103 a52.71562856284645,52.71562856284645 0 0,0 -0.43784996247389846,-0.7948248640089053 l 27.910140191996508 -15.063371787204302" fill="#8eff24" stroke="none" /><path d="M 81.51974371655577 109.97397251340807 l -9.988378291283633 5.390824077479597 a32.35027246915773,32.35027246915773 0 0,0 -0.26026178056693905,-0.4923172066197848 l 10.079692580075458 -5.218091855773686" fill="#ff6809" stroke="none" /><path d="M 81.18737489456691 109.33194174019688 l -17.802117916995243 8.830682922902492 a40.87199947703916,40.87199947703916 0 0,0 -0.30721485776645435,-0.6329536010340114 l 17.951486031376415 -8.522940365903196" fill="#ffde14" stroke="none" /><path d="M 80.87730276802145 108.67885076344099 l -15.201729883352332 6.899316733579093 a37.694105631529105,37.694105631529105 0 0,0 -0.26306701111340286,-0.5931466623980397 l 15.318237979197015 -6.636621734688357" fill="#ffb310" stroke="none" /><path d="M 80.73074385275274 108.34839909993369 l -20.77468498409764 9.000625664910425 a43.64064483508224,43.64064483508224 0 0,0 -0.29270200024554127,-0.6918610658073548 l 20.926537965535488 -8.64169007343691" fill="#fcff18" stroke="none" /><path d="M 80.58989483394504 108.01547362559985 l -28.929306708171055 11.946462574131596 a52.298925774706035,52.298925774706035 0 0,0 -0.3364499118718907,-0.8350410892095778 l 29.130659234300335 -11.446722117079212" fill="#93ff23" stroke="none" /><path d="M 80.32549172779594 107.34259656027581 l -18.403365341275595 6.868201491127349 a40.64321887082633,40.64321887082633 0 0,0 -0.23897388024769953,-0.6575534832440857 l 18.51886348252852 -6.550400210877146" fill="#ffdb14" stroke="none" /><path d="M 80.0844068197444 106.66101706037122 l -19.502956481776263 6.5230056005352655 a41.564895175873694,41.564895175873694 0 0,0 -0.22110099413535278,-0.6804788897034604 l 19.612349726927864 -6.186327810854002" fill="#ffe715" stroke="none" /><path d="M 79.97269907076064 106.31721596034903 l -14.08684956900569 4.4434180742965665 a35.77102890670725,35.77102890670725 0 0,0 -0.18017224658280634,-0.5888133265290336 l 14.161248588094628 -4.200277775215485" fill="#ff980e" stroke="none" /><path d="M 79.67330655649465 105.27499134158121 l -31.209369782957754 8.099160635194687 a53.24315687466232,53.24315687466232 0 0,0 -0.22257841737183925,-0.8890901361210212 l 31.344159514624653 -7.560742659676274" fill="#88ff25" stroke="none" /><path d="M 79.50377843672027 104.57218783832718 l -19.163301515631638 4.274847140067088 a40.634317992992514,40.634317992992514 0 0,0 -0.14641117770078724,-0.683984279427237 l 19.234046732056868 -3.944349041223687" fill="#ffda14" stroke="none" /><path d="M 79.4281124754447 104.21870165774334 l -20.37540892279994 4.178409555137442 a41.79943256874522,41.79943256874522 0 0,0 -0.13847568216127215,-0.7060845200052867 l 20.44431453793688 -3.8270613080642004" fill="#ffea16" stroke="none" /><path d="M 79.35854240842038 103.8639653848113 l -15.026403824409897 2.8128587323891914 a36.28741266999156,36.28741266999156 0 0,0 -0.10964597296271256,-0.6149528454121908 l 15.072596239711798 -2.5537871362437867" fill="#ff9f0e" stroke="none" /><path d="M 79.29508885075956 103.50808413554451 l -17.478068866313816 2.9613522930823706 a38.72716837792637,38.72716837792637 0 0,0 -0.10570349285607793,-0.6582157509166712 l 17.526454113531187 -2.660057312472486" fill="#ffc111" stroke="none" /><path d="M 79.18660465613746 102.79330883721812 l -43.90181156530416 5.891942001255957 a65.29541781337701,65.29541781337701 0 0,0 -0.13991405974754448,-1.1152527188592387 l 43.996727134298546 -5.13537152810931" fill="#34ff60" stroke="none" /><path d="M 79.10278846688536 102.07522291339032 l -16.323348133171027 1.6210098661022003 a37.40363884211972,37.40363884211972 0 0,0 -0.05810994371098201,-0.6412383866271837 l 16.348832673159084 -1.3397900909264504" fill="#ffaf10" stroke="none" /><path d="M 79.07016306316243 101.71520430193888 l -13.43590660651524 1.1010752201027916 a34.480947777486726,34.480947777486726 0 0,0 -0.043385966704597004,-0.5919670453731563 l 13.452869131884173 -0.8696350382328747" fill="#ff860c" stroke="none" /><path d="M 79.0235259727143 100.99374915477108 l -17.697857711864884 0.838426473369523 a38.71770658241812,38.71770658241812 0 0,0 -0.025807872049851174,-0.6659865029050176 l 17.70966771676594 -0.5336627234505086" fill="#ffc111" stroke="none" /><path d="M 79.0095281055655 100.63252640178507 l -11.598070249139038 0.3494959846178384 a32.60333490627708,32.60333490627708 0 0,0 -0.012075556912415783,-0.5611036797301772 l 11.602367868736462 -0.14980248909753235" fill="#ff6b09" stroke="none" /><line stroke="#e1ed5e" stroke-width="0.3" x1="15.007084014347285" x2="10.007500721073583" y1="101.09737516637583" y2="101.16192664675087" /><path d="M 14.007167355692545 101.11028546245083 a86.0,86.0 0 0,1 10.666146001902534,-42.60595125391555" fill="none" id="id22" stroke="none" /><text fill="#e1ed5e" style="font-size:6.75px; font-family:Arial;" text-anchor="middle"><textPath startOffset="22.20632615414155" xlink:href="#id22">October</textPath></text><path d="M 79.00175016825051 100.2711162175752 l -10.93860664638794 0.14123242095289443 a31.93951836056463,31.93951836056463 0 0,0 -0.0023661140612142224,-0.5498015789563714 l 10.939417057738659 0.04707863620715231" fill="#ff6209" stroke="none" /><path d="M 79.01574976396665 99.18683210126434 l -11.009768673777975 -0.4266433328481888 a32.01803207399428,32.01803207399428 0 0,0 0.026081571440483182,-0.5505407509384569 l 11.000793494103993 0.6160951904096548" fill="#ff6309" stroke="none" /><path d="M 79.08570108090925 98.10471618934814 l -16.178941761564896 -1.4661589428743917 a37.245238643057206,37.245238643057206 0 0,0 0.06335747518958726,-0.6380011287933618 l 16.15130716069308 1.7444356023721839" fill="#ffad10" stroke="none" /><path d="M 79.16333360222342 97.38593545837743 l -19.59430876170301 -2.458204531077858 a40.74790382206585,40.74790382206585 0 0,0 0.09330105932245283,-0.695201263750455 l 19.549091703322723 2.7951241368929725" fill="#ffdc14" stroke="none" /><path d="M 79.26566170972629 96.67025291283419 l -13.858879271933281 -2.225610590560751 a35.03644816806724,35.03644816806724 0 0,0 0.10075170875298918,-0.5946422882873827 l 13.818515701660068 2.463838667163962" fill="#ff8e0d" stroke="none" /><path d="M 79.32604984820605 96.31383870115002 l -21.53326449130711 -3.8393768787755946 a42.87286662671046,42.87286662671046 0 0,0 0.13579322321831902,-0.7254128283092127 l 21.46398554417893 4.20946778454738" fill="#fff817" stroke="none" /><path d="M 79.46518482838121 95.60439243477599 l -9.523849132267513 -2.038640374699172 a30.73959736701401,30.73959736701401 0 0,0 0.11520851686101853,-0.516457190967959 l 9.487346228404457 2.20227573521709" fill="#ff5007" stroke="none" /><path d="M 79.54389044137918 95.25157060432595 l -30.758286477010735 -7.139849894206785 a52.57609291083471,52.57609291083471 0 0,0 0.21222515091803268,-0.8798102624054767 l 30.630828525831888 7.668245388271658" fill="#90ff24" stroke="none" /><path d="M 79.71946130924805 94.55025226153421 l -10.575649323178293 -2.8418683478106956 a31.95082528000195,31.95082528000195 0 0,0 0.1472982180203309,-0.5299100614981418 l 10.525164334591603 3.02348971272778" fill="#ff6209" stroke="none" /><path d="M 79.81627453868168 94.20196356495316 l -19.08783772450325 -5.483228495404974 a40.85979213712446,40.85979213712446 0 0,0 0.20000693699703995,-0.6743239627796266 l 18.9906248903945 5.81098184493114" fill="#ffdd14" stroke="none" /><path d="M 80.02781315780177 93.51064311812611 l -13.995410702950506 -4.547384594257442 a35.71564566685239,35.71564566685239 0 0,0 0.19501202794522693,-0.5830611419568007 l 13.915061381233507 4.787618839136564" fill="#ff970e" stroke="none" /><path d="M 80.2630227832202 92.82701384747504 l -29.63039597854243 -10.76853956477297 a52.52652550160427,52.52652550160427 0 0,0 0.3161481812073821,-0.8471199466491254 l 29.44064320883342 11.276982648451439" fill="#90ff24" stroke="none" /><path d="M 80.52162464483688 92.15188598940014 l -14.521642379303701 -5.85097591230701 a36.656053670027646,36.656053670027646 0 0,0 0.24084478337139723,-0.5832247465706887 l 14.418775909046104 6.1000752293310105" fill="#ffa50f" stroke="none" /><path d="M 80.65960295795068 91.81776055985345 l -20.39813129480298 -8.62972947363749 a43.14849861973015,43.14849861973015 0 0,0 0.2952781003807376,-0.6815425667604015 l 20.24656248457956 8.97957118498449" fill="#fffb17" stroke="none" /><path d="M 80.95270993114464 91.15688171328213 l -16.079549720775155 -7.465280345075413 a38.72800975443802,38.72800975443802 0 0,0 0.2859266943448731,-0.6022345386885326 l 15.948664832588529 7.740957299404478" fill="#ffc111" stroke="none" /><path d="M 81.26839172434947 90.50648371742162 l -28.083258394786736 -14.233100912393752 a52.484131934210026,52.484131934210026 0 0,0 0.415350839821225,-0.8023256190175636 l 27.834098121805397 14.714399253671651" fill="#91ff24" stroke="none" /><path d="M 81.6062741919709 89.86733742301443 l -16.316358229612067 -8.98829058078667 a39.62828262190822,39.62828262190822 0 0,0 0.33427845024642866,-0.5946440631965757 l 16.159222138073208 9.26781815391803" fill="#ffcd13" stroke="none" /><line stroke="#e1ed5e" stroke-width="0.3" x1="26.266209847984243" x2="21.928928074336255" y1="57.711370442889674" y2="55.22380399835377" /><path d="M 25.398753493254645 57.213857153982495 a86.0,86.0 0 0,1 29.58750427330803,-30.492523968695096" fill="none" id="id23" stroke="none" /><text fill="#e1ed5e" style="font-size:6.75px; font-family:Arial;" text-anchor="middle"><textPath startOffset="21.46611528233685" xlink:href="#id23">November</textPath></text><path d="M 81.78341655067845 89.55222093294921 l -23.194151174882254 -13.30256948549655 a47.738118924856245,47.738118924856245 0 0,0 0.414958655653219,-0.7092988533358783 l 22.96173284475871 13.69984775118632" fill="#c9ff1d" stroke="none" /><path d="M 82.15384107792192 88.93136811851018 l -16.47305614349094 -10.216999367289272 a40.38423727614254,40.38423727614254 0 0,0 0.371481913733612,-0.5875951759520293 l 16.294746633511366 10.499042190955517" fill="#ffd714" stroke="none" /><path d="M 82.34701348167596 88.62581576622439 l -12.428301319861543 -8.007811526862392 a35.784712345765215,35.784712345765215 0 0,0 0.3380860634356566,-0.5149282693640769 l 12.288618621067966 8.220557860204135" fill="#ff980e" stroke="none" /><path d="M 82.54541684631803 88.32363383020206 l -28.2295668258007 -18.884367284548862 a54.96362423108121,54.96362423108121 0 0,0 0.5328213891249965,-0.781849641834793 l 27.900320971006963 19.367494949654073" fill="#75ff27" stroke="none" /><path d="M 82.95767976084542 87.72973835380427 l -14.40067646872512 -10.368310516047245 a38.74489632863684,38.74489632863684 0 0,0 0.394344424748236,-0.5378853521834205 l 14.22006943146325 10.614658311902167" fill="#ffc112" stroke="none" /><path d="M 83.17141714833178 87.43820079747576 l -12.783889119320115 -9.542612682226805 a36.9527200758387,36.9527200758387 0 0,0 0.3848785216547389,-0.5064550195444383 l 12.617734657441266 9.76125247765227" fill="#ffa90f" stroke="none" /><path d="M 83.39014120810768 87.1503855733568 l -11.215199841414748 -8.676232319944443 a35.17948217504849,35.17948217504849 0 0,0 0.3746546492984156,-0.4757733578336644 l 11.06419111152236 8.867998071731154" fill="#ff900d" stroke="none" /><path d="M 83.84228863543731 86.58626213691792 l -11.368773851970804 -9.438078749782497 a35.775870511897125,35.775870511897125 0 0,0 0.3974348039849792,-0.4704374505280005 l 11.204628434498701 9.632375149939612" fill="#ff980e" stroke="none" /><path d="M 84.07557802195018 86.31012108654704 l -33.58216336222954 -28.86985478747156 a65.28577888597158,65.28577888597158 0 0,0 0.7399307889294793,-0.8458688017165341 l 33.08024070972221 29.443639145391035" fill="#34ff60" stroke="none" /><path d="M 84.5562425177563 85.77008943001954 l -11.063269201738231 -10.19371947101325 a36.04353156954325,36.04353156954325 0 0,0 0.4243399445514568,-0.45265626660047853 l 10.88616193521632 10.382645154491778" fill="#ff9c0e" stroke="none" /><path d="M 85.31137513191541 84.99185889309783 l -10.432477899339311 -10.65941174303677 a35.915081422097344,35.915081422097344 0 0,0 0.4455466913085887,-0.42861556403267687 l 10.247447964418294 10.83741039383176" fill="#ff9a0e" stroke="none" /><path d="M 85.83668400450813 84.49514656593479 l -42.48994798647562 -46.514560302195655 a84.0,84.0 0 0,0 1.0759560496161145,-0.9660039649228849 l 41.68298094926353 47.23906327588782" fill="#4dd2ff" stroke="none" /><path d="M 86.37877921826538 84.01681056812374 l -10.63677337653766 -12.48122811790217 a37.398841519904146,37.398841519904146 0 0,0 0.49356224065248205,-0.4133441824562851 l 10.420353598926068 12.662473457752267" fill="#ffaf10" stroke="none" /><path d="M 86.93701828274178 83.55741782278169 l -11.113925147178351 -13.989273773728328 a38.866704029938106,38.866704029938106 0 0,0 0.5274164446088722,-0.41165690075824435 l 10.871476147410055 14.178509063709795" fill="#ffc312" stroke="none" /><path d="M 87.22198572758235 83.33499621200491 l -8.69220504401391 -11.336317748306486 a35.28518563469686,35.28518563469686 0 0,0 0.4851777651127583,-0.36542583389299566 l 8.495781125142763 11.484260171705335" fill="#ff910d" stroke="none" /><path d="M 87.80319425747018 82.90503203632743 l -19.643145221531988 -27.531711610109383 a54.82082639996289,54.82082639996289 0 0,0 0.7728923618723336,-0.5414604917885195 l 19.16632172007599 27.865756944661847" fill="#76ff27" stroke="none" /><path d="M 88.39885842347998 82.49532879139004 l -9.28394727621687 -14.008314915935616 a37.805492072879,37.805492072879 0 0,0 0.5455386049777656,-0.3548334838210772 l 9.041441645454817 14.166047323916228" fill="#ffb410" stroke="none" /><path d="M 89.00827224532344 82.1063720568725 l -9.274574026623542 -15.098243030335949 a38.71933029147569,38.71933029147569 0 0,0 0.5709034966137582,-0.3439629688269704 l 9.013308463792136 15.255652608621538" fill="#ffc111" stroke="none" /><line stroke="#e1ed5e" stroke-width="0.3" x1="56.762969772571076" x2="54.21961505331055" y1="26.818313649435495" y2="22.513508569990535" /><path d="M 56.25429882871897 25.957352633546506 a86.0,86.0 0 0,1 42.265352541879196,-11.944610805530505" fill="none" id="id24" stroke="none" /><text fill="#e1ed5e" style="font-size:6.75px; font-family:Arial;" text-anchor="middle"><textPath startOffset="22.20632615414155" xlink:href="#id24">December</textPath></text><path d="M 89.3179101791058 81.91981866633112 l -9.054740297509117 -15.32577887409482 a38.80078144220041,38.80078144220041 0 0,0 0.5779529151437741,-0.3347876327306725 l 8.789590649900022 15.479370664215539" fill="#ffc212" stroke="none" /><path d="M 89.94658935756843 81.56283822128135 l -13.48077086175552 -24.7226699594863 a49.15921861403194,49.15921861403194 0 0,0 0.7464123982800963,-0.39870765326289637 l 13.053213416947118 24.951056339250947" fill="#b8ff1f" stroke="none" /><path d="M 90.58718382345135 81.22770947309562 l -7.976066930942607 -15.906934001614577 a38.79461134778161,38.79461134778161 0 0,0 0.599522193691358,-0.2941829367480478 l 7.701073470240822 16.041872098497453" fill="#ffc212" stroke="none" /><path d="M 91.23893434514133 80.91482961587045 l -7.431994567746083 -16.189912073161757 a38.81425822737832,38.81425822737832 0 0,0 0.6096017343732137,-0.2735105287492163 l 7.1522107149060945 16.3154429324275" fill="#ffc212" stroke="none" /><path d="M 91.56875222667455 80.76684994638697 l -7.087204463631652 -16.167152309402542 a38.652344912354856,38.652344912354856 0 0,0 0.6116572387555553,-0.26187970854643094 l 6.807863467085788 16.28675154591176" fill="#ffc011" stroke="none" /><path d="M 91.90106846888425 80.62456947434976 l -12.33142568111609 -29.501012651945214 a52.97458063554737,52.97458063554737 0 0,0 0.844354601928987,-0.3444334426082991 l 11.821787209598721 29.708906980737087" fill="#8bff24" stroke="none" /><path d="M 92.91201910852362 80.23233633223022 l -5.732916293994943 -15.98852520489288 a37.98526618753582,37.98526618753582 0 0,0 0.617383568107256,-0.21539300426848915 l 5.456850721824402 16.08483906233358" fill="#ffb711" stroke="none" /><path d="M 93.25333710446033 80.11325718540243 l -5.713406918780565 -16.84107472807753 a38.78383582403586,38.78383582403586 0 0,0 0.6340550979867492,-0.20903799694590125 l 5.422668998551407 16.936926449282666" fill="#ffc212" stroke="none" /><path d="M 94.28887869178378 79.79150937346287 l -4.8551742270133875 -17.179768658678594 a38.85265156609433,38.85265156609433 0 0,0 0.6451429338263017,-0.17634193423024191 l 4.558733403963363 17.26079713373513" fill="#ffc312" stroke="none" /><path d="M 94.63758080256005 79.69619591428918 l -6.3564479892008325 -24.067509439649594 a45.892758819926684,45.892758819926684 0 0,0 0.7655154994449245,-0.19514694572211574 l 5.9412236010709085 24.173359381540575" fill="#e0ff1b" stroke="none" /><path d="M 96.04723909329186 79.375362276772 l -3.279938598345138 -17.113998782597154 a38.42546847403682,38.42546847403682 0 0,0 0.6506801934892598,-0.11890764631703542 l 2.984863283752985 17.167921910264923" fill="#ffbd11" stroke="none" /><path d="M 96.75951476605007 79.25152402106235 l -3.6560844734647526 -23.40951289637096 a44.69329541711048,44.69329541711048 0 0,0 0.7611289908583246,-0.11217062807166714 l 3.2525865021777793 23.468978008603596" fill="#efff19" stroke="none" /><path d="M 97.11714578562143 79.19881850522333 l -4.34200801314283 -31.32967885877917 a52.6291291530518,52.6291291530518 0 0,0 0.8984175072774663,-0.11664037719972613 l 3.802075777357506 31.399777559143036" fill="#8fff24" stroke="none" /><path d="M 97.47563105711357 79.15227682838746 l -1.8884743208439554 -15.596131448454877 a36.71004937668785,36.71004937668785 0 0,0 0.6279748596146951,-0.07056029243510739 l 1.6197327577195424 15.626327694360583" fill="#ffa50f" stroke="none" /><path d="M 97.83486435360386 79.11191278185805 l -1.6669020078736438 -16.08139175137392 a37.16755154514778,37.16755154514778 0 0,0 0.6369365661274832,-0.06048480170282788 l 1.3898403146559244 16.107702097591932" fill="#ffac0f" stroke="none" /><path d="M 98.55514903715128 79.0497635885617 l -1.2477076227936754 -18.091671973103143 a39.134645546421446,39.134645546421446 0 0,0 0.6724412056361089,-0.04056348988124509 l 0.9361043683179435 18.110468732364694" fill="#ffc612" stroke="none" /><path d="M 98.91598698831166 79.02799685794201 l -1.2696482010687806 -24.563419234840545 a45.59621050204709,45.59621050204709 0 0,0 0.7841661633866899,-0.0337678445327774 l 0.8466412052927667 24.581634805897515" fill="#e4ff1b" stroke="none" /><path d="M 99.63851952072746 79.00311137660856 l -0.2958722032994699 -17.18597837409781 a38.188525039561796,38.188525039561796 0 0,0 0.6573526825720014,-0.005658042072545583 l 4.209974434352697e-15 17.188525039561796" fill="#ffba11" stroke="none" /></svg>