<?xml version="1.0" encoding="utf-8" ?>
<svg baseProfile="full" height="200mm" version="1.1" viewBox="0,0,200,200" width="200mm" xmlns="http://www.w3.org/2000/svg" xmlns:ev="http://www.w3.org/2001/xml-events" xmlns:xlink="http://www.w3.org/1999/xlink"><defs /><rect fill="#1a1a1a" height="200" width="200" x="0" y="0" /><text alignment-baseline="middle" fill="#e1ed5e" style="dominant-baseline: central; font-size:9.0px; font-family:Arial;" text-anchor="middle" x="100.0" y="100.0">2024</text><line stroke="#e1ed5e" stroke-width="0.3" x1="100.0" x2="100.0" y1="15.0" y2="10.0" /><path d="M 100.0 14.0 a86.0,86.0 0 0,1 42.35913384403234,11.155469271406648" fill="none" id="id25" stroke="none" /><text fill="#e1ed5e" style="font-size:6.75px; font-family:Arial;" text-anchor="middle"><textPath startOffset="22.145653131862478" xlink:href="#id25">January</textPath></text><path d="M 100.0 79.0 l 0.0 -22.075311586513394 a43.07531158651339,43.07531158651339 0 0,0 0.739445002980856,0.006347246018953726 l -0.3789520781320012 22.072058738688874" fill="#e7ff1a" stroke="none" /><path d="M 100.36049292484886 79.00309439819443 l 0.17847568694196272 -10.395314006534235 a31.39684600565365,31.39684600565365 0 0,0 0.5388097752670857,0.013877828521027839 l -0.35689877627978983 10.390718460663162" fill="#ff830c" stroke="none" /><path d="M 101.08105385017728 79.02784411241856 l 0.5432348733414277 -10.53861141646064 a31.552603219811157,31.552603219811157 0 0,0 0.5406848796939284,0.03252625972338927 l -0.7240641051678186 10.527733178912559" fill="#ff850c" stroke="none" /><path d="M 101.80034050326958 79.07731436759882 l 1.2677014007599532 -14.732611878522789 a35.787052431254835,35.787052431254835 0 0,0 0.6116185115590854,0.05792090894201426 l -1.5204194757040514 14.708679214075591" fill="#ffbd11" stroke="none" /><path d="M 102.15924093988457 79.11130261209362 l 2.1627795516278634 -20.92293024655295 a42.034415263825615,42.034415263825615 0 0,0 0.7171153279158188,0.08035426825240263 l -2.521630781144479 20.88272021779358" fill="#f4ff19" stroke="none" /><path d="M 102.87502721639298 79.19773525538626 l 1.6554338421166073 -11.977894628109736 a33.09175011847851,33.09175011847851 0 0,0 0.5620474513697761,0.08260162018439163 l -1.8608063990940653 11.947711934626462" fill="#ff9a0e" stroke="none" /><path d="M 103.58742460773223 79.30868818359171 l 1.802334565065646 -10.395386819526298 a31.55047283357535,31.55047283357535 0 0,0 0.5328503263862021,0.09710307964584788 l -1.9805196250029018 10.362915565949084" fill="#ff850c" stroke="none" /><path d="M 103.94208987418118 79.37332000966035 l 2.309708538173658 -12.08537106165269 a33.30410286161265,33.30410286161265 0 0,0 0.5606246384675517,0.11214062890222998 l -2.516829662172167 12.0439410360876" fill="#ff9c0e" stroke="none" /><path d="M 104.29559338865022 79.4440306129975 l 2.3303817742640467 -11.15172039755205 a32.39260931652624,32.39260931652624 0 0,0 0.5433283059549393,0.11841587545113506 l -2.52147249683812 11.110073063967196" fill="#ff900d" stroke="none" /><path d="M 104.64783097203109 79.52079915486377 l 4.928589271086798 -21.71627371415845 a43.26853242203718,43.26853242203718 0 0,0 0.7229303229407688,0.17060958777680552 l -5.300651747767452 21.62846798273542" fill="#e5ff1a" stroke="none" /><path d="M 104.9986988182912 79.60360301121754 l 2.281866203803346 -9.310792800269038 a30.586332768144533,30.586332768144533 0 0,0 0.5088906080398271,0.12935800256248153 l -2.4413621050685674 9.27024956587129" fill="#ff780b" stroke="none" /><path d="M 105.69591212413111 79.78721728523813 l 3.41088049112303 -12.104011566647388 a33.57542053890276,33.57542053890276 0 0,0 0.5534188404580107,0.16109215884472722 l -3.618159343962645 12.043675713500145" fill="#ffa00e" stroke="none" /><path d="M 106.04205211174951 79.88797359093562 l 4.855282435830334 -16.16165613384808 a37.87521545108186,37.87521545108186 0 0,0 0.6210802486945335,0.19241224866094428 l -5.1320033173964985 16.07592729738049" fill="#ffd714" stroke="none" /><path d="M 106.72888874123014 80.10723608172694 l 5.050082179988682 -14.92967062433954 a36.760659725275026,36.760659725275026 0 0,0 0.5960377358225385,0.20733286465115539 l -5.30562568785624 14.840779327119794" fill="#ffc912" stroke="none" /><path d="M 107.06938296918511 80.22567764915836 l 8.405100906568691 -23.51056314848353 a45.96782531195766,45.96782531195766 0 0,0 0.7407624171635521,0.27201822021106487 l -8.807452475386368 23.362814079263742" fill="#c5ff1e" stroke="none" /><path d="M 107.74402155503746 80.48000691201159 l 5.4812638152039215 -13.816365440850568 a35.863923001919574,35.863923001919574 0 0,0 0.5703141471762198,0.23194179870093679 l -5.717632423570581 13.720236385570338" fill="#ffbe11" stroke="none" /><path d="M 108.4095320186766 80.7573450057729 l 5.323440635217799 -12.181073964430395 a34.29351658228973,34.29351658228973 0 0,0 0.5374065083895094,0.24037509566780094 l -5.53176054646294 12.087895117852742" fill="#ffa90f" stroke="none" /><path d="M 108.73861861582097 80.90454125486305 l 7.986946299406628 -17.45291907851677 a40.1936368505518,40.1936368505518 0 0,0 0.6249369553454922,0.2925020500184189 l -8.285371968623625 17.31324079692782" fill="#fff417" stroke="none" /><path d="M 109.06512990194946 81.05736502329252 l 6.7964418092150956 -14.201949417703199 a36.74442722137097,36.74442722137097 0 0,0 0.5666336263036615,0.27716890099823616 l -7.039235684780824 14.083186766607742" fill="#ffc912" stroke="none" /><path d="M 109.3889696526874 81.21577127319529 l 11.031456740134676 -22.070303160180057 a45.67369691375244,45.67369691375244 0 0,0 0.6983133696528778,0.35656378222451135 l -11.408697331501132 21.87768142628271" fill="#c9ff1d" stroke="none" /><path d="M 110.02825361518725 81.54914285379988 l 5.956238556342377 -10.958808078540038 a33.47286062787258,33.47286062787258 0 0,0 0.5025006596179846,0.2787286452432719 l -6.143483404116463 10.85494651786362" fill="#ff9f0e" stroke="none" /><path d="M 110.34350942703115 81.72400993836675 l 5.288325370553563 -9.34396421221813 a31.736668590584962,31.736668590584962 0 0,0 0.47182985614280815,0.27241109445575273 l -5.4479476945567695 9.251806220486207" fill="#ff880c" stroke="none" /><line stroke="#e1ed5e" stroke-width="0.3" x1="143.13028292997686" x2="145.6673583964461" y1="26.7553504044142" y2="22.446841604673864" /><path d="M 143.63769802327073 25.89364864446614 a86.0,86.0 0 0,1 29.32050498858742,28.57503671076993" fill="none" id="id26" stroke="none" /><text fill="#e1ed5e" style="font-size:6.75px; font-family:Arial;" text-anchor="middle"><textPath startOffset="20.669276256404974" xlink:href="#id26">February</textPath></text><path d="M 110.96478420261332 82.08984904055464 l 12.789694065310606 -20.89100407286086 a45.49510819442385,45.49510819442385 0 0,0 0.662573145259424,0.413494646339828 l -13.146431339359744 20.668373629679486" fill="#cbff1d" stroke="none" /><path d="M 111.27062007382361 82.28071324371311 l 9.013103503103345 -14.170095743578841 a37.793678814954305,37.793678814954305 0 0,0 0.5444348024470304,0.3528960612714901 l -9.255023937807383 14.013285840603457" fill="#ffd614" stroke="none" /><path d="M 111.8722381534696 82.67804972795209 l 7.059825641170039 -10.300496595912504 a33.48764862598748,33.48764862598748 0 0,0 0.4713863485185793,0.3290642809747068 l -7.235607080862379 10.177787499132672" fill="#ff9f0e" stroke="none" /><path d="M 112.16784306229584 82.88440491214696 l 7.288065676278221 -10.251577083154942 a33.578184844945326,33.578184844945326 0 0,0 0.4669270291379561,0.3380191607101788 l -7.462973715790146 10.124957151071687" fill="#ffa00e" stroke="none" /><path d="M 112.7482090630111 83.31218511350987 l 23.351678685991867 -30.568096998919597 a59.466991714834734,59.466991714834734 0 0,0 0.8058911649762559,0.62666584427467 l -23.87297979560335 30.162730103024135" fill="#36ff2f" stroke="none" /><path d="M 113.03279911837588 83.53348406188908 l 5.0072715909004355 -6.326524080445358 a29.06831306565961,29.06831306565961 0 0,0 0.3886145952502895,0.3130404093498231 l -5.115136956505984 6.239635377302127" fill="#ff6409" stroke="none" /><path d="M 113.59037401385872 83.9905735841838 l 11.61605680237625 -13.683685705039855 a38.94926266202441,38.94926266202441 0 0,0 0.506007528681262,0.437077251546612 l -11.849243810820372 13.482264321028522" fill="#ffe515" stroke="none" /><path d="M 114.13192950727249 84.46653392183569 l 7.390749788273454 -8.123728686112251 a31.982629475604973,31.982629475604973 0 0,0 0.4029357902067397,0.3729513519332993 l -7.529115349794158 7.9956595880465775" fill="#ff8b0c" stroke="none" /><path d="M 114.39649973595853 84.71141617570332 l 10.419599970618847 -11.065254088711248 a36.19894442372434,36.19894442372434 0 0,0 0.44874196267275623,0.4298846492866339 l -10.608014419156916 10.884757309119033" fill="#ffc212" stroke="none" /><path d="M 114.65682725009322 84.96080404539774 l 11.241299267315618 -11.534563352679974 a37.106301901874886,37.106301901874886 0 0,0 0.45235776671318617,0.44849148424695995 l -11.437648954158767 11.339891858204355" fill="#ffce13" stroke="none" /><path d="M 115.41159269507618 85.73525988315684 l 13.567775926853535 -12.558130842762308 a39.48759567562111,39.48759567562111 0 0,0 0.4561800713872388,0.5014218094409296 l -13.781353699082652 12.323371457763706" fill="#ffeb16" stroke="none" /><path d="M 115.6541949942343 86.00192230759917 l 6.197728075096895 -5.542046661839458 a29.314211597911743,29.314211597911743 0 0,0 0.3322122870990367,0.37799659935029317 l -6.2919514261545215 5.434837784677867" fill="#ff6709" stroke="none" /><path d="M 115.8921839302757 86.27271002978787 l 9.491661045679013 -8.198670745609864 a33.542321611287896,33.542321611287896 0 0,0 0.37264790402411174,0.43897829393057997 l -9.631003513210237 8.034525669229732" fill="#ffa00e" stroke="none" /><path d="M 116.35404254752997 86.82634096563983 l 9.789018912168805 -7.885340707352641 a33.56994388745754,33.56994388745754 0 0,0 0.35765349376683064,0.4518835057565525 l -9.922938836577195 7.71613725768141" fill="#ffa00e" stroke="none" /><path d="M 116.7966241395341 87.39550010848427 l 14.020552366098698 -10.521283878796343 a38.52921284909096,38.52921284909096 0 0,0 0.3924438483545461,0.5324254513163234 l -14.19909823403707 10.279052118211144" fill="#ffdf14" stroke="none" /><path d="M 117.01052211995028 87.68569379921539 l 19.789388444088022 -14.3259911194002 a45.4305938639268,45.4305938639268 0 0,0 0.4518935772853202,0.6356449086349125 l -20.0323971199033 13.984168984055785" fill="#ccff1d" stroke="none" /><path d="M 117.42321728460499 88.27688183743584 l 10.452618085665668 -7.03298793355959 a33.59841831812152,33.59841831812152 0 0,0 0.31786593384423834,0.48128953743202446 l -10.57180845843063 6.852518517788506" fill="#ffa00e" stroke="none" /><line stroke="#e1ed5e" stroke-width="0.3" x1="172.87174338648825" x2="177.1583165268699" y1="56.24261187166439" y2="53.66864786411523" /><path d="M 173.72905801456457 55.72781907015455 a86.0,86.0 0 0,1 12.242430191666344,42.057860355516425" fill="none" id="id27" stroke="none" /><text fill="#e1ed5e" style="font-size:6.75px; font-family:Arial;" text-anchor="middle"><textPath startOffset="22.145653131862474" xlink:href="#id27">March</textPath></text><path d="M 118.00360718960297 89.18935116829356 l 13.823020066688288 -8.300326382420584 a37.1236255792168,37.1236255792168 0 0,0 0.32337557589227534,0.5491624245186258 l -13.963469352710332 8.061812789608402" fill="#ffce13" stroke="none" /><path d="M 118.18653347947321 89.5 l 13.122019673523493 -7.576001590820356 a36.15200318164071,36.15200318164071 0 0,0 0.3056852167952595,0.5401164878854722 l -13.250138255340127 7.349628332835765" fill="#ffc112" stroke="none" /><path d="M 118.36410011445183 89.81374322990088 l 19.390591187512168 -10.75563406477955 a43.17382895975954,43.17382895975954 0 0,0 0.35393216334925987,0.6511953163522871 l -19.572368700476773 10.421183914952659" fill="#e6ff1a" stroke="none" /><path d="M 118.8641267826498 90.77261029715802 l 9.221451226515411 -4.510673887702494 a31.265541468632023,31.265541468632023 0 0,0 0.2316936554111266,0.4841506286554379 l -9.297524139886448 4.351710756981953" fill="#ff810b" stroke="none" /><path d="M 119.0197475246899 91.09779779509293 l 9.907527125763457 -4.637222955228798 a31.93905528298672,31.93905528298672 0 0,0 0.22815973668101666,0.4985702009246354 l -9.985671327299526 4.466463772089479" fill="#ff8a0c" stroke="none" /><path d="M 119.16976305983485 91.42560881287824 l 11.19250407582257 -5.0062647102109885 a33.26111062816125,33.26111062816125 0 0,0 0.2286560676757966,0.5232098305649183 l -11.276794025515336 4.81339280987022" fill="#ff9c0e" stroke="none" /><path d="M 119.31412917781788 91.75594674310238 l 10.045780856584583 -4.287946488621477 a31.922646112907007,31.922646112907007 0 0,0 0.21080218999371889,0.5058485161422005 l -10.117908891114785 4.114865463037999" fill="#ff8a0c" stroke="none" /><path d="M 119.4528033332814 92.08871423366111 l 20.373389768303422 -8.285680255158606 a42.993806126769776,42.993806126769776 0 0,0 0.2721739787972539,0.6860562237713207 l -20.5126224220668 7.934723014173721" fill="#e8ff1a" stroke="none" /><path d="M 119.71291397450082 92.76114493625339 l 10.297009787021707 -3.781204622241444 a31.96931715966317,31.96931715966317 0 0,0 0.18475194734799857,0.5167840782893982 l -10.36040190441365 3.603885587571129" fill="#ff8b0c" stroke="none" /><path d="M 119.83427380445688 93.10060997987247 l 12.638659525520803 -4.396381851831336 a34.38147555350865,34.38147555350865 0 0,0 0.18912198353731385,0.5591055395538452 l -12.71226693063048 4.178774637803329" fill="#ffab0f" stroke="none" /><path d="M 119.94978838288452 93.4421083053983 l 11.727414369606114 -3.8550340393371383 a33.34477765052461,33.34477765052461 0 0,0 0.17408400833616328,0.5453156766602624 l -11.791863093719535 3.653149328985489" fill="#ff9d0e" stroke="none" /><path d="M 120.16314734710363 94.1308016681162 l 17.82152685103655 -5.187586732621441 a39.56119272597229,39.56119272597229 0 0,0 0.18420728952731652,0.6536866855646734 l -17.907952632638448 4.880892123153755" fill="#ffec16" stroke="none" /><path d="M 120.26092885502905 94.47779374421319 l 18.226410794983654 -4.967689311421487 a39.89126749485878,39.89126749485878 0 0,0 0.1744018085743034,0.6622320739994021 l -18.309002084362685 4.654076733049286" fill="#fff016" stroke="none" /><path d="M 120.43855184770803 95.1765574152323 l 9.055716440449594 -2.1371244225086237 a30.304477473083153,30.304477473083153 0 0,0 0.11514134040582912,0.5073339908311549 l -9.091068642413088 1.9813560977384426" fill="#ff740a" stroke="none" /><path d="M 120.51834098615036 95.52812308129327 l 12.308210273459476 -2.6825171425713408 a33.59714008638002,33.59714008638002 0 0,0 0.1179776199868616,0.5645656200163417 l -12.352445604270704 2.4708350712695943" fill="#ffa00e" stroke="none" /><path d="M 120.592083275326 95.88100663000786 l 13.389641345615841 -2.6783032678994987 a34.65488204852266,34.65488204852266 0 0,0 0.1116773504165738,0.584343087735948 l -13.433644988314573 2.4480576151302365" fill="#ffae10" stroke="none" /><path d="M 120.7213421655516 96.59031103205396 l 5.948807226117917 -0.9788739652710624 a27.02880598903284,27.02880598903284 0 0,0 0.0714056107407554,0.4584752438845589 l -5.964734328996937 0.8766105394550623" fill="#ff4706" stroke="none" /><path d="M 120.77682067341334 96.94652285012252 l 43.038299486497095 -6.325147919275605 a64.50060596003385,64.50060596003385 0 0,0 0.15159326617329572,1.0968533579289204 l -43.140537269225604 5.585406253146599" fill="#35ff63" stroke="none" /><path d="M 120.86939407059847 97.66154086499901 l 7.775447738083111 -0.8712551370841869 a28.82410845026814,28.82410845026814 0 0,0 0.05087813043335391,0.4921997590234523 l -7.789258260998131 0.7376508557778032" fill="#ff6008" stroke="none" /><path d="M 120.9064616781168 98.02013634271609 l 10.894944723784423 -1.0317625927737062 a31.943690172065597,31.943690172065597 0 0,0 0.04701255908972993,0.5463571989980419 l -10.911050905571894 0.8445843464000024" fill="#ff8a0c" stroke="none" /><path d="M 120.96210409425399 98.7389718711861 l 10.904781927525846 -0.6560046017976353 a31.924495911687366,31.924495911687366 0 0,0 0.02821275721528864,0.5473199528779379 l -10.914436274197707 0.46871285554296677" fill="#ff8a0c" stroke="none" /><path d="M 120.98066250479742 99.09900007780936 l 19.781151670478167 -0.8494877657875084 a40.79938359835184,40.79938359835184 0 0,0 0.02404310201739355,0.6999886819110267 l -19.792819459492407 0.5097928193123618" fill="#fffb17" stroke="none" /><path d="M 120.99303781780057 99.45929381324524 l 4.659095618193003 -0.1200017761747115 a25.660640772013043,25.660640772013043 0 0,0 0.007562030030460099,0.4404503383086676 l -4.660469079822129 0.040004521896977556" fill="#ff3404" stroke="none" /><line stroke="#e1ed5e" stroke-width="0.3" x1="184.99686870605535" x2="189.99668451229388" y1="99.2704041080226" y2="99.22748670261217" /><path d="M 185.99683186730306 99.26182062694052 a86.0,86.0 0 0,1 -10.086455211305974,41.156179273409016" fill="none" id="id28" stroke="none" /><text fill="#e1ed5e" style="font-size:6.75px; font-family:Arial;" text-anchor="middle"><textPath startOffset="21.40746469413373" xlink:href="#id28">April</textPath></text><path d="M 120.99922638620191 100.18025310272382 l 11.020133975532747 0.09459459624794796 a32.02053995847438,32.02053995847438 0 0,0 -0.009436252465742461,0.5496143990651279 l -11.016886291468335 -0.28375591128214683" fill="#ff8b0c" stroke="none" /><path d="M 120.99303781780057 100.54070618675476 l 10.439878079637037 0.2688942265344094 a31.44334038623416,31.44334038623416 0 0,0 -0.01852957995925558,0.5394685029684982 l -10.433723812680935 -0.4480689940670184" fill="#ff840c" stroke="none" /><path d="M 120.98066250479742 100.90099992219065 l 13.644114746279236 0.5859369942177385 a34.6566902787911,34.6566902787911 0 0,0 -0.030627289822391057,0.594161240408155 l -13.632045867000272 -0.820070028002624" fill="#ffae10" stroke="none" /><path d="M 120.93736805541906 101.62068470465957 l 31.125052955730677 2.4092759473660696 a52.218160293130595,52.218160293130595 0 0,0 -0.07685115066901639,0.8931268629550803 l -31.07910818236392 -2.9432238576968075" fill="#80ff26" stroke="none" /><path d="M 120.86939407059847 102.33845913500097 l 10.966148253400466 1.228779784989895 a32.03477717380636,32.03477717380636 0 0,0 -0.06592743983754566,0.5459737766121407 l -10.943438727303256 -1.4168472385254443" fill="#ff8c0c" stroke="none" /><path d="M 120.82617615685814 102.69636545807757 l 12.369196145533742 1.6014400809733162 a33.472434550625415,33.472434550625415 0 0,0 -0.07866896139620012,0.569209415763608 l -12.339882667582332 -1.8135378049370092" fill="#ff9f0e" stroke="none" /><path d="M 120.7213421655516 103.40968896794604 l 9.572980406603234 1.5752302829602787 a30.701716565101485,30.701716565101485 0 0,0 -0.09003670561730799,0.5193077916772114 l -9.544528883493692 -1.7393311075580782" fill="#ff7a0b" stroke="none" /><path d="M 120.65975698304385 103.76489593502545 l 11.281319802670243 2.0558322685815864 a32.467110482011634,32.467110482011634 0 0,0 -0.10462713072392854,0.5474533591647766 l -11.244366379664156 -2.2491881927796777" fill="#ff910d" stroke="none" /><path d="M 120.51834098615036 104.47187691870673 l 43.05935748202328 9.384586550548834 a65.07015692608113,65.07015692608113 0 0,0 -0.24723294092569575,1.0893539552576381 l -42.89191367953992 -10.122374839745488" fill="#35ff6a" stroke="none" /><path d="M 120.35273937422433 105.17358676015961 l 9.19893792301172 2.3383340478626526 a30.49148381607517,30.49148381607517 0 0,0 -0.13330661715181075,0.5061869385183314 l -9.157441825055178 -2.495901490753787" fill="#ff770a" stroke="none" /><path d="M 120.26092885502905 105.52220625578681 l 11.142055205712856 3.0368166928357354 a32.548491236219505,32.548491236219505 0 0,0 -0.15155431208451764,0.5378127879943114 l -11.088282401553757 -3.2276374047330556" fill="#ff920d" stroke="none" /><path d="M 120.16314734710363 105.8691983318838 l 9.991340953235285 2.9083337361235118 a31.406022254659593,31.406022254659593 0 0,0 -0.15512134296672364,0.5163485002536591 l -9.939943290264932 -3.0794198399678945" fill="#ff830c" stroke="none" /><path d="M 120.05942366710727 106.21446072829308 l 14.036670621771753 4.348596439389378 a35.69484307969228,35.69484307969228 0 0,0 -0.18635306030135007,0.583748307194912 l -13.959952845693149 -4.588913780275673" fill="#ffbc11" stroke="none" /><path d="M 119.83427380445688 106.89939002012753 l 20.88347199581563 7.26435561463141 a43.11086305633144,43.11086305633144 0 0,0 -0.24913938141786823,0.6968871908511273 l -20.755692444353816 -7.621777761863459" fill="#e7ff1a" stroke="none" /><path d="M 119.58574465831526 107.57618678355244 l 10.183420532077973 3.9391658265967724 a31.918749064914675,31.918749064914675 0 0,0 -0.20206289495778731,0.5093304925461146 l -10.114298962154061 -4.113397336356451" fill="#ff8a0c" stroke="none" /><path d="M 119.4528033332814 107.91128576633889 l 10.775917115598173 4.382471679545777 a32.632989628821235,32.632989628821235 0 0,0 -0.21549296557268627,0.5171046699148404 l -10.699098305489 -4.5668088589018945" fill="#ff940d" stroke="none" /><path d="M 119.31412917781788 108.2440532568976 l 8.802428500092962 3.7572333019364446 a30.570765360431164,30.570765360431164 0 0,0 -0.21016108185026974,0.48088968354919687 l -8.736633536225726 -3.907785055261486" fill="#ff780b" stroke="none" /><path d="M 119.16976305983485 108.57439118712176 l 12.817365011588013 5.733044339382143 a35.04110548488267,35.04110548488267 0 0,0 -0.25031953292310016,0.5469933549200875 l -12.717061013809856 -5.952226676516919" fill="#ffb310" stroke="none" /><path d="M 118.8641267826498 109.22738970284198 l 18.209812771950727 8.90733193211584 a41.27160189374264,41.27160189374264 0 0,0 -0.31676954167258436,0.633751278848763 l -18.05422331706641 -9.218615067128349" fill="#fdff18" stroke="none" /><path d="M 118.70294669586154 109.54985784667822 l 9.184930124347217 4.689890766709898 a31.31300231711463,31.31300231711463 0 0,0 -0.24855356297293935,0.47663423001633803 l -9.103068492399329 -4.846871239830739" fill="#ff820c" stroke="none" /><path d="M 118.5362547648365 109.86951160357373 l 11.124447860164576 5.9231418985200595 a33.60305320720039,33.60305320720039 0 0,0 -0.27547247032108313,0.5068383182798311 l -11.021130040228154 -6.113235050274493" fill="#ffa00e" stroke="none" /><line stroke="#e1ed5e" stroke-width="0.3" x1="174.33088141563837" x2="178.70328620479359" y1="141.23008692659167" y2="143.65538615756765" /><path d="M 175.20536237346943 141.71514677278685 a86.0,86.0 0 0,1 -30.301960400862466,31.631185727798858" fill="none" id="id29" stroke="none" /><text fill="#e1ed5e" style="font-size:6.75px; font-family:Arial;" text-anchor="middle"><textPath startOffset="22.145653131862474" xlink:href="#id29">May</textPath></text><path d="M 118.18653347947321 110.5 l 13.578743900435594 7.839691446173475 a36.67938289234696,36.67938289234696 0 0,0 -0.3195058774869897,0.5425908306295786 l -13.44216431281884 -8.071633445096603" fill="#ffc812" stroke="none" /><path d="M 118.00360718960297 110.81064883170644 l 11.141607750911481 6.69021533003014 a33.99593799759529,33.99593799759529 0 0,0 -0.30472021950167694,0.4977375779424476 l -11.0251195669544 -6.880490024097145" fill="#ffa60f" stroke="none" /><path d="M 117.62189284568427 111.42229804090321 l 18.646287211688303 12.086298092565418 a43.220770201843166,43.220770201843166 0 0,0 -0.40890051286331086,0.6191274928760927 l -18.436062259904265 -12.404605463780571" fill="#e5ff1a" stroke="none" /><path d="M 117.21940702142032 112.02048342749411 l 10.229319320590704 7.140859334746336 a33.475209248795956,33.475209248795956 0 0,0 -0.3329745612201759,0.46837041990289946 l -10.105229660840568 -7.3154069813587395" fill="#ff9f0e" stroke="none" /><path d="M 117.01052211995028 112.31430620078461 l 10.102578027997527 7.313487403668472 a33.4719357284824,33.4719357284824 0 0,0 -0.34093235490201396,0.46254021737920176 l -9.975543653511686 -7.485833930316551" fill="#ff9f0e" stroke="none" /><path d="M 116.79662413953412 112.60449989151573 l 8.735039404451463 6.554936415267549 a31.920993764558258,31.920993764558258 0 0,0 -0.3326593507742454,0.4354617686721095 l -8.621228076322913 -6.703919097180536" fill="#ff8a0c" stroke="none" /><path d="M 116.57777611688842 112.89097897827486 l 12.31052016938975 9.57273494323304 a36.59442724611413,36.59442724611413 0 0,0 -0.38987627744765724,0.4925959403019809 l -12.144377461300532 -9.782650827449704" fill="#ffc712" stroke="none" /><path d="M 116.35404254752997 113.17365903436017 l 7.362895044816634 5.931027056111223 a30.454591761747764,30.454591761747764 0 0,0 -0.3314520864731686,0.40431765214186444 l -7.259996139104838 -6.056546989951579" fill="#ff760a" stroke="none" /><path d="M 116.1254893667686 113.45245675266167 l 19.785329646737488 16.50562568094188 a46.76615897547474,46.76615897547474 0 0,0 -0.5195618634699433,0.6120425687478698 l -19.499073219760433 -16.842835032139305" fill="#bcff1f" stroke="none" /><path d="M 115.6541949942343 113.99807769240083 l 12.945199694463266 11.575677390851597 a38.36590055789232,38.36590055789232 0 0,0 -0.4432216992674515,0.4871782885086114 l -12.744580294353934 -11.79619325491788" fill="#ffdd14" stroke="none" /><path d="M 115.41159269507618 114.26474011684316 l 3.8204614780608384 3.536162107915022 a26.205801413692306,26.205801413692306 0 0,0 -0.30841004484095835,0.3275207800010531 l -3.75919559948362 -3.601224347860572" fill="#ff3c05" stroke="none" /><path d="M 115.16444852881244 114.52719865689866 l 7.8901030821565845 7.558540271353561 a31.926356102595705,31.926356102595705 0 0,0 -0.38252821840821694,0.3925076509835679 l -7.759188062597561 -7.692870614404867" fill="#ff8a0c" stroke="none" /><path d="M 114.91283532996324 114.78537596483092 l 9.703429571208003 9.62049477407607 a34.66420378732032,34.66420378732032 0 0,0 -0.4225864881816893,0.41897465955853463 l -9.53685116289635 -9.785649443863267" fill="#ffae10" stroke="none" /><path d="M 114.65682725009322 115.03919595460226 l 8.006637626720487 8.215515551291988 a32.47174537109052,32.47174537109052 0 0,0 -0.40253755962240734,0.3856218763502811 l -7.864427581232768 -8.35174955794785" fill="#ff910d" stroke="none" /><path d="M 114.39649973595853 115.28858382429668 l 15.160122416199778 16.099524648186133 a43.11388716557349,43.11388716557349 0 0,0 -0.5431738565209329,0.502753612480948 l -14.881518788364879 -16.35739600679946" fill="#e7ff1a" stroke="none" /><path d="M 114.13192950727249 115.5334660781643 l 9.587780662663087 10.538650480227377 a35.247410009532715,35.247410009532715 0 0,0 -0.4510577039741512,0.40333858025351244 l -9.40545793186556 -10.701684590364277" fill="#ffb610" stroke="none" /><path d="M 113.86319453409587 115.77377054828091 l 6.967764075078444 7.9280364626297954 a31.554785566686864,31.554785566686864 0 0,0 -0.4099425244892879,0.3540985889336856 l -6.8306420708263005 -8.046479184028199" fill="#ff850c" stroke="none" /><path d="M 113.31354834802062 116.24036423190432 l 6.095389912923007 7.4353845972296835 a30.614505827097094,30.614505827097094 0 0,0 -0.40928566318629245,0.32969155845094267 l -5.966853479381463 -7.53892444947403" fill="#ff790b" stroke="none" /><path d="M 113.03279911837588 116.46651593811092 l 6.6915398343048915 8.454541985284344 a31.782206895391354,31.782206895391354 0 0,0 -0.43070952476066565,0.33492233157716583 l -6.545420364908995 -8.568165368482303" fill="#ff880c" stroke="none" /><path d="M 112.7482090630111 116.68781488649013 l 2.8502849869583358 3.731114543305729 a25.695246558184948,25.695246558184948 0 0,0 -0.35281654972635945,0.26476011642623964 l -2.78581544832121 -3.7794936869959836" fill="#ff3505" stroke="none" /><path d="M 112.45986205192187 116.90419585922612 l 18.515411394509126 25.119711544370773 a52.20609503254633,52.20609503254633 0 0,0 -0.7259605297011806,0.5255394390240061 l -18.081469854433976 -25.433851754767858" fill="#80ff25" stroke="none" /><path d="M 111.8722381534696 117.32195027204791 l 10.353373000006592 15.105880621310344 a39.31338204217192,39.31338204217192 0 0,0 -0.5599418331559158,0.3767538547573342 l -10.092534878753671 -15.281384150124799" fill="#ffe915" stroke="none" /><path d="M 111.5731344415666 117.5232005979908 l 1.46438990764463 2.2172729639401374 a23.657204771603297,23.657204771603297 0 0,0 -0.34079258781181077,0.2208976380803801 l -1.4261116875758095 -2.242084443724412" fill="#ff1702" stroke="none" /><path d="M 111.27062007382361 117.71928675628689 l 6.764562853115962 10.635016369123674 a33.60408202787037,33.60408202787037 0 0,0 -0.48939684301026753,0.3054198256724165 l -6.581001881315979 -10.749571991637637" fill="#ffa00e" stroke="none" /><path d="M 110.96478420261333 117.91015095944535 l 9.86792975579768 16.11852165238384 a39.899279825531025,39.899279825531025 0 0,0 -0.5872171633819218,0.3526070344913354 l -9.589779835858323 -16.2855426874111" fill="#fff016" stroke="none" /><line stroke="#e1ed5e" stroke-width="0.3" x1="143.1302829299769" x2="145.66735839644613" y1="173.24464959558577" y2="177.55315839532614" /><path d="M 143.63769802327073 174.10635135553383 a86.0,86.0 0 0,1 -40.68552437913181,11.842963189579606" fill="none" id="id30" stroke="none" /><text fill="#e1ed5e" style="font-size:6.75px; font-family:Arial;" text-anchor="middle"><textPath startOffset="21.407464694133747" xlink:href="#id30">June</textPath></text><path d="M 110.65571695917076 118.09573695890943 l 3.168118416642807 5.380157688301275 a27.2436424507541,27.2436424507541 0 0,0 -0.4050319226687438,0.23384528958319184 l -3.0752940261136645 -5.433749875160639" fill="#ff4a06" stroke="none" /><path d="M 110.34350942703117 118.27599006163325 l 7.9896425953158525 14.116932913155875 a37.22104138689711,37.22104138689711 0 0,0 -0.5587690295286599,0.3099397615175712 l -7.746129377631098 -14.25200559010659" fill="#ffcf13" stroke="none" /><path d="M 109.71004243097381 118.62028667847754 l 5.050628177094101 9.685245479865223 a31.92304101377023,31.92304101377023 0 0,0 -0.48807711760202227,0.24921565393474046 l -4.8836238377784955 -9.770519085472799" fill="#ff8a0c" stroke="none" /><path d="M 109.3889696526874 118.78422872680471 l 5.577272675924897 11.158281418701225 a33.474502584093344,33.474502584093344 0 0,0 -0.5162083129956667,0.25250335341462044 l -5.384904113667162 -11.25237852221307" fill="#ff9f0e" stroke="none" /><path d="M 109.06512990194946 118.94263497670748 l 4.677506848064457 9.774190307507912 a31.83576792299796,31.83576792299796 0 0,0 -0.4949875014012529,0.23167914403992743 l -4.509030632791698 -9.853045683118372" fill="#ff890c" stroke="none" /><path d="M 108.73861861582097 119.09545874513695 l 4.3371781384289045 9.477516968498378 a31.422784757090607,31.422784757090607 0 0,0 -0.4924198718338582,0.2202531453433747 l -4.173844863739419 -9.550573864751604" fill="#ff830c" stroke="none" /><path d="M 108.4095320186766 119.2426549942271 l 7.677340154223931 17.567256719275324 a40.17159514710717,40.17159514710717 0 0,0 -0.6342615202492601,0.270728527473092 l -7.374643558804239 -17.69645989640782" fill="#fff417" stroke="none" /><path d="M 107.407793817531 119.65005319985036 l 5.032860360077935 13.350260044887607 a35.26741485589335,35.26741485589335 0 0,0 -0.5683274181118434,0.2086977000856693 l -4.802943790311964 -13.434688593981997" fill="#ffb610" stroke="none" /><path d="M 107.06938296918513 119.77432235084164 l 3.9382987414605903 11.016122505601427 a32.69893807297946,32.69893807297946 0 0,0 -0.5301809368622278,0.18442445136696578 l -3.748612032553341 -11.082105389536983" fill="#ff940d" stroke="none" /><path d="M 106.72888874123015 119.89276391827305 l 3.5453761570971025 10.481274636399075 a32.06466493387555,32.06466493387555 0 0,0 -0.5229246983236377,0.17189573494327112 l -3.3649287211257306 -10.540591292744367" fill="#ff8c0c" stroke="none" /><path d="M 106.38641147887787 120.00534299687104 l 5.4370546315020665 17.031496194015435 a38.87829482005206,38.87829482005206 0 0,0 -0.6375288094887397,0.1975080548410675 l -5.143885189141702 -17.12232083666315" fill="#ffe415" stroke="none" /><path d="M 106.0420521117495 120.11202640906438 l 7.969924563581426 26.529286794679358 a48.700591246100274,48.700591246100274 0 0,0 -0.8027248595682656,0.2336615075828658 l -7.513339691631554 -26.662191996564744" fill="#a6ff21" stroke="none" /><path d="M 105.69591212413111 120.21278271476187 l 2.825950020805617 10.0282996802789 a31.418866924842316,31.418866924842316 0 0,0 -0.5203841084770428,0.14183300281076242 l -2.653384511393879 -10.075333177233805" fill="#ff830c" stroke="none" /><path d="M 105.3480935250658 120.30758222061773 l 1.603800554617059 6.089891935455167 a27.29753602645605,27.29753602645605 0 0,0 -0.4541721236015602,0.1154487777932409 l -1.4990231377901015 -6.116525945083678" fill="#ff4b07" stroke="none" /><path d="M 104.9986988182912 120.39639698878246 l 3.252614363444736 13.271776560227641 a34.66453633541566,34.66453633541566 0 0,0 -0.5791748193149046,0.13668368034704606 l -3.024307390389952 -13.325656384220913" fill="#ffae10" stroke="none" /><path d="M 104.29559338865022 120.5559693870025 l 2.127512612452263 10.180918018819394 a31.400836582797794,31.400836582797794 0 0,0 -0.5285860042517648,0.10573200476478681 l -1.9524301226695393 -10.215939420247043" fill="#ff830c" stroke="none" /><path d="M 103.94208987418118 120.62667999033965 l 1.1793104150693434 6.1706504207904835 a27.282332343221967,27.282332343221967 0 0,0 -0.4607664604694014,0.08396699803589786 l -1.0732092210488848 -6.189985592757745" fill="#ff4b07" stroke="none" /><path d="M 103.58742460773223 120.69131181640829 l 2.131980052817553 12.296694392999843 a33.480145509586244,33.480145509586244 0 0,0 -0.5671257599436423,0.09332032798206119 l -1.9205767898208386 -12.331480719477574" fill="#ff9f0e" stroke="none" /><path d="M 103.2317021107853 120.74984581791261 l 3.4043870547790513 21.85860703417286 a43.12212812306127,43.12212812306127 0 0,0 -0.7324085949649873,0.10763884158471192 l -3.0286533542063783 -21.913826949056457" fill="#e7ff1a" stroke="none" /><path d="M 102.51750503828377 120.84855314841334 l 1.497800386023202 12.403935832838215 a33.494039784694905,33.494039784694905 0 0,0 -0.5714148554862228,0.06402822641456374 l -1.28464962893618 -12.42781981975975" fill="#ff9f0e" stroke="none" /><path d="M 102.15924093988457 120.88869738790638 l 1.3531615688727407 13.090610689624299 a34.16036224648775,34.16036224648775 0 0,0 -0.583817567866214,0.05528813066976752 l -1.1282444376215115 -13.11191057579925" fill="#ffa80f" stroke="none" /><path d="M 101.80034050326958 120.92268563240118 l 1.1710113821982064 13.608927298586677 a34.659215565890136,34.659215565890136 0 0,0 -0.5932188900547469,0.045918893868707567 l -0.9372234973682236 -13.627023959450437" fill="#ffae10" stroke="none" /><path d="M 101.44090949804482 120.95050786540614 l 0.9373247509139049 13.628496163782545 a34.66069124806323,34.66069124806323 0 0,0 -0.5939450240289709,0.03573025774998027 l -0.7032353747524689 -13.642578399357216" fill="#ffae10" stroke="none" /><path d="M 101.08105385017728 120.97215588758144 l 0.48906128566823276 9.487658288190909 a30.50025477208991,30.50025477208991 0 0,0 -0.5231145744770668,0.022464790651524978 l -0.32612095059033647 -9.494655647268265" fill="#ff770b" stroke="none" /><path d="M 100.72087961077811 120.9876233191556 l 0.7708579632978302 22.442688521601323 a43.45592327376444,43.45592327376444 0 0,0 -0.745758865363238,0.019208102982944522 l -0.38548578386384824 -22.45261434193431" fill="#e3ff1b" stroke="none" /><line stroke="#e1ed5e" stroke-width="0.3" x1="101.45913802915013" x2="101.54496967792366" y1="184.9874750549273" y2="189.98673829345242" /><path d="M 101.47630435890484 185.9873277026323 a86.0,86.0 0 0,1 -42.54439059252881,-10.42667462771756" fill="none" id="id31" stroke="none" /><text fill="#e1ed5e" style="font-size:6.75px; font-family:Arial;" text-anchor="middle"><textPath startOffset="22.145653131862474" xlink:href="#id31">July</textPath></text><path d="M 100.0 121.0 l 2.1201704818496854e-15 17.312505804333384 a38.312505804333384,38.312505804333384 0 0,0 -0.6576851083663222,-0.005645435656438393 l 0.29719218351746796 -17.309954766871382" fill="#ffdd14" stroke="none" /><path d="M 99.63950707515114 120.99690560180557 l -0.18836053703347252 10.971056968331636 a31.97267381700056,31.97267381700056 0 0,0 -0.5486917122479015,-0.014132352164006524 l 0.3766655633521179 -10.966206898817582" fill="#ff8b0c" stroke="none" /><path d="M 99.27912038922189 120.98762331915562 l -0.46889879737468165 13.651476872098794 a34.65952732972952,34.65952732972952 0 0,0 -0.5944508997104654,-0.025528279398367392 l 0.7031754576859858 -13.641416024274598" fill="#ffae10" stroke="none" /><path d="M 98.91894614982273 120.97215588758144 l -0.48707813776270675 9.449185748626052 a30.461731153669717,30.461731153669717 0 0,0 -0.5219917142605266,-0.031401725310139066 l 0.6492142041556797 -9.439432045491222" fill="#ff770a" stroke="none" /><path d="M 97.84075906011543 120.88869738790638 l -1.0705741256682964 10.35683351928432 a31.412018512503792,31.412018512503792 0 0,0 -0.5358951662514845,-0.0600481711488294 l 1.24820519352058 -10.33692958762852" fill="#ff830c" stroke="none" /><path d="M 97.48249496171623 120.84855314841334 l -1.2811583966635773 10.609829381944563 a31.686900689690894,31.686900689690894 0 0,0 -0.5394652262908757,-0.0698445740134443 l 1.463101444845247 -10.58627321173072" fill="#ff870c" stroke="none" /><path d="M 96.76829788921471 120.74984581791261 l -1.6806860061263686 10.79120980212228 a31.921305528397646,31.921305528397646 0 0,0 -0.5407203099222694,-0.08897532122949797 l 1.8656838191017016 -10.760768482397113" fill="#ff8a0c" stroke="none" /><path d="M 96.41257539226777 120.69131181640829 l -3.8403630086999176 22.150193297425556 a43.4806461462278,43.4806461462278 0 0,0 -0.7343369024201943,-0.13382064567022944 l 4.220034644671169 -22.08100447782396" fill="#e2ff1b" stroke="none" /><path d="M 96.05791012581884 120.62667999033965 l -1.1964227919335868 6.26018960754639 a27.373492089858587,27.373492089858587 0 0,0 -0.4607916979550252,-0.09217124481515665 l 1.30371097541957 -6.238728966068372" fill="#ff4c07" stroke="none" /><path d="M 95.70440661134978 120.55596938700252 l -2.5892256913420075 12.390382243322875 a33.65802756421222,33.65802756421222 0 0,0 -0.5645534424087907,-0.12304179515236541 l 2.801541550369935 -12.344108990036792" fill="#ffa10e" stroke="none" /><path d="M 95.35216902796893 120.47920084513623 l -2.7876447045788812 12.28287692334128 a33.59523832695977,33.59523832695977 0 0,0 -0.5613089960178832,-0.13246739469506333 l 2.998085854336652 -12.23321338499999" fill="#ffa00e" stroke="none" /><path d="M 95.00130118170881 120.39639698878247 l -2.9714790353078695 12.124648483763298 a33.48346059841172,33.48346059841172 0 0,0 -0.5570925665515071,-0.14161075192385916 l 3.179176895084755 -12.071852500004177" fill="#ff9f0e" stroke="none" /><path d="M 94.6519064749342 120.30758222061772 l -5.031694616658498 19.106164029839903 a40.757617636002024,40.757617636002024 0 0,0 -0.6750598793996946,-0.18399057198832847 l 5.358935896992888 -19.016972963707428" fill="#fffb17" stroke="none" /><path d="M 93.95794788825049 120.11202640906438 l -3.5914557480339693 11.954788127527468 a33.4826084439174,33.4826084439174 0 0,0 -0.5490499930263948,-0.17009709133004827 l 3.7961463739319976 -11.89137444839077" fill="#ff9f0e" stroke="none" /><path d="M 93.61358852112213 120.00534299687104 l -3.8797358003565603 12.153217136113879 a33.75746983684854,33.75746983684854 0 0,0 -0.5505317073172744,-0.18097070714435518 l 4.087790245321578 -12.084825507567503" fill="#ffa20f" stroke="none" /><path d="M 93.27111125876986 119.89276391827306 l -3.5826874587402315 10.591578869923184 a32.18110872788642,32.18110872788642 0 0,0 -0.5217848462398522,-0.18150385521007054 l 3.7639780770251052 -10.528516582144524" fill="#ff8e0d" stroke="none" /><path d="M 92.59220618246901 119.65005319985036 l -2.305292181298303 6.115061396080932 a27.53516242483646,27.53516242483646 0 0,0 -0.44086120780837995,-0.1705345859576882 l 2.409925651600211 -6.074586921985204" fill="#ff4e07" stroke="none" /><path d="M 92.25597844496254 119.51999308798841 l -7.217498484834127 18.19281100074978 a40.5721908964629,40.5721908964629 0 0,0 -0.6451858166477902,-0.26239145486844423 l 7.528738762672358 -18.066232289302047" fill="#fff917" stroke="none" /><path d="M 91.92203290615298 119.3841803445677 l -4.535039278890644 10.882443346256503 a32.789578213217105,32.789578213217105 0 0,0 -0.5177082874027904,-0.220978883054568 l 4.721182641463866 -10.802989813542531" fill="#ff960d" stroke="none" /><path d="M 91.59046798132341 119.24265499422711 l -3.022105884618757 6.915169686564063 a28.54670098598201,28.54670098598201 0 0,0 -0.44734936605592884,-0.20009368138259512 l 3.140368653530321 -6.8622722542716135" fill="#ff5c08" stroke="none" /><path d="M 91.26138138417905 119.09545874513695 l -11.401833528544504 24.915063963205906 a48.400040512803685,48.400040512803685 0 0,0 -0.7525314036432155,-0.35222269444313536 l 11.82785364605921 -24.715665037192245" fill="#aaff21" stroke="none" /><path d="M 90.6110303473126 118.78422872680471 l -3.801018331916555 7.604582865071008 a29.501612841766985,29.501612841766985 0 0,0 -0.45105546662078017,-0.2303121351540113 l 3.931001020250918 -7.538212778244161" fill="#ff6909" stroke="none" /><path d="M 89.97174638481275 118.45085714620012 l -3.325388121316181 6.118339596951843 a27.963640253561323,27.963640253561323 0 0,0 -0.41979524334510304,-0.23285334500078686 l 3.4299275528173867 -6.060353336517908" fill="#ff5407" stroke="none" /><line stroke="#e1ed5e" stroke-width="0.3" x1="58.13341422392154" x2="55.67067388415222" y1="173.97424548756322" y2="178.32567169271397" /><path d="M 57.64086615596768 174.84453072859336 a86.0,86.0 0 0,1 -31.369924170532247,-30.572349798747897" fill="none" id="id32" stroke="none" /><text fill="#e1ed5e" style="font-size:6.75px; font-family:Arial;" text-anchor="middle"><textPath startOffset="22.145653131862474" xlink:href="#id32">August</textPath></text><path d="M 89.34428304082925 118.09573695890944 l -6.331986696479461 10.753097715137065 a33.478908846356674,33.478908846356674 0 0,0 -0.49272543193374385,-0.2958674647246655 l 6.515644884970633 -10.64281624987648" fill="#ff9f0e" stroke="none" /><path d="M 89.03521579738668 117.91015095944536 l -3.3435271960988224 5.461400399003618 a27.403598084615346,27.403598084615346 0 0,0 -0.39909539497642377,-0.24906504343307612 l 3.436786719864959 -5.403199558728994" fill="#ff4d07" stroke="none" /><path d="M 88.72937992617639 117.7192867562869 l -5.787773338382669 9.099341011536922 a31.784077478427676,31.784077478427676 0 0,0 -0.4578638144133699,-0.29678179274907834 l 5.943122785053048 -8.998645377083948" fill="#ff880c" stroke="none" /><path d="M 88.1277618465304 117.32195027204791 l -5.636274748284746 8.223493299859015 a30.96962562441431,30.96962562441431 0 0,0 -0.4359415885279814,-0.30432108572248623 l 5.776611427986493 -8.1255273983314" fill="#ff7d0b" stroke="none" /><path d="M 87.83215693770417 117.11559508785305 l -7.241429792268147 10.185977871923024 a33.497697813743706,33.497697813743706 0 0,0 -0.4658078033508596,-0.3372089275525511 l 7.41521860599296 -10.060168172997408" fill="#ff9f0e" stroke="none" /><path d="M 87.54013794807813 116.9041958592261 l -5.227831101668684 7.09255692344766 a29.811048844486095,29.811048844486095 0 0,0 -0.40932984913060566,-0.30716874986904125 l 5.348813939710056 -7.0017691463146035" fill="#ff6e0a" stroke="none" /><path d="M 87.2517909369889 116.68781488649013 l -7.591484190942392 9.937496495859946 a33.50537759632059,33.50537759632059 0 0,0 -0.45406177453116464,-0.35308118224352303 l 7.760955910108785 -9.80571426199563" fill="#ff9f0e" stroke="none" /><path d="M 86.96720088162412 116.46651593811092 l -5.518919609027108 6.972974637126357 a29.892741362533343,29.892741362533343 0 0,0 -0.39963638616669694,-0.32191878392043827 l 5.637806765549067 -6.877207559412509" fill="#ff6f0a" stroke="none" /><path d="M 86.68645165197938 116.24036423190432 l -7.9697790371471315 9.721834557374663 a33.571055845151356,33.571055845151356 0 0,0 -0.44253951843915756,-0.3691822057453285 l 8.135492889748182 -9.583590167717466" fill="#ffa00e" stroke="none" /><path d="M 86.13680546590413 115.77377054828092 l -7.314899572472199 8.32301293587956 a32.08062724245214,32.08062724245214 0 0,0 -0.41053269054713387,-0.3671008633574377 l 7.456697289842704 -8.19621654263874" fill="#ff8c0c" stroke="none" /><path d="M 85.86807049272751 115.53346607816431 l -8.465582169894114 9.305157756433127 a33.57982680116609,33.57982680116609 0 0,0 -0.4230582121915183,-0.3915763653120932 l 8.6240701533996 -9.158463644988657" fill="#ffa00e" stroke="none" /><path d="M 85.60350026404147 115.28858382429668 l -8.098175813789188 8.599982080627928 a32.81271109009958,32.81271109009958 0 0,0 -0.4067643576240597,-0.3896710532218249 l 8.244612657278564 -8.459698897100521" fill="#ff960d" stroke="none" /><path d="M 85.34317274990678 115.03919595460226 l -8.755493768293164 8.983907923170923 a33.54469101646723,33.54469101646723 0 0,0 -0.4089386636647368,-0.40544348241345207 l 8.908424352087863 -8.832284430528812" fill="#ffa00e" stroke="none" /><path d="M 85.08716467003676 114.78537596483092 l -11.82130334281155 11.720267169221943 a37.6465574591478,37.6465574591478 0 0,0 -0.451065273712192,-0.4628327075104772 l 12.02075541767455 -11.51561176964373" fill="#ffd413" stroke="none" /><path d="M 84.3458050057657 113.99807769240083 l -9.394963399856026 8.401034204370436 a33.603281834015945,33.603281834015945 0 0,0 -0.3808194900560481,-0.43330267361419494 l 9.537793953870667 -8.238519252944942" fill="#ffa00e" stroke="none" /><path d="M 84.1078160697243 113.72728997021213 l -12.59176730989371 10.876468700507298 a37.63881532380304,37.63881532380304 0 0,0 -0.41815905896166966,-0.49259032001084796 l 12.77662093236249 -10.658711598046896" fill="#ffd413" stroke="none" /><path d="M 83.8745106332314 113.45245675266167 l -8.512722603735316 7.101615961506973 a32.08599997261757,32.08599997261757 0 0,0 -0.3492074929357609,-0.4259763610375202 l 8.633376915909707 -6.9544373187709585" fill="#ff8c0c" stroke="none" /><path d="M 83.64595745247003 113.17365903436017 l -11.074537604082282 8.920863568464597 a35.220660672113354,35.220660672113354 0 0,0 -0.37524019653972834,-0.4741037301978575 l 11.226044231263572 -8.729439894352058" fill="#ffb510" stroke="none" /><path d="M 83.4222238831116 112.89097897827486 l -10.573191242405755 8.221777461470218 a34.393655127500686,34.393655127500686 0 0,0 -0.3584277817243731,-0.46919347196356453 l 10.712771001484423 -8.039063076265784" fill="#ffab0f" stroke="none" /><path d="M 83.20337586046588 112.60449989151573 l -12.787437513303704 9.595931504464282 a36.98750948694064,36.98750948694064 0 0,0 -0.37674064666097695,-0.5111210423317919 l 12.95028017954851 -9.37500415286361" fill="#ffcc13" stroke="none" /><path d="M 82.98947788004972 112.3143062007846 l -8.31690954631836 6.020801129759338 a31.267474404436214,31.267474404436214 0 0,0 -0.31101444334226835,-0.4374807639667166 l 8.41903908819059 -5.877143139083118" fill="#ff810b" stroke="none" /><path d="M 82.576782715395 111.72311816256416 l -11.954710306079154 8.043662615699667 a35.408872501950995,35.408872501950995 0 0,0 -0.334994171976646,-0.5072238730435036 l 12.091028916976526 -7.837258864317103" fill="#ffb811" stroke="none" /><path d="M 82.37810715431573 111.42229804090323 l -14.091826232736775 9.134151511445515 a37.79322156132321,37.79322156132321 0 0,0 -0.34820570231328585,-0.5474371994663663 l 14.24654962667595 -8.890900637300478" fill="#ffd614" stroke="none" /><path d="M 82.18462484594161 111.11811171558189 l -8.246138026601177 5.146200010330665 a30.720193768649125,30.720193768649125 0 0,0 -0.2753583145427247,-0.44977711282482247 l 8.333264305599306 -5.0038857813812845" fill="#ff7a0b" stroke="none" /><path d="M 81.99639281039703 110.81064883170644 l -5.939231123274665 3.5663376415556955 a27.927714667136016,27.927714667136016 0 0,0 -0.2432720585054093,-0.41312913969412596 l 5.999576891909844 -3.463857333568011" fill="#ff5407" stroke="none" /><line stroke="#e1ed5e" stroke-width="0.3" x1="26.387840678322732" x2="22.057713659400548" y1="142.50000000000003" y2="145.00000000000006" /><path d="M 25.521815274538298 143.00000000000003 a86.0,86.0 0 0,1 -11.493303480769221,-40.785679425670985" fill="none" id="id33" stroke="none" /><text fill="#e1ed5e" style="font-size:6.75px; font-family:Arial;" text-anchor="middle"><textPath startOffset="21.40746469413373" xlink:href="#id33">September</textPath></text><path d="M 81.81346652052679 110.50000000000001 l -19.805989917595596 11.434993610490846 a43.86998722098167,43.86998722098167 0 0,0 -0.37094504797070715,-0.6554243564962405 l 19.999368330587682 -11.093312483895483" fill="#deff1b" stroke="none" /><path d="M 81.63589988554817 110.18625677009913 l -0.9141971706096309 0.5070897599278197 a22.045416898358884,22.045416898358884 0 0,0 -0.1807248113676799,-0.33251329745680186 l 0.9227673315926405 -0.49132162899643084" fill="#ff0000" stroke="none" /><path d="M 81.4637452351635 109.86951160357371 l -12.054599385142035 6.418395194577557 a34.656835768582816,34.656835768582816 0 0,0 -0.2750959465468152,-0.5275327502637019 l 12.1630034006638 -6.210516201209352" fill="#ffae10" stroke="none" /><path d="M 81.29705330413844 109.54985784667822 l -11.109248259572222 5.6724613178653485 a33.473660821727,33.473660821727 0 0,0 -0.2569184550650875,-0.5140090129803055 l 11.204986627849047 -5.48092044872129" fill="#ff9f0e" stroke="none" /><path d="M 81.1358732173502 109.22738970284198 l -8.353085043498387 4.0859124732045204 a30.298855331846212,30.298855331846212 0 0,0 -0.2245300166527231,-0.4691813788406872 l 8.421994318111022 -3.941918592298728" fill="#ff740a" stroke="none" /><path d="M 80.9802524753101 108.90220220490708 l -10.027504105565557 4.693378239769032 a32.07152373834205,32.07152373834205 0 0,0 -0.22910603792957882,-0.5006380399329369 l 10.106594608350193 -4.520551217621406" fill="#ff8c0c" stroke="none" /><path d="M 80.83023694016515 108.57439118712176 l -11.862187774143038 5.3058057104369825 a33.994732510749664,33.994732510749664 0 0,0 -0.23369940783088095,-0.5347499798154614 l 11.951521063990887 -5.101393660845671" fill="#ffa60f" stroke="none" /><path d="M 80.68587082218212 108.24405325689762 l -15.465876518536492 6.601463027898332 a37.81584522393469,37.81584522393469 0 0,0 -0.24971811426514856,-0.5992325675488406 l 15.576920477338126 -6.33499795090821" fill="#ffd714" stroke="none" /><path d="M 80.5471966667186 107.91128576633889 l -6.411176075380904 2.6073694963993463 a27.921094881613044,27.921094881613044 0 0,0 -0.17675558809324757,-0.44553954729105044 l 6.454990338440276 -2.4969289318947308" fill="#ff5407" stroke="none" /><path d="M 80.41425534168474 107.57618678355246 l -11.303138831085157 4.37229691894146 a33.11932043400826,33.11932043400826 0 0,0 -0.20056006343444802,-0.5320093962288193 l 11.376529578334042 -4.177619242518496" fill="#ff9a0e" stroke="none" /><path d="M 80.16572619554312 106.89939002012753 l -11.447068187998509 3.9818845295081804 a33.119850432535216,33.119850432535216 0 0,0 -0.1821821695381216,-0.5385892125893804 l 11.513735779108998 -3.7847936424446385" fill="#ff9a0e" stroke="none" /><path d="M 80.05021161711548 106.5578916946017 l -11.06113482820619 3.636014720085704 a32.6434233253127,32.6434233253127 0 0,0 -0.17042242829876414,-0.5338458293444336 l 11.121921972282209 -3.4455998570498787" fill="#ff940d" stroke="none" /><path d="M 79.94057633289273 106.21446072829308 l -14.890136042770981 4.61300220845706 a36.58832706699013,36.58832706699013 0 0,0 -0.18071790134757237,-0.601551118274067 l 14.967130264122185 -4.35671348659227" fill="#ffc712" stroke="none" /><path d="M 79.83685265289637 105.86919833188381 l -21.349139122695185 6.214423252929167 a43.235215259734744,43.235215259734744 0 0,0 -0.20131450207510507,-0.7143941477845829 l 21.452672116844862 -5.847021181241589" fill="#e5ff1a" stroke="none" /><path d="M 79.73907114497094 105.5222062557868 l -12.034574261108725 3.2800767302398244 a33.47356729257518,33.47356729257518 0 0,0 -0.14634407583090708,-0.5556922926847909 l 12.089107817744365 -3.073003933182231" fill="#ff9f0e" stroke="none" /><path d="M 79.64726062577567 105.17358676015961 l -6.157489254463972 1.5652096898103147 a27.353310577322297,27.353310577322297 0 0,0 -0.11177405898133605,-0.456076303635003 l 6.183450839961601 -1.4592775615672122" fill="#ff4c07" stroke="none" /><path d="M 79.56144815229197 104.8234425847677 l -13.919363962787564 3.284931994754777 a35.30172966248183,35.30172966248183 0 0,0 -0.1341283140615999,-0.5909941000902313 l 13.973703138406831 -3.0455035607255194" fill="#ffb610" stroke="none" /><path d="M 79.48165901384964 104.47187691870673 l -11.789596182059583 2.569487615154251 a33.06635175769648,33.06635175769648 0 0,0 -0.11611373682377432,-0.5556462643476612 l 11.831967629707723 -2.366724899521181" fill="#ff990e" stroke="none" /><path d="M 79.407916724674 104.11899336999214 l -7.341382796076122 1.468482166631738 a28.486811152435855,28.486811152435855 0 0,0 -0.09180038722587319,-0.4803384171170431 l 7.365509475584152 -1.3422411844813804" fill="#ff5c08" stroke="none" /><path d="M 79.34024301695615 103.76489593502545 l -11.230395282906546 2.0465521246956366 a32.4153472925455,32.4153472925455 0 0,0 -0.0950621466220963,-0.548293199933846 l 11.263872247020878 -1.853465891841198" fill="#ff910d" stroke="none" /><path d="M 79.2786578344484 103.40968896794605 l -31.44095745851862 5.173597585111742 a52.86377124386019,52.86377124386019 0 0,0 -0.13965729278825356,-0.8967000030826368 l 31.525136243445143 -4.633109400097656" fill="#79ff26" stroke="none" /><path d="M 79.22317932658666 103.0534771498775 l -10.564842333154376 1.5526680026470845 a31.678327184107765,31.678327184107765 0 0,0 -0.07445234061399007,-0.5387000482908544 l 10.589939190323578 -1.3710796461561445" fill="#ff870c" stroke="none" /><path d="M 79.13060592940153 102.33845913500099 l -16.103788297018745 1.8044630679689624 a37.20456986404952,37.20456986404952 0 0,0 -0.06567068540995342,-0.6353043096979472 l 16.132391374910362 -1.5277542359880838" fill="#ffcf13" stroke="none" /><path d="M 79.0935383218832 101.97986365728391 l -12.42233201757306 1.176407757514071 a33.47791120207064,33.47791120207064 0 0,0 -0.049270521662034536,-0.5725981467433489 l 12.440696161932836 -0.9629885633950602" fill="#ff9f0e" stroke="none" /><path d="M 79.06263194458094 101.62068470465958 l -10.379037771798513 0.8034031651597278 a31.410085576699593,31.410085576699593 0 0,0 -0.03699814745875423,-0.5379449440730869 l 10.391299880422334 -0.6251147969322975" fill="#ff830c" stroke="none" /><path d="M 79.03789590574601 101.26102812881392 l -29.063685521790667 1.7483991494931164 a50.11622770373066,50.11622770373066 0 0,0 -0.044289406124462846,-0.8592026468046452 l 29.089416517371703 -1.2492247093117403" fill="#97ff23" stroke="none" /><path d="M 79.01933749520258 100.90099992219065 l -9.916890429919741 0.42587394481407737 a30.926030647540095,30.926030647540095 0 0,0 -0.01822472900992267,-0.5305931002003206 l 9.922739845926511 -0.25557458004963696" fill="#ff7d0b" stroke="none" /><path d="M 79.00696218219943 100.54070618675478 l -5.184659073533923 0.13353842648237313 a26.186378526498526,26.186378526498526 0 0,0 -0.007716961652117106,-0.44947432854657976 l 5.186187466784705 -0.04451718196674097" fill="#ff3b05" stroke="none" /><line stroke="#e1ed5e" stroke-width="0.3" x1="15.003131293944662" x2="10.003315487706104" y1="100.72959589197737" y2="100.7725132973878" /><path d="M 14.003168132696942 100.73817937305945 a86.0,86.0 0 0,1 10.791469493833604,-42.45332614584628" fill="none" id="id34" stroke="none" /><text fill="#e1ed5e" style="font-size:6.75px; font-family:Arial;" text-anchor="middle"><textPath startOffset="22.145653131862435" xlink:href="#id34">October</textPath></text><path d="M 79.00077361379809 100.18025310272382 l -20.807786193197625 0.17860981891229286 a41.80855275431806,41.80855275431806 0 0,0 0.0,-0.7177258432722131 l 20.807786193197625 0.1786098189122852" fill="#f6ff19" stroke="none" /><path d="M 79.00696218219943 99.45929381324524 l -12.698886733529648 -0.3270782762033259 a33.70309822325953,33.70309822325953 0 0,0 0.01986125665184427,-0.5782388168866629 l 12.691400789880953 0.5450233576541273" fill="#ffa20e" stroke="none" /><path d="M 79.03789590574601 98.7389718711861 l -16.115805209026057 -0.9694868223003569 a37.144939833702864,37.144939833702864 0 0,0 0.0437532702022783,-0.6361629462182471 l 16.096787977658717 1.245993192672929" fill="#ffce13" stroke="none" /><path d="M 79.06263194458094 98.37931529534042 l -23.412079949230286 -1.8122430564124437 a44.482114735361165,44.482114735361165 0 0,0 0.06546576291492154,-0.760811399102944 l 23.377520563617622 2.2138755028910686" fill="#d7ff1c" stroke="none" /><path d="M 79.0935383218832 98.0201363427161 l -13.046724111174969 -1.235538337956179 a34.105096909892495,34.105096909892495 0 0,0 0.06019973079193895,-0.5823777866185931 l 13.023591987901368 1.459320646857685" fill="#ffa70f" stroke="none" /><path d="M 79.17382384314186 97.30363454192245 l -13.624037052940004 -1.7639043592272257 a34.7377488770316,34.7377488770316 0 0,0 0.08164278045760377,-0.590726489085618 l 13.591749755927193 1.9975191565129107" fill="#ffaf10" stroke="none" /><path d="M 79.22317932658666 96.9465228501225 l -13.380615359882926 -1.9664896711066415 a34.52434652897152,34.52434652897152 0 0,0 0.09120758239660584,-0.5856181068911228 l 13.344886285348053 2.1958959599292145" fill="#ffac10" stroke="none" /><path d="M 79.2786578344484 96.59031103205396 l -12.183758753265296 -2.004832866385843 a33.347604309335054,33.347604309335054 0 0,0 0.09779610940891202,-0.5640619707658608 l 12.14754782636415 2.2136878700722966" fill="#ff9d0e" stroke="none" /><path d="M 79.34024301695615 96.23510406497455 l -5.787432116899816 -1.0546629212064238 a26.882744630280254,26.882744630280254 0 0,0 0.086631190607759,-0.45329099611650836 l 5.768474634009898 1.1538564823562467" fill="#ff4506" stroke="none" /><path d="M 79.407916724674 95.88100663000787 l -15.319106879636784 -3.064250412537525 a36.622569128682755,36.622569128682755 0 0,0 0.12860152776390193,-0.6154048646273806 l 15.264247641048517 3.326771728450315" fill="#ffc712" stroke="none" /><path d="M 79.64726062577567 94.8264132398404 l -11.229608701828338 -2.854522618961521 a32.58673426718425,32.58673426718425 0 0,0 0.14246690437850595,-0.5409700411601843 l 11.178952316645107 3.0468731644944897" fill="#ff930d" stroke="none" /><path d="M 79.73907114497095 94.47779374421319 l -9.52929050797492 -2.597250502821211 a30.876896666452776,30.876896666452776 0 0,0 0.14377092933824112,-0.5101923084630753 l 9.483301086562097 2.7604507351872996" fill="#ff7c0b" stroke="none" /><path d="M 79.83685265289637 94.1308016681162 l -9.504983281359035 -2.766762106092995 a30.89947876055234,30.89947876055234 0 0,0 0.15261941176257965,-0.5080203849840877 l 9.456087549592826 2.9295200946678066" fill="#ff7c0b" stroke="none" /><path d="M 80.05021161711548 93.44210830539832 l -41.66351439403039 -13.695624723866082 a64.85679614653297,64.85679614653297 0 0,0 0.35675740309684856,-1.0546898706196026 l 41.42227156936118 14.408816268959846" fill="#35ff67" stroke="none" /><path d="M 80.41425534168474 92.42381321644754 l -11.679760864573613 -4.517982412257559 a33.523137743037644,33.523137743037644 0 0,0 0.21221954051677688,-0.5349318741667078 l 11.600482649090704 4.717815303637849" fill="#ff9f0e" stroke="none" /><path d="M 80.5471966667186 92.08871423366112 l -11.741385396285649 -4.775119224271965 a33.67524732027433,33.67524732027433 0 0,0 0.22237554676972654,-0.5336203592720236 l 11.657684004979444 4.975972092985252" fill="#ffa10e" stroke="none" /><path d="M 80.68587082218212 91.75594674310238 l -11.522354371614348 -4.918207919699117 a33.52810518021187,33.52810518021187 0 0,0 0.2304915422949362,-0.5274097556937251 l 11.436228947302435 5.115279745168708" fill="#ff9f0e" stroke="none" /><path d="M 80.83023694016515 91.42560881287825 l -14.657026751686276 -6.5559016361754185 a37.056409295445064,37.056409295445064 0 0,0 0.2647160510003148,-0.5784523450766457 l 14.542326235830915 6.806542963466735" fill="#ffcd13" stroke="none" /><path d="M 81.1358732173502 90.77261029715801 l -9.672190229329761 -4.731152920798471 a31.767314975996662,31.767314975996662 0 0,0 0.24382183737433366,-0.48780700452240505 l 9.589548478743684 4.896491781484646" fill="#ff880c" stroke="none" /><path d="M 81.29705330413844 90.45014215332179 l -12.539772254216683 -6.402897062417817 a35.07987851437438,35.07987851437438 0 0,0 0.2784539376040753,-0.533972140883713 l 12.428010247637667 6.617215446406016" fill="#ffb410" stroke="none" /><path d="M 81.46374523516351 90.13048839642627 l -9.723872765563803 -5.177414548351082 a32.01632075451468,32.01632075451468 0 0,0 0.262464690766489,-0.4829054689961307 l 9.633562725181964 5.343574850821832" fill="#ff8b0c" stroke="none" /><line stroke="#e1ed5e" stroke-width="0.3" x1="26.387840678322718" x2="22.05771365940052" y1="57.49999999999999" y2="54.99999999999999" /><path d="M 25.521815274538284 56.99999999999999 a86.0,86.0 0 0,1 29.574782752854787,-30.34633250058573" fill="none" id="id35" stroke="none" /><text fill="#e1ed5e" style="font-size:6.75px; font-family:Arial;" text-anchor="middle"><textPath startOffset="21.40746469413373" xlink:href="#id35">November</textPath></text><path d="M 81.99639281039701 89.18935116829357 l -18.844020689897448 -11.315292991592086 a42.98028596826838,42.98028596826838 0 0,0 0.38525079600459367,-0.629278222552173 l 18.64700192943746 11.637108330268802" fill="#e8ff1a" stroke="none" /><path d="M 82.37810715431573 88.57770195909679 l -9.329513877722231 -6.047278179550638 a32.117976550410646,32.117976550410646 0 0,0 0.3038598577087478,-0.4600825530189388 l 9.224329581092755 6.206540610908638" fill="#ff8d0d" stroke="none" /><path d="M 82.576782715395 88.27688183743585 l -10.451350635538805 -7.032135136549727 a33.596890675308515,33.596890675308515 0 0,0 0.3260662443200844,-0.47574039507077126 l 10.329094654403407 7.210510266690534" fill="#ffa00e" stroke="none" /><path d="M 82.78059297857968 87.97951657250589 l -10.314506271835526 -7.200326442667267 a33.57909935220753,33.57909935220753 0 0,0 0.3340079456970543,-0.46982400458391266 l 10.1893832276085 7.3763276739606995" fill="#ffa00e" stroke="none" /><path d="M 82.98947788004972 87.6856937992154 l -10.203020196515578 -7.38619978779637 a33.5959345995344,33.5959345995344 0 0,0 0.34219536004926265,-0.46425372642860857 l 10.074722816882495 7.560259823493841" fill="#ffa00e" stroke="none" /><path d="M 83.2033758604659 87.39550010848427 l -9.94365038751656 -7.461900628931935 a33.43206113342486,33.43206113342486 0 0,0 0.34840668914380785,-0.45607554009421336 l 9.814091721018444 7.631497082267033" fill="#ff9e0e" stroke="none" /><path d="M 83.64595745247003 86.82634096563983 l -17.095400437185194 -13.770844472294945 a42.95196741952411,42.95196741952411 0 0,0 0.4674670844614749,-0.5702338339582854 l 16.85648653348509 14.062280587951724" fill="#e9ff1a" stroke="none" /><path d="M 83.8745106332314 86.54754324733833 l -9.702599282491795 -8.094253406356176 a33.63555978352043,33.63555978352043 0 0,0 0.3736837598560371,-0.4401985294959625 l 9.562220959128643 8.259618718301693" fill="#ffa10e" stroke="none" /><path d="M 84.10781606972428 86.27271002978789 l -9.558902158027912 -8.256752016955733 a33.631174305513056,33.631174305513056 0 0,0 0.3811355900377225,-0.43366233736766713 l 9.415755504031598 8.419626632134701" fill="#ffa10e" stroke="none" /><path d="M 84.58840730492382 85.73525988315684 l -9.578682018484288 -8.865885074889833 a34.05201392017295,34.05201392017295 0 0,0 0.400750313804858,-0.4255829456875132 l 9.425075870943159 9.029009480521857" fill="#ffa60f" stroke="none" /><path d="M 84.83555147118756 85.47280134310135 l -6.959183678495962 -6.666740540895531 a30.63720223460443,30.63720223460443 0 0,0 0.3670821170494573,-0.37665859026222326 l 6.843714760295702 6.785221823225484" fill="#ff790b" stroke="none" /><path d="M 85.08716467003674 85.21462403516908 l -4.464625093550023 -4.426466134010357 a27.287008800812764,27.287008800812764 0 0,0 0.3326521299282147,-0.3298089664148759 l 4.387981043491831 4.502455110653906" fill="#ff4b07" stroke="none" /><path d="M 85.34317274990677 84.96080404539775 l -30.761090538686325 -31.56358879686067 a65.07385652364184,65.07385652364184 0 0,0 0.8066912049503706,-0.7727919262491486 l 30.214726847870654 32.08699285341539" fill="#35ff6a" stroke="none" /><path d="M 86.13680546590413 84.22622945171909 l -6.962440416067029 -7.921979115925409 a31.54672127537473,31.54672127537473 0 0,0 0.40983775762495933,-0.3540080938115429 l 6.8254231786792205 8.040331342201663" fill="#ff850c" stroke="none" /><path d="M 86.40962598614128 83.9905735841838 l -7.576452695375141 -8.925042224432598 a32.70722059897916,32.70722059897916 0 0,0 0.4311522914297968,-0.35968257597335995 l 7.4221260697834355 9.05378698431784" fill="#ff950d" stroke="none" /><path d="M 86.68645165197937 83.75963576809568 l -7.971307542614013 -9.72369908551273 a33.57346681884261,33.57346681884261 0 0,0 0.44884404504256137,-0.36155699068342684 l 7.803212727216206 9.859104369989556" fill="#ffa00e" stroke="none" /><path d="M 86.96720088162412 83.53348406188908 l -8.61841070779372 -10.889080388032276 a34.88701101120189,34.88701101120189 0 0,0 0.47278554262803696,-0.36764089756535145 l 8.430215220530439 11.035422337218431" fill="#ffb110" stroke="none" /><path d="M 87.25179093698888 83.31218511350988 l -13.473307126206153 -17.636991527172935 a43.19444694167096,43.19444694167096 0 0,0 0.5930947462516151,-0.4450693545729649 l 13.168559391043786 17.865679909009902" fill="#e6ff1a" stroke="none" /><path d="M 88.12776184653039 82.6780497279521 l -11.369900470338125 -16.589024579815536 a41.11144880944978,41.11144880944978 0 0,0 0.5855517590770019,-0.39398535585172506 l 11.083452423164134 16.781759609724368" fill="#ffff18" stroke="none" /><path d="M 88.4268655584334 82.4767994020092 l -9.598267347253303 -14.533000110581735 a38.416510221152734,38.416510221152734 0 0,0 0.5534069666877866,-0.35871170973373595 l 9.347374748308491 14.695625662019378" fill="#ffde14" stroke="none" /><path d="M 89.03521579738668 82.08984904055464 l -9.77362468344549 -15.964481403997876 a39.71866464124642,39.71866464124642 0 0,0 0.584558961613797,-0.35101086070591414 l 9.498132965274259 16.129906265239715" fill="#ffee16" stroke="none" /><line stroke="#e1ed5e" stroke-width="0.3" x1="56.869717070023135" x2="54.33264160355391" y1="26.7553504044142" y2="22.446841604673864" /><path d="M 56.362301976729285 25.89364864446614 a86.0,86.0 0 0,1 42.16139366436587,-11.88097634709845" fill="none" id="id36" stroke="none" /><text fill="#e1ed5e" style="font-size:6.75px; font-family:Arial;" text-anchor="middle"><textPath startOffset="22.145653131862474" xlink:href="#id36">December</textPath></text><path d="M 89.34428304082924 81.90426304109057 l -14.658410730150797 -24.8931860544752 a49.88840108203496,49.88840108203496 0 0,0 0.7416921230577476,-0.4282161469032133 l 14.228926139232648 25.14114909865459" fill="#99ff23" stroke="none" /><path d="M 89.97174638481275 81.54914285379989 l -6.05254800714643 -11.136006620459971 a33.674540655571725,33.674540655571725 0 0,0 0.510267402850145,-0.27168865109193496 l 5.860491788509723 11.238265739274484" fill="#ffa10e" stroke="none" /><path d="M 90.28995756902619 81.37971332152246 l -7.765764635897433 -14.891877643781926 a37.79509214435953,37.79509214435953 0 0,0 0.5778559638276511,-0.2950573725171564 l 7.5089814503562 15.022992967971916" fill="#ffd614" stroke="none" /><path d="M 90.61103034731259 81.2157712731953 l -4.229152229512133 -8.461137455790315 a30.459205866570684,30.459205866570684 0 0,0 0.4697096016907648,-0.229758503635257 l 4.083282378559315 8.532489709522787" fill="#ff760a" stroke="none" /><path d="M 90.93487009805054 81.0573650232925 l -5.45139559867422 -11.39132015274361 a33.62853470500625,33.62853470500625 0 0,0 0.5228617198641776,-0.2447256857323732 l 5.25504516493852 11.483222070046526" fill="#ffa10e" stroke="none" /><path d="M 91.26138138417902 80.90454125486306 l -5.422802432523219 -11.849801975085622 a34.031676525716975,34.031676525716975 0 0,0 0.5333032677603103,-0.238539768325476 l 5.218585761907289 11.941145494320944" fill="#ffa60f" stroke="none" /><path d="M 91.5904679813234 80.7573450057729 l -12.54883447885586 -28.71418907972544 a52.33652663081767,52.33652663081767 0 0,0 0.8263312627708471,-0.35271167938268616 l 12.054068140914582 28.92537540876753" fill="#7fff26" stroke="none" /><path d="M 92.25597844496254 80.48000691201159 l -4.695326770400289 -11.83529067586862 a33.7326430431054,33.7326430431054 0 0,0 0.5400881071665102,-0.20891768226599217 l 4.491466400740249 11.914148246272653" fill="#ffa20f" stroke="none" /><path d="M 92.592206182469 80.34994680014964 l -6.106315037820027 -16.19772611168625 a38.31050012363333,38.31050012363333 0 0,0 0.6173661355901632,-0.22670539640072235 l 5.827359750575737 16.300162357095697" fill="#ffdd14" stroke="none" /><path d="M 93.27111125876988 80.10723608172694 l -4.163085484300121 -12.307422502520385 a33.992456634722146,33.992456634722146 0 0,0 0.5543639756612782,-0.1822304498675486 l 3.9511987709910814 12.377073873789962" fill="#ffa50f" stroke="none" /><path d="M 93.61358852112211 79.99465700312896 l -7.466069521958665 -23.38735643941176 a45.550165688459515,45.550165688459515 0 0,0 0.7469345823367115,-0.23140224293417513 l 7.0634943067503375 23.512075270152575" fill="#caff1d" stroke="none" /><path d="M 93.95794788825049 79.88797359093562 l -18.126156335248517 -60.33607922719316 a84.0,84.0 0 0,0 1.3845599504735029,-0.4030252227899176 l 17.08773637239339 60.638348144285594" fill="#4dd2ff" stroke="none" /><path d="M 94.6519064749342 79.69241777938228 l -6.493363514229241 -24.656358912860817 a46.49705482144427,46.49705482144427 0 0,0 0.7736107064391448,-0.19664881639569712 l 6.069147514564718 24.764192961091776" fill="#bfff1e" stroke="none" /><path d="M 95.00130118170881 79.60360301121753 l -8.215226425978052 -33.52092727088244 a55.51293250840731,55.51293250840731 0 0,0 0.9275096699431825,-0.21888975662869375 l 7.638584602294963 33.65701317115737" fill="#5dff2a" stroke="none" /><path d="M 95.35216902796891 79.52079915486377 l -2.1750334694323157 -9.583598786926775 a30.82731582386234,30.82731582386234 0 0,0 0.5170732965674515,-0.11269371835473303 l 2.010197756245746 9.61952396341522" fill="#ff7b0b" stroke="none" /><path d="M 96.05791012581881 79.37332000966035 l -5.426587916889324 -28.394201038952588 a49.908104556684194,49.908104556684194 0 0,0 0.8428891047885252,-0.1536024730058594 l 4.9383640785497604 28.483171685889808" fill="#99ff23" stroke="none" /><path d="M 96.41257539226777 79.30868818359171 l -6.604351463990611 -38.09214420619328 a59.66043078504609,59.66043078504609 0 0,0 1.0105979717993294,-0.16629351168195053 l 5.949475989138208 38.1999037163709" fill="#34ff2f" stroke="none" /><path d="M 97.12497278360702 79.19773525538626 l -3.551318749454294 -25.69557338359501 a46.93982182614102,46.93982182614102 0 0,0 0.7991441590161897,-0.10346521080809248 l 3.1096967685473103 25.7527501906035" fill="#baff1f" stroke="none" /><path d="M 97.48249496171623 79.15144685158666 l -1.6918556462239183 -14.01099176500101 a35.112769599429654,35.112769599429654 0 0,0 0.5990307020399299,-0.06712263962205034 l 1.451089042583189 14.037970165130032" fill="#ffb410" stroke="none" /><path d="M 98.5590905019552 79.04949213459386 l -4.286590961070102 -62.3260917965614 a83.47332695399635,83.47332695399635 0 0,0 1.4303975309851125,-0.08604916347365119 l 3.216049077952506 62.39049293785975" fill="#4cd7ff" stroke="none" /><path d="M 99.27912038922189 79.0123766808444 l -0.43189841137296775 -12.5742510046211 a33.58166620781847,33.58166620781847 0 0,0 0.5763040663151519,-0.01484354845701953 l 0.215981030987072 12.579812270428164" fill="#ffa00e" stroke="none" /><path d="M 99.63950707515114 79.00309439819443 l -0.2795252216132554 -16.28094280629238 a37.28334219413452,37.28334219413452 0 0,0 0.6400181464621035,-0.005493786036572799 l 3.988268579493576e-15 16.28334219413452" fill="#ffd013" stroke="none" /></svg>