<?xml version="1.0" encoding="utf-8" ?>
<svg baseProfile="full" height="200mm" version="1.1" viewBox="0,0,200,200" width="200mm" xmlns="http://www.w3.org/2000/svg" xmlns:ev="http://www.w3.org/2001/xml-events" xmlns:xlink="http://www.w3.org/1999/xlink"><defs /><rect fill="#1a1a1a" height="200" width="200" x="0" y="0" /><text alignment-baseline="middle" fill="#e1ed5e" style="dominant-baseline: central; font-size:9.0px; font-family:Arial;" text-anchor="middle" x="100.0" y="100.0">2025</text><line stroke="#e1ed5e" stroke-width="0.3" x1="100.0" x2="100.0" y1="15.0" y2="10.0" /><path d="M 100.0 14.0 a86.0,86.0 0 0,1 42.46469731375804,11.215312516191453" fill="none" id="id37" stroke="none" /><text fill="#e1ed5e" style="font-size:6.75px; font-family:Arial;" text-anchor="middle"><textPath startOffset="22.20632615414155" xlink:href="#id37">January</textPath></text><path d="M 100.0 79.0 l 0.0 -10.530647799770978 a31.53064779977098,31.53064779977098 0 0,0 0.5427482704016431,0.0046716057150912186 l -0.18126779112911476 10.529087570664446" fill="#ff3204" stroke="none" /><path d="M 101.44485096284872 79.0497635885617 l 3.4520103274347944 -50.0539047376181 a71.17279895305089,71.17279895305089 0 0,0 1.2214940472962492,0.09481144714403454 l -4.313094564093385 49.9870680282856" fill="#3bff9e" stroke="none" /><path d="M 102.16513564639614 79.11191278185805 l 1.5811308979630636 -15.253917303021947 a36.33564371012596,36.33564371012596 0 0,0 0.6215701461945078,0.06984064825672356 l -1.8434677476672967 15.224440701294622" fill="#ff7c0b" stroke="none" /><path d="M 103.2404852339499 79.25152402106235 l 2.524147995203275 -16.161846225085565 a37.357768689677734,37.357768689677734 0 0,0 0.6344964293060776,0.10469734741069599 l -2.8019736306482277 16.116002614735244" fill="#ff8c0c" stroke="none" /><path d="M 103.59715602781102 79.31037775812273 l 3.123911991781836 -17.96768294929017 a39.23722722067725,39.23722722067725 0 0,0 0.664426163526995,0.12141963447940049 l -3.4327332764117315 17.911247833460035" fill="#ffa70f" stroke="none" /><path d="M 103.95276090670814 79.375362276772 l 4.179629670216019 -21.80838907285459 a43.205295272370364,43.205295272370364 0 0,0 0.7292099015913934,0.1462726462086489 l -4.554405981274538 21.733212470568734" fill="#ffe015" stroke="none" /><path d="M 104.66035177308747 79.52364482259891 l 3.9254318002483544 -17.247310864110936 a38.688378864714544,38.688378864714544 0 0,0 0.6480788225917291,0.1533793187204907 l -4.221734309802607 17.17718563324958" fill="#ff9f0e" stroke="none" /><path d="M 105.01212808612495 79.60689891045804 l 4.21927105693048 -17.167163270698737 a38.67805823654507,38.67805823654507 0 0,0 0.6451704763421282,0.16446831973950082 l -4.514150421957633 17.09199195479037" fill="#ff9f0e" stroke="none" /><path d="M 105.36241919743992 79.69619591428918 l 4.567963841876882 -17.295746472106757 a38.88879928022247,38.88879928022247 0 0,0 0.6457431616461433,0.1765059991671403 l -4.865004892746736 17.214553932113326" fill="#ffa20f" stroke="none" /><path d="M 105.71112130821622 79.79150937346287 l 6.191490259924092 -21.9082499091674 a43.76633404220513,43.76633404220513 0 0,0 0.7232069546204458,0.21112394169417212 l -6.567687432267965 21.79842763855452" fill="#ffe715" stroke="none" /><path d="M 106.0581310904928 79.89281104454417 l 4.46119323777022 -14.806885829760231 a36.46434974644201,36.46434974644201 0 0,0 0.5994298527173331,0.18624577311428406 l -4.715408463198271 14.727899921763427" fill="#ff7e0b" stroke="none" /><path d="M 106.40334571778207 80.00007090966166 l 12.166753416008412 -38.00110384545719 a60.90130050711598,60.90130050711598 0 0,0 0.9956410767556898,0.32824720915093075 l -12.819077315006519 37.78604291204702" fill="#42ff2d" stroke="none" /><path d="M 107.08798089147638 80.2323363322302 l 6.658728289732636 -18.57052146469339 a40.72822672991984,40.72822672991984 0 0,0 0.6578921117490758,0.2423072169371087 l -6.9774027272542885 18.453150979949957" fill="#ffbd11" stroke="none" /><path d="M 107.4271985657038 80.35727306442388 l 8.264820840066939 -21.857988243715408 a44.36833142483232,44.36833142483232 0 0,0 0.7120416490972763,0.27626109761900747 l -8.639845654163882 21.712484442205852" fill="#fff016" stroke="none" /><path d="M 107.76421540070413 80.48803036053334 l 5.981203823396728 -15.031147564375262 a37.17745951251432,37.17745951251432 0 0,0 0.5925664469791994,0.24172273218021736 l -6.239054139964315 14.925963946011464" fill="#ff890c" stroke="none" /><path d="M 108.09893153111575 80.62456947434976 l 9.459062204903624 -22.629331027776388 a45.52672991984295,45.52672991984295 0 0,0 0.7204415146217824,0.30845545825265663 l -9.847187477315721 22.46315604156094" fill="#ffff18" stroke="none" /><path d="M 108.43124777332544 80.76684994638697 l 7.329203634761573 -16.719194723091004 a39.25510060526746,39.25510060526746 0 0,0 0.6165254343334632,0.2766169911003711 l -7.6159111875618155 16.5905574014741" fill="#ffa70f" stroke="none" /><path d="M 110.05341064243156 81.56283822128135 l 7.950887268023604 -14.581299825374515 a37.608158023883526,37.608158023883526 0 0,0 0.5656910082912886,0.31480643365344263 l -8.200702365386928 14.442277994160893" fill="#ff8f0d" stroke="none" /><line stroke="#e1ed5e" stroke-width="0.3" x1="143.23703022742887" x2="145.7803849466894" y1="26.81831364943548" y2="22.513508569990506" /><path d="M 143.74570117128098 25.957352633546492 a86.0,86.0 0 0,1 28.547481713284135,27.462654790039103" fill="none" id="id38" stroke="none" /><text fill="#e1ed5e" style="font-size:6.75px; font-family:Arial;" text-anchor="middle"><textPath startOffset="19.985693538727396" xlink:href="#id38">February</textPath></text><path d="M 110.68208982089419 81.91981866633111 l 11.489558553935312 -19.44687842753672 a43.58740880091608,43.58740880091608 0 0,0 0.642681676192515,0.38720851889163416 l -11.822602296345465 19.24622329918647" fill="#ffe515" stroke="none" /><path d="M 111.90073688211348 82.69761687909136 l 11.475009719929064 -16.683421913879275 a41.24876329134631,41.24876329134631 0 0,0 0.5815463972025063,0.407410415422276 l -11.760487256715221 16.483426655693062" fill="#ffc412" stroke="none" /><path d="M 112.48926042617603 83.11751280151076 l 9.062262936619488 -12.250007830420888 a36.23769344020939,36.23769344020939 0 0,0 0.4982749218945275,0.3752903408484915 l -9.271784012272398 12.092200900066548" fill="#ff7b0b" stroke="none" /><path d="M 113.06298171725822 83.55741782278167 l 17.126093797411194 -21.55688576572446 a48.53184361197448,48.53184361197448 0 0,0 0.6496255381297922,0.5252853400729809 l -17.494622734105477 21.25889432838735" fill="#d7ff1c" stroke="none" /><path d="M 113.34407831869373 83.78471172551755 l 11.357999475964426 -13.801870112391006 a38.87444462620644,38.87444462620644 0 0,0 0.5130361587168217,0.4296530287952654 l -11.593893171640365 13.60431592620192" fill="#ffa20f" stroke="none" /><path d="M 113.6212207817346 84.01681056812373 l 9.715937108175769 -11.400715530314871 a35.979177163422214,35.979177163422214 0 0,0 0.4679112572817777,0.40576803144066254 l -9.91074216410431 11.231782505454536" fill="#ff770a" stroke="none" /><path d="M 114.16331599549186 84.49514656593476 l 12.408155087176223 -13.583445153313987 a39.39761655488304,39.39761655488304 0 0,0 0.4967703933812693,0.46169394065459696 l -12.640133364352337 13.367846626584749" fill="#ffaa0f" stroke="none" /><path d="M 114.42810811169701 84.74124197986012 l 11.21529404630861 -11.860976966106914 a37.323773924423364,37.323773924423364 0 0,0 0.46302231042543707,0.44542709577717465 l -11.417799600346466 11.666166783567437" fill="#ff8b0c" stroke="none" /><path d="M 114.68862486808459 84.99185889309783 l 15.877524382395068 -16.222902313818746 a43.69974317029282,43.69974317029282 0 0,0 0.5330623686719796,0.5307732294542392 l -16.15442255123437 15.947193233714389" fill="#ffe615" stroke="none" /><path d="M 114.94478906791727 85.2469230424477 l 22.674700153752184 -22.38382855973948 a52.86185506298053,52.86185506298053 0 0,0 0.6336770479189969,0.6530598996656007 l -23.05664146537429 21.990204464523767" fill="#a0ff22" stroke="none" /><path d="M 115.68641384162765 86.03803664274999 l 12.177490159263145 -10.838785276448046 a37.302470145591364,37.302470145591364 0 0,0 0.42277578110929304,0.48330580199139866 l -12.362257803950287 10.6275639182537" fill="#ff8b0c" stroke="none" /><path d="M 115.9244219780498 86.31012108654704 l 13.673999083113417 -11.755239340462044 a39.03230165221659,39.03230165221659 0 0,0 0.4336105574586376,0.5132581322207928 l -13.874320254059173 11.518122258612145" fill="#ffa40f" stroke="none" /><path d="M 116.15771136456269 86.58626213691792 l 13.72897221742621 -11.39745786386474 a38.843394405365615,38.843394405365615 0 0,0 0.42265591402365843,0.5181261751951923 l -13.923126623526276 11.159447519061446" fill="#ffa10e" stroke="none" /><path d="M 116.38621287248628 86.86637796730983 l 16.231575671154992 -13.009679632436825 a41.80182234582038,41.80182234582038 0 0,0 0.44518128530375134,0.5653350234684206 l -16.453111037052707 12.728352215015367" fill="#ffcc13" stroke="none" /><path d="M 116.60985879189232 87.15038557335679 l 34.983236570400166 -27.063511313239374 a65.22963356780632,65.22963356780632 0 0,0 0.6793947748401924,0.8940038859293443 l -35.44390728546447 26.457322651428996" fill="#33ff53" stroke="none" /><path d="M 117.04232023915458 87.72973835380427 l 17.917376534017013 -12.900291450966341 a43.07826762637003,43.07826762637003 0 0,0 0.4280900387778269,0.6055030007104408 l -18.136779192598723 12.589961949924106" fill="#ffde14" stroke="none" /><path d="M 117.2510076193507 88.02491185347247 l 13.418414336767123 -9.314626601240992 a37.33450678881073,37.33450678881073 0 0,0 0.3619234365964974,0.531077984198951 l -13.576762239032353 9.082270593771634" fill="#ff8b0c" stroke="none" /><path d="M 117.45458315368197 88.32363383020206 l 14.963518693409108 -10.009951077863745 a39.002944544413545,39.002944544413545 0 0,0 0.36849121088380543,0.5612373949048716 l -15.13360653965084 9.7508956189812" fill="#ffa40f" stroke="none" /><path d="M 117.65298651832404 88.62581576622439 l 13.115990353422477 -8.450903790890921 a36.60278750204482,36.60278750204482 0 0,0 0.3366975450413566,0.5325746581650881 l -13.25951549470979 8.223881485011626" fill="#ff800b" stroke="none" /><line stroke="#e1ed5e" stroke-width="0.3" x1="172.23445277983987" x2="176.4835382374775" y1="55.19839476539836" y2="52.563006222186495" /><path d="M 173.08426987136738 54.67131705675599 a86.0,86.0 0 0,1 12.851231095245387,41.99856678651699" fill="none" id="id39" stroke="none" /><text fill="#e1ed5e" style="font-size:6.75px; font-family:Arial;" text-anchor="middle"><textPath startOffset="22.20632615414155" xlink:href="#id39">March</textPath></text><path d="M 117.84615892207809 88.93136811851018 l 15.167400046042147 -9.407198963203186 a38.84784066743006,38.84784066743006 0 0,0 0.3475664539097173,0.5713078637818536 l -15.327082298238087 9.144723326214251" fill="#ffa10e" stroke="none" /><path d="M 118.03404312379186 89.2402003453031 l 15.347261073792929 -9.156762755240608 a38.87133813185015,38.87133813185015 0 0,0 0.3378850817315193,0.5775551317376344 l -15.502605829994776 8.891228211149079" fill="#ffa20f" stroke="none" /><path d="M 118.3937258080291 89.86733742301442 l 15.63091864187846 -8.610698344613363 a38.84572059545231,38.84572059545231 0 0,0 0.3175950288696017,0.5884553541698736 l -15.776821769966526 8.34036200711103" fill="#ffa10e" stroke="none" /><path d="M 118.56541770881063 90.18545643968196 l 15.184547155616508 -8.02725809028129 a38.175777850482575,38.175777850482575 0 0,0 0.3021168647869131,0.5835936209016307 l -15.320473453563537 7.764691747119315" fill="#ff980e" stroke="none" /><path d="M 118.89224826269711 90.83032412892265 l 12.437837537616668 -6.036917214467165 a34.82548993947326,34.82548993947326 0 0,0 0.2571146124076992,0.5415489461318596 l -12.539910343866124 5.821925852694765" fill="#ff6509" stroke="none" /><path d="M 119.196687751892 91.48605970444005 l 28.82023930900412 -12.782090324745061 a52.52757565843285,52.52757565843285 0 0,0 0.359461933883727,0.829687703747339 l -29.035991952730527 12.28410347641112" fill="#a4ff21" stroke="none" /><path d="M 119.47837535516314 92.15188598940014 l 16.571071586709685 -6.676720040505669 a38.86558154752168,38.86558154752168 0 0,0 0.24468002705624423,0.6226839803317956 l -16.683545163647633 6.390487055278088" fill="#ffa20e" stroke="none" /><path d="M 119.7369772167798 92.82701384747503 l 15.576331462694808 -5.660887615255504 a37.57310322264027,37.57310322264027 0 0,0 0.2156819922811572,0.6097620362282677 l -15.671466535785774 5.391927952600621" fill="#ff8f0d" stroke="none" /><path d="M 119.85752413597 93.16781622104841 l 16.931134572665616 -5.825329592679446 a38.905244560772125,38.905244560772125 0 0,0 0.21242764894329785,0.6351316320389537 l -17.028899515380683 5.533024857718178" fill="#ffa20f" stroke="none" /><path d="M 119.97218684219823 93.5106431181261 l 18.275594120098003 -5.938100489978133 a40.216096842794045,40.216096842794045 0 0,0 0.2082514283762195,0.6602139377872503 l -18.37510103224243 5.622636385764463" fill="#ffb510" stroke="none" /><path d="M 120.08093135843002 93.85539295169968 l 29.76028660133104 -9.106413619267162 a52.12236217896287,52.12236217896287 0 0,0 0.255136736219306,0.8601942392658398 l -29.912629234662045 8.592789993254792" fill="#a9ff21" stroke="none" /><path d="M 120.28053869075195 94.5502522615342 l 16.484721010066004 -4.429742839366161 a38.06952396531981,38.06952396531981 0 0,0 0.16461202000011707,0.6343172625294812 l -16.558529361936426 4.145329151287829" fill="#ff960d" stroke="none" /><path d="M 120.37134235888165 94.90015583598534 l 18.103839761247723 -4.532188401045758 a39.662522493047604,39.662522493047604 0 0,0 0.1600990936346623,0.6637141025570437 l -18.179171655143207 4.2198890668293085" fill="#ffad10" stroke="none" /><path d="M 120.45610955862082 95.25157060432595 l 17.21112646208375 -3.9951789753091296 a38.6687387534762,38.6687387534762 0 0,0 0.14492603749763852,0.6496750089617009 l -17.277346886583427 3.6983257967974645" fill="#ff9f0e" stroke="none" /><path d="M 120.6074358757038 95.95851677861258 l 7.531483014188303 -1.4770572339809307 a28.674955013904793,28.674955013904793 0 0,0 0.09082351784129658,0.48518286401024646 l -7.555792255939458 1.3471962925081216" fill="#ff0400" stroke="none" /><path d="M 120.67395015179393 96.31383870115 l 62.02185045538181 -11.058483896549978 a84.0,84.0 0 0,0 0.2415525539191079,1.4256568467366484 l -62.20301487082114 9.98924126149749" fill="#4dd2ff" stroke="none" /><path d="M 120.78858239683441 97.02765380044208 l 16.132515146915942 -2.3066228938028925 a37.29658105676427,37.29658105676427 0 0,0 0.08539851612728294,0.6363181379208159 l -16.169829662101062 2.028586413817412" fill="#ff8b0c" stroke="none" /><path d="M 120.83666639777658 97.38593545837742 l 15.065448848608572 -1.890036289249162 a36.183543268444296,36.183543268444296 0 0,0 0.07221140597427939,0.618663227625169 l -15.09575060758644 1.6304293232991403" fill="#ff7a0b" stroke="none" /><path d="M 120.91429891909075 98.10471618934814 l 18.59662451385769 -1.6852528267975229 a39.672828398495014,39.672828398495014 0 0,0 0.05577908270505585,0.6806460922372456 l -18.622878080382243 1.3648928173525086" fill="#ffad10" stroke="none" /><path d="M 120.96714384426684 98.82574320788733 l 31.288284222749173 -1.7522882723085333 a52.33731392115165,52.33731392115165 0 0,0 0.04263345694960471,0.8999248936244437 l -31.313811287932275 1.21345227206109" fill="#a6ff21" stroke="none" /><line stroke="#e1ed5e" stroke-width="0.3" x1="184.98032266829074" x2="189.97916517819016" y1="98.17113171792111" y2="98.06355123074" /><path d="M 185.9800911702706 98.14961562048488 a86.0,86.0 0 0,1 -9.607161424134198,41.387399972396054" fill="none" id="id40" stroke="none" /><text fill="#e1ed5e" style="font-size:6.75px; font-family:Arial;" text-anchor="middle"><textPath startOffset="21.466115282336823" xlink:href="#id40">April</textPath></text><path d="M 120.99513854157772 99.54816195383933 l 21.313963784635888 -0.4586995095706288 a42.318899067560935,42.318899067560935 0 0,0 0.009404857177829566,0.728416552939151 l -21.318701648931434 0.09174669857101514" fill="#ffd313" stroke="none" /><path d="M 120.99980553446 99.90962569577887 l 19.473564146967988 -0.08380600513656289 a40.47374447897923,40.47374447897923 0 0,0 -0.0029983387614243065,0.6967083338455684 l -19.47212151091706 -0.2514118069126902" fill="#ffb911" stroke="none" /><path d="M 120.99824983174949 100.27111621757518 l 15.45849726326309 0.1995904106767673 a36.45978570260101,36.45978570260101 0 0,0 -0.013503901319661527,0.6274732317633318 l -15.452771299258423 -0.465653458230214" fill="#ff7e0b" stroke="none" /><path d="M 120.9904718944345 100.63252640178507 l 7.667057925966004 0.23103894884206141 a28.670538197284476,28.670538197284476 0 0,0 -0.019110780227147253,0.49316432081967576 l -7.661945012887654 -0.3629805166757433" fill="#ff0400" stroke="none" /><path d="M 120.9764740272857 100.99374915477107 l 16.17986605163927 0.7665124363708947 a37.198012432520855,37.198012432520855 0 0,0 -0.03580512242820472,0.6393245134763493 l -16.164274578323536 -1.0449086661826674" fill="#ff890c" stroke="none" /><path d="M 120.95626037817324 101.35467743843564 l 44.411340914580386 2.8708863347736355 a65.50403566170456,65.50403566170456 0 0,0 -0.08242104969315159,1.1245697392341931 l -44.35534330622289 -3.634929210504599" fill="#33ff56" stroke="none" /><path d="M 120.89721153311464 102.0752229133903 l 16.49869304005637 1.6384227045537751 a37.5798462293473,37.5798462293473 0 0,0 -0.0694649114556017,0.6431588075157796 l -16.468045827099715 -1.922177833954346" fill="#ff8f0d" stroke="none" /><path d="M 120.8583938346157 102.4346265915055 l 24.858027776600707 2.901470550280732 a46.02678717487322,46.02678717487322 0 0,0 -0.09862552176599153,0.7861424469914122 l -24.80440074558787 -3.3289307515595388" fill="#f8ff18" stroke="none" /><path d="M 120.81339534386255 102.79330883721812 l 16.071675758275568 2.1569356264466175 a37.215768035334534,37.215768035334534 0 0,0 -0.09067524231780597,0.6341824335795814 l -16.032166464941163 -2.433263532006608" fill="#ff890c" stroke="none" /><path d="M 120.76222939487914 103.15116336523771 l 21.597677323318926 3.2779625087975224 a42.84501554065107,42.84501554065107 0 0,0 -0.11694291072159299,0.728203616694085 l -21.538052658236047 -3.6492453551848123" fill="#ffdb14" stroke="none" /><path d="M 120.64145759157962 103.86396538481128 l 32.24543374214029 6.036164803045816 a53.80553737935547,53.80553737935547 0 0,0 -0.1782502305601033,0.9088940853837587 l -32.13675357860453 -6.590322615497519" fill="#94ff23" stroke="none" /><path d="M 120.5718875245553 104.21870165774334 l 17.82286202652331 3.654955700456565 a39.19376574513332,39.19376574513332 0 0,0 -0.14122066481497653,0.6597359312354555 l -17.75730732298389 -3.961205451108189" fill="#ffa70f" stroke="none" /><path d="M 120.41448212921028 104.9243191809786 l 19.789958605084063 4.773673519268344 a41.3575642074268,41.3575642074268 0 0,0 -0.17289172408226816,0.6906164951371085 l -19.704855566706733 -5.113617853802849" fill="#ffc612" stroke="none" /><path d="M 120.32669344350535 105.2749913415812 l 17.236438461621553 4.473037579744767 a38.80738262718796,38.80738262718796 0 0,0 -0.17336167697129515,0.6451432921370015 l -17.15688870830848 -4.769071805057316" fill="#ffa10e" stroke="none" /><path d="M 120.23288151984713 105.62410040840565 l 14.714133880819167 4.0900633104224235 a36.272012105349255,36.272012105349255 0 0,0 -0.17239113728906624,0.6001161644957574 l -14.641550106644003 -4.342736950422763" fill="#ff7b0b" stroke="none" /><path d="M 120.02730092923936 106.31721596034902 l 29.82058134776214 9.406312568157135 a52.26892687714707,52.26892687714707 0 0,0 -0.2780401982496422,0.8557197408258735 l -29.654248898496252 -9.918231208960805" fill="#a7ff21" stroke="none" /><path d="M 119.79798401119884 107.00284435728193 l 16.944744322525455 5.993610616993167 a38.97352854572223,38.97352854572223 0 0,0 -0.22915643992461637,0.6305401038977887 l -16.839063621595614 -6.2843985178970865" fill="#ffa30f" stroke="none" /><path d="M 119.67450827220406 107.3425965602758 l 16.999026187859137 6.3440971173522405 a39.14426795354163,39.14426795354163 0 0,0 -0.24102751273892892,0.6292467787944883 l -16.887304395526698 -6.635767462979873" fill="#ffa60f" stroke="none" /><path d="M 119.54520255179757 107.68017299344265 l 16.74216444640518 6.578735569114428 a38.988324881400295,38.988324881400295 0 0,0 -0.25082003647431617,0.6225147609277754 l -16.62644179567347 -6.865949697885016" fill="#ffa40f" stroke="none" /><path d="M 119.26925614724726 108.34839909993367 l 31.789652452542477 13.772856818861833 a55.644964829052846,55.644964829052846 0 0,0 -0.38834598502440265,0.8756176758841142 l -31.547865382786803 -14.318022831238634" fill="#7eff26" stroke="none" /><path d="M 118.97047184881838 109.00673069616215 l 18.043728987884844 8.566735136771833 a40.974110911172914,40.974110911172914 0 0,0 -0.30798237954457836,0.6345349232293878 l -17.89359335172555 -8.876059015966495" fill="#ffc011" stroke="none" /><path d="M 118.81262510543309 109.33194174019688 l 17.10087010197423 8.482831215948178 a40.089216424014396,40.089216424014396 0 0,0 -0.3119730035827897,0.6155523329553627 l -16.952318428605174 -8.775937760606235" fill="#ffb410" stroke="none" /><line stroke="#e1ed5e" stroke-width="0.3" x1="174.80103733775053" x2="179.2010983576182" y1="140.37084112569926" y2="142.7455964860345" /><path d="M 175.68104954172406 140.8457921977663 a86.0,86.0 0 0,1 -30.038265399797805,32.042727171017184" fill="none" id="id41" stroke="none" /><text fill="#e1ed5e" style="font-size:6.75px; font-family:Arial;" text-anchor="middle"><textPath startOffset="22.206326154141568" xlink:href="#id41">May</textPath></text><path d="M 118.48025628344425 109.97397251340804 l 15.844365647554143 8.55135692044844 a39.00471127106167,39.00471127106167 0 0,0 -0.32396865658122626,0.5880972147523594 l -15.694820581521407 -8.822824653598603" fill="#ffa40f" stroke="none" /><path d="M 118.30583269289576 110.29060199501025 l 18.68444955547248 10.503441012319113 a42.43433993129396,42.43433993129396 0 0,0 -0.36341577767783767,0.6336460407883722 l -18.500881781642263 -10.823506898965801" fill="#ffd513" stroke="none" /><path d="M 117.55443506779139 111.5257021239791 l 13.790854605407244 9.054650953061259 a37.49770816293146,37.49770816293146 0 0,0 -0.3589010902363942,0.5365084335640233 l -13.632950409760129 -9.290696300831089" fill="#ff8e0d" stroke="none" /><path d="M 117.35343817320211 111.8261652097733 l 13.404664148245816 9.135121882848672 a37.221451006052675,37.221451006052675 0 0,0 -0.3653712449760329,0.5263445290630997 l -13.245431996107646 -9.36450767409879" fill="#ff8a0c" stroke="none" /><path d="M 116.93607887273984 112.41649034213515 l 14.39757077250536 10.55541248894171 a38.85236054310486,38.85236054310486 0 0,0 -0.4000659633212657,0.5359537357141883 l -14.213743542489 -10.801679104165213" fill="#ffa20e" stroke="none" /><path d="M 116.71984013943494 112.70617746262583 l 15.201519548445694 11.552335636784052 a40.0930001635858,40.0930001635858 0 0,0 -0.4222999196885736,0.5458795727995305 l -15.000412811539052 -11.812293203696834" fill="#ffb410" stroke="none" /><path d="M 116.498646956653 112.99209946851258 l 26.646284527151735 20.98300423983816 a54.91623425486668,54.91623425486668 0 0,0 -0.5912179477345243,0.737635293714026 l -26.281148667362356 -21.438567367130435" fill="#87ff25" stroke="none" /><path d="M 116.0416608686014 113.55231037782055 l 13.612281396052472 11.499922853413329 a38.81972026828071,38.81972026828071 0 0,0 -0.43562656464701943,0.5067321109371017 l -13.412312321834673 -11.73253206351196" fill="#ffa10e" stroke="none" /><path d="M 115.80600337817218 113.82643327865902 l 14.560468444864643 12.736891207865975 a40.34517094716179,40.34517094716179 0 0,0 -0.461743085551205,0.5187732515216207 l -14.3390665096651 -12.985638629128463" fill="#ffb711" stroke="none" /><path d="M 115.32070863581623 114.36230785411682 l 12.607925311582536 11.81922514362945 a38.28160477670538,38.28160477670538 0 0,0 -0.4548099806898919,0.47686644644701087 l -12.40260877951368 -12.034498706658969" fill="#ff990e" stroke="none" /><path d="M 115.07121518719521 114.62390073753431 l 11.302365340780687 10.966910550341957 a36.748542450515295,36.748542450515295 0 0,0 -0.44441127956442766,0.4501862798928638 l -11.111913436160725 -11.159837324215486" fill="#ff820c" stroke="none" /><path d="M 114.81725581225074 114.88116024355365 l 21.81249921383587 21.906573000184554 a51.91412399803697,51.91412399803697 0 0,0 -0.6386674479648464,0.6250705195127849 l -21.43218181349523 -22.27879362261991" fill="#abff21" stroke="none" /><path d="M 114.29624159901734 115.38237550388516 l 11.071988257789776 11.91316471369903 a37.263837722885654,37.263837722885654 0 0,0 -0.4736064322300882,0.43262824674206085 l -10.865282276092826 -12.101985727027674" fill="#ff8a0c" stroke="none" /><path d="M 113.75828350139079 115.86535959552629 l 14.580918958270003 16.81398137222535 a43.255632259119906,43.255632259119906 0 0,0 -0.5667198936653074,0.4829709881071006 l -14.289333588027649 -17.062476750555398" fill="#ffe015" stroke="none" /><path d="M 113.20401910651253 116.32954008644616 l 8.875170727173495 10.976010788408471 a35.11529200065434,35.11529200065434 0 0,0 -0.47329144246797855,0.3760113462263929 l -8.684921791988165 -11.127156048639991" fill="#ff6a09" stroke="none" /><path d="M 112.92097659922987 116.55440617244103 l 10.693689627646943 13.700797321205465 a38.380070341894324,38.380070341894324 0 0,0 -0.5242923609280179,0.40200502538642174 l -10.456268538225432 -13.882841688419258" fill="#ff9b0e" stroke="none" /><path d="M 112.34349029814194 116.9893568818739 l 14.430815440026564 19.86231346930882 a45.551169638475386,45.551169638475386 0 0,0 -0.6383078290058528,0.45541568787168035 l -14.086780283171827 -20.10777341902472" fill="#feff18" stroke="none" /><path d="M 111.1453310114006 117.79835938074945 l 11.256375399786023 17.9756899534958 a42.20922951087846,42.20922951087846 0 0,0 -0.61911050686579,0.3803082395117229 l -10.945285692987923 -18.1667866598359" fill="#ffd213" stroke="none" /><line stroke="#e1ed5e" stroke-width="0.3" x1="143.8653032363475" x2="146.44561519142675" y1="172.8068346515853" y2="177.08958963109032" /><path d="M 144.38136562736335 173.6633856474863 a86.0,86.0 0 0,1 -40.68145358897372,12.25698825130547" fill="none" id="id42" stroke="none" /><text fill="#e1ed5e" style="font-size:6.75px; font-family:Arial;" text-anchor="middle"><textPath startOffset="21.466115282336833" xlink:href="#id42">June</textPath></text><path d="M 110.8373102113329 117.98757091392108 l 8.585129685301215 14.249442528467709 a37.63583674137085,37.63583674137085 0 0,0 -0.5577848378402424,0.3295491139486967 l -8.338576976432591 -14.395110214710156" fill="#ff900d" stroke="none" /><path d="M 109.89434966115114 118.52300852407294 l 8.407570495796314 15.7396398241156 a38.84442499591036,38.84442499591036 0 0,0 -0.5924867958246325,0.309961088920146 l -8.135392797445185 -15.882030331980461" fill="#ffa10e" stroke="none" /><path d="M 109.57404056367764 118.69057910512821 l 6.7779334142685554 13.231978682991478 a35.866931130377885,35.866931130377885 0 0,0 -0.5519170780091983,0.2767426805244045 l -6.549162428576597 -13.346689204425184" fill="#ff750a" stroke="none" /><path d="M 108.92500713936063 119.00905698771935 l 12.417913417810746 26.44847451008758 a50.218596433829546,50.218596433829546 0 0,0 -0.7856388636263402,0.3606482691379352 l -11.960806558416987 -26.65830984955959" fill="#c1ff1e" stroke="none" /><path d="M 108.59647513512805 119.15986991738527 l 7.0541379993126805 15.722300631548581 a38.2322836577785,38.2322836577785 0 0,0 -0.6027580323671758,0.2642314079640385 l -6.782459292287752 -15.841396592807074" fill="#ff980e" stroke="none" /><path d="M 108.2653958097858 119.30500536409082 l 3.8571859989489856 9.009005510885013 a30.800003271716015,30.800003271716015 0 0,0 -0.48917524469946977,0.2044752919576654 l -3.7015392947520547 -9.07406584586265" fill="#ff2703" stroke="none" /><path d="M 107.59598834532513 119.57807347666477 l 6.391659135685857 16.47400792462606 a38.67049075740226,38.67049075740226 0 0,0 -0.6226497382329648,0.23543285297948743 l -6.107139176692617 -16.58158902771218" fill="#ff9f0e" stroke="none" /><path d="M 106.91757812671514 119.82793768551818 l 5.915404685351705 16.955395853472208 a38.95765745133322,38.95765745133322 0 0,0 -0.6350659656883301,0.21544885589732957 l -5.622668986726148 -17.054707696267663" fill="#ffa30f" stroke="none" /><path d="M 106.57524785965236 119.94407469862006 l 4.466686294088835 13.548375210500435 a35.26568460657615,35.26568460657615 0 0,0 -0.578153450514246,0.18510647737045213 l -4.232811498483649 -13.623254534530593" fill="#ff6c0a" stroke="none" /><path d="M 103.7750983002368 120.6578951692458 l 4.336393512257158 23.729385426383896 a45.12235563553084,45.12235563553084 0 0,0 -0.7652558747237262,0.13304954292536939 l -3.927288666061381 -23.80051354783027" fill="#fffa17" stroke="none" /><path d="M 103.06178313531738 120.77559828337769 l 2.398086492006258 16.272113146103685 a37.44787174873221,37.44787174873221 0 0,0 -0.638524390196354,0.08849366223372042 l -2.1176335106230737 -16.310981373830007" fill="#ff8d0d" stroke="none" /><path d="M 102.34483914955558 120.86867818915974 l 1.3175808504930204 11.72625028985443 a32.80004089645019,32.80004089645019 0 0,0 -0.5616107398269827,0.058213249470840514 l -1.1155375140604349 -11.747192907781029" fill="#ff4606" stroke="none" /><path d="M 101.62511606390274 120.93702456842531 l 1.1414531005594206 14.70579987544092 a35.75003271716015,35.75003271716015 0 0,0 -0.6139425286275978,0.04234107129870196 l -0.8881478111528925 -14.723269291255908" fill="#ff730a" stroke="none" /><path d="M 101.26447882468166 120.96189622390904 l 1.1522318393361919 19.101121956810683 a40.135843284802874,40.135843284802874 0 0,0 -0.689977062385741,0.03566393292649539 l -0.8232667085369713 -19.11812569649938" fill="#ffb410" stroke="none" /><line stroke="#e1ed5e" stroke-width="0.3" x1="102.19456741930631" x2="102.32365962044197" y1="184.97166512339345" y2="189.96999836594603" /><path d="M 102.22038585953345 185.97133177190398 a86.0,86.0 0 0,1 -42.740103519485714,-10.115201625700543" fill="none" id="id43" stroke="none" /><text fill="#e1ed5e" style="font-size:6.75px; font-family:Arial;" text-anchor="middle"><textPath startOffset="22.20632615414155" xlink:href="#id43">July</textPath></text><path d="M 100.54218724476979 120.99299961872073 l 0.4211749948249889 16.307514776615182 a37.31295272370359,37.31295272370359 0 0,0 -0.6422097715940783,0.01105622362404224 l -0.1404055333382426 -16.312348477518384" fill="#ff8b0c" stroke="none" /><path d="M 100.18074693466247 120.99922214144158 l 0.13790043683336378 16.021305765840108 a37.02189923114673,37.02189923114673 0 0,0 -0.6372947429916274,0.0 l 0.13790043683335274 -16.021305765840108" fill="#ff870c" stroke="none" /><path d="M 99.45781275523022 120.99299961872073 l -0.3540526675296241 13.708598987075858 a34.71317029281858,34.71317029281858 0 0,0 -0.5971981883641774,-0.020568713105851174 l 0.5899712075684446 -13.700473475543912" fill="#ff6409" stroke="none" /><path d="M 99.09653310690486 120.98055641714683 l -0.7037287338701487 16.342182005971093 a37.3573270080157,37.3573270080157 0 0,0 -0.642211465812985,-0.03319499718177082 l 0.9849282680966227 -16.327647202027123" fill="#ff8c0c" stroke="none" /><path d="M 98.01472825383883 120.90594882070398 l -1.5473664790907884 16.294577546523264 a37.36788319973826,37.36788319973826 0 0,0 -0.6398225110702551,-0.06632021934883872 l 1.827621586766637 -16.265527958718664" fill="#ff8c0c" stroke="none" /><path d="M 97.65516085044442 120.86867818915974 l -1.6431469519089363 14.623734409835901 a35.71575822018649,35.71575822018649 0 0,0 -0.6103526757215166,-0.07390520903007089 l 1.8946270506818423 -14.593283672080481" fill="#ff730a" stroke="none" /><path d="M 96.58105272829116 120.7198165907248 l -2.64002877152468 15.999343538541169 a37.215694421724194,37.215694421724194 0 0,0 -0.631162278365665,-0.10973565237719157 l 2.915040021362395 -15.951529307642971" fill="#ff890c" stroke="none" /><path d="M 95.16358092515715 120.4354850818985 l -2.8948089062281044 12.231533972289926 a33.569420906265336,33.569420906265336 0 0,0 -0.561163568677002,-0.13792035213901283 l 3.104925759648317 -12.179892361836883" fill="#ff5207" stroke="none" /><path d="M 94.81253420990036 120.34920634021253 l -4.093913184875492 16.059457066096215 a37.57305905447407,37.57305905447407 0 0,0 -0.6253401539212856,-0.165158018278826 l 4.369743781608268 -15.986607698513806" fill="#ff8f0d" stroke="none" /><path d="M 93.76903079525671 120.05430185196036 l -4.965299489635713 15.980758607302684 a37.73436119744807,37.73436119744807 0 0,0 -0.6186254817576206,-0.1980643437099584 l 5.239646316484274 -15.892921416933019" fill="#ff910d" stroke="none" /><path d="M 93.08242187328487 119.8279376855182 l -5.817957864314498 16.676082854069218 a38.66183379682643,38.66183379682643 0 0,0 -0.6264697995830752,-0.2246297814026313 l 6.1041472245273 -16.573465531626628" fill="#ff9f0e" stroke="none" /><line stroke="#e1ed5e" stroke-width="0.3" x1="58.666819895761336" x2="56.23545636021788" y1="174.27360380694188" y2="178.64263932499728" /><path d="M 58.180547188652646 175.14741091055294 a86.0,86.0 0 0,1 -31.652253787137756,-30.449443065178592" fill="none" id="id44" stroke="none" /><text fill="#e1ed5e" style="font-size:6.75px; font-family:Arial;" text-anchor="middle"><textPath startOffset="22.20632615414155" xlink:href="#id44">August</textPath></text><path d="M 89.1626897886671 117.98757091392108 l -9.539821470946285 15.83402263740201 a39.485790937346636,39.485790937346636 0 0,0 -0.5791640436108145,-0.35576985913092807 l 9.810964714489407 -15.667464311442703" fill="#ffab0f" stroke="none" /><path d="M 87.65650970185807 116.9893568818739 l -8.652665257352865 11.90937202410954 a35.720793391133654,35.720793391133654 0 0,0 -0.4943333060969838,-0.365695962010287 l 8.856383533868412 -11.758666113359487" fill="#ff730a" stroke="none" /><path d="M 87.07902340077011 116.55440617244103 l -5.654400049977399 7.244439641998563 a30.189893669229512,30.189893669229512 0 0,0 -0.40690586660643235,-0.3232706298095679 l 5.778263409301189 -7.146035098183864" fill="#ff1d02" stroke="none" /><path d="M 86.51685102203217 116.09983520530335 l -11.467344001335846 13.692821236768463 a38.86038442663177,38.86038442663177 0 0,0 -0.5091349213930335,-0.4338958254573811 l 11.701344399305937 -13.493401021088129" fill="#ffa20e" stroke="none" /><path d="M 86.24171649860922 115.8653595955263 l -8.664429427305482 9.99138363011386 a34.22497955177491,34.22497955177491 0 0,0 -0.4417591632916312,-0.3898010991476753 l 8.835130943503701 -9.840759389193897" fill="#ff5c08" stroke="none" /><path d="M 85.70375840098266 115.38237550388516 l -7.984202533723544 8.590789447853814 a32.72813512187142,32.72813512187142 0 0,0 -0.40935753827290255,-0.38707310324627886 l 8.130895906387263 -8.452081707861604" fill="#ff4506" stroke="none" /><path d="M 85.44109423537348 115.13401014063109 l -13.521562889632126 14.05569025565591 a40.50371994110911,40.50371994110911 0 0,0 -0.498292284559192,-0.48768387706488103 l 13.761505126567112 -13.82085627566846" fill="#ffb911" stroke="none" /><path d="M 84.67929136418377 114.36230785411682 l -10.875755416840503 10.195412702881162 a35.90733027973172,35.90733027973172 0 0,0 -0.4188395014906671,-0.45456755706192276 l 11.049641326326899 -10.006693891017896" fill="#ff760a" stroke="none" /><path d="M 84.43433777217949 114.09645910891817 l -10.974190188019907 9.93836439303066 a35.80553737935547,35.80553737935547 0 0,0 -0.40978781155779603,-0.46040095041595164 l 11.143636849226041 -9.747989272873845" fill="#ff740a" stroke="none" /><path d="M 83.72743513129214 113.27417163493432 l -12.122442872058663 9.888753777705519 a36.64420251922133,36.64420251922133 0 0,0 -0.39450465793476586,-0.492205218637798 l 12.29086544204829 -9.678620725489461" fill="#ff810b" stroke="none" /><path d="M 83.06392112726016 112.41649034213515 l -13.234280509086219 9.702559686981015 a37.40993129396368,37.40993129396368 0 0,0 -0.3762730216726318,-0.5226103173347982 l 13.399333323134458 -9.473315764195078" fill="#ff8c0c" stroke="none" /><path d="M 82.85270091963577 112.12312394758628 l -11.22942318969116 7.939191388130494 a34.75247996073941,34.75247996073941 0 0,0 -0.34113546157014013,-0.49143107547677684 l 11.364419558423434 -7.7447190504667045" fill="#ff6409" stroke="none" /><path d="M 82.24976979558568 111.22182372390057 l -14.351926625990313 9.073391659741146 a37.979523965319814,37.979523965319814 0 0,0 -0.3445924897129388,-0.5555928140546246 l 14.505983755371208 -8.825002514321259" fill="#ff950d" stroke="none" /><path d="M 82.05923443525364 110.91462005526583 l -19.268095439326355 11.722127472759306 a43.55366432193686,43.55366432193686 0 0,0 -0.3841415031353479,-0.6438432550328221 l 19.467017818159935 -11.388722123840372" fill="#ffe415" stroke="none" /><line stroke="#e1ed5e" stroke-width="0.3" x1="26.63291911575756" x2="22.317208475507996" y1="142.92168965132927" y2="145.44649492493687" /><path d="M 25.769776987707644 143.4266507060508 a86.0,86.0 0 0,1 -11.730757126820373,-40.83630448921669" fill="none" id="id45" stroke="none" /><text fill="#e1ed5e" style="font-size:6.75px; font-family:Arial;" text-anchor="middle"><textPath startOffset="21.46611528233685" xlink:href="#id45">September</textPath></text><path d="M 81.69416730710424 110.29060199501025 l -12.97741124528551 7.295236239246884 a35.887366268607884,35.887366268607884 0 0,0 -0.2980763466618627,-0.5410951513188945 l 13.101064001398889 -7.070770569530167" fill="#ff760a" stroke="none" /><path d="M 81.35079622478065 109.6543875284942 l -14.86555659597206 7.695655317734294 a37.73941109111729,37.73941109111729 0 0,0 -0.2936868934282527,-0.5794721028167499 l 14.99582215918658 -7.43862900321486" fill="#ff910d" stroke="none" /><path d="M 81.02952815118164 109.00673069616217 l -11.80767901643349 5.606006318412457 a34.07090626533616,34.07090626533616 0 0,0 -0.2469741314692927,-0.5319603073346576 l 11.90242776474261 -5.401925943798972" fill="#ff5a08" stroke="none" /><path d="M 80.87730276802145 108.67885076344099 l -17.900571376491975 8.124188009267735 a40.65789628660232,40.65789628660232 0 0,0 -0.28375129413678857,-0.6397842601245325 l 18.037763755360043 -7.814855412650506" fill="#ffbc11" stroke="none" /><path d="M 80.73074385275274 108.34839909993369 l -11.047915501831692 4.7865058789418375 a33.04022738426305,33.04022738426305 0 0,0 -0.22160398134554918,-0.5238063511430354 l 11.128670464369549 -4.595625002132643" fill="#ff4a06" stroke="none" /><path d="M 80.58989483394504 108.01547362559985 l -21.338496460727807 8.811809834499853 a44.086347129069196,44.086347129069196 0 0,0 -0.2836166782894555,-0.7039133362799249 l 21.48701575327465 -8.443197130377122" fill="#ffec16" stroke="none" /><path d="M 80.32549172779594 107.34259656027581 l -16.678190688049735 6.224360166129793 a38.80181743824636,38.80181743824636 0 0,0 -0.22814681345370666,-0.6277620454671744 l 16.782861762508666 -5.9363503236565025" fill="#ffa10e" stroke="none" /><path d="M 80.0844068197444 106.66101706037122 l -25.382851923171668 8.489609532130093 a47.76495174218877,47.76495174218877 0 0,0 -0.25408167806844706,-0.7819829976891255 l 25.525225852256366 -8.051427634463163" fill="#e1ff1b" stroke="none" /><path d="M 79.97269907076064 106.31721596034903 l -26.089187831965067 8.229318286420385 a48.356304596761,48.356304596761 0 0,0 -0.24356201937505026,-0.7959747717217953 l 26.226976623846248 -7.779016542146541" fill="#d9ff1c" stroke="none" /><path d="M 79.76711848015287 105.62410040840567 l -15.146801978399294 4.210331341543831 a36.72108457385899,36.72108457385899 0 0,0 -0.16404169441381367,-0.6104601699220011 l 15.217031749154883 -3.948980238446291" fill="#ff820c" stroke="none" /><path d="M 79.50377843672027 104.57218783832718 l -16.230659496576962 3.6206489927504437 a37.629594307214134,37.629594307214134 0 0,0 -0.13558473455546044,-0.6334067413607805 l 16.290578269856862 -3.3407284319734996" fill="#ff900d" stroke="none" /><path d="M 79.4281124754447 104.21870165774334 l -17.36964686896334 3.5620143243076634 a38.731118926877144,38.731118926877144 0 0,0 -0.1283107876033465,-0.6542539416480091 l 17.428387589542353 -3.2624966555916997" fill="#ffa00e" stroke="none" /><path d="M 79.35854240842038 103.8639653848113 l -30.628491425388482 5.733482247153358 a52.16050875184034,52.16050875184034 0 0,0 -0.1576080880810549,-0.8839498579521944 l 30.722645955808726 -5.20541363846795" fill="#a8ff21" stroke="none" /><path d="M 79.23777060512086 103.15116336523772 l -16.44797388581993 2.4963722226364613 a37.63633731392115,37.63633731392115 0 0,0 -0.09169994832981718,-0.6413492250409377 l 16.488507885166346 -2.2128775256151227" fill="#ff900d" stroke="none" /><path d="M 79.18660465613746 102.79330883721812 l -7.333785239460102 0.98424724948515 a28.39953705218387,28.39953705218387 0 0,0 -0.06085410978269,-0.4850671298607266 l 7.349640858489641 -0.8578623653370148" fill="#ff0000" stroke="none" /><path d="M 79.1416061653843 102.43462659150553 l -16.930643871476494 1.9761730508894808 a38.04558481923769,38.04558481923769 0 0,0 -0.07032581146330125,-0.6511296723846915 l 16.962151984440847 -1.6844470566200072" fill="#ff960d" stroke="none" /><path d="M 79.10278846688536 102.07522291339032 l -7.6158520281781135 0.7563014141298549 a28.65331261246524,28.65331261246524 0 0,0 -0.04451551866575465,-0.49122503905826626 l 7.627742143120943 -0.6250949865230224" fill="#ff0400" stroke="none" /><path d="M 79.07016306316243 101.71520430193888 l -18.578408323917163 1.5225042591839053 a39.64068869622117,39.64068869622117 0 0,0 -0.04987825772714024,-0.6805491982265206 l 18.601863140308637 -1.202481924460624" fill="#ffad10" stroke="none" /><path d="M 79.0235259727143 100.99374915477108 l -17.908597910007707 0.8484101767082397 a38.92868313430394,38.92868313430394 0 0,0 -0.025948501656746864,-0.6696155281853838 l 17.920548544515654 -0.540017401508859" fill="#ffa30f" stroke="none" /><path d="M 79.0095281055655 100.63252640178507 l -11.597079976896335 0.3494661437766408 a32.60234418452478,32.60234418452478 0 0,0 -0.012075189970906928,-0.5610866294001297 l 11.601377229552249 -0.14978969858638227" fill="#ff4306" stroke="none" /><line stroke="#e1ed5e" stroke-width="0.3" x1="15.007084014347285" x2="10.007500721073583" y1="101.09737516637583" y2="101.16192664675087" /><path d="M 14.007167355692545 101.11028546245083 a86.0,86.0 0 0,1 10.666146001902534,-42.60595125391555" fill="none" id="id46" stroke="none" /><text fill="#e1ed5e" style="font-size:6.75px; font-family:Arial;" text-anchor="middle"><textPath startOffset="22.20632615414155" xlink:href="#id46">October</textPath></text><path d="M 79.08570108090925 98.10471618934814 l -17.85534015769386 -1.6180765736148481 a38.92850646163913,38.92850646163913 0 0,0 0.06622086398608017,-0.6668350632086806 l 17.82484216802555 1.925187167527959" fill="#ffa30f" stroke="none" /><path d="M 79.32604984820605 96.31383870115002 l -17.411354320928716 -3.104441095539871 a38.68594961557337,38.68594961557337 0 0,0 0.12253180635902047,-0.6545698091710275 l 17.355336790659834 3.4036889821734713" fill="#ff9f0e" stroke="none" /><path d="M 79.54389044137918 95.25157060432595 l -14.280889516218442 -3.314989850873527 a35.66059218059872,35.66059218059872 0 0,0 0.14394516858049708,-0.596745654287325 l 14.221711547377131 3.5603207368202483" fill="#ff720a" stroke="none" /><path d="M 79.81627453868168 94.20196356495316 l -17.47716009140175 -5.0205404936416205 a39.18397513495829,39.18397513495829 0 0,0 0.19180388436167708,-0.6466673472490883 l 17.388150309928367 5.320637227637248" fill="#ffa60f" stroke="none" /><path d="M 79.91906864156998 93.8553929516997 l -30.379045462400672 -9.29574896388156 a52.76944053656142,52.76944053656142 0 0,0 0.2732565372843288,-0.866297897273846 l 30.214533441348138 9.817297027581821" fill="#a1ff22" stroke="none" /><path d="M 80.14247586403 93.16781622104843 l -17.01892514582453 -5.855534835073913 a38.9980860461312,38.9980860461312 0 0,0 0.22386186319881293,-0.632887632825751 l 16.91561020181591 6.147620094326275" fill="#ffa40f" stroke="none" /><path d="M 80.38941819471856 92.48833698450439 l -16.02552217578857 -6.1384370656181195 a38.16093734663831,38.16093734663831 0 0,0 0.24024390760886902,-0.6113945402088994 l 15.917484718298011 6.413380610722782" fill="#ff970e" stroke="none" /><path d="M 80.52162464483688 92.15188598940014 l -15.153216469044388 -6.10544608099651 a37.33696548339604,37.33696548339604 0 0,0 0.24531864353272248,-0.5940585538147425 l 15.045876138625465 6.365379205264563" fill="#ff8b0c" stroke="none" /><path d="M 80.803312248108 91.48605970444005 l -28.589763313291595 -12.679871708053607 a52.275449043023066,52.275449043023066 0 0,0 0.3718967127013344,-0.8194251096600484 l 28.36726428362691 13.170118826555726" fill="#a7ff21" stroke="none" /><path d="M 81.10775173730289 90.83032412892265 l -14.712536457928604 -7.140981247160129 a37.353970227384266,37.353970227384266 0 0,0 0.2857400615936006,-0.5760345280777934 l 14.58743638338159 7.3931753637368836" fill="#ff8b0c" stroke="none" /><line stroke="#e1ed5e" stroke-width="0.3" x1="26.266209847984243" x2="21.928928074336255" y1="57.711370442889674" y2="55.22380399835377" /><path d="M 25.398753493254645 57.213857153982495 a86.0,86.0 0 0,1 29.58750427330803,-30.492523968695096" fill="none" id="id47" stroke="none" /><text fill="#e1ed5e" style="font-size:6.75px; font-family:Arial;" text-anchor="middle"><textPath startOffset="21.46611528233685" xlink:href="#id47">November</textPath></text><line stroke="#e1ed5e" stroke-width="0.3" x1="56.762969772571076" x2="54.21961505331055" y1="26.818313649435495" y2="22.513508569990535" /><path d="M 56.25429882871897 25.957352633546506 a86.0,86.0 0 0,1 42.265352541879196,-11.944610805530505" fill="none" id="id48" stroke="none" /><text fill="#e1ed5e" style="font-size:6.75px; font-family:Arial;" text-anchor="middle"><textPath startOffset="22.20632615414155" xlink:href="#id48">December</textPath></text></svg>