<?xml version="1.0" encoding="utf-8" ?>
<svg baseProfile="full" height="200mm" version="1.1" viewBox="0,0,200,200" width="200mm" xmlns="http://www.w3.org/2000/svg" xmlns:ev="http://www.w3.org/2001/xml-events" xmlns:xlink="http://www.w3.org/1999/xlink"><defs /><rect fill="#1a1a1a" height="200" width="200" x="0" y="0" /><text alignment-baseline="middle" fill="#e1ed5e" style="dominant-baseline: central; font-size:9.0px; font-family:Arial;" text-anchor="middle" x="100.0" y="100.0">2025</text><line stroke="#e1ed5e" stroke-width="0.3" x1="100.0" x2="100.0" y1="15.0" y2="10.0" /><path d="M 100.0 14.0 a86.0,86.0 0 0,1 42.46469731375804,11.215312516191453" fill="none" id="id37" stroke="none" /><text fill="#e1ed5e" style="font-size:6.75px; font-family:Arial;" text-anchor="middle"><textPath startOffset="22.20632615414155" xlink:href="#id37">January</textPath></text><path d="M 100.0 79.0 l 0.0 -13.222918099633546 a34.222918099633546,34.222918099633546 0 0,0 0.5890912779409533,0.005070494611991703 l -0.22761079866842496 13.220958981630114" fill="#ff0000" stroke="none" /><path d="M 101.44485096284872 79.0497635885617 l 4.334552888546152 -62.8507092343149 a84.0,84.0 0 0,0 1.4416392425506352,0.11189895124614191 l -5.415782320459128 62.76678502088029" fill="#4dd2ff" stroke="none" /><path d="M 102.16513564639614 79.11191278185805 l 1.9853635565535042 -19.153740874405553 a40.25636149264873,40.25636149264873 0 0,0 0.6886393068432553,0.07737664992350413 l -2.3147695669064845 19.116728271011446" fill="#ff6a09" stroke="none" /><path d="M 103.2404852339499 79.25152402106235 l 3.1694728421790916 -20.293791325717468 a41.53980341846232,41.53980341846232 0 0,0 0.7055254600999058,0.11641774609189819 l -3.5183275084178725 20.236227316685945" fill="#ff800b" stroke="none" /><path d="M 103.59715602781102 79.31037775812273 l 3.9225727802512473 -22.561309104252178 a43.89976518905773,43.89976518905773 0 0,0 0.7433795563650458,0.1358478623631677 l -4.310347457719194 22.49044576053827" fill="#ffa70f" stroke="none" /><path d="M 103.95276090670814 79.375362276772 l 5.248195729921452 -27.383931936416197 a48.882311358957324,48.882311358957324 0 0,0 0.8250253870714842,0.16549233121066706 l -5.718787526460062 27.28953564912832" fill="#fff517" stroke="none" /><path d="M 104.66035177308747 79.52364482259891 l 4.929009514638779 -21.65676635771816 a43.21059800789237,43.21059800789237 0 0,0 0.7238316595886145,0.17130756776165132 l -5.301064861189917 21.56871287781564" fill="#ff9c0e" stroke="none" /><path d="M 105.01212808612495 79.60689891045804 l 5.297971851946218 -21.556128193407382 a43.19763880313911,43.19763880313911 0 0,0 0.720559471549261,0.18368665322379885 l -5.668240212180504 21.461738544014715" fill="#ff9b0e" stroke="none" /><path d="M 105.36241919743992 79.69619591428918 l 5.735811595991185 -21.71758503571522 a43.46225799976994,43.46225799976994 0 0,0 0.7216848144582589,0.19726372159324596 l -6.108794299673155 21.615634773295678" fill="#ffa00e" stroke="none" /><path d="M 105.71112130821622 79.79150937346287 l 7.774409530953607 -27.50932324044917 a49.586785560858345,49.586785560858345 0 0,0 0.8193856981556458,0.23920115432689787 l -8.24678544683268 27.37142375720357" fill="#feff18" stroke="none" /><path d="M 106.0581310904928 79.89281104454417 l 5.601743969725923 -18.592421127388018 a40.41797257389414,40.41797257389414 0 0,0 0.6644226351373942,0.20643934698085087 l -5.920951977574035 18.493241645524645" fill="#ff6d0a" stroke="none" /><path d="M 106.40334571778207 80.00007090966166 l 15.277311236428849 -47.71648367682356 a71.10248549817948,71.10248549817948 0 0,0 1.1624145072754484,0.38322978711669525 l -16.096408565946714 47.446440165447626" fill="#39ff8a" stroke="none" /><path d="M 107.08798089147638 80.2323363322302 l 8.361101852135109 -23.31826959405745 a45.7719543242539,45.7719543242539 0 0,0 0.7393645662246319,0.2723142094947832 l -8.761248744132317 23.17089211675634" fill="#ffc512" stroke="none" /><path d="M 107.4271985657038 80.35727306442388 l 10.37780876868054 -27.446211654299898 a50.342689873492006,50.342689873492006 0 0,0 0.807920666979409,0.31346066698736025 l -10.848712600659615 27.26350828342199" fill="#f3ff19" stroke="none" /><path d="M 107.76421540070413 80.48803036053334 l 7.510361166547606 -18.874017721071525 a41.313396313450596,41.313396313450596 0 0,0 0.6584885784856934,0.2686140248278632 l -7.834133614621687 18.74194281006008" fill="#ff7c0b" stroke="none" /><path d="M 108.09893153111575 80.62456947434976 l 11.877370434656447 -28.414756292228397 a51.79724506492073,51.79724506492073 0 0,0 0.8196698017518379,0.3509398322887583 l -12.3647239941986 28.206096931976848" fill="#ddff1b" stroke="none" /><path d="M 108.43124777332544 80.76684994638697 l 9.202991234793409 -20.993631799181983 a43.922208091440694,43.922208091440694 0 0,0 0.6898252202371531,0.3095044683978824 l -9.562998573497342 20.83210700026757" fill="#ffa70f" stroke="none" /><path d="M 110.05341064243156 81.56283822128135 l 9.983614794028313 -18.30916170051014 a41.85420740596411,41.85420740596411 0 0,0 0.6295588519298518,0.3503488194900559 l -10.2972977350302 18.134597483459903" fill="#ff850c" stroke="none" /><line stroke="#e1ed5e" stroke-width="0.3" x1="143.23703022742887" x2="145.7803849466894" y1="26.81831364943548" y2="22.513508569990506" /><path d="M 143.74570117128098 25.957352633546492 a86.0,86.0 0 0,1 28.547481713284135,27.462654790039103" fill="none" id="id38" stroke="none" /><text fill="#e1ed5e" style="font-size:6.75px; font-family:Arial;" text-anchor="middle"><textPath startOffset="19.985693538727396" xlink:href="#id38">February</textPath></text><path d="M 110.68208982089419 81.91981866633111 l 14.42698442188284 -24.418676384413967 a49.3621162094084,49.3621162094084 0 0,0 0.7278277938193372,0.43850810205538177 l -14.845174281919816 24.16672167289997" fill="#fffd17" stroke="none" /><path d="M 111.90073688211348 82.69761687909136 l 14.408716026227829 -20.94871329697827 a46.425571504362864,46.425571504362864 0 0,0 0.65453171664164,0.4585412958738845 l -14.76717888245312 20.69758715834045" fill="#ffcf13" stroke="none" /><path d="M 112.48926042617603 83.11751280151076 l 11.379125281435217 -15.381850513037556 a40.13336921130285,40.13336921130285 0 0,0 0.5518411772570757,0.4156353338426269 l -11.642212612450676 15.183698589689081" fill="#ff6809" stroke="none" /><path d="M 113.06298171725822 83.55741782278167 l 21.504558879534017 -27.06812917715565 a55.57064751714278,55.57064751714278 0 0,0 0.7438438169828302,0.6014699691300375 l -21.967306095081337 26.693953110761484" fill="#a7ff21" stroke="none" /><path d="M 113.34407831869373 83.78471172551755 l 14.261790889030081 -17.33046262566064 a43.44423342825149,43.44423342825149 0 0,0 0.5733448503442222,0.4801598236480912 l -14.557993276333422 17.08240164461873" fill="#ff9f0e" stroke="none" /><path d="M 113.6212207817346 84.01681056812373 l 12.199918094819644 -14.315427749644458 a39.80876054331062,39.80876054331062 0 0,0 0.51771520821734,0.44895752691570007 l -12.444527101683748 14.103305229309088" fill="#ff6309" stroke="none" /><path d="M 114.16331599549186 84.49514656593476 l 15.580429770792525 -17.056195040255865 a44.10115973482385,44.10115973482385 0 0,0 0.5560780672993095,0.516813959977613 l -15.871715721886682 16.785476494203614" fill="#ffaa0f" stroke="none" /><path d="M 114.42810811169701 84.74124197986012 l 14.08260132305172 -14.893359837547942 a41.49711753575863,41.49711753575863 0 0,0 0.5147949742785752,0.49523235738446575 l -14.336879540942713 14.648744393401174" fill="#ff7f0b" stroke="none" /><path d="M 114.68862486808459 84.99185889309783 l 19.936779628876263 -20.37045704240969 a49.50317003575276,49.50317003575276 0 0,0 0.6038542829233133,0.6012611407281815 l -20.2844697119669 20.024260051031387" fill="#ffff18" stroke="none" /><path d="M 114.94478906791727 85.2469230424477 l 28.471724509990164 -28.106488549366404 a61.007671703667526,61.007671703667526 0 0,0 0.7313243407657973,0.7536940183835958 l -28.95131311445907 27.612230335432695" fill="#5fff29" stroke="none" /><path d="M 115.68641384162765 86.03803664274999 l 15.290792940443033 -13.609834146490343 a41.47036722295125,41.47036722295125 0 0,0 0.470013562832234,0.5373067523769617 l -15.522798366853115 13.344611837910433" fill="#ff7f0b" stroke="none" /><path d="M 115.9244219780498 86.31012108654704 l 17.169900029740354 -14.760589281497039 a43.64244825473436,43.64244825473436 0 0,0 0.4848247609174862,0.5738795953247482 l -17.421435404144958 14.462850736543183" fill="#ffa30f" stroke="none" /><path d="M 116.15771136456269 86.58626213691792 l 17.23892762106422 -14.311337226679004 a43.40524489355158,43.40524489355158 0 0,0 0.47229351952234716,0.5789760103200449 l -17.482719632662977 14.012477046750858" fill="#ff9f0e" stroke="none" /><path d="M 116.38621287248628 86.86637796730983 l 20.381347834304613 -16.33574036023919 a47.12002589317363,47.12002589317363 0 0,0 0.5018191196816685,0.6372593214662423 l -20.659521034580244 15.98248864481991" fill="#ffda14" stroke="none" /><path d="M 116.60985879189232 87.15038557335679 l 43.92706705475107 -33.98258116573351 a76.53740219634209,76.53740219634209 0 0,0 0.7971700634801806,1.048982360315413 l -44.505513058455364 33.22141402953706" fill="#41ffd2" stroke="none" /><path d="M 117.04232023915458 87.72973835380427 l 22.49814132752171 -16.198385945567427 a48.72280776607407,48.72280776607407 0 0,0 0.48418262421433456,0.6848419848558748 l -22.773636571539928 15.80871746037976" fill="#fff316" stroke="none" /><path d="M 117.2510076193507 88.02491185347247 l 16.84897236862096 -11.696008357582361 a41.51059436923243,41.51059436923243 0 0,0 0.4024067347202362,0.5904822288189261 l -17.04780356900993 11.404248105493028" fill="#ff7f0b" stroke="none" /><path d="M 117.45458315368197 88.32363383020206 l 18.789098821592667 -12.56909981234103 a43.60558569513664,43.60558569513664 0 0,0 0.4119759485287356,0.6274676336544683 l -19.002671405479326 12.243814114708888" fill="#ffa20f" stroke="none" /><path d="M 117.65298651832404 88.62581576622439 l 16.469230529451472 -10.611465773004356 a40.59180339029206,40.59180339029206 0 0,0 0.3733912492197277,0.5906152861631523 l -16.649449374917154 10.326402839126997" fill="#ff700a" stroke="none" /><line stroke="#e1ed5e" stroke-width="0.3" x1="172.23445277983987" x2="176.4835382374775" y1="55.19839476539836" y2="52.563006222186495" /><path d="M 173.08426987136738 54.67131705675599 a86.0,86.0 0 0,1 12.851231095245387,41.99856678651699" fill="none" id="id39" stroke="none" /><text fill="#e1ed5e" style="font-size:6.75px; font-family:Arial;" text-anchor="middle"><textPath startOffset="22.20632615414155" xlink:href="#id39">March</textPath></text><path d="M 117.84615892207809 88.93136811851018 l 19.045104575385686 -11.812247812532352 a43.4108278890373,43.4108278890373 0 0,0 0.38839089255551906,0.6384125068521677 l -19.245611266227428 11.482667532473103" fill="#ff9f0e" stroke="none" /><path d="M 118.03404312379186 89.2402003453031 l 19.270948956898113 -11.49778496750738 a43.4403327261075,43.4403327261075 0 0,0 0.3776005941400456,0.6454418164163036 l -19.466009225508486 11.164363738737181" fill="#ff9f0e" stroke="none" /><path d="M 118.3937258080291 89.86733742301442 l 19.6271265503808 -10.81211347643294 a43.40816579847458,43.40816579847458 0 0,0 0.35489669025619647,0.6575696675786823 l -19.810331339855463 10.472662825521798" fill="#ff9f0e" stroke="none" /><path d="M 118.56541770881063 90.18545643968196 l 19.066635522945447 -10.07951061611981 a42.56694518065359,42.56694518065359 0 0,0 0.33686784515309875,0.6507214539542074 l -19.23731280125866 9.749816439905258" fill="#ff910d" stroke="none" /><path d="M 118.89224826269711 90.83032412892265 l 15.617700850277206 -7.580318269015062 a38.36012110868795,38.36012110868795 0 0,0 0.28321059338761684,0.5965137373804501 l -15.74586963750658 7.310362115994072" fill="#ff4a06" stroke="none" /><path d="M 119.196687751892 91.48605970444005 l 36.188435055542236 -16.04996546460305 a60.58793027153793,60.58793027153793 0 0,0 0.41462135482970813,0.9570032523236378 l -36.45934712021462 15.424663067692812" fill="#64ff29" stroke="none" /><path d="M 119.47837535516314 92.15188598940014 l 20.807639433064335 -8.383693382254082 a43.43310441076011,43.43310441076011 0 0,0 0.27343507389352634,0.6958624380697874 l -20.94886805683956 8.02428193928851" fill="#ff9f0e" stroke="none" /><path d="M 119.7369772167798 92.82701384747503 l 19.55858358765337 -7.108152768092894 a41.81019047797906,41.81019047797906 0 0,0 0.24000426918454346,0.6785243883071725 l -19.678040937647722 6.770430753359106" fill="#ff840c" stroke="none" /><line stroke="#e1ed5e" stroke-width="0.3" x1="184.98032266829074" x2="189.97916517819016" y1="98.17113171792111" y2="98.06355123074" /><path d="M 185.9800911702706 98.14961562048488 a86.0,86.0 0 0,1 -9.607161424134198,41.387399972396054" fill="none" id="id40" stroke="none" /><text fill="#e1ed5e" style="font-size:6.75px; font-family:Arial;" text-anchor="middle"><textPath startOffset="21.466115282336823" xlink:href="#id40">April</textPath></text><line stroke="#e1ed5e" stroke-width="0.3" x1="174.80103733775053" x2="179.2010983576182" y1="140.37084112569926" y2="142.7455964860345" /><path d="M 175.68104954172406 140.8457921977663 a86.0,86.0 0 0,1 -30.038265399797805,32.042727171017184" fill="none" id="id41" stroke="none" /><text fill="#e1ed5e" style="font-size:6.75px; font-family:Arial;" text-anchor="middle"><textPath startOffset="22.206326154141568" xlink:href="#id41">May</textPath></text><line stroke="#e1ed5e" stroke-width="0.3" x1="143.8653032363475" x2="146.44561519142675" y1="172.8068346515853" y2="177.08958963109032" /><path d="M 144.38136562736335 173.6633856474863 a86.0,86.0 0 0,1 -40.68145358897372,12.25698825130547" fill="none" id="id42" stroke="none" /><text fill="#e1ed5e" style="font-size:6.75px; font-family:Arial;" text-anchor="middle"><textPath startOffset="21.466115282336833" xlink:href="#id42">June</textPath></text><line stroke="#e1ed5e" stroke-width="0.3" x1="102.19456741930631" x2="102.32365962044197" y1="184.97166512339345" y2="189.96999836594603" /><path d="M 102.22038585953345 185.97133177190398 a86.0,86.0 0 0,1 -42.740103519485714,-10.115201625700543" fill="none" id="id43" stroke="none" /><text fill="#e1ed5e" style="font-size:6.75px; font-family:Arial;" text-anchor="middle"><textPath startOffset="22.20632615414155" xlink:href="#id43">July</textPath></text><line stroke="#e1ed5e" stroke-width="0.3" x1="58.666819895761336" x2="56.23545636021788" y1="174.27360380694188" y2="178.64263932499728" /><path d="M 58.180547188652646 175.14741091055294 a86.0,86.0 0 0,1 -31.652253787137756,-30.449443065178592" fill="none" id="id44" stroke="none" /><text fill="#e1ed5e" style="font-size:6.75px; font-family:Arial;" text-anchor="middle"><textPath startOffset="22.20632615414155" xlink:href="#id44">August</textPath></text><line stroke="#e1ed5e" stroke-width="0.3" x1="26.63291911575756" x2="22.317208475507996" y1="142.92168965132927" y2="145.44649492493687" /><path d="M 25.769776987707644 143.4266507060508 a86.0,86.0 0 0,1 -11.730757126820373,-40.83630448921669" fill="none" id="id45" stroke="none" /><text fill="#e1ed5e" style="font-size:6.75px; font-family:Arial;" text-anchor="middle"><textPath startOffset="21.46611528233685" xlink:href="#id45">September</textPath></text><line stroke="#e1ed5e" stroke-width="0.3" x1="15.007084014347285" x2="10.007500721073583" y1="101.09737516637583" y2="101.16192664675087" /><path d="M 14.007167355692545 101.11028546245083 a86.0,86.0 0 0,1 10.666146001902534,-42.60595125391555" fill="none" id="id46" stroke="none" /><text fill="#e1ed5e" style="font-size:6.75px; font-family:Arial;" text-anchor="middle"><textPath startOffset="22.20632615414155" xlink:href="#id46">October</textPath></text><line stroke="#e1ed5e" stroke-width="0.3" x1="26.266209847984243" x2="21.928928074336255" y1="57.711370442889674" y2="55.22380399835377" /><path d="M 25.398753493254645 57.213857153982495 a86.0,86.0 0 0,1 29.58750427330803,-30.492523968695096" fill="none" id="id47" stroke="none" /><text fill="#e1ed5e" style="font-size:6.75px; font-family:Arial;" text-anchor="middle"><textPath startOffset="21.46611528233685" xlink:href="#id47">November</textPath></text><line stroke="#e1ed5e" stroke-width="0.3" x1="56.762969772571076" x2="54.21961505331055" y1="26.818313649435495" y2="22.513508569990535" /><path d="M 56.25429882871897 25.957352633546506 a86.0,86.0 0 0,1 42.265352541879196,-11.944610805530505" fill="none" id="id48" stroke="none" /><text fill="#e1ed5e" style="font-size:6.75px; font-family:Arial;" text-anchor="middle"><textPath startOffset="22.20632615414155" xlink:href="#id48">December</textPath></text></svg>