<?xml version="1.0" encoding="utf-8" ?>
<svg baseProfile="full" height="200mm" version="1.1" viewBox="0,0,200,200" width="200mm" xmlns="http://www.w3.org/2000/svg" xmlns:ev="http://www.w3.org/2001/xml-events" xmlns:xlink="http://www.w3.org/1999/xlink"><defs /><rect fill="#1a1a1a" height="200" width="200" x="0" y="0" /><text alignment-baseline="middle" fill="#e1ed5e" style="dominant-baseline: central; font-size:9.0px; font-family:Arial;" text-anchor="middle" x="100.0" y="100.0">2026</text><line stroke="#e1ed5e" stroke-width="0.3" x1="100.0" x2="100.0" y1="15.0" y2="10.0" /><path d="M 100.0 14.0 a86.0,86.0 0 0,1 42.46469731375804,11.215312516191453" fill="none" id="id49" stroke="none" /><text fill="#e1ed5e" style="font-size:6.75px; font-family:Arial;" text-anchor="middle"><textPath startOffset="22.20632615414155" xlink:href="#id49">January</textPath></text><path d="M 100.0 79.0 l 0.0 -39.250039817894795 a60.250039817894795,60.250039817894795 0 0,0 1.0371053937886443,0.008926693550197063 l -0.6756249145161158 39.24422450095316" fill="#98ff23" stroke="none" /><path d="M 100.72285384407766 79.0124445844662 l 2.0059110118013095 -58.240222229884814 a79.27475580706997,79.27475580706997 0 0,0 1.3633716580866855,0.05870965152567768 l -3.0081235022773263 58.19706485183494" fill="#45ffec" stroke="none" /><path d="M 101.80526077348638 79.07773832637324 l 2.5071981358556976 -29.057439366334304 a50.165404592095626,50.165404592095626 0 0,0 0.8596794572403282,0.08163692314812603 l -3.00700272018627 29.009976898671" fill="#ffba11" stroke="none" /><path d="M 102.16513564639614 79.11191278185805 l 2.534978399807387 -24.456135115330664 a45.58716454304562,45.58716454304562 0 0,0 0.7798298760210879,0.08762297289327951 l -2.9555749793382 24.408876188966783" fill="#ff6309" stroke="none" /><path d="M 102.52436894288641 79.15227682838746 l 3.4371266061513928 -28.385812696972646 a49.5931495602413,49.5931495602413 0 0,0 0.8465911278216236,0.10991182571930413 l -3.9252324624808628 28.322442548089207" fill="#ffaf10" stroke="none" /><path d="M 103.2404852339499 79.25152402106235 l 3.3158223592971825 -21.230851432839923 a42.48822306477984,42.48822306477984 0 0,0 0.7216337262030276,0.1190757480198632 l -3.680785291639085 21.170629421880438" fill="#ff2503" stroke="none" /><path d="M 103.59715602781102 79.31037775812273 l 10.221949222322184 -58.79318727083232 a80.67518006145346,80.67518006145346 0 0,0 1.3661184588454678,0.24964941634457377 l -11.232462802270552 58.608522373137006" fill="#47feff" stroke="none" /><path d="M 104.307194497241 79.44645832069477 l 5.083570737138416 -24.258338715003347 a45.78527160737441,45.78527160737441 0 0,0 0.76997151403577,0.16828595019541379 l -5.500384975327714 24.167239266712063" fill="#ff6709" stroke="none" /><path d="M 105.01212808612495 79.60689891045804 l 6.629732942753142 -26.974732443990614 a48.77750077521565,48.77750077521565 0 0,0 0.8136345216055877,0.20741355588559443 l -7.093076353043754 26.85661589193615" fill="#ffa00e" stroke="none" /><path d="M 105.36241919743992 79.69619591428918 l 6.676054311535681 -25.277639404188722 a47.14438285786774,47.14438285786774 0 0,0 0.7828259911325707,0.21397591479966474 l -7.110178191891962 25.158976948562763" fill="#ff810b" stroke="none" /><path d="M 105.71112130821622 79.79150937346287 l 5.359899583348093 -18.96571174796161 a40.70854499069741,40.70854499069741 0 0,0 0.6726792063818086,0.19637350642122808 l -5.685569007453329 18.870639912621677" fill="#ff0000" stroke="none" /><path d="M 106.0581310904928 79.89281104454417 l 15.292409121103903 -50.75614165311175 a74.00984523876642,74.00984523876642 0 0,0 1.2166324352303892,0.37801361988931487 l -16.16382692904501 50.48538789833991" fill="#3bff9e" stroke="none" /><path d="M 106.74666289553966 80.11325718540242 l 9.756534378459351 -28.75876458485496 a51.36867635451316,51.36867635451316 0 0,0 0.8349073174878445,0.29128276923659174 l -10.25012370001047 28.586560962446157" fill="#ffd013" stroke="none" /><path d="M 107.4271985657038 80.35727306442388 l 11.869249125821447 -31.390626956631444 a54.5596563680442,54.5596563680442 0 0,0 0.8755963194220961,0.33971776873077947 l -12.407828610243211 31.181666484010115" fill="#f6ff19" stroke="none" /><path d="M 107.76421540070413 80.48803036053334 l 11.940690368646116 -30.007718220461204 a53.29617994869482,53.29617994869482 0 0,0 0.849480529435624,0.3465244371426324 l -12.455454767670128 29.797732897134992" fill="#fff216" stroke="none" /><path d="M 108.09893153111575 80.62456947434976 l 8.196409685647351 -19.608631807034016 a42.25275448215595,42.25275448215595 0 0,0 0.6686322186913561,0.28627342155206925 l -8.532725662129023 19.464638857519155" fill="#ff2003" stroke="none" /><path d="M 108.43124777332544 80.76684994638697 l 25.2937433199763 -57.69945016083909 a84.0,84.0 0 0,0 1.3192715261328791,0.591918677933875 l -26.283196964575957 57.255511152388685" fill="#4dd2ff" stroke="none" /><path d="M 109.08828744355905 81.06846463323043 l 13.92949972545545 -29.016117539367443 a53.1864263263235,53.1864263263235 0 0,0 0.8219296927583228,0.4033173306350449 l -14.426900685224204 28.772045048597565" fill="#fff016" stroke="none" /><path d="M 109.41281617654863 81.2277094730956 l 12.513985403052137 -24.95705485259691 a48.91871088684671,48.91871088684671 0 0,0 0.7494801042152712,0.38391281934424254 l -12.941725994856164 24.73794950794017" fill="#ffa30f" stroke="none" /><line stroke="#e1ed5e" stroke-width="0.3" x1="143.23703022742887" x2="145.7803849466894" y1="26.81831364943548" y2="22.513508569990506" /><path d="M 143.74570117128098 25.957352633546492 a86.0,86.0 0 0,1 28.547481713284135,27.462654790039103" fill="none" id="id50" stroke="none" /><text fill="#e1ed5e" style="font-size:6.75px; font-family:Arial;" text-anchor="middle"><textPath startOffset="19.985693538727396" xlink:href="#id50">February</textPath></text><line stroke="#e1ed5e" stroke-width="0.3" x1="172.23445277983987" x2="176.4835382374775" y1="55.19839476539836" y2="52.563006222186495" /><path d="M 173.08426987136738 54.67131705675599 a86.0,86.0 0 0,1 12.851231095245387,41.99856678651699" fill="none" id="id51" stroke="none" /><text fill="#e1ed5e" style="font-size:6.75px; font-family:Arial;" text-anchor="middle"><textPath startOffset="22.20632615414155" xlink:href="#id51">March</textPath></text><line stroke="#e1ed5e" stroke-width="0.3" x1="184.98032266829074" x2="189.97916517819016" y1="98.17113171792111" y2="98.06355123074" /><path d="M 185.9800911702706 98.14961562048488 a86.0,86.0 0 0,1 -9.607161424134198,41.387399972396054" fill="none" id="id52" stroke="none" /><text fill="#e1ed5e" style="font-size:6.75px; font-family:Arial;" text-anchor="middle"><textPath startOffset="21.466115282336823" xlink:href="#id52">April</textPath></text><line stroke="#e1ed5e" stroke-width="0.3" x1="174.80103733775053" x2="179.2010983576182" y1="140.37084112569926" y2="142.7455964860345" /><path d="M 175.68104954172406 140.8457921977663 a86.0,86.0 0 0,1 -30.038265399797805,32.042727171017184" fill="none" id="id53" stroke="none" /><text fill="#e1ed5e" style="font-size:6.75px; font-family:Arial;" text-anchor="middle"><textPath startOffset="22.206326154141568" xlink:href="#id53">May</textPath></text><line stroke="#e1ed5e" stroke-width="0.3" x1="143.8653032363475" x2="146.44561519142675" y1="172.8068346515853" y2="177.08958963109032" /><path d="M 144.38136562736335 173.6633856474863 a86.0,86.0 0 0,1 -40.68145358897372,12.25698825130547" fill="none" id="id54" stroke="none" /><text fill="#e1ed5e" style="font-size:6.75px; font-family:Arial;" text-anchor="middle"><textPath startOffset="21.466115282336833" xlink:href="#id54">June</textPath></text><line stroke="#e1ed5e" stroke-width="0.3" x1="102.19456741930631" x2="102.32365962044197" y1="184.97166512339345" y2="189.96999836594603" /><path d="M 102.22038585953345 185.97133177190398 a86.0,86.0 0 0,1 -42.740103519485714,-10.115201625700543" fill="none" id="id55" stroke="none" /><text fill="#e1ed5e" style="font-size:6.75px; font-family:Arial;" text-anchor="middle"><textPath startOffset="22.20632615414155" xlink:href="#id55">July</textPath></text><line stroke="#e1ed5e" stroke-width="0.3" x1="58.666819895761336" x2="56.23545636021788" y1="174.27360380694188" y2="178.64263932499728" /><path d="M 58.180547188652646 175.14741091055294 a86.0,86.0 0 0,1 -31.652253787137756,-30.449443065178592" fill="none" id="id56" stroke="none" /><text fill="#e1ed5e" style="font-size:6.75px; font-family:Arial;" text-anchor="middle"><textPath startOffset="22.20632615414155" xlink:href="#id56">August</textPath></text><line stroke="#e1ed5e" stroke-width="0.3" x1="26.63291911575756" x2="22.317208475507996" y1="142.92168965132927" y2="145.44649492493687" /><path d="M 25.769776987707644 143.4266507060508 a86.0,86.0 0 0,1 -11.730757126820373,-40.83630448921669" fill="none" id="id57" stroke="none" /><text fill="#e1ed5e" style="font-size:6.75px; font-family:Arial;" text-anchor="middle"><textPath startOffset="21.46611528233685" xlink:href="#id57">September</textPath></text><line stroke="#e1ed5e" stroke-width="0.3" x1="15.007084014347285" x2="10.007500721073583" y1="101.09737516637583" y2="101.16192664675087" /><path d="M 14.007167355692545 101.11028546245083 a86.0,86.0 0 0,1 10.666146001902534,-42.60595125391555" fill="none" id="id58" stroke="none" /><text fill="#e1ed5e" style="font-size:6.75px; font-family:Arial;" text-anchor="middle"><textPath startOffset="22.20632615414155" xlink:href="#id58">October</textPath></text><line stroke="#e1ed5e" stroke-width="0.3" x1="26.266209847984243" x2="21.928928074336255" y1="57.711370442889674" y2="55.22380399835377" /><path d="M 25.398753493254645 57.213857153982495 a86.0,86.0 0 0,1 29.58750427330803,-30.492523968695096" fill="none" id="id59" stroke="none" /><text fill="#e1ed5e" style="font-size:6.75px; font-family:Arial;" text-anchor="middle"><textPath startOffset="21.46611528233685" xlink:href="#id59">November</textPath></text><line stroke="#e1ed5e" stroke-width="0.3" x1="56.762969772571076" x2="54.21961505331055" y1="26.818313649435495" y2="22.513508569990535" /><path d="M 56.25429882871897 25.957352633546506 a86.0,86.0 0 0,1 42.265352541879196,-11.944610805530505" fill="none" id="id60" stroke="none" /><text fill="#e1ed5e" style="font-size:6.75px; font-family:Arial;" text-anchor="middle"><textPath startOffset="22.20632615414155" xlink:href="#id60">December</textPath></text></svg>