<?xml version="1.0" encoding="utf-8" ?>
<svg baseProfile="full" height="200mm" version="1.1" viewBox="0,0,200,200" width="200mm" xmlns="http://www.w3.org/2000/svg" xmlns:ev="http://www.w3.org/2001/xml-events" xmlns:xlink="http://www.w3.org/1999/xlink"><defs /><rect fill="#1a1a1a" height="200" width="200" x="0" y="0" /><text alignment-baseline="middle" fill="#e1ed5e" style="dominant-baseline: central; font-size:9.0px; font-family:Arial;" text-anchor="middle" x="100.0" y="100.0">2026</text><line stroke="#e1ed5e" stroke-width="0.3" x1="100.0" x2="100.0" y1="15.0" y2="10.0" /><path d="M 100.0 14.0 a86.0,86.0 0 0,1 42.46469731375804,11.215312516191453" fill="none" id="id49" stroke="none" /><text fill="#e1ed5e" style="font-size:6.75px; font-family:Arial;" text-anchor="middle"><textPath startOffset="22.20632615414155" xlink:href="#id49">January</textPath></text><path d="M 100.0 79.0 l 0.0 -36.329455833454276 a57.329455833454276,57.329455833454276 0 0,0 0.9868323414814428,0.008493977517219925 l -0.6253518622089145 36.324073232545615" fill="#80ff25" stroke="none" /><path d="M 100.72285384407766 79.0124445844662 l 1.8566517600283012 -53.90658432571871 a74.93854826952463,74.93854826952463 0 0,0 1.2887973197606388,0.05549832364607039 l -2.784289912178272 53.866638275548446" fill="#40ffc3" stroke="none" /><path d="M 101.80526077348638 79.07773832637324 l 2.3206382557798353 -26.895283800737243 a47.995215365623366,47.995215365623366 0 0,0 0.8224891442847652,0.07810525480937763 l -2.7832525271548447 26.851353001412686" fill="#ffff18" stroke="none" /><path d="M 102.16513564639614 79.11191278185805 l 2.34635139841503 -22.636361253430437 a43.75764081974779,43.75764081974779 0 0,0 0.7485334075388289,0.08410645000309698 l -2.735651509463584 22.59261884995674" fill="#ffc011" stroke="none" /><path d="M 102.52436894288641 79.15227682838746 l 3.181371020552128 -26.273632675430107 a47.465541663337206,47.465541663337206 0 0,0 0.8102713137954086,0.10519647147305931 l -3.633157062855383 26.21497788079291" fill="#fff717" stroke="none" /><path d="M 103.2404852339499 79.25152402106235 l 3.069092987231732 -19.65106998654141 a40.88929067061527,40.88929067061527 0 0,0 0.6944769411384111,0.11459464579588806 l -3.4068991345090183 19.595329077805893" fill="#ff930d" stroke="none" /><path d="M 103.59715602781102 79.31037775812273 l 9.461336970029198 -54.41840339968019 a76.23476736468405,76.23476736468405 0 0,0 1.2909264388793806,0.2359085553110676 l -10.396658530011479 54.247479363018385" fill="#41ffd3" stroke="none" /><path d="M 104.307194497241 79.44645832069477 l 4.705303725243874 -22.453282825407257 a43.94100679535496,43.94100679535496 0 0,0 0.738956488466613,0.16150726688947767 l -5.091102937864014 22.36896206042191" fill="#ffc312" stroke="none" /><path d="M 105.01212808612495 79.60689891045804 l 6.136416453303501 -24.967550491411583 a46.71058506587434,46.71058506587434 0 0,0 0.7791572739475141,0.19862453778960976 l -6.565282615936041 24.858222957453105" fill="#ffec16" stroke="none" /><path d="M 105.36241919743992 79.69619591428918 l 6.1792910625813 -23.39673764839794 a45.19898697516197,45.19898697516197 0 0,0 0.7505229601518563,0.20514627617857079 l -6.581111911956867 23.286904831393077" fill="#ffd614" stroke="none" /><path d="M 105.71112130821622 79.79150937346287 l 4.961071022817593 -17.554478683190087 a39.242037921570486,39.242037921570486 0 0,0 0.6484462397739614,0.1892992389566999 l -5.262507480314982 17.466481115314686" fill="#ff790b" stroke="none" /><path d="M 106.0581310904928 79.89281104454417 l 14.154505430564315 -46.97939199599449 a70.06539815692099,70.06539815692099 0 0,0 1.1517904909817434,0.3578669121768494 l -14.961081294256777 46.72878494893512" fill="#38ff84" stroke="none" /><path d="M 106.74666289553966 80.11325718540242 l 9.03055350859077 -26.618833322402356 a49.10895202808812,49.10895202808812 0 0,0 0.7981794804180891,0.27846914805293926 l -9.487414993072134 26.45944332117721" fill="#efff19" stroke="none" /><path d="M 107.4271985657038 80.35727306442388 l 10.986061769450808 -29.05485958476532 a52.062492151992856,52.062492151992856 0 0,0 0.835520777490205,0.32416908107210535 l -11.48456571194068 28.86144779980267" fill="#c6ff1e" stroke="none" /><path d="M 107.76421540070413 80.48803036053334 l 11.052187090289403 -27.77485268323119 a50.89303064351212,50.89303064351212 0 0,0 0.8111770610436189,0.33089949064271845 l -11.528648020921409 27.580492306404892" fill="#d6ff1c" stroke="none" /><path d="M 108.09893153111575 80.62456947434976 l 7.586517237922981 -18.14955924868454 a40.67134323636322,40.67134323636322 0 0,0 0.6436070452346907,0.27555894828843397 l -7.897808040947987 18.016280772433316" fill="#ff900d" stroke="none" /><path d="M 108.43124777332544 80.76684994638697 l 23.411643276521257 -53.40605094818554 a79.31218842392448,79.31218842392448 0 0,0 1.2456465697972539,0.5588853061420448 l -24.32747196478529 52.99514531152696" fill="#46fff7" stroke="none" /><path d="M 109.08828744355905 81.06846463323043 l 12.893009724472419 -26.8570367188307 a50.791443756084746,50.791443756084746 0 0,0 0.7849182328034808,0.3851559679742097 l -13.353399224286331 26.63112559072166" fill="#d7ff1c" stroke="none" /><path d="M 109.41281617654863 81.2277094730956 l 11.582823408841534 -23.100007699537297 a46.84128777439487,46.84128777439487 0 0,0 0.7176520518689805,0.3676092547242124 l -11.97873594829927 22.897205919500585" fill="#ffee16" stroke="none" /><path d="M 109.73455568895987 81.39251694778311 l 13.810146142240187 -26.39792390132499 a50.79212182390131,50.79212182390131 0 0,0 0.7712056971851621,0.4119513748916628 l -14.262496885953661 26.156293799931575" fill="#d7ff1c" stroke="none" /><path d="M 110.36928655335952 81.73862282372117 l 8.760887381487306 -15.428821264507155 a38.74265124842428,38.74265124842428 0 0,0 0.5770870430220639,0.3342860637096042 l -9.025171156974698 15.275731043407502" fill="#ff710a" stroke="none" /><line stroke="#e1ed5e" stroke-width="0.3" x1="143.23703022742887" x2="145.7803849466894" y1="26.81831364943548" y2="22.513508569990506" /><path d="M 143.74570117128098 25.957352633546492 a86.0,86.0 0 0,1 28.547481713284135,27.462654790039103" fill="none" id="id50" stroke="none" /><text fill="#e1ed5e" style="font-size:6.75px; font-family:Arial;" text-anchor="middle"><textPath startOffset="19.985693538727396" xlink:href="#id50">February</textPath></text><path d="M 110.68208982089419 81.91981866633111 l 26.30016905999976 -44.51486868991134 a72.70369838865125,72.70369838865125 0 0,0 1.0719915689237167,0.6458629256810071 l -27.062522695141116 44.055559154771714" fill="#3cffa7" stroke="none" /><path d="M 111.2981086023043 82.29822771554956 l 16.027685496371827 -25.11202971138883 a50.79095061585453,50.79095061585453 0 0,0 0.7329206108745783,0.4767119528259624 l -16.457573133030685 24.832418834403338" fill="#d7ff1c" stroke="none" /><path d="M 111.60114157652 82.49532879139004 l 14.393578559529914 -21.718109251404186 a47.05477639906525,47.05477639906525 0 0,0 0.6713042911861807,0.4532676540466942 l -14.765287545122638 21.467129685058822" fill="#fff116" stroke="none" /><path d="M 111.90073688211348 82.69761687909136 l 17.540359450394 -25.501783821916597 a51.951658885248676,51.951658885248676 0 0,0 0.7324413544235462,0.5131219760170589 l -17.976731944401198 25.196077003135603" fill="#c7ff1e" stroke="none" /><path d="M 112.48926042617603 83.11751280151076 l 12.105588377624704 -16.36385453113689 a41.35487669048112,41.35487669048112 0 0,0 0.5686371288202009,0.42828569634337954 l -12.385471660203288 16.153052245287665" fill="#ff9b0e" stroke="none" /><path d="M 112.77801427241765 83.33499621200491 l 35.234739897056656 -45.95292048788525 a78.90645729950279,78.90645729950279 0 0,0 1.0707510246695633,0.835738158725919 l -36.02052347688565 45.339603939936104" fill="#45fff3" stroke="none" /><path d="M 113.34407831869373 83.78471172551755 l 18.94975629213927 -23.02712511644683 a50.82183352277268,50.82183352277268 0 0,0 0.6707089580359484,0.5616994637980729 l -19.343322787134333 22.69752449525494" fill="#d7ff1c" stroke="none" /><path d="M 113.6212207817346 84.01681056812373 l 18.01898702247968 -21.143544148187363 a48.78008913705352,48.78008913705352 0 0,0 0.6343878498044253,0.5501348919887188 l -18.38026867093087 20.830244262778972" fill="#f4ff19" stroke="none" /><path d="M 114.16331599549186 84.49514656593476 l 23.80875007509513 -26.063894957942022 a56.301320095953606,56.301320095953606 0 0,0 0.709911699683394,0.6597855558837078 l -24.25386965857337 25.650204815983674" fill="#8dff24" stroke="none" /><path d="M 114.42810811169701 84.74124197986012 l 18.549692636172278 -19.61762894290041 a47.99893446485968,47.99893446485968 0 0,0 0.5954536531831119,0.5728259425848427 l -18.88462953296781 19.295419913553264" fill="#ffff18" stroke="none" /><path d="M 114.94478906791727 85.2469230424477 l 16.157679705429604 -15.950408605057973 a43.704320032354175,43.704320032354175 0 0,0 0.5239018658428399,0.5399269250251932 l -16.429845834975552 15.669917484482665" fill="#ffbf11" stroke="none" /><path d="M 115.4437574822437 85.77008943001954 l 21.35518115555743 -19.67670875424585 a50.03819260191809,50.03819260191809 0 0,0 0.5781945546159554,0.6384568684644488 l -21.690719350789422 19.306199098511854" fill="#e2ff1b" stroke="none" /><path d="M 116.15771136456269 86.58626213691792 l 28.37362022940976 -23.555087437610375 a57.87688258402872,57.87688258402872 0 0,0 0.6297597592555806,0.7720110012152215 l -28.774878480741748 23.063192266787052" fill="#79ff26" stroke="none" /><path d="M 117.04232023915458 87.72973835380427 l 17.975348037112056 -12.942030222507857 a43.14970165342222,43.14970165342222 0 0,0 0.42879991401413076,0.606507068889507 l -18.19546057093007 12.630696653286556" fill="#ffb710" stroke="none" /><path d="M 117.45458315368197 88.32363383020206 l 31.04689506794149 -20.769038828183508 a58.353214951411665,58.353214951411665 0 0,0 0.5513082944782055,0.8396803555783103 l -31.399799997777624 20.231540408627524" fill="#73ff27" stroke="none" /><path d="M 117.65298651832404 88.62581576622439 l 9.269400525446931 -5.972466426779975 a32.02688266556645,32.02688266556645 0 0,0 0.29460523377410497,0.46599473023071153 l -9.370833355466992 5.812024048835057" fill="#ff0000" stroke="none" /><line stroke="#e1ed5e" stroke-width="0.3" x1="172.23445277983987" x2="176.4835382374775" y1="55.19839476539836" y2="52.563006222186495" /><path d="M 173.08426987136738 54.67131705675599 a86.0,86.0 0 0,1 12.851231095245387,41.99856678651699" fill="none" id="id51" stroke="none" /><text fill="#e1ed5e" style="font-size:6.75px; font-family:Arial;" text-anchor="middle"><textPath startOffset="22.20632615414155" xlink:href="#id51">March</textPath></text><path d="M 117.84615892207809 88.93136811851018 l 21.441757760002684 -13.298711760542338 a46.2310267394853,46.2310267394853 0 0,0 0.4136228358741158,0.6798871873751526 l -21.66749639416302 12.927656799960102" fill="#ffe515" stroke="none" /><path d="M 118.21658344932153 89.55222093294921 l 26.12484307524915 -14.983412744267405 a51.11660809539262,51.11660809539262 0 0,0 0.4311865012927697,0.7670326727170867 l -26.37888721783435 14.531496561615524" fill="#d3ff1c" stroke="none" /><path d="M 118.3937258080291 89.86733742301442 l 21.603764858167782 -11.9009961323224 a45.664881207671726,45.664881207671726 0 0,0 0.3733471549289602,0.6917555764773626 l -21.805420112315204 11.527359572512578" fill="#ffdd14" stroke="none" /><path d="M 118.56541770881063 90.18545643968196 l 27.573311526540856 -14.576535326270973 a52.18914700112359,52.18914700112359 0 0,0 0.41301637728603535,0.7978161804440663 l -27.820137336987006 14.099746423566561" fill="#c4ff1e" stroke="none" /><path d="M 118.89224826269711 90.83032412892265 l 15.862663814452736 -7.69921523409164 a38.632413859458296,38.632413859458296 0 0,0 0.2852209152868183,0.6007479879961719 l -15.99284292358131 7.425024830454928" fill="#ff6f0a" stroke="none" /><path d="M 119.04729006885535 91.15688171328212 l 45.196658347212946 -20.98353070090027 a70.83017646396928,70.83017646396928 0 0,0 0.5038982977521087,1.1102731048462673 l -45.5511589619284 20.202435587211944" fill="#39ff8e" stroke="none" /><path d="M 119.34039704204932 91.81776055985345 l 28.76637618674684 -12.170038560922533 a52.23482411494864,52.23482411494864 0 0,0 0.3432034722465138,0.8310944307001606 l -28.97160134587955 11.67306955976907" fill="#c3ff1e" stroke="none" /><path d="M 119.47837535516314 92.15188598940014 l 19.069820964081877 -7.683501645231968 a41.55952988602655,41.55952988602655 0 0,0 0.26163990070556903,0.6658450088674772 l -19.19925441466915 7.354107631468707" fill="#ff9e0e" stroke="none" /><path d="M 119.85752413597 93.16781622104841 l 14.81297150519199 -5.096553978374459 a36.66521583854223,36.66521583854223 0 0,0 0.20019680345187674,0.5985629607910028 l -14.898505602415637 4.840817914661143" fill="#ff4f07" stroke="none" /><path d="M 119.97218684219823 93.5106431181261 l 59.91656052659467 -19.46807064562169 a84.0,84.0 0 0,0 0.4349780649271753,1.3789993342943234 l -60.24279407529006 18.433821144900946" fill="#4dd2ff" stroke="none" /><path d="M 120.18372546131832 94.20196356495316 l 19.452670097633668 -5.588031317666342 a41.23937913905935,41.23937913905935 0 0,0 0.1901198797281187,0.6839623622930785 l -19.545976747928147 5.252357651954312" fill="#ff990e" stroke="none" /><path d="M 120.37134235888165 94.90015583598534 l 22.02500051671655 -5.513827629460295 a43.70468988752685,43.70468988752685 0 0,0 0.1764154370111873,0.7313558796296544 l -22.116648753988553 5.133886518171233" fill="#ffbf11" stroke="none" /><path d="M 120.53481517161879 95.60439243477599 l 24.952807755730298 -5.341306928160784 a46.518075448498315,46.518075448498315 0 0,0 0.1608654948452021,0.7844372830828747 l -25.041052546490498 4.910993988914497" fill="#ffe915" stroke="none" /><path d="M 120.6074358757038 95.95851677861258 l 36.667795605685505 -7.191204262358553 a58.36630371502235,58.36630371502235 0 0,0 0.18486630665057152,0.9875632022583669 l -36.786147636245936 6.558962982637622" fill="#73ff27" stroke="none" /><line stroke="#e1ed5e" stroke-width="0.3" x1="184.98032266829074" x2="189.97916517819016" y1="98.17113171792111" y2="98.06355123074" /><path d="M 185.9800911702706 98.14961562048488 a86.0,86.0 0 0,1 -9.607161424134198,41.387399972396054" fill="none" id="id52" stroke="none" /><text fill="#e1ed5e" style="font-size:6.75px; font-family:Arial;" text-anchor="middle"><textPath startOffset="21.466115282336823" xlink:href="#id52">April</textPath></text><line stroke="#e1ed5e" stroke-width="0.3" x1="174.80103733775053" x2="179.2010983576182" y1="140.37084112569926" y2="142.7455964860345" /><path d="M 175.68104954172406 140.8457921977663 a86.0,86.0 0 0,1 -30.038265399797805,32.042727171017184" fill="none" id="id53" stroke="none" /><text fill="#e1ed5e" style="font-size:6.75px; font-family:Arial;" text-anchor="middle"><textPath startOffset="22.206326154141568" xlink:href="#id53">May</textPath></text><line stroke="#e1ed5e" stroke-width="0.3" x1="143.8653032363475" x2="146.44561519142675" y1="172.8068346515853" y2="177.08958963109032" /><path d="M 144.38136562736335 173.6633856474863 a86.0,86.0 0 0,1 -40.68145358897372,12.25698825130547" fill="none" id="id54" stroke="none" /><text fill="#e1ed5e" style="font-size:6.75px; font-family:Arial;" text-anchor="middle"><textPath startOffset="21.466115282336833" xlink:href="#id54">June</textPath></text><line stroke="#e1ed5e" stroke-width="0.3" x1="102.19456741930631" x2="102.32365962044197" y1="184.97166512339345" y2="189.96999836594603" /><path d="M 102.22038585953345 185.97133177190398 a86.0,86.0 0 0,1 -42.740103519485714,-10.115201625700543" fill="none" id="id55" stroke="none" /><text fill="#e1ed5e" style="font-size:6.75px; font-family:Arial;" text-anchor="middle"><textPath startOffset="22.20632615414155" xlink:href="#id55">July</textPath></text><line stroke="#e1ed5e" stroke-width="0.3" x1="58.666819895761336" x2="56.23545636021788" y1="174.27360380694188" y2="178.64263932499728" /><path d="M 58.180547188652646 175.14741091055294 a86.0,86.0 0 0,1 -31.652253787137756,-30.449443065178592" fill="none" id="id56" stroke="none" /><text fill="#e1ed5e" style="font-size:6.75px; font-family:Arial;" text-anchor="middle"><textPath startOffset="22.20632615414155" xlink:href="#id56">August</textPath></text><line stroke="#e1ed5e" stroke-width="0.3" x1="26.63291911575756" x2="22.317208475507996" y1="142.92168965132927" y2="145.44649492493687" /><path d="M 25.769776987707644 143.4266507060508 a86.0,86.0 0 0,1 -11.730757126820373,-40.83630448921669" fill="none" id="id57" stroke="none" /><text fill="#e1ed5e" style="font-size:6.75px; font-family:Arial;" text-anchor="middle"><textPath startOffset="21.46611528233685" xlink:href="#id57">September</textPath></text><line stroke="#e1ed5e" stroke-width="0.3" x1="15.007084014347285" x2="10.007500721073583" y1="101.09737516637583" y2="101.16192664675087" /><path d="M 14.007167355692545 101.11028546245083 a86.0,86.0 0 0,1 10.666146001902534,-42.60595125391555" fill="none" id="id58" stroke="none" /><text fill="#e1ed5e" style="font-size:6.75px; font-family:Arial;" text-anchor="middle"><textPath startOffset="22.20632615414155" xlink:href="#id58">October</textPath></text><line stroke="#e1ed5e" stroke-width="0.3" x1="26.266209847984243" x2="21.928928074336255" y1="57.711370442889674" y2="55.22380399835377" /><path d="M 25.398753493254645 57.213857153982495 a86.0,86.0 0 0,1 29.58750427330803,-30.492523968695096" fill="none" id="id59" stroke="none" /><text fill="#e1ed5e" style="font-size:6.75px; font-family:Arial;" text-anchor="middle"><textPath startOffset="21.46611528233685" xlink:href="#id59">November</textPath></text><line stroke="#e1ed5e" stroke-width="0.3" x1="56.762969772571076" x2="54.21961505331055" y1="26.818313649435495" y2="22.513508569990535" /><path d="M 56.25429882871897 25.957352633546506 a86.0,86.0 0 0,1 42.265352541879196,-11.944610805530505" fill="none" id="id60" stroke="none" /><text fill="#e1ed5e" style="font-size:6.75px; font-family:Arial;" text-anchor="middle"><textPath startOffset="22.20632615414155" xlink:href="#id60">December</textPath></text></svg>